G04 EAGLE Gerber RS-274X export*
G75*
%MOMM*%
%FSLAX34Y34*%
%LPD*%
%INSolderpaste Top*%
%IPPOS*%
%AMOC8*
5,1,8,0,0,1.08239X$1,22.5*%
G01*
%ADD10R,1.320800X2.209800*%
%ADD11R,10.210800X10.007600*%
%ADD12R,1.450000X1.700000*%
%ADD13R,1.018200X1.700000*%
%ADD14C,0.254000*%


D10*
X282956Y1379093D03*
X225044Y1379093D03*
D11*
X254000Y1281684D03*
D10*
X460756Y1379093D03*
X402844Y1379093D03*
D11*
X431800Y1281684D03*
D12*
X228600Y778500D03*
X254000Y778500D03*
X279400Y778500D03*
X279400Y872500D03*
D13*
X254000Y872500D03*
D12*
X228600Y872500D03*
X406400Y778500D03*
X431800Y778500D03*
X457200Y778500D03*
X457200Y872500D03*
D13*
X431800Y872500D03*
D12*
X406400Y872500D03*
D10*
X225044Y1021207D03*
X282956Y1021207D03*
D11*
X254000Y1118616D03*
D10*
X404114Y1019937D03*
X462026Y1019937D03*
D11*
X433070Y1117346D03*
D14*
X0Y136000D02*
X76Y134257D01*
X304Y132527D01*
X681Y130824D01*
X1206Y129160D01*
X1874Y127548D01*
X2680Y126000D01*
X3617Y124528D01*
X4679Y123144D01*
X5858Y121858D01*
X7144Y120679D01*
X8528Y119617D01*
X10000Y118680D01*
X11548Y117874D01*
X13160Y117206D01*
X14824Y116681D01*
X16527Y116304D01*
X18257Y116076D01*
X20000Y116000D01*
X430000Y116000D01*
X431743Y115924D01*
X433473Y115696D01*
X435176Y115319D01*
X436840Y114794D01*
X438452Y114126D01*
X440000Y113321D01*
X441472Y112383D01*
X442856Y111321D01*
X444142Y110142D01*
X445321Y108856D01*
X446383Y107472D01*
X447321Y106000D01*
X448126Y104452D01*
X448794Y102840D01*
X449319Y101176D01*
X449696Y99473D01*
X449924Y97743D01*
X450000Y96000D01*
X450000Y20000D01*
X450076Y18257D01*
X450304Y16527D01*
X450681Y14824D01*
X451206Y13160D01*
X451874Y11548D01*
X452680Y10000D01*
X453617Y8528D01*
X454679Y7144D01*
X455858Y5858D01*
X457144Y4679D01*
X458528Y3617D01*
X460000Y2680D01*
X461548Y1874D01*
X463160Y1206D01*
X464824Y681D01*
X466527Y304D01*
X468257Y76D01*
X470000Y0D01*
X1052340Y0D01*
X1054083Y76D01*
X1055813Y304D01*
X1057516Y681D01*
X1059180Y1206D01*
X1060792Y1874D01*
X1062340Y2680D01*
X1063812Y3617D01*
X1065196Y4679D01*
X1066482Y5858D01*
X1067661Y7144D01*
X1068723Y8528D01*
X1069661Y10000D01*
X1070466Y11548D01*
X1071134Y13160D01*
X1071659Y14824D01*
X1072036Y16527D01*
X1072264Y18257D01*
X1072340Y20000D01*
X1072340Y70006D01*
X1072515Y74013D01*
X1073038Y77989D01*
X1073907Y81905D01*
X1075113Y85730D01*
X1076647Y89435D01*
X1078499Y92993D01*
X1080654Y96376D01*
X1083096Y99558D01*
X1085805Y102515D01*
X1088762Y105224D01*
X1091944Y107666D01*
X1095327Y109821D01*
X1098885Y111673D01*
X1102590Y113207D01*
X1106415Y114413D01*
X1110331Y115282D01*
X1114307Y115805D01*
X1118314Y115980D01*
X1161128Y115980D01*
X1162871Y116056D01*
X1164601Y116284D01*
X1166304Y116661D01*
X1167968Y117186D01*
X1169580Y117854D01*
X1171128Y118660D01*
X1172600Y119597D01*
X1173984Y120659D01*
X1175270Y121838D01*
X1176449Y123124D01*
X1177511Y124508D01*
X1178449Y125980D01*
X1179254Y127528D01*
X1179922Y129140D01*
X1180447Y130804D01*
X1180824Y132507D01*
X1181052Y134237D01*
X1181128Y135980D01*
X1181128Y1530000D01*
X1181052Y1531743D01*
X1180824Y1533473D01*
X1180447Y1535176D01*
X1179922Y1536840D01*
X1179254Y1538452D01*
X1178449Y1540000D01*
X1177511Y1541472D01*
X1176449Y1542856D01*
X1175270Y1544142D01*
X1173984Y1545321D01*
X1172600Y1546383D01*
X1171128Y1547321D01*
X1169580Y1548126D01*
X1167968Y1548794D01*
X1166304Y1549319D01*
X1164601Y1549696D01*
X1162871Y1549924D01*
X1161128Y1550000D01*
X1091128Y1550000D01*
X1089385Y1550076D01*
X1087655Y1550304D01*
X1085952Y1550681D01*
X1084288Y1551206D01*
X1082676Y1551874D01*
X1081128Y1552680D01*
X1079656Y1553617D01*
X1078272Y1554679D01*
X1076986Y1555858D01*
X1075807Y1557144D01*
X1074745Y1558528D01*
X1073808Y1560000D01*
X1073002Y1561548D01*
X1072334Y1563160D01*
X1071809Y1564824D01*
X1071432Y1566527D01*
X1071204Y1568257D01*
X1071128Y1570000D01*
X1071128Y1630032D01*
X1071094Y1631798D01*
X1070904Y1633575D01*
X1070560Y1635329D01*
X1070065Y1637047D01*
X1069422Y1638715D01*
X1068636Y1640320D01*
X1067713Y1641851D01*
X1066660Y1643296D01*
X1065485Y1644643D01*
X1064198Y1645883D01*
X1062807Y1647006D01*
X1061323Y1648003D01*
X1059759Y1648867D01*
X1058124Y1649592D01*
X1056433Y1650171D01*
X1054698Y1650601D01*
X1052932Y1650878D01*
X1051149Y1651000D01*
X129986Y1651000D01*
X128244Y1650923D01*
X126515Y1650695D01*
X124812Y1650317D01*
X123149Y1649792D01*
X121538Y1649124D01*
X119991Y1648318D01*
X118520Y1647381D01*
X117137Y1646319D01*
X115851Y1645140D01*
X114673Y1643853D01*
X113612Y1642469D01*
X112675Y1640998D01*
X111870Y1639451D01*
X111204Y1637839D01*
X110680Y1636176D01*
X110303Y1634473D01*
X110076Y1632744D01*
X110000Y1631001D01*
X110000Y1570000D01*
X109924Y1568257D01*
X109696Y1566527D01*
X109319Y1564824D01*
X108794Y1563160D01*
X108126Y1561548D01*
X107321Y1560000D01*
X106383Y1558528D01*
X105321Y1557144D01*
X104142Y1555858D01*
X102856Y1554679D01*
X101472Y1553617D01*
X100000Y1552680D01*
X98452Y1551874D01*
X96840Y1551206D01*
X95176Y1550681D01*
X93473Y1550304D01*
X91743Y1550076D01*
X90000Y1550000D01*
X20000Y1550000D01*
X18257Y1549924D01*
X16527Y1549696D01*
X14824Y1549319D01*
X13160Y1548794D01*
X11548Y1548126D01*
X10000Y1547321D01*
X8528Y1546383D01*
X7144Y1545321D01*
X5858Y1544142D01*
X4679Y1542856D01*
X3617Y1541472D01*
X2680Y1540000D01*
X1874Y1538452D01*
X1206Y1536840D01*
X681Y1535176D01*
X304Y1533473D01*
X76Y1531743D01*
X0Y1530000D01*
X0Y136000D01*
M02*
