G04 EAGLE Gerber RS-274X export*
G75*
%MOMM*%
%FSLAX34Y34*%
%LPD*%
%INTop Copper*%
%IPPOS*%
%AMOC8*
5,1,8,0,0,1.08239X$1,22.5*%
G01*
%ADD10R,1.320800X2.209800*%
%ADD11R,10.210800X10.007600*%
%ADD12R,1.450000X1.700000*%
%ADD13R,1.018200X1.700000*%
%ADD14C,1.508000*%
%ADD15C,3.810000*%
%ADD16C,2.032000*%
%ADD17C,2.540000*%
%ADD18C,5.842000*%
%ADD19C,10.261600*%
%ADD20C,1.016000*%
%ADD21C,3.429000*%
%ADD22C,3.810000*%
%ADD23C,1.397000*%
%ADD24C,0.762000*%

G36*
X990764Y25412D02*
X990764Y25412D01*
X990923Y25410D01*
X991267Y25432D01*
X991612Y25446D01*
X991770Y25465D01*
X991929Y25475D01*
X992270Y25524D01*
X992613Y25565D01*
X992769Y25597D01*
X992926Y25620D01*
X993262Y25696D01*
X993601Y25764D01*
X993754Y25808D01*
X993909Y25843D01*
X994238Y25946D01*
X994570Y26040D01*
X994719Y26096D01*
X994871Y26144D01*
X995190Y26272D01*
X995514Y26393D01*
X995658Y26460D01*
X995806Y26519D01*
X996115Y26673D01*
X996427Y26819D01*
X996565Y26897D01*
X996708Y26968D01*
X997004Y27146D01*
X997304Y27316D01*
X997435Y27405D01*
X997572Y27487D01*
X997853Y27688D01*
X998138Y27881D01*
X998262Y27981D01*
X998392Y28073D01*
X998655Y28295D01*
X998925Y28511D01*
X999041Y28620D01*
X999163Y28722D01*
X999585Y29125D01*
X1044071Y73611D01*
X1044359Y73923D01*
X1044651Y74231D01*
X1044701Y74293D01*
X1044755Y74352D01*
X1045017Y74686D01*
X1045283Y75016D01*
X1045328Y75081D01*
X1045378Y75144D01*
X1045613Y75498D01*
X1045852Y75848D01*
X1045891Y75916D01*
X1045936Y75983D01*
X1046142Y76354D01*
X1046353Y76722D01*
X1046387Y76794D01*
X1046425Y76864D01*
X1046602Y77250D01*
X1046783Y77633D01*
X1046811Y77708D01*
X1046844Y77780D01*
X1046989Y78179D01*
X1047139Y78576D01*
X1047161Y78653D01*
X1047188Y78727D01*
X1047301Y79136D01*
X1047419Y79544D01*
X1047442Y79647D01*
X1047457Y79699D01*
X1047474Y79788D01*
X1047546Y80114D01*
X1049677Y90827D01*
X1053219Y99378D01*
X1053255Y99474D01*
X1053296Y99567D01*
X1053429Y99945D01*
X1053568Y100323D01*
X1053595Y100422D01*
X1053629Y100518D01*
X1053732Y100907D01*
X1053840Y101294D01*
X1053860Y101394D01*
X1053886Y101493D01*
X1053957Y101887D01*
X1054035Y102282D01*
X1054046Y102384D01*
X1054064Y102484D01*
X1054104Y102884D01*
X1054150Y103284D01*
X1054154Y103385D01*
X1054164Y103487D01*
X1054172Y103890D01*
X1054186Y104291D01*
X1054181Y104392D01*
X1054183Y104495D01*
X1054159Y104896D01*
X1054142Y105297D01*
X1054129Y105399D01*
X1054123Y105501D01*
X1054067Y105897D01*
X1054018Y106298D01*
X1053997Y106398D01*
X1053983Y106499D01*
X1053896Y106891D01*
X1053815Y107285D01*
X1053787Y107382D01*
X1053765Y107482D01*
X1053646Y107868D01*
X1053535Y108253D01*
X1053499Y108348D01*
X1053469Y108446D01*
X1053320Y108820D01*
X1053178Y109195D01*
X1053135Y109288D01*
X1053097Y109383D01*
X1052920Y109743D01*
X1052749Y110107D01*
X1052698Y110195D01*
X1052653Y110287D01*
X1052448Y110632D01*
X1052248Y110981D01*
X1052190Y111066D01*
X1052138Y111153D01*
X1051906Y111481D01*
X1051679Y111813D01*
X1051615Y111893D01*
X1051556Y111976D01*
X1051298Y112285D01*
X1051046Y112598D01*
X1050976Y112671D01*
X1050911Y112750D01*
X1050629Y113038D01*
X1050353Y113329D01*
X1050278Y113398D01*
X1050206Y113471D01*
X1049903Y113735D01*
X1049605Y114004D01*
X1049523Y114066D01*
X1049447Y114133D01*
X1049125Y114371D01*
X1048805Y114617D01*
X1048719Y114672D01*
X1048637Y114733D01*
X1048297Y114945D01*
X1047959Y115164D01*
X1047869Y115213D01*
X1047782Y115267D01*
X1047426Y115452D01*
X1047072Y115643D01*
X1046979Y115684D01*
X1046888Y115731D01*
X1046517Y115888D01*
X1046150Y116050D01*
X1046054Y116083D01*
X1045960Y116123D01*
X1045577Y116250D01*
X1045199Y116382D01*
X1045100Y116408D01*
X1045003Y116440D01*
X1044613Y116536D01*
X1044224Y116638D01*
X1044123Y116657D01*
X1044024Y116681D01*
X1043628Y116745D01*
X1043232Y116816D01*
X1043130Y116826D01*
X1043030Y116843D01*
X1042630Y116876D01*
X1042229Y116915D01*
X1042127Y116917D01*
X1042025Y116926D01*
X1041623Y116927D01*
X1041222Y116934D01*
X1041120Y116928D01*
X1041018Y116928D01*
X1040617Y116897D01*
X1040216Y116873D01*
X1040115Y116859D01*
X1040013Y116851D01*
X1039615Y116789D01*
X1039218Y116733D01*
X1039118Y116710D01*
X1039017Y116695D01*
X1038448Y116568D01*
X1035917Y115944D01*
X1025893Y115944D01*
X1016159Y118343D01*
X1007283Y123002D01*
X999779Y129650D01*
X994084Y137900D01*
X990529Y147273D01*
X989321Y157225D01*
X990529Y167177D01*
X994084Y176550D01*
X999779Y184800D01*
X1007283Y191448D01*
X1016159Y196107D01*
X1025893Y198506D01*
X1035917Y198506D01*
X1045651Y196107D01*
X1054527Y191448D01*
X1062031Y184800D01*
X1067726Y176550D01*
X1071281Y167177D01*
X1072489Y157225D01*
X1071410Y148337D01*
X1071382Y147995D01*
X1071345Y147654D01*
X1071341Y147493D01*
X1071328Y147332D01*
X1071327Y146989D01*
X1071318Y146647D01*
X1071326Y146486D01*
X1071326Y146324D01*
X1071353Y145983D01*
X1071371Y145640D01*
X1071392Y145481D01*
X1071404Y145320D01*
X1071458Y144981D01*
X1071503Y144641D01*
X1071537Y144484D01*
X1071562Y144324D01*
X1071642Y143991D01*
X1071714Y143656D01*
X1071760Y143502D01*
X1071798Y143345D01*
X1071904Y143018D01*
X1072002Y142690D01*
X1072061Y142540D01*
X1072111Y142387D01*
X1072243Y142071D01*
X1072367Y141751D01*
X1072437Y141605D01*
X1072499Y141457D01*
X1072655Y141152D01*
X1072804Y140843D01*
X1072885Y140704D01*
X1072959Y140560D01*
X1073139Y140269D01*
X1073312Y139973D01*
X1073404Y139840D01*
X1073489Y139703D01*
X1073692Y139427D01*
X1073888Y139145D01*
X1073990Y139021D01*
X1074085Y138891D01*
X1074309Y138632D01*
X1074527Y138366D01*
X1074639Y138250D01*
X1074744Y138128D01*
X1074988Y137888D01*
X1075226Y137641D01*
X1075347Y137534D01*
X1075462Y137420D01*
X1075724Y137200D01*
X1075981Y136972D01*
X1076109Y136875D01*
X1076233Y136772D01*
X1076512Y136572D01*
X1076786Y136366D01*
X1076921Y136280D01*
X1077053Y136186D01*
X1077347Y136009D01*
X1077636Y135826D01*
X1077779Y135750D01*
X1077917Y135667D01*
X1078223Y135515D01*
X1078527Y135354D01*
X1078675Y135290D01*
X1078819Y135219D01*
X1079137Y135091D01*
X1079452Y134955D01*
X1079605Y134903D01*
X1079754Y134843D01*
X1080081Y134741D01*
X1080406Y134631D01*
X1080562Y134591D01*
X1080716Y134543D01*
X1081051Y134467D01*
X1081383Y134383D01*
X1081542Y134356D01*
X1081699Y134320D01*
X1082038Y134271D01*
X1082376Y134213D01*
X1082537Y134198D01*
X1082696Y134175D01*
X1083039Y134153D01*
X1083380Y134123D01*
X1083541Y134121D01*
X1083702Y134110D01*
X1084046Y134116D01*
X1084388Y134112D01*
X1084548Y134123D01*
X1084710Y134126D01*
X1085051Y134158D01*
X1085393Y134181D01*
X1085552Y134205D01*
X1085713Y134220D01*
X1086051Y134280D01*
X1086390Y134330D01*
X1086547Y134367D01*
X1086706Y134395D01*
X1087037Y134480D01*
X1087371Y134558D01*
X1087525Y134607D01*
X1087681Y134647D01*
X1088005Y134759D01*
X1088332Y134862D01*
X1088550Y134947D01*
X1088634Y134976D01*
X1088706Y135007D01*
X1088876Y135073D01*
X1097493Y138643D01*
X1108206Y140774D01*
X1108620Y140873D01*
X1109033Y140967D01*
X1109109Y140991D01*
X1109186Y141009D01*
X1109590Y141141D01*
X1109994Y141267D01*
X1110068Y141297D01*
X1110144Y141322D01*
X1110535Y141485D01*
X1110930Y141643D01*
X1111001Y141679D01*
X1111074Y141709D01*
X1111451Y141903D01*
X1111832Y142092D01*
X1111900Y142133D01*
X1111971Y142170D01*
X1112331Y142392D01*
X1112696Y142611D01*
X1112761Y142658D01*
X1112828Y142699D01*
X1113171Y142951D01*
X1113516Y143197D01*
X1113576Y143248D01*
X1113641Y143295D01*
X1113963Y143574D01*
X1114286Y143846D01*
X1114363Y143919D01*
X1114403Y143954D01*
X1114468Y144019D01*
X1114709Y144249D01*
X1152003Y181543D01*
X1152027Y181570D01*
X1152050Y181592D01*
X1152128Y181677D01*
X1152225Y181771D01*
X1152453Y182030D01*
X1152686Y182284D01*
X1152785Y182409D01*
X1152890Y182528D01*
X1153097Y182805D01*
X1153309Y183076D01*
X1153397Y183208D01*
X1153493Y183336D01*
X1153676Y183628D01*
X1153868Y183915D01*
X1153945Y184054D01*
X1154030Y184189D01*
X1154190Y184494D01*
X1154357Y184796D01*
X1154423Y184940D01*
X1154497Y185081D01*
X1154633Y185399D01*
X1154776Y185712D01*
X1154830Y185862D01*
X1154893Y186008D01*
X1155002Y186335D01*
X1155120Y186659D01*
X1155163Y186812D01*
X1155213Y186964D01*
X1155297Y187299D01*
X1155389Y187631D01*
X1155419Y187787D01*
X1155457Y187941D01*
X1155514Y188282D01*
X1155579Y188620D01*
X1155597Y188779D01*
X1155623Y188935D01*
X1155652Y189278D01*
X1155690Y189622D01*
X1155695Y189781D01*
X1155709Y189940D01*
X1155722Y190523D01*
X1155722Y1447777D01*
X1155719Y1447863D01*
X1155720Y1447934D01*
X1155717Y1447998D01*
X1155718Y1448095D01*
X1155696Y1448439D01*
X1155682Y1448784D01*
X1155664Y1448939D01*
X1155664Y1448940D01*
X1155663Y1448943D01*
X1155653Y1449101D01*
X1155604Y1449442D01*
X1155563Y1449785D01*
X1155531Y1449941D01*
X1155508Y1450098D01*
X1155432Y1450434D01*
X1155364Y1450773D01*
X1155320Y1450926D01*
X1155285Y1451081D01*
X1155182Y1451410D01*
X1155088Y1451742D01*
X1155032Y1451891D01*
X1154984Y1452043D01*
X1154856Y1452362D01*
X1154735Y1452686D01*
X1154668Y1452830D01*
X1154609Y1452978D01*
X1154455Y1453287D01*
X1154309Y1453599D01*
X1154231Y1453737D01*
X1154160Y1453880D01*
X1153982Y1454176D01*
X1153812Y1454476D01*
X1153723Y1454607D01*
X1153641Y1454744D01*
X1153440Y1455025D01*
X1153247Y1455310D01*
X1153147Y1455434D01*
X1153055Y1455564D01*
X1152833Y1455827D01*
X1152617Y1456097D01*
X1152508Y1456213D01*
X1152406Y1456335D01*
X1152003Y1456757D01*
X1086206Y1522553D01*
X1086025Y1522721D01*
X1085851Y1522895D01*
X1085655Y1523062D01*
X1085466Y1523237D01*
X1085272Y1523389D01*
X1085085Y1523549D01*
X1084876Y1523701D01*
X1084674Y1523860D01*
X1084468Y1523997D01*
X1084269Y1524141D01*
X1084049Y1524275D01*
X1083834Y1524418D01*
X1083619Y1524538D01*
X1083409Y1524666D01*
X1083179Y1524783D01*
X1082954Y1524908D01*
X1082730Y1525010D01*
X1082510Y1525122D01*
X1082272Y1525219D01*
X1082037Y1525327D01*
X1081805Y1525411D01*
X1081578Y1525504D01*
X1081332Y1525583D01*
X1081090Y1525671D01*
X1080852Y1525737D01*
X1080618Y1525812D01*
X1080180Y1525922D01*
X1080119Y1525939D01*
X1080094Y1525944D01*
X1080052Y1525955D01*
X1076037Y1526871D01*
X1066818Y1531311D01*
X1058818Y1537690D01*
X1052439Y1545690D01*
X1047999Y1554908D01*
X1047149Y1558634D01*
X1047098Y1558821D01*
X1047057Y1559009D01*
X1046967Y1559306D01*
X1046886Y1559607D01*
X1046821Y1559789D01*
X1046765Y1559974D01*
X1046651Y1560263D01*
X1046546Y1560556D01*
X1046467Y1560732D01*
X1046397Y1560912D01*
X1046261Y1561191D01*
X1046133Y1561475D01*
X1046040Y1561644D01*
X1045955Y1561818D01*
X1045797Y1562086D01*
X1045648Y1562358D01*
X1045542Y1562519D01*
X1045443Y1562686D01*
X1045265Y1562940D01*
X1045094Y1563200D01*
X1044976Y1563352D01*
X1044865Y1563511D01*
X1044667Y1563750D01*
X1044476Y1563995D01*
X1044345Y1564138D01*
X1044222Y1564287D01*
X1044006Y1564510D01*
X1043796Y1564739D01*
X1043655Y1564871D01*
X1043520Y1565010D01*
X1043286Y1565215D01*
X1043059Y1565427D01*
X1042908Y1565547D01*
X1042763Y1565675D01*
X1042513Y1565861D01*
X1042270Y1566054D01*
X1042110Y1566162D01*
X1041955Y1566278D01*
X1041692Y1566443D01*
X1041434Y1566617D01*
X1041266Y1566712D01*
X1041102Y1566815D01*
X1040827Y1566959D01*
X1040556Y1567111D01*
X1040381Y1567193D01*
X1040210Y1567282D01*
X1039924Y1567404D01*
X1039642Y1567535D01*
X1039460Y1567602D01*
X1039283Y1567678D01*
X1038988Y1567776D01*
X1038697Y1567884D01*
X1038511Y1567937D01*
X1038327Y1567998D01*
X1038026Y1568073D01*
X1037727Y1568158D01*
X1037537Y1568195D01*
X1037350Y1568242D01*
X1037043Y1568293D01*
X1036738Y1568354D01*
X1036546Y1568376D01*
X1036356Y1568408D01*
X1036046Y1568434D01*
X1035737Y1568470D01*
X1035544Y1568477D01*
X1035351Y1568494D01*
X1034768Y1568507D01*
X1025893Y1568507D01*
X1016159Y1570906D01*
X1007283Y1575565D01*
X999779Y1582213D01*
X994084Y1590463D01*
X990529Y1599836D01*
X989321Y1609788D01*
X989512Y1611364D01*
X989542Y1611733D01*
X989580Y1612100D01*
X989583Y1612234D01*
X989594Y1612369D01*
X989595Y1612739D01*
X989603Y1613107D01*
X989596Y1613242D01*
X989596Y1613376D01*
X989567Y1613744D01*
X989547Y1614113D01*
X989528Y1614247D01*
X989518Y1614381D01*
X989460Y1614746D01*
X989410Y1615112D01*
X989381Y1615243D01*
X989360Y1615376D01*
X989274Y1615736D01*
X989195Y1616096D01*
X989156Y1616225D01*
X989124Y1616356D01*
X989010Y1616708D01*
X988902Y1617061D01*
X988853Y1617186D01*
X988811Y1617314D01*
X988669Y1617656D01*
X988534Y1617999D01*
X988476Y1618120D01*
X988424Y1618244D01*
X988255Y1618573D01*
X988093Y1618905D01*
X988024Y1619021D01*
X987963Y1619141D01*
X987769Y1619454D01*
X987581Y1619773D01*
X987504Y1619883D01*
X987433Y1619998D01*
X987215Y1620295D01*
X987002Y1620598D01*
X986917Y1620701D01*
X986837Y1620810D01*
X986595Y1621090D01*
X986360Y1621374D01*
X986266Y1621470D01*
X986178Y1621573D01*
X985915Y1621832D01*
X985658Y1622097D01*
X985556Y1622186D01*
X985461Y1622280D01*
X985179Y1622518D01*
X984901Y1622762D01*
X984792Y1622843D01*
X984690Y1622929D01*
X984390Y1623143D01*
X984093Y1623365D01*
X983979Y1623437D01*
X983869Y1623515D01*
X983553Y1623705D01*
X983240Y1623902D01*
X983121Y1623964D01*
X983005Y1624034D01*
X982675Y1624198D01*
X982348Y1624369D01*
X982224Y1624422D01*
X982103Y1624482D01*
X981760Y1624620D01*
X981421Y1624765D01*
X981293Y1624808D01*
X981168Y1624858D01*
X980816Y1624968D01*
X980465Y1625085D01*
X980334Y1625118D01*
X980206Y1625158D01*
X979846Y1625240D01*
X979487Y1625329D01*
X979354Y1625351D01*
X979223Y1625381D01*
X978857Y1625434D01*
X978493Y1625495D01*
X978359Y1625506D01*
X978226Y1625525D01*
X977857Y1625549D01*
X977489Y1625581D01*
X977300Y1625585D01*
X977220Y1625590D01*
X977133Y1625589D01*
X976906Y1625594D01*
X736600Y1625594D01*
X736494Y1625590D01*
X736388Y1625592D01*
X735991Y1625570D01*
X735593Y1625554D01*
X735488Y1625542D01*
X735382Y1625536D01*
X734987Y1625482D01*
X734592Y1625435D01*
X734488Y1625414D01*
X734383Y1625399D01*
X733995Y1625314D01*
X733604Y1625236D01*
X733502Y1625207D01*
X733399Y1625184D01*
X733019Y1625069D01*
X732635Y1624960D01*
X732536Y1624922D01*
X732434Y1624892D01*
X732064Y1624746D01*
X731691Y1624607D01*
X731595Y1624562D01*
X731496Y1624524D01*
X731138Y1624349D01*
X730778Y1624181D01*
X730686Y1624129D01*
X730590Y1624082D01*
X730247Y1623880D01*
X729901Y1623684D01*
X729814Y1623624D01*
X729722Y1623571D01*
X729396Y1623342D01*
X729067Y1623119D01*
X728984Y1623052D01*
X728897Y1622992D01*
X728592Y1622738D01*
X728280Y1622489D01*
X728202Y1622416D01*
X728121Y1622349D01*
X727836Y1622072D01*
X727546Y1621799D01*
X727474Y1621721D01*
X727398Y1621647D01*
X727136Y1621348D01*
X726868Y1621053D01*
X726803Y1620970D01*
X726733Y1620890D01*
X726495Y1620570D01*
X726252Y1620256D01*
X726194Y1620167D01*
X726130Y1620082D01*
X725918Y1619745D01*
X725701Y1619412D01*
X725650Y1619319D01*
X725593Y1619229D01*
X725409Y1618877D01*
X725218Y1618528D01*
X725175Y1618431D01*
X725126Y1618337D01*
X724969Y1617970D01*
X724807Y1617607D01*
X724772Y1617508D01*
X724730Y1617410D01*
X724604Y1617032D01*
X724471Y1616658D01*
X724444Y1616555D01*
X724410Y1616454D01*
X724313Y1616067D01*
X724211Y1615684D01*
X724192Y1615580D01*
X724166Y1615477D01*
X724100Y1615083D01*
X724029Y1614693D01*
X724018Y1614587D01*
X724000Y1614483D01*
X723966Y1614086D01*
X723926Y1613690D01*
X723923Y1613584D01*
X723914Y1613478D01*
X723901Y1612895D01*
X723901Y729160D01*
X604340Y609599D01*
X38105Y609599D01*
X37999Y609595D01*
X37893Y609597D01*
X37496Y609575D01*
X37098Y609559D01*
X36993Y609547D01*
X36887Y609541D01*
X36492Y609487D01*
X36097Y609440D01*
X35993Y609419D01*
X35888Y609404D01*
X35500Y609319D01*
X35109Y609241D01*
X35007Y609212D01*
X34904Y609189D01*
X34524Y609074D01*
X34140Y608965D01*
X34041Y608927D01*
X33939Y608897D01*
X33569Y608751D01*
X33196Y608612D01*
X33100Y608567D01*
X33001Y608529D01*
X32643Y608354D01*
X32283Y608186D01*
X32191Y608134D01*
X32095Y608087D01*
X31752Y607885D01*
X31406Y607689D01*
X31319Y607629D01*
X31227Y607576D01*
X30901Y607347D01*
X30572Y607124D01*
X30489Y607057D01*
X30402Y606997D01*
X30097Y606743D01*
X29785Y606494D01*
X29707Y606421D01*
X29626Y606354D01*
X29341Y606077D01*
X29051Y605804D01*
X28979Y605726D01*
X28903Y605652D01*
X28640Y605353D01*
X28373Y605058D01*
X28308Y604975D01*
X28238Y604895D01*
X27999Y604575D01*
X27757Y604261D01*
X27699Y604172D01*
X27635Y604087D01*
X27423Y603750D01*
X27206Y603417D01*
X27155Y603324D01*
X27098Y603234D01*
X26914Y602882D01*
X26723Y602533D01*
X26680Y602436D01*
X26631Y602342D01*
X26474Y601975D01*
X26312Y601612D01*
X26277Y601513D01*
X26235Y601415D01*
X26108Y601037D01*
X25976Y600663D01*
X25949Y600560D01*
X25915Y600459D01*
X25818Y600072D01*
X25716Y599689D01*
X25697Y599585D01*
X25671Y599482D01*
X25605Y599088D01*
X25534Y598698D01*
X25523Y598592D01*
X25505Y598488D01*
X25471Y598090D01*
X25431Y597695D01*
X25428Y597589D01*
X25419Y597483D01*
X25406Y596900D01*
X25406Y154105D01*
X25410Y153999D01*
X25408Y153893D01*
X25430Y153496D01*
X25446Y153098D01*
X25458Y152993D01*
X25464Y152887D01*
X25518Y152492D01*
X25565Y152097D01*
X25586Y151993D01*
X25601Y151888D01*
X25686Y151500D01*
X25764Y151109D01*
X25793Y151007D01*
X25816Y150904D01*
X25931Y150524D01*
X26040Y150140D01*
X26078Y150041D01*
X26108Y149939D01*
X26254Y149569D01*
X26393Y149196D01*
X26438Y149100D01*
X26476Y149001D01*
X26651Y148643D01*
X26819Y148283D01*
X26871Y148191D01*
X26918Y148095D01*
X27120Y147752D01*
X27316Y147406D01*
X27376Y147319D01*
X27429Y147227D01*
X27658Y146901D01*
X27881Y146572D01*
X27948Y146489D01*
X28008Y146402D01*
X28262Y146097D01*
X28511Y145785D01*
X28584Y145707D01*
X28651Y145626D01*
X28928Y145341D01*
X29201Y145051D01*
X29279Y144979D01*
X29353Y144903D01*
X29652Y144640D01*
X29947Y144373D01*
X30030Y144308D01*
X30110Y144238D01*
X30430Y144000D01*
X30744Y143757D01*
X30833Y143699D01*
X30918Y143635D01*
X31255Y143423D01*
X31588Y143206D01*
X31681Y143155D01*
X31771Y143098D01*
X32123Y142914D01*
X32472Y142723D01*
X32569Y142680D01*
X32663Y142631D01*
X33030Y142474D01*
X33393Y142312D01*
X33492Y142277D01*
X33590Y142235D01*
X33968Y142108D01*
X34342Y141976D01*
X34445Y141949D01*
X34546Y141915D01*
X34933Y141818D01*
X35316Y141716D01*
X35420Y141697D01*
X35523Y141671D01*
X35917Y141605D01*
X36307Y141534D01*
X36413Y141523D01*
X36517Y141505D01*
X36914Y141471D01*
X37310Y141431D01*
X37416Y141428D01*
X37522Y141419D01*
X38105Y141406D01*
X96035Y141406D01*
X96404Y141420D01*
X96774Y141427D01*
X96908Y141440D01*
X97042Y141446D01*
X97410Y141490D01*
X97777Y141526D01*
X97909Y141549D01*
X98043Y141565D01*
X98405Y141638D01*
X98768Y141703D01*
X98899Y141737D01*
X99031Y141764D01*
X99387Y141865D01*
X99743Y141959D01*
X99870Y142003D01*
X100000Y142040D01*
X100347Y142170D01*
X100695Y142291D01*
X100818Y142346D01*
X100944Y142393D01*
X101279Y142549D01*
X101617Y142698D01*
X101736Y142762D01*
X101857Y142819D01*
X102178Y143001D01*
X102504Y143176D01*
X102617Y143250D01*
X102734Y143316D01*
X103039Y143523D01*
X103350Y143724D01*
X103457Y143806D01*
X103568Y143881D01*
X103857Y144112D01*
X104150Y144336D01*
X104250Y144426D01*
X104355Y144511D01*
X104625Y144764D01*
X104899Y145011D01*
X104991Y145108D01*
X105090Y145201D01*
X105339Y145474D01*
X105592Y145742D01*
X105677Y145847D01*
X105767Y145947D01*
X105994Y146239D01*
X106225Y146526D01*
X106301Y146637D01*
X106384Y146744D01*
X106585Y147053D01*
X106794Y147358D01*
X106861Y147475D01*
X106935Y147588D01*
X107111Y147912D01*
X107295Y148232D01*
X107353Y148354D01*
X107417Y148472D01*
X107568Y148809D01*
X107725Y149144D01*
X107773Y149270D01*
X107828Y149393D01*
X107951Y149740D01*
X108082Y150086D01*
X108119Y150215D01*
X108164Y150342D01*
X108260Y150699D01*
X108363Y151054D01*
X108390Y151186D01*
X108425Y151316D01*
X108491Y151679D01*
X108566Y152041D01*
X108582Y152175D01*
X108607Y152307D01*
X108644Y152674D01*
X108690Y153041D01*
X108696Y153176D01*
X108710Y153310D01*
X108718Y153678D01*
X108735Y154048D01*
X108730Y154183D01*
X108733Y154317D01*
X108712Y154685D01*
X108699Y155055D01*
X108681Y155243D01*
X108676Y155323D01*
X108664Y155410D01*
X108642Y155636D01*
X108449Y157225D01*
X109657Y167177D01*
X113212Y176550D01*
X118907Y184800D01*
X126411Y191448D01*
X135287Y196107D01*
X145021Y198506D01*
X155045Y198506D01*
X164779Y196107D01*
X173655Y191448D01*
X181159Y184800D01*
X186854Y176550D01*
X190409Y167177D01*
X191617Y157225D01*
X191424Y155636D01*
X191394Y155267D01*
X191356Y154900D01*
X191353Y154766D01*
X191342Y154631D01*
X191342Y154261D01*
X191333Y153893D01*
X191341Y153758D01*
X191340Y153624D01*
X191369Y153255D01*
X191390Y152887D01*
X191408Y152753D01*
X191419Y152619D01*
X191476Y152254D01*
X191526Y151888D01*
X191555Y151756D01*
X191576Y151624D01*
X191663Y151265D01*
X191741Y150904D01*
X191781Y150775D01*
X191812Y150644D01*
X191927Y150293D01*
X192034Y149939D01*
X192083Y149814D01*
X192125Y149686D01*
X192267Y149345D01*
X192402Y149001D01*
X192461Y148880D01*
X192513Y148756D01*
X192682Y148427D01*
X192843Y148095D01*
X192912Y147979D01*
X192973Y147859D01*
X193167Y147546D01*
X193355Y147227D01*
X193433Y147117D01*
X193503Y147002D01*
X193722Y146705D01*
X193934Y146402D01*
X194020Y146298D01*
X194100Y146190D01*
X194341Y145910D01*
X194577Y145626D01*
X194670Y145530D01*
X194759Y145427D01*
X195022Y145168D01*
X195279Y144903D01*
X195380Y144814D01*
X195476Y144720D01*
X195758Y144482D01*
X196036Y144238D01*
X196144Y144157D01*
X196247Y144071D01*
X196547Y143857D01*
X196843Y143635D01*
X196958Y143563D01*
X197067Y143485D01*
X197383Y143295D01*
X197696Y143098D01*
X197816Y143036D01*
X197931Y142966D01*
X198262Y142802D01*
X198589Y142631D01*
X198713Y142578D01*
X198833Y142518D01*
X199176Y142380D01*
X199516Y142235D01*
X199643Y142193D01*
X199769Y142142D01*
X200121Y142032D01*
X200471Y141915D01*
X200602Y141882D01*
X200731Y141842D01*
X201090Y141760D01*
X201449Y141671D01*
X201582Y141649D01*
X201713Y141619D01*
X202079Y141566D01*
X202443Y141505D01*
X202577Y141494D01*
X202711Y141475D01*
X203079Y141451D01*
X203447Y141419D01*
X203636Y141415D01*
X203716Y141410D01*
X203805Y141411D01*
X204031Y141406D01*
X424298Y141406D01*
X424307Y141406D01*
X424317Y141406D01*
X424809Y141426D01*
X425305Y141446D01*
X425315Y141447D01*
X425324Y141447D01*
X425501Y141469D01*
X434541Y141469D01*
X434613Y141463D01*
X435025Y141427D01*
X441191Y140019D01*
X441314Y139996D01*
X441435Y139966D01*
X441514Y139953D01*
X441687Y139909D01*
X441749Y139892D01*
X441774Y139887D01*
X441817Y139876D01*
X445091Y139129D01*
X454310Y134689D01*
X462310Y128310D01*
X468689Y120310D01*
X473129Y111091D01*
X473876Y107817D01*
X473941Y107579D01*
X473995Y107339D01*
X474072Y107093D01*
X474139Y106844D01*
X474222Y106612D01*
X474296Y106377D01*
X474392Y106138D01*
X474479Y105895D01*
X474580Y105670D01*
X474672Y105442D01*
X474786Y105212D01*
X474892Y104976D01*
X475011Y104760D01*
X475120Y104540D01*
X475253Y104319D01*
X475377Y104093D01*
X475513Y103887D01*
X475639Y103676D01*
X475789Y103466D01*
X475931Y103251D01*
X476082Y103057D01*
X476225Y102856D01*
X476391Y102659D01*
X476550Y102456D01*
X476716Y102274D01*
X476874Y102085D01*
X477187Y101758D01*
X477229Y101712D01*
X477247Y101695D01*
X477277Y101663D01*
X549815Y29125D01*
X549932Y29017D01*
X550043Y28903D01*
X550302Y28675D01*
X550556Y28442D01*
X550681Y28343D01*
X550800Y28238D01*
X551077Y28031D01*
X551348Y27819D01*
X551480Y27731D01*
X551608Y27635D01*
X551900Y27452D01*
X552187Y27260D01*
X552326Y27183D01*
X552461Y27098D01*
X552766Y26938D01*
X553068Y26771D01*
X553212Y26705D01*
X553353Y26631D01*
X553671Y26495D01*
X553984Y26352D01*
X554134Y26298D01*
X554280Y26235D01*
X554607Y26126D01*
X554931Y26008D01*
X555084Y25965D01*
X555236Y25915D01*
X555571Y25831D01*
X555903Y25739D01*
X556059Y25709D01*
X556213Y25671D01*
X556554Y25614D01*
X556892Y25549D01*
X557051Y25531D01*
X557207Y25505D01*
X557550Y25476D01*
X557894Y25438D01*
X558053Y25433D01*
X558212Y25419D01*
X558795Y25406D01*
X990605Y25406D01*
X990764Y25412D01*
G37*
%LPC*%
G36*
X617893Y269944D02*
X617893Y269944D01*
X608159Y272343D01*
X599283Y277002D01*
X591779Y283650D01*
X586084Y291900D01*
X582529Y301273D01*
X581321Y311225D01*
X582529Y321177D01*
X586084Y330550D01*
X591779Y338800D01*
X599283Y345448D01*
X608159Y350107D01*
X617893Y352506D01*
X627917Y352506D01*
X637651Y350107D01*
X646527Y345448D01*
X654031Y338800D01*
X659726Y330550D01*
X663281Y321177D01*
X664489Y311225D01*
X663281Y301273D01*
X659726Y291900D01*
X654031Y283650D01*
X646527Y277002D01*
X637651Y272343D01*
X627917Y269944D01*
X617893Y269944D01*
G37*
%LPD*%
D10*
X282956Y1379093D03*
X225044Y1379093D03*
D11*
X254000Y1281684D03*
D10*
X460756Y1379093D03*
X402844Y1379093D03*
D11*
X431800Y1281684D03*
D12*
X228600Y778500D03*
X254000Y778500D03*
X279400Y778500D03*
X279400Y872500D03*
D13*
X254000Y872500D03*
D12*
X228600Y872500D03*
X406400Y778500D03*
X431800Y778500D03*
X457200Y778500D03*
X457200Y872500D03*
D13*
X431800Y872500D03*
D12*
X406400Y872500D03*
D10*
X225044Y1021207D03*
X282956Y1021207D03*
D11*
X254000Y1118616D03*
D10*
X404114Y1019937D03*
X462026Y1019937D03*
D11*
X433070Y1117346D03*
D14*
X525860Y736600D02*
X540940Y736600D01*
X540940Y711200D02*
X525860Y711200D01*
X525860Y685800D02*
X540940Y685800D01*
D15*
X127000Y1282700D03*
X558800Y1282700D03*
X152400Y1016000D03*
X342900Y1422400D03*
X406400Y965200D03*
X152400Y965200D03*
D16*
X431800Y673100D03*
X431800Y749300D03*
X254000Y673100D03*
X254000Y749300D03*
X283210Y982980D03*
X283210Y906780D03*
X462280Y982980D03*
X462280Y906780D03*
X342900Y982980D03*
X342900Y906780D03*
X113030Y887730D03*
X189230Y887730D03*
D17*
X225044Y1409700D02*
X237744Y1422400D01*
X225044Y1409700D02*
X225044Y1379093D01*
D18*
X237744Y1422400D02*
X292100Y1422400D01*
X342900Y1422400D01*
D17*
X460756Y1409700D02*
X460756Y1379093D01*
X460756Y1409700D02*
X448056Y1422400D01*
D18*
X393700Y1422400D01*
X342900Y1422400D01*
D17*
X402844Y1413256D02*
X402844Y1379093D01*
X402844Y1413256D02*
X393700Y1422400D01*
X282956Y1413256D02*
X282956Y1379093D01*
X282956Y1413256D02*
X292100Y1422400D01*
D18*
X431800Y1281684D02*
X433070Y1280414D01*
D19*
X433070Y1117346D01*
D20*
X406146Y1117346D01*
X342900Y1054100D01*
X342900Y982980D01*
D18*
X431800Y1281684D02*
X432816Y1282700D01*
X558800Y1282700D01*
D21*
X464820Y1191260D03*
X401320Y1191260D03*
X433070Y1212850D03*
D20*
X291084Y1118616D02*
X254000Y1118616D01*
X152400Y1117600D02*
X76200Y1041400D01*
X252984Y1117600D02*
X254000Y1118616D01*
X252984Y1117600D02*
X152400Y1117600D01*
X76200Y924560D02*
X113030Y887730D01*
X76200Y924560D02*
X76200Y1041400D01*
D18*
X128016Y1281684D02*
X254000Y1281684D01*
X128016Y1281684D02*
X127000Y1282700D01*
D19*
X254000Y1281684D02*
X254000Y1122680D01*
D21*
X285750Y1189990D03*
X222250Y1189990D03*
X254000Y1211580D03*
D22*
X225044Y1021207D02*
X194437Y990600D01*
X190500Y990600D01*
D18*
X194437Y990600D02*
X152400Y990600D01*
X152400Y965200D01*
X152400Y990600D02*
X152400Y1016000D01*
D23*
X283210Y906780D02*
X283210Y892810D01*
X279400Y889000D01*
X279400Y876300D01*
X462280Y894080D02*
X462280Y906780D01*
X462280Y894080D02*
X457200Y889000D01*
X457200Y872500D01*
X431800Y778500D02*
X431800Y749300D01*
X254000Y749300D02*
X254000Y778500D01*
D24*
X228600Y723900D02*
X241300Y711200D01*
X228600Y723900D02*
X228600Y778500D01*
X495300Y736600D02*
X533400Y736600D01*
X495300Y736600D02*
X469900Y711200D01*
X406400Y711200D01*
X241300Y711200D01*
X406400Y711200D02*
X406400Y778500D01*
D23*
X431800Y673100D02*
X254000Y673100D01*
X431800Y673100D02*
X482600Y673100D01*
X520700Y711200D02*
X533400Y711200D01*
X520700Y711200D02*
X482600Y673100D01*
X283210Y982980D02*
X282956Y983234D01*
X282956Y1021207D01*
X462026Y1019937D02*
X462026Y983234D01*
X462280Y982980D01*
D22*
X406400Y1017651D02*
X404114Y1019937D01*
X406400Y1017651D02*
X406400Y965200D01*
D20*
X388620Y906780D02*
X406400Y889000D01*
X406400Y872500D01*
X388620Y906780D02*
X342900Y906780D01*
X190500Y889000D02*
X189230Y887730D01*
X190500Y889000D02*
X215900Y889000D01*
X228600Y876300D01*
X228600Y872500D01*
M02*
