G04 EAGLE Gerber RS-274X export*
G75*
%MOMM*%
%FSLAX34Y34*%
%LPD*%
%INBottom Copper*%
%IPPOS*%
%AMOC8*
5,1,8,0,0,1.08239X$1,22.5*%
G01*
%ADD10C,1.508000*%
%ADD11C,3.810000*%
%ADD12C,2.032000*%
%ADD13C,3.429000*%

G36*
X1028806Y25410D02*
X1028806Y25410D01*
X1028912Y25408D01*
X1029309Y25430D01*
X1029707Y25446D01*
X1029812Y25458D01*
X1029918Y25464D01*
X1030313Y25518D01*
X1030708Y25565D01*
X1030812Y25586D01*
X1030917Y25601D01*
X1031305Y25686D01*
X1031696Y25764D01*
X1031798Y25793D01*
X1031901Y25816D01*
X1032281Y25931D01*
X1032665Y26040D01*
X1032764Y26078D01*
X1032866Y26108D01*
X1033236Y26254D01*
X1033609Y26393D01*
X1033705Y26438D01*
X1033804Y26476D01*
X1034162Y26651D01*
X1034522Y26819D01*
X1034614Y26871D01*
X1034710Y26918D01*
X1035053Y27120D01*
X1035399Y27316D01*
X1035486Y27376D01*
X1035578Y27429D01*
X1035904Y27658D01*
X1036233Y27881D01*
X1036316Y27948D01*
X1036403Y28008D01*
X1036708Y28262D01*
X1037020Y28511D01*
X1037098Y28584D01*
X1037179Y28651D01*
X1037464Y28928D01*
X1037754Y29201D01*
X1037826Y29279D01*
X1037902Y29353D01*
X1038165Y29652D01*
X1038432Y29947D01*
X1038497Y30030D01*
X1038567Y30110D01*
X1038805Y30430D01*
X1039048Y30744D01*
X1039106Y30833D01*
X1039170Y30918D01*
X1039382Y31255D01*
X1039599Y31588D01*
X1039650Y31681D01*
X1039707Y31771D01*
X1039891Y32123D01*
X1040082Y32472D01*
X1040125Y32569D01*
X1040174Y32663D01*
X1040331Y33030D01*
X1040493Y33393D01*
X1040528Y33492D01*
X1040570Y33590D01*
X1040697Y33968D01*
X1040829Y34342D01*
X1040856Y34445D01*
X1040890Y34546D01*
X1040987Y34933D01*
X1041089Y35316D01*
X1041108Y35420D01*
X1041134Y35523D01*
X1041200Y35917D01*
X1041271Y36307D01*
X1041282Y36413D01*
X1041300Y36517D01*
X1041334Y36914D01*
X1041374Y37310D01*
X1041377Y37416D01*
X1041386Y37522D01*
X1041399Y38105D01*
X1041399Y103245D01*
X1041395Y103351D01*
X1041397Y103457D01*
X1041375Y103854D01*
X1041359Y104252D01*
X1041347Y104357D01*
X1041341Y104463D01*
X1041287Y104858D01*
X1041240Y105253D01*
X1041219Y105357D01*
X1041204Y105462D01*
X1041119Y105850D01*
X1041041Y106241D01*
X1041012Y106343D01*
X1040989Y106446D01*
X1040874Y106826D01*
X1040765Y107210D01*
X1040727Y107309D01*
X1040697Y107411D01*
X1040551Y107781D01*
X1040412Y108154D01*
X1040367Y108250D01*
X1040329Y108349D01*
X1040154Y108707D01*
X1039986Y109067D01*
X1039934Y109159D01*
X1039887Y109255D01*
X1039685Y109598D01*
X1039489Y109944D01*
X1039429Y110031D01*
X1039376Y110123D01*
X1039147Y110449D01*
X1038924Y110778D01*
X1038857Y110861D01*
X1038797Y110948D01*
X1038543Y111253D01*
X1038294Y111565D01*
X1038221Y111643D01*
X1038154Y111724D01*
X1037877Y112009D01*
X1037604Y112299D01*
X1037526Y112371D01*
X1037452Y112447D01*
X1037153Y112710D01*
X1036858Y112977D01*
X1036775Y113042D01*
X1036695Y113112D01*
X1036375Y113350D01*
X1036061Y113593D01*
X1035972Y113651D01*
X1035887Y113715D01*
X1035550Y113927D01*
X1035217Y114144D01*
X1035124Y114195D01*
X1035034Y114252D01*
X1034682Y114436D01*
X1034333Y114627D01*
X1034236Y114670D01*
X1034142Y114719D01*
X1033775Y114876D01*
X1033412Y115038D01*
X1033313Y115073D01*
X1033215Y115115D01*
X1032837Y115242D01*
X1032463Y115374D01*
X1032360Y115401D01*
X1032259Y115435D01*
X1031872Y115532D01*
X1031489Y115634D01*
X1031385Y115653D01*
X1031282Y115679D01*
X1030888Y115745D01*
X1030498Y115816D01*
X1030392Y115827D01*
X1030288Y115845D01*
X1029891Y115879D01*
X1029495Y115919D01*
X1029389Y115922D01*
X1029283Y115931D01*
X1028700Y115944D01*
X1025893Y115944D01*
X1016159Y118343D01*
X1007283Y123002D01*
X999779Y129650D01*
X994084Y137900D01*
X990529Y147273D01*
X989321Y157225D01*
X990529Y167177D01*
X994084Y176550D01*
X999779Y184800D01*
X1007283Y191448D01*
X1016159Y196107D01*
X1025893Y198506D01*
X1035917Y198506D01*
X1045651Y196107D01*
X1054527Y191448D01*
X1062031Y184800D01*
X1067726Y176550D01*
X1071281Y167177D01*
X1072489Y157225D01*
X1072089Y153931D01*
X1072059Y153562D01*
X1072021Y153195D01*
X1072018Y153061D01*
X1072007Y152926D01*
X1072007Y152556D01*
X1071998Y152188D01*
X1072006Y152054D01*
X1072005Y151919D01*
X1072034Y151550D01*
X1072055Y151182D01*
X1072073Y151048D01*
X1072084Y150914D01*
X1072141Y150550D01*
X1072191Y150183D01*
X1072220Y150051D01*
X1072241Y149919D01*
X1072328Y149560D01*
X1072406Y149199D01*
X1072446Y149070D01*
X1072477Y148939D01*
X1072592Y148588D01*
X1072699Y148234D01*
X1072748Y148109D01*
X1072790Y147981D01*
X1072932Y147640D01*
X1073067Y147296D01*
X1073126Y147175D01*
X1073178Y147051D01*
X1073347Y146722D01*
X1073508Y146390D01*
X1073577Y146274D01*
X1073638Y146154D01*
X1073832Y145840D01*
X1074020Y145522D01*
X1074098Y145412D01*
X1074168Y145297D01*
X1074387Y145000D01*
X1074599Y144697D01*
X1074685Y144594D01*
X1074765Y144485D01*
X1075007Y144205D01*
X1075242Y143921D01*
X1075335Y143825D01*
X1075424Y143722D01*
X1075687Y143463D01*
X1075944Y143198D01*
X1076045Y143109D01*
X1076141Y143015D01*
X1076423Y142777D01*
X1076701Y142533D01*
X1076809Y142452D01*
X1076912Y142366D01*
X1077212Y142152D01*
X1077508Y141930D01*
X1077623Y141858D01*
X1077732Y141780D01*
X1078049Y141590D01*
X1078361Y141393D01*
X1078480Y141331D01*
X1078596Y141261D01*
X1078927Y141097D01*
X1079254Y140926D01*
X1079378Y140873D01*
X1079498Y140813D01*
X1079841Y140675D01*
X1080181Y140530D01*
X1080308Y140488D01*
X1080434Y140437D01*
X1080786Y140327D01*
X1081136Y140210D01*
X1081267Y140177D01*
X1081396Y140137D01*
X1081754Y140056D01*
X1082114Y139966D01*
X1082247Y139944D01*
X1082378Y139914D01*
X1082744Y139861D01*
X1083108Y139800D01*
X1083242Y139789D01*
X1083376Y139770D01*
X1083745Y139746D01*
X1084112Y139714D01*
X1084301Y139710D01*
X1084381Y139705D01*
X1084470Y139706D01*
X1084696Y139701D01*
X1101562Y139701D01*
X1102013Y139719D01*
X1102463Y139733D01*
X1102516Y139739D01*
X1102569Y139741D01*
X1103018Y139794D01*
X1103465Y139844D01*
X1103533Y139856D01*
X1103570Y139860D01*
X1103648Y139876D01*
X1104039Y139945D01*
X1111284Y141386D01*
X1112612Y141386D01*
X1112621Y141386D01*
X1112631Y141386D01*
X1113123Y141406D01*
X1113619Y141426D01*
X1113629Y141427D01*
X1113638Y141427D01*
X1113815Y141449D01*
X1122855Y141449D01*
X1122925Y141443D01*
X1123414Y141400D01*
X1123423Y141400D01*
X1123433Y141399D01*
X1124016Y141386D01*
X1143000Y141386D01*
X1143106Y141390D01*
X1143212Y141388D01*
X1143609Y141410D01*
X1144007Y141426D01*
X1144112Y141438D01*
X1144218Y141444D01*
X1144613Y141498D01*
X1145008Y141545D01*
X1145112Y141566D01*
X1145217Y141581D01*
X1145605Y141666D01*
X1145996Y141744D01*
X1146098Y141773D01*
X1146201Y141796D01*
X1146581Y141911D01*
X1146965Y142020D01*
X1147064Y142058D01*
X1147166Y142088D01*
X1147536Y142234D01*
X1147909Y142373D01*
X1148005Y142418D01*
X1148104Y142456D01*
X1148461Y142631D01*
X1148822Y142799D01*
X1148914Y142851D01*
X1149010Y142898D01*
X1149353Y143100D01*
X1149699Y143296D01*
X1149786Y143356D01*
X1149878Y143409D01*
X1150204Y143638D01*
X1150533Y143861D01*
X1150616Y143928D01*
X1150703Y143988D01*
X1151008Y144242D01*
X1151320Y144491D01*
X1151398Y144564D01*
X1151479Y144631D01*
X1151764Y144908D01*
X1152054Y145181D01*
X1152126Y145259D01*
X1152202Y145333D01*
X1152465Y145632D01*
X1152732Y145927D01*
X1152797Y146010D01*
X1152867Y146090D01*
X1153105Y146410D01*
X1153348Y146724D01*
X1153406Y146813D01*
X1153470Y146898D01*
X1153682Y147235D01*
X1153899Y147568D01*
X1153950Y147661D01*
X1154007Y147751D01*
X1154191Y148103D01*
X1154382Y148452D01*
X1154425Y148549D01*
X1154474Y148643D01*
X1154631Y149010D01*
X1154793Y149373D01*
X1154828Y149472D01*
X1154870Y149570D01*
X1154997Y149948D01*
X1155129Y150322D01*
X1155156Y150425D01*
X1155190Y150526D01*
X1155287Y150913D01*
X1155389Y151296D01*
X1155408Y151400D01*
X1155434Y151503D01*
X1155500Y151897D01*
X1155571Y152287D01*
X1155582Y152393D01*
X1155600Y152497D01*
X1155634Y152894D01*
X1155674Y153290D01*
X1155677Y153396D01*
X1155686Y153502D01*
X1155699Y154085D01*
X1155699Y1498600D01*
X1155696Y1498676D01*
X1155697Y1498731D01*
X1155696Y1498754D01*
X1155697Y1498812D01*
X1155675Y1499209D01*
X1155659Y1499607D01*
X1155647Y1499712D01*
X1155641Y1499818D01*
X1155587Y1500213D01*
X1155540Y1500608D01*
X1155519Y1500712D01*
X1155504Y1500817D01*
X1155419Y1501205D01*
X1155341Y1501596D01*
X1155312Y1501698D01*
X1155289Y1501801D01*
X1155174Y1502181D01*
X1155065Y1502565D01*
X1155027Y1502664D01*
X1154997Y1502766D01*
X1154851Y1503136D01*
X1154712Y1503509D01*
X1154667Y1503605D01*
X1154629Y1503704D01*
X1154454Y1504062D01*
X1154286Y1504422D01*
X1154234Y1504514D01*
X1154187Y1504610D01*
X1153985Y1504953D01*
X1153789Y1505299D01*
X1153729Y1505386D01*
X1153676Y1505478D01*
X1153447Y1505804D01*
X1153224Y1506133D01*
X1153157Y1506216D01*
X1153097Y1506303D01*
X1152843Y1506608D01*
X1152594Y1506920D01*
X1152521Y1506998D01*
X1152454Y1507079D01*
X1152177Y1507364D01*
X1151904Y1507654D01*
X1151826Y1507726D01*
X1151752Y1507802D01*
X1151453Y1508065D01*
X1151158Y1508332D01*
X1151075Y1508397D01*
X1150995Y1508467D01*
X1150675Y1508705D01*
X1150361Y1508948D01*
X1150272Y1509006D01*
X1150187Y1509070D01*
X1149850Y1509282D01*
X1149517Y1509499D01*
X1149424Y1509550D01*
X1149334Y1509607D01*
X1148982Y1509791D01*
X1148633Y1509982D01*
X1148536Y1510025D01*
X1148442Y1510074D01*
X1148075Y1510231D01*
X1147712Y1510393D01*
X1147613Y1510428D01*
X1147515Y1510470D01*
X1147137Y1510597D01*
X1146763Y1510729D01*
X1146660Y1510756D01*
X1146559Y1510790D01*
X1146172Y1510887D01*
X1145789Y1510989D01*
X1145685Y1511008D01*
X1145582Y1511034D01*
X1145188Y1511100D01*
X1144798Y1511171D01*
X1144692Y1511182D01*
X1144588Y1511200D01*
X1144191Y1511234D01*
X1143795Y1511274D01*
X1143689Y1511277D01*
X1143583Y1511286D01*
X1143000Y1511299D01*
X1046660Y1511299D01*
X1041399Y1516560D01*
X1041399Y1555808D01*
X1041395Y1555914D01*
X1041397Y1556020D01*
X1041375Y1556417D01*
X1041359Y1556815D01*
X1041347Y1556920D01*
X1041341Y1557026D01*
X1041287Y1557421D01*
X1041240Y1557816D01*
X1041219Y1557920D01*
X1041204Y1558025D01*
X1041119Y1558413D01*
X1041041Y1558804D01*
X1041012Y1558906D01*
X1040989Y1559009D01*
X1040874Y1559389D01*
X1040765Y1559773D01*
X1040727Y1559872D01*
X1040697Y1559974D01*
X1040551Y1560344D01*
X1040412Y1560717D01*
X1040367Y1560813D01*
X1040329Y1560912D01*
X1040154Y1561270D01*
X1039986Y1561630D01*
X1039934Y1561722D01*
X1039887Y1561818D01*
X1039685Y1562161D01*
X1039489Y1562507D01*
X1039429Y1562594D01*
X1039376Y1562686D01*
X1039147Y1563012D01*
X1038924Y1563341D01*
X1038857Y1563424D01*
X1038797Y1563511D01*
X1038543Y1563816D01*
X1038294Y1564128D01*
X1038221Y1564206D01*
X1038154Y1564287D01*
X1037877Y1564572D01*
X1037604Y1564862D01*
X1037526Y1564934D01*
X1037452Y1565010D01*
X1037153Y1565273D01*
X1036858Y1565540D01*
X1036775Y1565605D01*
X1036695Y1565675D01*
X1036375Y1565913D01*
X1036061Y1566156D01*
X1035972Y1566214D01*
X1035887Y1566278D01*
X1035550Y1566490D01*
X1035217Y1566707D01*
X1035124Y1566758D01*
X1035034Y1566815D01*
X1034682Y1566999D01*
X1034333Y1567190D01*
X1034236Y1567233D01*
X1034142Y1567282D01*
X1033775Y1567439D01*
X1033412Y1567601D01*
X1033313Y1567636D01*
X1033215Y1567678D01*
X1032837Y1567805D01*
X1032463Y1567937D01*
X1032360Y1567964D01*
X1032259Y1567998D01*
X1031872Y1568095D01*
X1031489Y1568197D01*
X1031385Y1568216D01*
X1031282Y1568242D01*
X1030888Y1568308D01*
X1030498Y1568379D01*
X1030392Y1568390D01*
X1030288Y1568408D01*
X1029891Y1568442D01*
X1029495Y1568482D01*
X1029389Y1568485D01*
X1029283Y1568494D01*
X1028700Y1568507D01*
X1025893Y1568507D01*
X1016159Y1570906D01*
X1007283Y1575565D01*
X999779Y1582213D01*
X994084Y1590463D01*
X990529Y1599836D01*
X989321Y1609788D01*
X989512Y1611364D01*
X989542Y1611733D01*
X989580Y1612100D01*
X989583Y1612234D01*
X989594Y1612369D01*
X989595Y1612739D01*
X989603Y1613107D01*
X989596Y1613242D01*
X989596Y1613376D01*
X989567Y1613744D01*
X989547Y1614113D01*
X989528Y1614247D01*
X989518Y1614381D01*
X989460Y1614746D01*
X989410Y1615112D01*
X989381Y1615243D01*
X989360Y1615376D01*
X989274Y1615736D01*
X989195Y1616096D01*
X989156Y1616225D01*
X989124Y1616356D01*
X989010Y1616708D01*
X988902Y1617061D01*
X988853Y1617186D01*
X988811Y1617314D01*
X988669Y1617656D01*
X988534Y1617999D01*
X988476Y1618120D01*
X988424Y1618244D01*
X988255Y1618573D01*
X988093Y1618905D01*
X988024Y1619021D01*
X987963Y1619141D01*
X987769Y1619454D01*
X987581Y1619773D01*
X987504Y1619883D01*
X987433Y1619998D01*
X987215Y1620295D01*
X987002Y1620598D01*
X986917Y1620701D01*
X986837Y1620810D01*
X986595Y1621090D01*
X986360Y1621374D01*
X986266Y1621470D01*
X986178Y1621573D01*
X985915Y1621832D01*
X985658Y1622097D01*
X985556Y1622186D01*
X985461Y1622280D01*
X985179Y1622518D01*
X984901Y1622762D01*
X984792Y1622843D01*
X984690Y1622929D01*
X984390Y1623143D01*
X984093Y1623365D01*
X983979Y1623437D01*
X983869Y1623515D01*
X983553Y1623705D01*
X983240Y1623902D01*
X983121Y1623964D01*
X983005Y1624034D01*
X982675Y1624198D01*
X982348Y1624369D01*
X982224Y1624422D01*
X982103Y1624482D01*
X981760Y1624620D01*
X981421Y1624765D01*
X981293Y1624808D01*
X981168Y1624858D01*
X980816Y1624968D01*
X980465Y1625085D01*
X980334Y1625118D01*
X980206Y1625158D01*
X979846Y1625240D01*
X979487Y1625329D01*
X979354Y1625351D01*
X979223Y1625381D01*
X978857Y1625434D01*
X978493Y1625495D01*
X978359Y1625506D01*
X978226Y1625525D01*
X977857Y1625549D01*
X977489Y1625581D01*
X977300Y1625585D01*
X977220Y1625590D01*
X977133Y1625589D01*
X976906Y1625594D01*
X736600Y1625594D01*
X736494Y1625590D01*
X736388Y1625592D01*
X735991Y1625570D01*
X735593Y1625554D01*
X735488Y1625542D01*
X735382Y1625536D01*
X734987Y1625482D01*
X734592Y1625435D01*
X734488Y1625414D01*
X734383Y1625399D01*
X733995Y1625314D01*
X733604Y1625236D01*
X733502Y1625207D01*
X733399Y1625184D01*
X733019Y1625069D01*
X732635Y1624960D01*
X732536Y1624922D01*
X732434Y1624892D01*
X732064Y1624746D01*
X731691Y1624607D01*
X731595Y1624562D01*
X731496Y1624524D01*
X731138Y1624349D01*
X730778Y1624181D01*
X730686Y1624129D01*
X730590Y1624082D01*
X730247Y1623880D01*
X729901Y1623684D01*
X729814Y1623624D01*
X729722Y1623571D01*
X729396Y1623342D01*
X729067Y1623119D01*
X728984Y1623052D01*
X728897Y1622992D01*
X728592Y1622738D01*
X728280Y1622489D01*
X728202Y1622416D01*
X728121Y1622349D01*
X727836Y1622072D01*
X727546Y1621799D01*
X727474Y1621721D01*
X727398Y1621647D01*
X727136Y1621348D01*
X726868Y1621053D01*
X726803Y1620970D01*
X726733Y1620890D01*
X726495Y1620570D01*
X726252Y1620256D01*
X726194Y1620167D01*
X726130Y1620082D01*
X725918Y1619745D01*
X725701Y1619412D01*
X725650Y1619319D01*
X725593Y1619229D01*
X725409Y1618877D01*
X725218Y1618528D01*
X725175Y1618431D01*
X725126Y1618337D01*
X724969Y1617970D01*
X724807Y1617607D01*
X724772Y1617508D01*
X724730Y1617410D01*
X724604Y1617032D01*
X724471Y1616658D01*
X724444Y1616555D01*
X724410Y1616454D01*
X724313Y1616067D01*
X724211Y1615684D01*
X724192Y1615580D01*
X724166Y1615477D01*
X724100Y1615083D01*
X724029Y1614693D01*
X724018Y1614587D01*
X724000Y1614483D01*
X723966Y1614086D01*
X723926Y1613690D01*
X723923Y1613584D01*
X723914Y1613478D01*
X723901Y1612895D01*
X723901Y774699D01*
X578976Y774699D01*
X578569Y774683D01*
X578163Y774673D01*
X578066Y774663D01*
X577969Y774659D01*
X577565Y774611D01*
X577161Y774569D01*
X577065Y774551D01*
X576968Y774540D01*
X576570Y774459D01*
X576170Y774385D01*
X576076Y774360D01*
X575980Y774341D01*
X575589Y774229D01*
X575196Y774124D01*
X575105Y774091D01*
X575011Y774065D01*
X574630Y773922D01*
X574247Y773786D01*
X574158Y773746D01*
X574067Y773712D01*
X573699Y773540D01*
X573327Y773374D01*
X573242Y773327D01*
X573154Y773286D01*
X572801Y773086D01*
X572443Y772890D01*
X572362Y772837D01*
X572277Y772789D01*
X571941Y772561D01*
X571600Y772338D01*
X571523Y772278D01*
X571443Y772224D01*
X571126Y771970D01*
X570804Y771721D01*
X570732Y771655D01*
X570656Y771594D01*
X570360Y771316D01*
X570059Y771042D01*
X569992Y770971D01*
X569921Y770904D01*
X569648Y770603D01*
X569370Y770307D01*
X569309Y770231D01*
X569244Y770158D01*
X568995Y769836D01*
X568742Y769519D01*
X568687Y769438D01*
X568628Y769361D01*
X568405Y769020D01*
X568178Y768684D01*
X568130Y768599D01*
X568076Y768517D01*
X567882Y768161D01*
X567682Y767806D01*
X567641Y767718D01*
X567594Y767633D01*
X567429Y767262D01*
X567257Y766893D01*
X567223Y766801D01*
X567183Y766712D01*
X567048Y766330D01*
X566906Y765948D01*
X566879Y765854D01*
X566847Y765763D01*
X566742Y765371D01*
X566631Y764978D01*
X566612Y764883D01*
X566587Y764789D01*
X566513Y764390D01*
X566433Y763990D01*
X566422Y763893D01*
X566404Y763798D01*
X566363Y763394D01*
X566315Y762989D01*
X566311Y762892D01*
X566301Y762795D01*
X566292Y762390D01*
X566277Y761982D01*
X566281Y761885D01*
X566278Y761788D01*
X566301Y761382D01*
X566318Y760975D01*
X566330Y760879D01*
X566335Y760782D01*
X566390Y760379D01*
X566439Y759975D01*
X566458Y759880D01*
X566472Y759783D01*
X566558Y759386D01*
X566639Y758987D01*
X566666Y758894D01*
X566687Y758799D01*
X566805Y758409D01*
X566917Y758019D01*
X566951Y757928D01*
X566979Y757834D01*
X567128Y757455D01*
X567270Y757075D01*
X567312Y756987D01*
X567347Y756896D01*
X567525Y756531D01*
X567698Y756162D01*
X567761Y756047D01*
X567789Y755990D01*
X567808Y755957D01*
X567810Y755953D01*
X567842Y755900D01*
X567978Y755650D01*
X571636Y749315D01*
X573881Y740937D01*
X573881Y732263D01*
X572521Y727187D01*
X572519Y727178D01*
X572516Y727170D01*
X572407Y726684D01*
X572299Y726204D01*
X572297Y726195D01*
X572295Y726187D01*
X572224Y725683D01*
X572155Y725206D01*
X572155Y725198D01*
X572153Y725189D01*
X572122Y724687D01*
X572091Y724201D01*
X572091Y724192D01*
X572091Y724183D01*
X572100Y723685D01*
X572100Y723679D01*
X572099Y723652D01*
X572101Y723627D01*
X572107Y723193D01*
X572108Y723184D01*
X572108Y723175D01*
X572150Y722744D01*
X572156Y722646D01*
X572169Y722550D01*
X572203Y722190D01*
X572205Y722181D01*
X572206Y722172D01*
X572269Y721816D01*
X572292Y721648D01*
X572328Y721483D01*
X572379Y721197D01*
X572381Y721189D01*
X572382Y721180D01*
X572500Y720699D01*
X572507Y720663D01*
X572512Y720648D01*
X572521Y720613D01*
X573881Y715537D01*
X573881Y706863D01*
X572521Y701787D01*
X572519Y701778D01*
X572516Y701770D01*
X572407Y701284D01*
X572299Y700804D01*
X572297Y700795D01*
X572295Y700787D01*
X572221Y700264D01*
X572155Y699806D01*
X572155Y699798D01*
X572153Y699789D01*
X572122Y699287D01*
X572091Y698801D01*
X572091Y698792D01*
X572091Y698783D01*
X572100Y698291D01*
X572100Y698290D01*
X572099Y698254D01*
X572101Y698219D01*
X572107Y697793D01*
X572108Y697784D01*
X572108Y697775D01*
X572150Y697352D01*
X572155Y697248D01*
X572169Y697145D01*
X572203Y696790D01*
X572205Y696781D01*
X572206Y696772D01*
X572268Y696421D01*
X572292Y696249D01*
X572329Y696081D01*
X572379Y695797D01*
X572381Y695789D01*
X572382Y695780D01*
X572499Y695302D01*
X572507Y695265D01*
X572512Y695249D01*
X572521Y695213D01*
X573881Y690137D01*
X573881Y681463D01*
X571636Y673085D01*
X567299Y665574D01*
X561166Y659441D01*
X553655Y655104D01*
X545277Y652859D01*
X521523Y652859D01*
X513145Y655104D01*
X505634Y659441D01*
X499501Y665574D01*
X495164Y673085D01*
X492919Y681463D01*
X492919Y690137D01*
X494279Y695213D01*
X494281Y695222D01*
X494284Y695230D01*
X494338Y695472D01*
X494393Y695677D01*
X494432Y695887D01*
X494501Y696196D01*
X494503Y696205D01*
X494505Y696213D01*
X494549Y696528D01*
X494575Y696668D01*
X494590Y696812D01*
X494645Y697194D01*
X494645Y697202D01*
X494647Y697211D01*
X494671Y697596D01*
X494678Y697671D01*
X494680Y697747D01*
X494709Y698199D01*
X494709Y698208D01*
X494709Y698217D01*
X494701Y698671D01*
X494701Y698678D01*
X494701Y698686D01*
X494700Y698709D01*
X494693Y699207D01*
X494692Y699216D01*
X494692Y699225D01*
X494644Y699715D01*
X494597Y700210D01*
X494595Y700219D01*
X494594Y700228D01*
X494509Y700707D01*
X494421Y701203D01*
X494419Y701211D01*
X494418Y701220D01*
X494279Y701787D01*
X492919Y706863D01*
X492919Y715537D01*
X494279Y720613D01*
X494281Y720622D01*
X494284Y720630D01*
X494338Y720872D01*
X494393Y721076D01*
X494431Y721284D01*
X494501Y721596D01*
X494503Y721605D01*
X494505Y721613D01*
X494550Y721931D01*
X494575Y722067D01*
X494589Y722206D01*
X494645Y722594D01*
X494645Y722602D01*
X494647Y722611D01*
X494671Y723003D01*
X494678Y723069D01*
X494679Y723138D01*
X494709Y723599D01*
X494709Y723608D01*
X494709Y723617D01*
X494700Y724109D01*
X494693Y724607D01*
X494692Y724616D01*
X494692Y724625D01*
X494644Y725115D01*
X494597Y725610D01*
X494595Y725619D01*
X494594Y725628D01*
X494507Y726116D01*
X494421Y726603D01*
X494419Y726611D01*
X494418Y726620D01*
X494279Y727187D01*
X492919Y732263D01*
X492919Y740937D01*
X495164Y749315D01*
X498822Y755650D01*
X499011Y756010D01*
X499206Y756367D01*
X499245Y756456D01*
X499291Y756542D01*
X499452Y756917D01*
X499617Y757288D01*
X499649Y757379D01*
X499688Y757469D01*
X499818Y757855D01*
X499953Y758237D01*
X499978Y758331D01*
X500009Y758424D01*
X500109Y758819D01*
X500213Y759211D01*
X500231Y759307D01*
X500255Y759401D01*
X500322Y759803D01*
X500396Y760202D01*
X500405Y760299D01*
X500422Y760395D01*
X500457Y760801D01*
X500499Y761205D01*
X500501Y761302D01*
X500509Y761399D01*
X500512Y761807D01*
X500522Y762212D01*
X500516Y762309D01*
X500517Y762407D01*
X500488Y762813D01*
X500465Y763218D01*
X500452Y763315D01*
X500445Y763412D01*
X500384Y763813D01*
X500328Y764217D01*
X500308Y764312D01*
X500293Y764408D01*
X500200Y764804D01*
X500113Y765201D01*
X500085Y765294D01*
X500063Y765389D01*
X499939Y765777D01*
X499821Y766166D01*
X499785Y766256D01*
X499756Y766349D01*
X499601Y766726D01*
X499453Y767104D01*
X499410Y767191D01*
X499373Y767281D01*
X499190Y767644D01*
X499011Y768010D01*
X498962Y768094D01*
X498918Y768180D01*
X498706Y768528D01*
X498500Y768878D01*
X498444Y768957D01*
X498393Y769041D01*
X498154Y769370D01*
X497921Y769703D01*
X497859Y769777D01*
X497802Y769856D01*
X497537Y770167D01*
X497278Y770479D01*
X497211Y770548D01*
X497147Y770623D01*
X496859Y770911D01*
X496576Y771202D01*
X496503Y771266D01*
X496434Y771335D01*
X496125Y771598D01*
X495819Y771867D01*
X495741Y771925D01*
X495667Y771988D01*
X495338Y772226D01*
X495011Y772470D01*
X494929Y772522D01*
X494850Y772579D01*
X494503Y772790D01*
X494159Y773007D01*
X494072Y773052D01*
X493989Y773102D01*
X493626Y773286D01*
X493266Y773474D01*
X493176Y773512D01*
X493090Y773556D01*
X492713Y773710D01*
X492339Y773870D01*
X492247Y773901D01*
X492157Y773937D01*
X491771Y774060D01*
X491384Y774190D01*
X491289Y774214D01*
X491196Y774243D01*
X490802Y774335D01*
X490406Y774434D01*
X490309Y774450D01*
X490215Y774472D01*
X489814Y774533D01*
X489412Y774600D01*
X489315Y774608D01*
X489219Y774622D01*
X488813Y774651D01*
X488408Y774686D01*
X488276Y774689D01*
X488213Y774693D01*
X488120Y774692D01*
X487824Y774699D01*
X478359Y774699D01*
X478103Y774689D01*
X477847Y774689D01*
X477600Y774669D01*
X477353Y774659D01*
X477097Y774629D01*
X476842Y774608D01*
X476598Y774569D01*
X476352Y774540D01*
X476101Y774489D01*
X475847Y774448D01*
X475607Y774390D01*
X475364Y774341D01*
X475117Y774271D01*
X474868Y774210D01*
X474633Y774133D01*
X474395Y774065D01*
X474155Y773975D01*
X473911Y773895D01*
X473683Y773799D01*
X473451Y773712D01*
X473218Y773604D01*
X472982Y773504D01*
X472762Y773391D01*
X472537Y773286D01*
X472315Y773160D01*
X472087Y773042D01*
X471876Y772911D01*
X471661Y772789D01*
X471449Y772645D01*
X471231Y772510D01*
X471032Y772363D01*
X470827Y772224D01*
X470626Y772064D01*
X470420Y771911D01*
X470233Y771749D01*
X470040Y771594D01*
X469853Y771419D01*
X469659Y771251D01*
X469485Y771074D01*
X469305Y770904D01*
X469133Y770715D01*
X468953Y770532D01*
X468794Y770342D01*
X468627Y770158D01*
X468471Y769955D01*
X468306Y769759D01*
X468163Y769557D01*
X468011Y769361D01*
X467871Y769146D01*
X467723Y768937D01*
X467596Y768725D01*
X467460Y768517D01*
X467337Y768292D01*
X467206Y768072D01*
X467096Y767850D01*
X466978Y767633D01*
X466873Y767399D01*
X466760Y767169D01*
X466668Y766938D01*
X466567Y766712D01*
X466481Y766471D01*
X466386Y766233D01*
X466313Y765996D01*
X466230Y765763D01*
X466164Y765515D01*
X466088Y765270D01*
X466034Y765028D01*
X465970Y764789D01*
X465924Y764537D01*
X465868Y764287D01*
X465833Y764041D01*
X465788Y763798D01*
X465762Y763543D01*
X465726Y763289D01*
X465710Y763041D01*
X465685Y762795D01*
X465679Y762539D01*
X465663Y762283D01*
X465668Y762035D01*
X465662Y761788D01*
X465676Y761532D01*
X465681Y761275D01*
X465705Y761029D01*
X465719Y760782D01*
X465754Y760527D01*
X465778Y760272D01*
X465822Y760029D01*
X465855Y759783D01*
X465910Y759533D01*
X465955Y759280D01*
X466055Y758869D01*
X466070Y758799D01*
X466077Y758777D01*
X466080Y758761D01*
X466085Y758747D01*
X466093Y758713D01*
X467361Y753982D01*
X467361Y744618D01*
X464937Y735574D01*
X460256Y727465D01*
X452970Y720180D01*
X452898Y720102D01*
X452821Y720028D01*
X452556Y719732D01*
X452286Y719439D01*
X452221Y719356D01*
X452150Y719277D01*
X451909Y718960D01*
X451664Y718647D01*
X451605Y718559D01*
X451541Y718474D01*
X451326Y718140D01*
X451105Y717808D01*
X451054Y717715D01*
X450997Y717626D01*
X450809Y717275D01*
X450616Y716927D01*
X450572Y716831D01*
X450521Y716737D01*
X450362Y716373D01*
X450197Y716011D01*
X450161Y715911D01*
X450118Y715814D01*
X449989Y715437D01*
X449853Y715064D01*
X449825Y714962D01*
X449790Y714861D01*
X449690Y714475D01*
X449584Y714092D01*
X449564Y713988D01*
X449538Y713885D01*
X449469Y713494D01*
X449394Y713103D01*
X449382Y712997D01*
X449364Y712893D01*
X449327Y712497D01*
X449283Y712101D01*
X449279Y711995D01*
X449269Y711889D01*
X449264Y711492D01*
X449251Y711094D01*
X449256Y710988D01*
X449255Y710882D01*
X449280Y710485D01*
X449300Y710087D01*
X449313Y709982D01*
X449320Y709876D01*
X449377Y709482D01*
X449428Y709088D01*
X449449Y708984D01*
X449465Y708879D01*
X449553Y708490D01*
X449634Y708101D01*
X449664Y708000D01*
X449688Y707896D01*
X449807Y707517D01*
X449919Y707135D01*
X449957Y707035D01*
X449989Y706934D01*
X450137Y706566D01*
X450279Y706194D01*
X450325Y706098D01*
X450364Y705999D01*
X450542Y705643D01*
X450713Y705284D01*
X450766Y705192D01*
X450813Y705097D01*
X451018Y704756D01*
X451217Y704412D01*
X451278Y704324D01*
X451332Y704233D01*
X451563Y703910D01*
X451789Y703582D01*
X451857Y703499D01*
X451918Y703413D01*
X452174Y703109D01*
X452425Y702800D01*
X452499Y702724D01*
X452567Y702642D01*
X452970Y702220D01*
X460256Y694935D01*
X464937Y686826D01*
X467361Y677782D01*
X467361Y668418D01*
X464937Y659374D01*
X460256Y651265D01*
X453635Y644644D01*
X445526Y639963D01*
X436482Y637539D01*
X427118Y637539D01*
X418074Y639963D01*
X409965Y644644D01*
X403344Y651265D01*
X398663Y659374D01*
X396239Y668418D01*
X396239Y677782D01*
X398663Y686826D01*
X403344Y694935D01*
X410630Y702220D01*
X410651Y702243D01*
X410670Y702261D01*
X410716Y702312D01*
X410779Y702372D01*
X411043Y702668D01*
X411314Y702961D01*
X411379Y703044D01*
X411450Y703123D01*
X411691Y703440D01*
X411936Y703753D01*
X411995Y703841D01*
X412059Y703926D01*
X412274Y704261D01*
X412495Y704592D01*
X412546Y704685D01*
X412603Y704774D01*
X412791Y705124D01*
X412984Y705472D01*
X413029Y705569D01*
X413078Y705663D01*
X413238Y706027D01*
X413403Y706389D01*
X413439Y706489D01*
X413482Y706586D01*
X413611Y706962D01*
X413747Y707336D01*
X413776Y707439D01*
X413810Y707539D01*
X413909Y707923D01*
X414016Y708308D01*
X414036Y708412D01*
X414062Y708515D01*
X414131Y708906D01*
X414206Y709297D01*
X414218Y709403D01*
X414236Y709507D01*
X414273Y709904D01*
X414317Y710299D01*
X414321Y710405D01*
X414331Y710511D01*
X414336Y710909D01*
X414349Y711306D01*
X414344Y711412D01*
X414345Y711518D01*
X414320Y711915D01*
X414300Y712313D01*
X414287Y712418D01*
X414280Y712524D01*
X414223Y712917D01*
X414172Y713312D01*
X414151Y713416D01*
X414135Y713521D01*
X414047Y713908D01*
X413966Y714298D01*
X413936Y714400D01*
X413912Y714504D01*
X413793Y714883D01*
X413681Y715265D01*
X413643Y715364D01*
X413611Y715466D01*
X413463Y715835D01*
X413321Y716206D01*
X413275Y716302D01*
X413236Y716401D01*
X413059Y716757D01*
X412887Y717116D01*
X412834Y717208D01*
X412787Y717303D01*
X412582Y717643D01*
X412383Y717988D01*
X412323Y718076D01*
X412268Y718167D01*
X412036Y718491D01*
X411811Y718818D01*
X411744Y718900D01*
X411682Y718987D01*
X411426Y719291D01*
X411175Y719600D01*
X411101Y719677D01*
X411033Y719758D01*
X410630Y720180D01*
X403344Y727465D01*
X398663Y735574D01*
X396239Y744618D01*
X396239Y753982D01*
X397507Y758713D01*
X397564Y758963D01*
X397576Y759011D01*
X397630Y759211D01*
X397675Y759455D01*
X397729Y759696D01*
X397766Y759950D01*
X397812Y760202D01*
X397837Y760448D01*
X397872Y760694D01*
X397889Y760950D01*
X397915Y761205D01*
X397921Y761452D01*
X397936Y761699D01*
X397932Y761956D01*
X397938Y762212D01*
X397924Y762459D01*
X397920Y762707D01*
X397896Y762962D01*
X397881Y763218D01*
X397848Y763464D01*
X397824Y763710D01*
X397780Y763962D01*
X397745Y764217D01*
X397692Y764459D01*
X397649Y764703D01*
X397584Y764951D01*
X397530Y765201D01*
X397458Y765438D01*
X397396Y765678D01*
X397312Y765920D01*
X397237Y766166D01*
X397147Y766396D01*
X397066Y766630D01*
X396963Y766865D01*
X396869Y767104D01*
X396761Y767326D01*
X396661Y767553D01*
X396540Y767779D01*
X396428Y768010D01*
X396302Y768223D01*
X396185Y768441D01*
X396046Y768657D01*
X395916Y768878D01*
X395774Y769081D01*
X395640Y769289D01*
X395485Y769493D01*
X395337Y769703D01*
X395179Y769894D01*
X395029Y770090D01*
X394858Y770282D01*
X394695Y770479D01*
X394522Y770656D01*
X394357Y770841D01*
X394171Y771018D01*
X393992Y771202D01*
X393806Y771366D01*
X393627Y771536D01*
X393428Y771697D01*
X393235Y771867D01*
X393036Y772015D01*
X392845Y772171D01*
X392634Y772316D01*
X392428Y772470D01*
X392218Y772602D01*
X392014Y772742D01*
X391792Y772870D01*
X391575Y773007D01*
X391356Y773121D01*
X391141Y773245D01*
X390909Y773355D01*
X390682Y773474D01*
X390454Y773571D01*
X390231Y773678D01*
X389991Y773769D01*
X389755Y773870D01*
X389520Y773949D01*
X389289Y774037D01*
X389044Y774109D01*
X388800Y774190D01*
X388559Y774250D01*
X388322Y774320D01*
X388071Y774372D01*
X387822Y774434D01*
X387578Y774475D01*
X387335Y774525D01*
X387081Y774558D01*
X386828Y774600D01*
X386581Y774621D01*
X386336Y774652D01*
X386080Y774664D01*
X385824Y774686D01*
X385402Y774696D01*
X385329Y774699D01*
X385298Y774698D01*
X385241Y774699D01*
X300559Y774699D01*
X300303Y774689D01*
X300047Y774689D01*
X299800Y774669D01*
X299553Y774659D01*
X299297Y774629D01*
X299042Y774608D01*
X298798Y774569D01*
X298552Y774540D01*
X298301Y774489D01*
X298047Y774448D01*
X297807Y774390D01*
X297564Y774341D01*
X297317Y774271D01*
X297068Y774210D01*
X296833Y774133D01*
X296595Y774065D01*
X296355Y773975D01*
X296111Y773895D01*
X295883Y773799D01*
X295651Y773712D01*
X295418Y773604D01*
X295182Y773504D01*
X294962Y773391D01*
X294737Y773286D01*
X294515Y773160D01*
X294287Y773042D01*
X294076Y772911D01*
X293861Y772789D01*
X293649Y772645D01*
X293431Y772510D01*
X293232Y772363D01*
X293027Y772224D01*
X292826Y772064D01*
X292620Y771911D01*
X292433Y771749D01*
X292240Y771594D01*
X292053Y771419D01*
X291859Y771251D01*
X291685Y771074D01*
X291505Y770904D01*
X291333Y770715D01*
X291153Y770532D01*
X290994Y770342D01*
X290827Y770158D01*
X290671Y769955D01*
X290506Y769759D01*
X290363Y769557D01*
X290211Y769361D01*
X290071Y769146D01*
X289923Y768937D01*
X289796Y768725D01*
X289660Y768517D01*
X289537Y768292D01*
X289406Y768072D01*
X289296Y767850D01*
X289178Y767633D01*
X289073Y767399D01*
X288960Y767169D01*
X288868Y766938D01*
X288767Y766712D01*
X288681Y766471D01*
X288586Y766233D01*
X288513Y765996D01*
X288430Y765763D01*
X288364Y765515D01*
X288288Y765270D01*
X288234Y765028D01*
X288170Y764789D01*
X288124Y764537D01*
X288068Y764287D01*
X288033Y764041D01*
X287988Y763798D01*
X287962Y763543D01*
X287926Y763289D01*
X287910Y763041D01*
X287885Y762795D01*
X287879Y762539D01*
X287863Y762283D01*
X287868Y762035D01*
X287862Y761788D01*
X287876Y761532D01*
X287881Y761275D01*
X287905Y761029D01*
X287919Y760782D01*
X287954Y760527D01*
X287978Y760272D01*
X288022Y760029D01*
X288055Y759783D01*
X288110Y759533D01*
X288155Y759280D01*
X288255Y758869D01*
X288270Y758799D01*
X288277Y758777D01*
X288280Y758761D01*
X288285Y758747D01*
X288293Y758713D01*
X289561Y753982D01*
X289561Y744618D01*
X287137Y735574D01*
X282456Y727465D01*
X275170Y720180D01*
X275098Y720102D01*
X275021Y720028D01*
X274756Y719732D01*
X274486Y719439D01*
X274421Y719356D01*
X274350Y719277D01*
X274109Y718960D01*
X273864Y718647D01*
X273805Y718559D01*
X273741Y718474D01*
X273526Y718140D01*
X273305Y717808D01*
X273254Y717715D01*
X273197Y717626D01*
X273009Y717275D01*
X272816Y716927D01*
X272772Y716831D01*
X272721Y716737D01*
X272562Y716373D01*
X272397Y716011D01*
X272361Y715911D01*
X272318Y715814D01*
X272189Y715437D01*
X272053Y715064D01*
X272025Y714962D01*
X271990Y714861D01*
X271890Y714475D01*
X271784Y714092D01*
X271764Y713988D01*
X271738Y713885D01*
X271669Y713494D01*
X271594Y713103D01*
X271582Y712997D01*
X271564Y712893D01*
X271527Y712497D01*
X271483Y712101D01*
X271479Y711995D01*
X271469Y711889D01*
X271464Y711492D01*
X271451Y711094D01*
X271456Y710988D01*
X271455Y710882D01*
X271480Y710485D01*
X271500Y710087D01*
X271513Y709982D01*
X271520Y709876D01*
X271577Y709482D01*
X271628Y709088D01*
X271649Y708984D01*
X271665Y708879D01*
X271753Y708490D01*
X271834Y708101D01*
X271864Y708000D01*
X271888Y707896D01*
X272007Y707517D01*
X272119Y707135D01*
X272157Y707035D01*
X272189Y706934D01*
X272337Y706566D01*
X272479Y706194D01*
X272525Y706098D01*
X272564Y705999D01*
X272742Y705643D01*
X272913Y705284D01*
X272966Y705192D01*
X273013Y705097D01*
X273218Y704756D01*
X273417Y704412D01*
X273478Y704324D01*
X273532Y704233D01*
X273763Y703910D01*
X273989Y703582D01*
X274057Y703499D01*
X274118Y703413D01*
X274374Y703109D01*
X274625Y702800D01*
X274699Y702724D01*
X274767Y702642D01*
X275170Y702220D01*
X282456Y694935D01*
X287137Y686826D01*
X289561Y677782D01*
X289561Y668418D01*
X287137Y659374D01*
X282456Y651265D01*
X275835Y644644D01*
X267726Y639963D01*
X258682Y637539D01*
X249318Y637539D01*
X240274Y639963D01*
X232165Y644644D01*
X225544Y651265D01*
X220863Y659374D01*
X218439Y668418D01*
X218439Y677782D01*
X220863Y686826D01*
X225544Y694935D01*
X232830Y702220D01*
X232851Y702243D01*
X232870Y702261D01*
X232916Y702312D01*
X232979Y702372D01*
X233243Y702668D01*
X233514Y702961D01*
X233579Y703044D01*
X233650Y703123D01*
X233891Y703440D01*
X234136Y703753D01*
X234195Y703841D01*
X234259Y703926D01*
X234474Y704261D01*
X234695Y704592D01*
X234746Y704685D01*
X234803Y704774D01*
X234991Y705124D01*
X235184Y705472D01*
X235229Y705569D01*
X235278Y705663D01*
X235438Y706027D01*
X235603Y706389D01*
X235639Y706489D01*
X235682Y706586D01*
X235811Y706962D01*
X235947Y707336D01*
X235976Y707439D01*
X236010Y707539D01*
X236109Y707923D01*
X236216Y708308D01*
X236236Y708412D01*
X236262Y708515D01*
X236331Y708906D01*
X236406Y709297D01*
X236418Y709403D01*
X236436Y709507D01*
X236473Y709904D01*
X236517Y710299D01*
X236521Y710405D01*
X236531Y710511D01*
X236536Y710909D01*
X236549Y711306D01*
X236544Y711412D01*
X236545Y711518D01*
X236520Y711915D01*
X236500Y712313D01*
X236487Y712418D01*
X236480Y712524D01*
X236423Y712917D01*
X236372Y713312D01*
X236351Y713416D01*
X236335Y713521D01*
X236247Y713908D01*
X236166Y714298D01*
X236136Y714400D01*
X236112Y714504D01*
X235993Y714883D01*
X235881Y715265D01*
X235843Y715364D01*
X235811Y715466D01*
X235663Y715835D01*
X235521Y716206D01*
X235475Y716302D01*
X235436Y716401D01*
X235259Y716757D01*
X235087Y717116D01*
X235034Y717208D01*
X234987Y717303D01*
X234782Y717643D01*
X234583Y717988D01*
X234523Y718076D01*
X234468Y718167D01*
X234236Y718491D01*
X234011Y718818D01*
X233944Y718900D01*
X233882Y718987D01*
X233626Y719291D01*
X233375Y719600D01*
X233301Y719677D01*
X233233Y719758D01*
X232830Y720180D01*
X225544Y727465D01*
X220863Y735574D01*
X218439Y744618D01*
X218439Y753982D01*
X219707Y758713D01*
X219764Y758963D01*
X219776Y759011D01*
X219830Y759211D01*
X219875Y759455D01*
X219929Y759696D01*
X219966Y759950D01*
X220012Y760202D01*
X220037Y760448D01*
X220072Y760694D01*
X220089Y760950D01*
X220115Y761205D01*
X220121Y761452D01*
X220136Y761699D01*
X220132Y761956D01*
X220138Y762212D01*
X220124Y762459D01*
X220120Y762707D01*
X220096Y762962D01*
X220081Y763218D01*
X220048Y763464D01*
X220024Y763710D01*
X219980Y763962D01*
X219945Y764217D01*
X219892Y764459D01*
X219849Y764703D01*
X219784Y764951D01*
X219730Y765201D01*
X219658Y765438D01*
X219596Y765678D01*
X219512Y765920D01*
X219437Y766166D01*
X219347Y766396D01*
X219266Y766630D01*
X219163Y766865D01*
X219069Y767104D01*
X218961Y767326D01*
X218861Y767553D01*
X218740Y767779D01*
X218628Y768010D01*
X218502Y768223D01*
X218385Y768441D01*
X218246Y768657D01*
X218116Y768878D01*
X217974Y769081D01*
X217840Y769289D01*
X217685Y769493D01*
X217537Y769703D01*
X217379Y769894D01*
X217229Y770090D01*
X217058Y770282D01*
X216895Y770479D01*
X216722Y770656D01*
X216557Y770841D01*
X216371Y771018D01*
X216192Y771202D01*
X216006Y771366D01*
X215827Y771536D01*
X215628Y771697D01*
X215435Y771867D01*
X215236Y772015D01*
X215045Y772171D01*
X214834Y772316D01*
X214628Y772470D01*
X214418Y772602D01*
X214214Y772742D01*
X213992Y772870D01*
X213775Y773007D01*
X213556Y773121D01*
X213341Y773245D01*
X213109Y773355D01*
X212882Y773474D01*
X212654Y773571D01*
X212431Y773678D01*
X212191Y773769D01*
X211955Y773870D01*
X211720Y773949D01*
X211489Y774037D01*
X211244Y774109D01*
X211000Y774190D01*
X210759Y774250D01*
X210522Y774320D01*
X210271Y774372D01*
X210022Y774434D01*
X209778Y774475D01*
X209535Y774525D01*
X209281Y774558D01*
X209028Y774600D01*
X208781Y774621D01*
X208536Y774652D01*
X208280Y774664D01*
X208024Y774686D01*
X207602Y774696D01*
X207529Y774699D01*
X207498Y774698D01*
X207441Y774699D01*
X38105Y774699D01*
X37999Y774695D01*
X37893Y774697D01*
X37496Y774675D01*
X37098Y774659D01*
X36993Y774647D01*
X36887Y774641D01*
X36492Y774587D01*
X36097Y774540D01*
X35993Y774519D01*
X35888Y774504D01*
X35500Y774419D01*
X35109Y774341D01*
X35007Y774312D01*
X34904Y774289D01*
X34524Y774174D01*
X34140Y774065D01*
X34041Y774027D01*
X33939Y773997D01*
X33569Y773851D01*
X33196Y773712D01*
X33100Y773667D01*
X33001Y773629D01*
X32643Y773454D01*
X32283Y773286D01*
X32191Y773234D01*
X32095Y773187D01*
X31752Y772985D01*
X31406Y772789D01*
X31319Y772729D01*
X31227Y772676D01*
X30901Y772447D01*
X30572Y772224D01*
X30489Y772157D01*
X30402Y772097D01*
X30097Y771843D01*
X29785Y771594D01*
X29707Y771521D01*
X29626Y771454D01*
X29341Y771177D01*
X29051Y770904D01*
X28979Y770826D01*
X28903Y770752D01*
X28640Y770453D01*
X28373Y770158D01*
X28308Y770075D01*
X28238Y769995D01*
X28000Y769675D01*
X27757Y769361D01*
X27699Y769272D01*
X27635Y769187D01*
X27423Y768850D01*
X27206Y768517D01*
X27155Y768424D01*
X27098Y768334D01*
X26914Y767982D01*
X26723Y767633D01*
X26680Y767536D01*
X26631Y767442D01*
X26474Y767075D01*
X26312Y766712D01*
X26277Y766613D01*
X26235Y766515D01*
X26108Y766137D01*
X25976Y765763D01*
X25949Y765660D01*
X25915Y765559D01*
X25818Y765172D01*
X25716Y764789D01*
X25697Y764685D01*
X25671Y764582D01*
X25605Y764188D01*
X25534Y763798D01*
X25523Y763692D01*
X25505Y763588D01*
X25471Y763191D01*
X25431Y762795D01*
X25428Y762689D01*
X25419Y762583D01*
X25406Y762000D01*
X25406Y154105D01*
X25410Y153999D01*
X25408Y153893D01*
X25430Y153496D01*
X25446Y153098D01*
X25458Y152993D01*
X25464Y152887D01*
X25518Y152492D01*
X25565Y152097D01*
X25586Y151993D01*
X25601Y151888D01*
X25686Y151500D01*
X25764Y151109D01*
X25793Y151007D01*
X25816Y150904D01*
X25931Y150524D01*
X26040Y150140D01*
X26078Y150041D01*
X26108Y149939D01*
X26254Y149569D01*
X26393Y149196D01*
X26438Y149100D01*
X26476Y149001D01*
X26651Y148643D01*
X26819Y148283D01*
X26871Y148191D01*
X26918Y148095D01*
X27121Y147751D01*
X27316Y147406D01*
X27376Y147319D01*
X27429Y147227D01*
X27658Y146901D01*
X27881Y146572D01*
X27948Y146489D01*
X28008Y146402D01*
X28262Y146097D01*
X28511Y145785D01*
X28584Y145707D01*
X28651Y145626D01*
X28928Y145341D01*
X29201Y145051D01*
X29279Y144979D01*
X29353Y144903D01*
X29652Y144640D01*
X29947Y144373D01*
X30030Y144308D01*
X30110Y144238D01*
X30430Y144000D01*
X30744Y143757D01*
X30833Y143699D01*
X30918Y143635D01*
X31255Y143423D01*
X31588Y143206D01*
X31681Y143155D01*
X31771Y143098D01*
X32123Y142914D01*
X32472Y142723D01*
X32569Y142680D01*
X32663Y142631D01*
X33030Y142474D01*
X33393Y142312D01*
X33492Y142277D01*
X33590Y142235D01*
X33968Y142108D01*
X34342Y141976D01*
X34445Y141949D01*
X34546Y141915D01*
X34933Y141818D01*
X35316Y141716D01*
X35420Y141697D01*
X35523Y141671D01*
X35917Y141605D01*
X36307Y141534D01*
X36413Y141523D01*
X36517Y141505D01*
X36914Y141471D01*
X37310Y141431D01*
X37416Y141428D01*
X37522Y141419D01*
X38105Y141406D01*
X96035Y141406D01*
X96404Y141420D01*
X96774Y141427D01*
X96908Y141440D01*
X97042Y141446D01*
X97410Y141490D01*
X97777Y141526D01*
X97909Y141549D01*
X98043Y141565D01*
X98405Y141638D01*
X98768Y141703D01*
X98899Y141737D01*
X99031Y141764D01*
X99387Y141865D01*
X99743Y141959D01*
X99870Y142003D01*
X100000Y142040D01*
X100347Y142170D01*
X100695Y142291D01*
X100818Y142346D01*
X100944Y142393D01*
X101279Y142549D01*
X101617Y142698D01*
X101736Y142762D01*
X101857Y142819D01*
X102178Y143001D01*
X102504Y143176D01*
X102617Y143250D01*
X102734Y143316D01*
X103039Y143523D01*
X103350Y143724D01*
X103457Y143806D01*
X103568Y143881D01*
X103857Y144112D01*
X104150Y144336D01*
X104250Y144426D01*
X104355Y144511D01*
X104625Y144764D01*
X104899Y145011D01*
X104991Y145108D01*
X105090Y145201D01*
X105339Y145474D01*
X105592Y145742D01*
X105677Y145847D01*
X105767Y145947D01*
X105994Y146239D01*
X106225Y146526D01*
X106301Y146637D01*
X106384Y146744D01*
X106585Y147053D01*
X106794Y147358D01*
X106861Y147475D01*
X106935Y147588D01*
X107111Y147912D01*
X107295Y148232D01*
X107353Y148354D01*
X107417Y148472D01*
X107568Y148809D01*
X107725Y149144D01*
X107773Y149270D01*
X107828Y149393D01*
X107951Y149740D01*
X108082Y150086D01*
X108119Y150215D01*
X108164Y150342D01*
X108260Y150699D01*
X108363Y151054D01*
X108390Y151186D01*
X108425Y151316D01*
X108491Y151679D01*
X108566Y152041D01*
X108582Y152175D01*
X108607Y152307D01*
X108644Y152674D01*
X108690Y153041D01*
X108696Y153176D01*
X108710Y153310D01*
X108718Y153678D01*
X108735Y154048D01*
X108730Y154183D01*
X108733Y154317D01*
X108712Y154685D01*
X108699Y155055D01*
X108681Y155243D01*
X108676Y155323D01*
X108664Y155410D01*
X108642Y155636D01*
X108449Y157225D01*
X109657Y167177D01*
X113212Y176550D01*
X118907Y184800D01*
X126411Y191448D01*
X135287Y196107D01*
X145021Y198506D01*
X155045Y198506D01*
X164779Y196107D01*
X173655Y191448D01*
X181159Y184800D01*
X186854Y176550D01*
X190409Y167177D01*
X191617Y157225D01*
X191424Y155636D01*
X191394Y155267D01*
X191356Y154900D01*
X191353Y154766D01*
X191342Y154631D01*
X191342Y154261D01*
X191333Y153893D01*
X191341Y153758D01*
X191340Y153624D01*
X191369Y153255D01*
X191390Y152887D01*
X191408Y152753D01*
X191419Y152619D01*
X191476Y152254D01*
X191526Y151888D01*
X191555Y151756D01*
X191576Y151624D01*
X191663Y151265D01*
X191741Y150904D01*
X191781Y150775D01*
X191812Y150644D01*
X191927Y150293D01*
X192034Y149939D01*
X192083Y149814D01*
X192125Y149686D01*
X192267Y149345D01*
X192402Y149001D01*
X192461Y148880D01*
X192513Y148756D01*
X192682Y148427D01*
X192843Y148095D01*
X192912Y147979D01*
X192973Y147859D01*
X193167Y147546D01*
X193355Y147227D01*
X193433Y147117D01*
X193503Y147002D01*
X193722Y146705D01*
X193934Y146402D01*
X194020Y146298D01*
X194100Y146190D01*
X194341Y145910D01*
X194577Y145626D01*
X194670Y145530D01*
X194759Y145427D01*
X195022Y145168D01*
X195279Y144903D01*
X195380Y144814D01*
X195476Y144720D01*
X195758Y144482D01*
X196036Y144238D01*
X196144Y144157D01*
X196247Y144071D01*
X196547Y143857D01*
X196843Y143635D01*
X196958Y143563D01*
X197067Y143485D01*
X197383Y143295D01*
X197696Y143098D01*
X197816Y143036D01*
X197931Y142966D01*
X198262Y142802D01*
X198589Y142631D01*
X198713Y142578D01*
X198833Y142518D01*
X199176Y142380D01*
X199516Y142235D01*
X199643Y142193D01*
X199769Y142142D01*
X200121Y142032D01*
X200471Y141915D01*
X200602Y141882D01*
X200731Y141842D01*
X201090Y141760D01*
X201449Y141671D01*
X201582Y141649D01*
X201713Y141619D01*
X202079Y141566D01*
X202443Y141505D01*
X202577Y141494D01*
X202711Y141475D01*
X203079Y141451D01*
X203447Y141419D01*
X203636Y141415D01*
X203716Y141410D01*
X203805Y141411D01*
X204031Y141406D01*
X424298Y141406D01*
X424307Y141406D01*
X424317Y141406D01*
X424809Y141426D01*
X425305Y141446D01*
X425315Y141447D01*
X425324Y141447D01*
X425501Y141469D01*
X434541Y141469D01*
X434613Y141463D01*
X435025Y141427D01*
X441191Y140019D01*
X441314Y139996D01*
X441435Y139966D01*
X441810Y139904D01*
X442182Y139834D01*
X442306Y139821D01*
X442429Y139800D01*
X442806Y139768D01*
X443184Y139728D01*
X443309Y139725D01*
X443433Y139714D01*
X444017Y139701D01*
X477340Y139701D01*
X482601Y134440D01*
X482601Y38105D01*
X482605Y37999D01*
X482603Y37893D01*
X482625Y37496D01*
X482641Y37098D01*
X482653Y36993D01*
X482659Y36887D01*
X482713Y36492D01*
X482760Y36097D01*
X482781Y35993D01*
X482796Y35888D01*
X482881Y35500D01*
X482959Y35109D01*
X482988Y35007D01*
X483011Y34904D01*
X483126Y34524D01*
X483235Y34140D01*
X483273Y34041D01*
X483303Y33939D01*
X483449Y33569D01*
X483588Y33196D01*
X483633Y33100D01*
X483671Y33001D01*
X483846Y32643D01*
X484014Y32283D01*
X484066Y32191D01*
X484113Y32095D01*
X484315Y31752D01*
X484511Y31406D01*
X484571Y31319D01*
X484625Y31227D01*
X484853Y30901D01*
X485076Y30572D01*
X485143Y30489D01*
X485203Y30402D01*
X485457Y30097D01*
X485706Y29785D01*
X485779Y29707D01*
X485846Y29626D01*
X486123Y29341D01*
X486396Y29051D01*
X486474Y28979D01*
X486548Y28903D01*
X486847Y28640D01*
X487142Y28373D01*
X487226Y28308D01*
X487305Y28238D01*
X487625Y28000D01*
X487939Y27757D01*
X488028Y27699D01*
X488113Y27635D01*
X488450Y27423D01*
X488783Y27206D01*
X488876Y27155D01*
X488966Y27098D01*
X489318Y26914D01*
X489667Y26723D01*
X489764Y26680D01*
X489858Y26631D01*
X490225Y26474D01*
X490588Y26312D01*
X490687Y26277D01*
X490785Y26235D01*
X491163Y26108D01*
X491537Y25976D01*
X491640Y25949D01*
X491741Y25915D01*
X492128Y25818D01*
X492511Y25716D01*
X492615Y25697D01*
X492718Y25671D01*
X493112Y25605D01*
X493502Y25534D01*
X493608Y25523D01*
X493712Y25505D01*
X494109Y25471D01*
X494505Y25431D01*
X494611Y25428D01*
X494717Y25419D01*
X495300Y25406D01*
X1028700Y25406D01*
X1028806Y25410D01*
G37*
G36*
X64876Y876305D02*
X64876Y876305D01*
X64982Y876303D01*
X65379Y876325D01*
X65777Y876341D01*
X65882Y876353D01*
X65988Y876359D01*
X66383Y876413D01*
X66778Y876460D01*
X66882Y876481D01*
X66987Y876496D01*
X67375Y876581D01*
X67766Y876659D01*
X67868Y876688D01*
X67971Y876711D01*
X68351Y876826D01*
X68735Y876935D01*
X68834Y876973D01*
X68936Y877003D01*
X69306Y877149D01*
X69679Y877288D01*
X69775Y877333D01*
X69874Y877371D01*
X70232Y877546D01*
X70592Y877714D01*
X70684Y877766D01*
X70780Y877813D01*
X71123Y878015D01*
X71469Y878211D01*
X71556Y878271D01*
X71648Y878325D01*
X71974Y878553D01*
X72303Y878776D01*
X72386Y878843D01*
X72473Y878903D01*
X72778Y879157D01*
X73090Y879406D01*
X73168Y879479D01*
X73249Y879546D01*
X73534Y879823D01*
X73824Y880096D01*
X73896Y880174D01*
X73972Y880248D01*
X74235Y880547D01*
X74502Y880842D01*
X74567Y880926D01*
X74637Y881005D01*
X74875Y881325D01*
X75118Y881639D01*
X75176Y881728D01*
X75240Y881813D01*
X75452Y882150D01*
X75669Y882483D01*
X75720Y882576D01*
X75777Y882666D01*
X75961Y883018D01*
X76152Y883367D01*
X76195Y883464D01*
X76244Y883558D01*
X76401Y883925D01*
X76563Y884288D01*
X76598Y884387D01*
X76640Y884485D01*
X76767Y884863D01*
X76899Y885237D01*
X76926Y885340D01*
X76960Y885441D01*
X77057Y885828D01*
X77159Y886211D01*
X77178Y886315D01*
X77204Y886418D01*
X77270Y886812D01*
X77341Y887202D01*
X77352Y887308D01*
X77370Y887412D01*
X77404Y887809D01*
X77444Y888205D01*
X77447Y888311D01*
X77456Y888417D01*
X77469Y889000D01*
X77469Y892412D01*
X79893Y901456D01*
X84574Y909565D01*
X91195Y916186D01*
X99304Y920867D01*
X107016Y922934D01*
X107261Y923010D01*
X107509Y923076D01*
X107742Y923159D01*
X107978Y923233D01*
X108216Y923328D01*
X108458Y923414D01*
X108684Y923516D01*
X108914Y923608D01*
X109144Y923722D01*
X109378Y923826D01*
X109595Y923945D01*
X109817Y924055D01*
X110037Y924187D01*
X110262Y924310D01*
X110469Y924446D01*
X110681Y924573D01*
X110890Y924722D01*
X111105Y924862D01*
X111301Y925014D01*
X111502Y925158D01*
X111698Y925322D01*
X111901Y925480D01*
X112084Y925647D01*
X112274Y925806D01*
X112456Y925985D01*
X112646Y926158D01*
X112816Y926339D01*
X112992Y926513D01*
X113160Y926707D01*
X113335Y926894D01*
X113489Y927087D01*
X113652Y927274D01*
X113804Y927481D01*
X113964Y927682D01*
X114102Y927887D01*
X114249Y928086D01*
X114384Y928304D01*
X114527Y928517D01*
X114649Y928732D01*
X114780Y928943D01*
X114897Y929170D01*
X115023Y929394D01*
X115128Y929618D01*
X115241Y929839D01*
X115340Y930076D01*
X115448Y930308D01*
X115534Y930540D01*
X115630Y930768D01*
X115710Y931012D01*
X115799Y931252D01*
X115867Y931490D01*
X115944Y931726D01*
X116004Y931975D01*
X116074Y932222D01*
X116123Y932465D01*
X116181Y932705D01*
X116221Y932958D01*
X116272Y933210D01*
X116301Y933456D01*
X116340Y933701D01*
X116360Y933956D01*
X116390Y934211D01*
X116399Y934459D01*
X116419Y934705D01*
X116419Y934961D01*
X116429Y935218D01*
X116418Y935465D01*
X116418Y935713D01*
X116398Y935969D01*
X116387Y936225D01*
X116357Y936470D01*
X116338Y936717D01*
X116297Y936971D01*
X116266Y937225D01*
X116217Y937468D01*
X116178Y937712D01*
X116117Y937962D01*
X116066Y938213D01*
X115998Y938451D01*
X115939Y938692D01*
X115859Y938935D01*
X115788Y939182D01*
X115702Y939413D01*
X115624Y939649D01*
X115524Y939885D01*
X115435Y940125D01*
X115330Y940350D01*
X115234Y940578D01*
X115116Y940805D01*
X115007Y941038D01*
X114804Y941409D01*
X114771Y941473D01*
X114755Y941499D01*
X114727Y941550D01*
X110978Y948043D01*
X107949Y959348D01*
X107949Y971052D01*
X110979Y982357D01*
X112071Y984250D01*
X112215Y984524D01*
X112368Y984794D01*
X112410Y984884D01*
X112452Y984961D01*
X112490Y985047D01*
X112540Y985142D01*
X112662Y985427D01*
X112793Y985708D01*
X112830Y985809D01*
X112863Y985882D01*
X112891Y985961D01*
X112937Y986069D01*
X113036Y986362D01*
X113144Y986652D01*
X113175Y986764D01*
X113199Y986831D01*
X113219Y986905D01*
X113259Y987024D01*
X113334Y987324D01*
X113419Y987622D01*
X113443Y987744D01*
X113459Y987805D01*
X113472Y987872D01*
X113504Y988001D01*
X113555Y988307D01*
X113616Y988610D01*
X113632Y988742D01*
X113642Y988796D01*
X113648Y988856D01*
X113671Y988995D01*
X113698Y989303D01*
X113734Y989611D01*
X113740Y989752D01*
X113744Y989799D01*
X113746Y989850D01*
X113759Y989999D01*
X113761Y990309D01*
X113773Y990618D01*
X113767Y990767D01*
X113768Y990806D01*
X113765Y990850D01*
X113766Y991007D01*
X113744Y991316D01*
X113731Y991625D01*
X113713Y991779D01*
X113711Y991812D01*
X113706Y991849D01*
X113694Y992012D01*
X113648Y992318D01*
X113610Y992625D01*
X113578Y992785D01*
X113574Y992811D01*
X113568Y992840D01*
X113542Y993008D01*
X113472Y993309D01*
X113410Y993613D01*
X113363Y993776D01*
X113359Y993795D01*
X113352Y993818D01*
X113312Y993989D01*
X113218Y994284D01*
X113133Y994581D01*
X113071Y994746D01*
X113067Y994760D01*
X113060Y994776D01*
X113005Y994949D01*
X112888Y995235D01*
X112779Y995525D01*
X112702Y995690D01*
X112699Y995698D01*
X112694Y995708D01*
X112623Y995881D01*
X112483Y996157D01*
X112352Y996438D01*
X112209Y996698D01*
X112167Y996780D01*
X112135Y996834D01*
X112071Y996950D01*
X110979Y998843D01*
X107949Y1010148D01*
X107949Y1021852D01*
X110979Y1033157D01*
X116831Y1043293D01*
X125107Y1051569D01*
X135243Y1057421D01*
X146548Y1060451D01*
X158252Y1060451D01*
X161178Y1059667D01*
X161428Y1059610D01*
X161676Y1059544D01*
X161920Y1059499D01*
X162161Y1059445D01*
X162415Y1059408D01*
X162667Y1059362D01*
X162913Y1059337D01*
X163159Y1059301D01*
X163415Y1059285D01*
X163670Y1059259D01*
X163917Y1059253D01*
X164164Y1059237D01*
X164421Y1059242D01*
X164677Y1059236D01*
X164924Y1059250D01*
X165172Y1059254D01*
X165427Y1059278D01*
X165683Y1059292D01*
X165929Y1059326D01*
X166175Y1059350D01*
X166428Y1059394D01*
X166682Y1059429D01*
X166924Y1059482D01*
X167167Y1059525D01*
X167416Y1059589D01*
X167666Y1059644D01*
X167903Y1059716D01*
X168143Y1059778D01*
X168385Y1059862D01*
X168631Y1059937D01*
X168861Y1060027D01*
X169095Y1060108D01*
X169330Y1060211D01*
X169569Y1060305D01*
X169791Y1060413D01*
X170018Y1060512D01*
X170244Y1060634D01*
X170475Y1060746D01*
X170688Y1060872D01*
X170906Y1060989D01*
X171122Y1061127D01*
X171343Y1061258D01*
X171545Y1061400D01*
X171754Y1061534D01*
X171958Y1061689D01*
X172168Y1061837D01*
X172358Y1061994D01*
X172555Y1062145D01*
X172747Y1062316D01*
X172944Y1062479D01*
X173121Y1062651D01*
X173306Y1062817D01*
X173483Y1063003D01*
X173667Y1063181D01*
X173830Y1063367D01*
X174001Y1063547D01*
X174162Y1063745D01*
X174332Y1063938D01*
X174480Y1064137D01*
X174636Y1064329D01*
X174781Y1064540D01*
X174935Y1064746D01*
X175067Y1064956D01*
X175207Y1065160D01*
X175335Y1065381D01*
X175472Y1065599D01*
X175587Y1065818D01*
X175710Y1066033D01*
X175820Y1066264D01*
X175939Y1066491D01*
X176036Y1066719D01*
X176143Y1066943D01*
X176234Y1067183D01*
X176335Y1067418D01*
X176413Y1067653D01*
X176502Y1067884D01*
X176574Y1068130D01*
X176655Y1068374D01*
X176715Y1068614D01*
X176785Y1068852D01*
X176837Y1069103D01*
X176899Y1069352D01*
X176940Y1069596D01*
X176990Y1069838D01*
X177022Y1070093D01*
X177065Y1070346D01*
X177086Y1070592D01*
X177117Y1070838D01*
X177129Y1071094D01*
X177151Y1071350D01*
X177161Y1071772D01*
X177164Y1071845D01*
X177163Y1071876D01*
X177164Y1071933D01*
X177164Y1239343D01*
X177162Y1239396D01*
X177164Y1239449D01*
X177142Y1239899D01*
X177124Y1240350D01*
X177118Y1240403D01*
X177115Y1240456D01*
X177058Y1240902D01*
X177005Y1241350D01*
X176994Y1241402D01*
X176987Y1241455D01*
X176895Y1241896D01*
X176806Y1242338D01*
X176791Y1242389D01*
X176780Y1242441D01*
X176653Y1242874D01*
X176530Y1243307D01*
X176511Y1243357D01*
X176496Y1243408D01*
X176335Y1243828D01*
X176177Y1244252D01*
X176155Y1244300D01*
X176136Y1244349D01*
X175942Y1244755D01*
X175751Y1245165D01*
X175725Y1245211D01*
X175702Y1245259D01*
X175476Y1245650D01*
X175254Y1246041D01*
X175224Y1246085D01*
X175198Y1246131D01*
X174942Y1246502D01*
X174689Y1246876D01*
X174656Y1246917D01*
X174625Y1246961D01*
X174341Y1247311D01*
X174059Y1247663D01*
X174023Y1247701D01*
X173989Y1247743D01*
X173678Y1248069D01*
X173369Y1248397D01*
X173330Y1248433D01*
X173293Y1248471D01*
X172958Y1248771D01*
X172623Y1249075D01*
X172581Y1249107D01*
X172542Y1249143D01*
X172184Y1249414D01*
X171826Y1249691D01*
X171782Y1249720D01*
X171739Y1249752D01*
X171361Y1249995D01*
X170982Y1250242D01*
X170936Y1250268D01*
X170891Y1250296D01*
X170494Y1250509D01*
X170098Y1250725D01*
X170049Y1250746D01*
X170002Y1250771D01*
X169588Y1250952D01*
X169177Y1251135D01*
X169128Y1251153D01*
X169079Y1251174D01*
X168652Y1251322D01*
X168228Y1251472D01*
X168176Y1251486D01*
X168126Y1251503D01*
X167690Y1251616D01*
X167254Y1251732D01*
X167202Y1251742D01*
X167150Y1251755D01*
X166706Y1251833D01*
X166263Y1251914D01*
X166210Y1251920D01*
X166158Y1251929D01*
X165708Y1251971D01*
X165260Y1252017D01*
X165207Y1252018D01*
X165154Y1252023D01*
X164703Y1252030D01*
X164253Y1252040D01*
X164200Y1252037D01*
X164147Y1252038D01*
X163697Y1252009D01*
X163247Y1251983D01*
X163194Y1251976D01*
X163141Y1251973D01*
X162695Y1251908D01*
X162248Y1251847D01*
X162196Y1251836D01*
X162144Y1251828D01*
X161704Y1251728D01*
X161264Y1251632D01*
X161213Y1251616D01*
X161161Y1251605D01*
X160731Y1251470D01*
X160299Y1251339D01*
X160250Y1251320D01*
X160199Y1251304D01*
X159780Y1251136D01*
X159361Y1250971D01*
X159314Y1250948D01*
X159264Y1250928D01*
X158861Y1250728D01*
X158455Y1250530D01*
X158409Y1250503D01*
X158362Y1250479D01*
X157976Y1250248D01*
X157587Y1250018D01*
X157544Y1249988D01*
X157498Y1249960D01*
X157131Y1249698D01*
X156762Y1249439D01*
X156722Y1249406D01*
X156678Y1249375D01*
X156332Y1249083D01*
X155986Y1248797D01*
X155948Y1248760D01*
X155907Y1248726D01*
X155485Y1248322D01*
X154293Y1247131D01*
X144157Y1241279D01*
X132852Y1238249D01*
X121148Y1238249D01*
X109843Y1241279D01*
X99707Y1247131D01*
X91431Y1255407D01*
X85579Y1265543D01*
X82549Y1276848D01*
X82549Y1288552D01*
X85579Y1299857D01*
X91431Y1309993D01*
X99707Y1318269D01*
X109843Y1324121D01*
X121148Y1327151D01*
X132852Y1327151D01*
X144157Y1324121D01*
X154293Y1318269D01*
X155485Y1317078D01*
X155524Y1317042D01*
X155561Y1317003D01*
X155895Y1316699D01*
X156226Y1316394D01*
X156267Y1316361D01*
X156307Y1316325D01*
X156665Y1316048D01*
X157018Y1315771D01*
X157062Y1315742D01*
X157104Y1315709D01*
X157482Y1315462D01*
X157857Y1315213D01*
X157903Y1315187D01*
X157948Y1315158D01*
X158344Y1314942D01*
X158737Y1314723D01*
X158786Y1314701D01*
X158832Y1314675D01*
X159243Y1314492D01*
X159654Y1314304D01*
X159704Y1314286D01*
X159753Y1314265D01*
X160177Y1314114D01*
X160601Y1313960D01*
X160652Y1313946D01*
X160702Y1313928D01*
X161138Y1313812D01*
X161573Y1313692D01*
X161625Y1313682D01*
X161676Y1313668D01*
X162120Y1313586D01*
X162562Y1313501D01*
X162615Y1313495D01*
X162667Y1313486D01*
X163116Y1313440D01*
X163564Y1313390D01*
X163617Y1313388D01*
X163670Y1313383D01*
X164120Y1313373D01*
X164571Y1313358D01*
X164624Y1313361D01*
X164677Y1313360D01*
X165128Y1313385D01*
X165578Y1313407D01*
X165630Y1313414D01*
X165683Y1313417D01*
X166131Y1313478D01*
X166577Y1313535D01*
X166629Y1313546D01*
X166682Y1313553D01*
X167122Y1313649D01*
X167563Y1313742D01*
X167615Y1313757D01*
X167666Y1313768D01*
X168098Y1313899D01*
X168530Y1314026D01*
X168580Y1314045D01*
X168631Y1314061D01*
X169050Y1314225D01*
X169471Y1314386D01*
X169520Y1314409D01*
X169569Y1314429D01*
X169973Y1314626D01*
X170381Y1314820D01*
X170427Y1314847D01*
X170475Y1314870D01*
X170864Y1315100D01*
X171253Y1315325D01*
X171297Y1315355D01*
X171343Y1315382D01*
X171712Y1315641D01*
X172083Y1315897D01*
X172124Y1315930D01*
X172168Y1315961D01*
X172514Y1316247D01*
X172865Y1316533D01*
X172903Y1316570D01*
X172944Y1316603D01*
X173266Y1316916D01*
X173593Y1317229D01*
X173629Y1317268D01*
X173667Y1317305D01*
X173965Y1317644D01*
X174265Y1317980D01*
X174297Y1318022D01*
X174332Y1318063D01*
X174603Y1318426D01*
X174874Y1318783D01*
X174903Y1318827D01*
X174935Y1318870D01*
X175176Y1319253D01*
X175418Y1319631D01*
X175443Y1319678D01*
X175472Y1319723D01*
X175681Y1320122D01*
X175893Y1320520D01*
X175915Y1320568D01*
X175939Y1320616D01*
X176116Y1321031D01*
X176296Y1321443D01*
X176314Y1321494D01*
X176335Y1321542D01*
X176478Y1321970D01*
X176625Y1322396D01*
X176638Y1322447D01*
X176655Y1322498D01*
X176765Y1322937D01*
X176877Y1323372D01*
X176886Y1323424D01*
X176899Y1323476D01*
X176973Y1323922D01*
X177051Y1324364D01*
X177056Y1324417D01*
X177065Y1324470D01*
X177103Y1324919D01*
X177146Y1325368D01*
X177146Y1325421D01*
X177151Y1325474D01*
X177164Y1326057D01*
X177164Y1336928D01*
X178939Y1343549D01*
X182366Y1349486D01*
X187214Y1354334D01*
X193151Y1357761D01*
X199772Y1359536D01*
X308228Y1359536D01*
X314849Y1357761D01*
X320786Y1354334D01*
X325634Y1349486D01*
X329061Y1343549D01*
X330633Y1337683D01*
X330694Y1337488D01*
X330745Y1337291D01*
X330844Y1337007D01*
X330933Y1336720D01*
X331008Y1336532D01*
X331075Y1336339D01*
X331196Y1336063D01*
X331307Y1335785D01*
X331398Y1335603D01*
X331479Y1335416D01*
X331622Y1335151D01*
X331755Y1334882D01*
X331859Y1334708D01*
X331956Y1334528D01*
X332118Y1334275D01*
X332273Y1334017D01*
X332391Y1333852D01*
X332501Y1333680D01*
X332683Y1333442D01*
X332857Y1333196D01*
X332989Y1333040D01*
X333111Y1332879D01*
X333312Y1332655D01*
X333505Y1332425D01*
X333648Y1332280D01*
X333784Y1332128D01*
X334002Y1331921D01*
X334212Y1331707D01*
X334366Y1331573D01*
X334514Y1331433D01*
X334747Y1331244D01*
X334974Y1331047D01*
X335138Y1330926D01*
X335296Y1330798D01*
X335544Y1330628D01*
X335786Y1330450D01*
X335959Y1330343D01*
X336127Y1330227D01*
X336387Y1330077D01*
X336642Y1329919D01*
X336823Y1329826D01*
X337000Y1329724D01*
X337271Y1329595D01*
X337538Y1329457D01*
X337726Y1329379D01*
X337910Y1329292D01*
X338191Y1329184D01*
X338468Y1329069D01*
X338661Y1329005D01*
X338851Y1328933D01*
X339140Y1328848D01*
X339426Y1328755D01*
X339623Y1328707D01*
X339819Y1328650D01*
X340113Y1328588D01*
X340405Y1328518D01*
X340606Y1328486D01*
X340805Y1328444D01*
X341104Y1328406D01*
X341400Y1328359D01*
X341603Y1328343D01*
X341805Y1328317D01*
X342105Y1328303D01*
X342405Y1328280D01*
X342608Y1328280D01*
X342812Y1328270D01*
X343112Y1328280D01*
X343413Y1328280D01*
X343616Y1328297D01*
X343819Y1328303D01*
X344118Y1328337D01*
X344417Y1328361D01*
X344618Y1328393D01*
X344820Y1328416D01*
X345115Y1328473D01*
X345412Y1328521D01*
X345610Y1328569D01*
X345810Y1328608D01*
X346099Y1328688D01*
X346391Y1328759D01*
X346584Y1328823D01*
X346781Y1328877D01*
X347063Y1328981D01*
X347348Y1329075D01*
X347536Y1329153D01*
X347727Y1329223D01*
X348001Y1329349D01*
X348278Y1329465D01*
X348458Y1329558D01*
X348643Y1329643D01*
X348906Y1329789D01*
X349173Y1329927D01*
X349346Y1330035D01*
X349523Y1330134D01*
X349773Y1330301D01*
X350029Y1330460D01*
X350192Y1330581D01*
X350362Y1330693D01*
X350597Y1330879D01*
X350840Y1331058D01*
X350993Y1331191D01*
X351153Y1331317D01*
X351373Y1331522D01*
X351600Y1331719D01*
X351743Y1331864D01*
X351892Y1332002D01*
X352096Y1332223D01*
X352307Y1332438D01*
X352437Y1332594D01*
X352575Y1332743D01*
X352760Y1332980D01*
X352953Y1333210D01*
X353071Y1333376D01*
X353197Y1333536D01*
X353363Y1333787D01*
X353537Y1334032D01*
X353641Y1334207D01*
X353754Y1334376D01*
X353899Y1334639D01*
X354054Y1334897D01*
X354144Y1335080D01*
X354242Y1335258D01*
X354366Y1335531D01*
X354500Y1335801D01*
X354575Y1335990D01*
X354659Y1336175D01*
X354762Y1336457D01*
X354873Y1336737D01*
X354933Y1336932D01*
X355003Y1337122D01*
X355167Y1337683D01*
X356739Y1343549D01*
X360166Y1349486D01*
X365014Y1354334D01*
X370951Y1357761D01*
X377572Y1359536D01*
X486028Y1359536D01*
X492649Y1357761D01*
X498586Y1354334D01*
X503434Y1349486D01*
X506861Y1343549D01*
X508636Y1336928D01*
X508636Y1326057D01*
X508638Y1326004D01*
X508636Y1325951D01*
X508658Y1325501D01*
X508676Y1325050D01*
X508682Y1324997D01*
X508685Y1324944D01*
X508742Y1324498D01*
X508795Y1324050D01*
X508806Y1323998D01*
X508813Y1323945D01*
X508905Y1323504D01*
X508994Y1323062D01*
X509009Y1323011D01*
X509020Y1322959D01*
X509147Y1322526D01*
X509270Y1322093D01*
X509289Y1322043D01*
X509304Y1321992D01*
X509465Y1321572D01*
X509623Y1321148D01*
X509645Y1321100D01*
X509664Y1321051D01*
X509858Y1320644D01*
X510049Y1320235D01*
X510075Y1320189D01*
X510098Y1320141D01*
X510324Y1319750D01*
X510546Y1319359D01*
X510576Y1319315D01*
X510602Y1319269D01*
X510858Y1318898D01*
X511111Y1318524D01*
X511144Y1318483D01*
X511175Y1318439D01*
X511459Y1318089D01*
X511741Y1317737D01*
X511777Y1317699D01*
X511811Y1317657D01*
X512122Y1317331D01*
X512431Y1317003D01*
X512470Y1316967D01*
X512507Y1316929D01*
X512842Y1316629D01*
X513177Y1316325D01*
X513219Y1316293D01*
X513258Y1316257D01*
X513616Y1315986D01*
X513974Y1315709D01*
X514018Y1315680D01*
X514061Y1315648D01*
X514439Y1315405D01*
X514818Y1315158D01*
X514864Y1315132D01*
X514909Y1315104D01*
X515306Y1314891D01*
X515702Y1314675D01*
X515751Y1314654D01*
X515798Y1314629D01*
X516212Y1314448D01*
X516623Y1314265D01*
X516672Y1314247D01*
X516721Y1314226D01*
X517148Y1314078D01*
X517572Y1313928D01*
X517624Y1313914D01*
X517674Y1313897D01*
X518110Y1313784D01*
X518546Y1313668D01*
X518598Y1313658D01*
X518650Y1313645D01*
X519094Y1313567D01*
X519537Y1313486D01*
X519590Y1313480D01*
X519642Y1313471D01*
X520092Y1313429D01*
X520540Y1313383D01*
X520593Y1313382D01*
X520646Y1313377D01*
X521097Y1313370D01*
X521547Y1313360D01*
X521600Y1313363D01*
X521653Y1313362D01*
X522103Y1313391D01*
X522553Y1313417D01*
X522606Y1313424D01*
X522659Y1313427D01*
X523105Y1313492D01*
X523552Y1313553D01*
X523604Y1313564D01*
X523656Y1313572D01*
X524096Y1313672D01*
X524536Y1313768D01*
X524587Y1313784D01*
X524639Y1313795D01*
X525069Y1313930D01*
X525501Y1314061D01*
X525550Y1314080D01*
X525601Y1314096D01*
X526020Y1314264D01*
X526439Y1314429D01*
X526486Y1314452D01*
X526536Y1314472D01*
X526939Y1314672D01*
X527345Y1314870D01*
X527391Y1314897D01*
X527438Y1314921D01*
X527824Y1315152D01*
X528213Y1315382D01*
X528256Y1315412D01*
X528302Y1315440D01*
X528669Y1315702D01*
X529038Y1315961D01*
X529078Y1315994D01*
X529122Y1316025D01*
X529468Y1316317D01*
X529814Y1316603D01*
X529852Y1316640D01*
X529893Y1316674D01*
X530315Y1317078D01*
X531507Y1318269D01*
X541643Y1324121D01*
X552948Y1327151D01*
X564652Y1327151D01*
X568213Y1326197D01*
X568464Y1326140D01*
X568711Y1326074D01*
X568954Y1326029D01*
X569196Y1325975D01*
X569450Y1325938D01*
X569702Y1325892D01*
X569948Y1325866D01*
X570194Y1325831D01*
X570450Y1325815D01*
X570705Y1325789D01*
X570952Y1325783D01*
X571199Y1325767D01*
X571456Y1325771D01*
X571712Y1325766D01*
X571959Y1325780D01*
X572207Y1325783D01*
X572462Y1325808D01*
X572718Y1325822D01*
X572963Y1325856D01*
X573210Y1325879D01*
X573463Y1325924D01*
X573717Y1325959D01*
X573958Y1326012D01*
X574203Y1326055D01*
X574451Y1326119D01*
X574701Y1326174D01*
X574938Y1326246D01*
X575178Y1326308D01*
X575420Y1326392D01*
X575666Y1326466D01*
X575896Y1326557D01*
X576130Y1326638D01*
X576365Y1326741D01*
X576604Y1326835D01*
X576826Y1326943D01*
X577053Y1327042D01*
X577279Y1327163D01*
X577510Y1327276D01*
X577723Y1327402D01*
X577941Y1327519D01*
X578157Y1327657D01*
X578378Y1327788D01*
X578581Y1327930D01*
X578789Y1328064D01*
X578993Y1328219D01*
X579203Y1328367D01*
X579393Y1328524D01*
X579590Y1328674D01*
X579782Y1328846D01*
X579979Y1329009D01*
X580156Y1329181D01*
X580341Y1329347D01*
X580518Y1329533D01*
X580702Y1329711D01*
X580865Y1329897D01*
X581036Y1330077D01*
X581197Y1330275D01*
X581367Y1330468D01*
X581515Y1330667D01*
X581671Y1330859D01*
X581816Y1331070D01*
X581970Y1331276D01*
X582102Y1331485D01*
X582242Y1331689D01*
X582370Y1331912D01*
X582507Y1332129D01*
X582622Y1332348D01*
X582745Y1332563D01*
X582855Y1332794D01*
X582974Y1333021D01*
X583071Y1333249D01*
X583178Y1333473D01*
X583269Y1333713D01*
X583370Y1333948D01*
X583448Y1334183D01*
X583537Y1334414D01*
X583609Y1334660D01*
X583690Y1334904D01*
X583750Y1335144D01*
X583820Y1335382D01*
X583872Y1335632D01*
X583934Y1335881D01*
X583975Y1336126D01*
X584025Y1336368D01*
X584058Y1336623D01*
X584100Y1336876D01*
X584121Y1337122D01*
X584152Y1337368D01*
X584164Y1337624D01*
X584186Y1337880D01*
X584196Y1338302D01*
X584199Y1338375D01*
X584198Y1338405D01*
X584199Y1338463D01*
X584199Y1612895D01*
X584196Y1612987D01*
X584197Y1613069D01*
X584197Y1613080D01*
X584197Y1613107D01*
X584175Y1613504D01*
X584159Y1613902D01*
X584147Y1614007D01*
X584141Y1614113D01*
X584087Y1614508D01*
X584040Y1614903D01*
X584019Y1615007D01*
X584004Y1615112D01*
X583919Y1615500D01*
X583841Y1615891D01*
X583812Y1615993D01*
X583789Y1616096D01*
X583674Y1616476D01*
X583565Y1616860D01*
X583527Y1616959D01*
X583497Y1617061D01*
X583351Y1617431D01*
X583212Y1617804D01*
X583167Y1617900D01*
X583129Y1617999D01*
X582954Y1618357D01*
X582786Y1618717D01*
X582734Y1618809D01*
X582687Y1618905D01*
X582485Y1619248D01*
X582289Y1619594D01*
X582229Y1619681D01*
X582176Y1619773D01*
X581947Y1620099D01*
X581724Y1620428D01*
X581657Y1620511D01*
X581597Y1620598D01*
X581343Y1620903D01*
X581094Y1621215D01*
X581021Y1621293D01*
X580954Y1621374D01*
X580677Y1621659D01*
X580404Y1621949D01*
X580326Y1622021D01*
X580252Y1622097D01*
X579953Y1622359D01*
X579658Y1622627D01*
X579575Y1622692D01*
X579495Y1622762D01*
X579175Y1623000D01*
X578861Y1623243D01*
X578772Y1623301D01*
X578687Y1623365D01*
X578350Y1623577D01*
X578017Y1623794D01*
X577924Y1623845D01*
X577834Y1623902D01*
X577482Y1624086D01*
X577133Y1624277D01*
X577036Y1624320D01*
X576942Y1624369D01*
X576575Y1624526D01*
X576212Y1624688D01*
X576113Y1624723D01*
X576015Y1624765D01*
X575637Y1624892D01*
X575263Y1625024D01*
X575160Y1625051D01*
X575059Y1625085D01*
X574672Y1625182D01*
X574289Y1625284D01*
X574185Y1625303D01*
X574082Y1625329D01*
X573688Y1625395D01*
X573298Y1625466D01*
X573192Y1625477D01*
X573088Y1625495D01*
X572691Y1625529D01*
X572295Y1625569D01*
X572189Y1625572D01*
X572083Y1625581D01*
X571500Y1625594D01*
X204032Y1625594D01*
X203663Y1625580D01*
X203294Y1625573D01*
X203160Y1625560D01*
X203025Y1625554D01*
X202658Y1625510D01*
X202291Y1625474D01*
X202158Y1625451D01*
X202025Y1625435D01*
X201663Y1625362D01*
X201299Y1625297D01*
X201169Y1625262D01*
X201037Y1625236D01*
X200681Y1625135D01*
X200324Y1625041D01*
X200197Y1624997D01*
X200068Y1624960D01*
X199721Y1624830D01*
X199373Y1624709D01*
X199250Y1624654D01*
X199123Y1624607D01*
X198789Y1624451D01*
X198451Y1624302D01*
X198332Y1624238D01*
X198210Y1624181D01*
X197890Y1623999D01*
X197564Y1623824D01*
X197451Y1623750D01*
X197334Y1623684D01*
X197028Y1623477D01*
X196718Y1623276D01*
X196611Y1623194D01*
X196499Y1623119D01*
X196211Y1622888D01*
X195918Y1622664D01*
X195818Y1622574D01*
X195712Y1622489D01*
X195443Y1622236D01*
X195169Y1621989D01*
X195076Y1621892D01*
X194978Y1621799D01*
X194730Y1621526D01*
X194475Y1621258D01*
X194391Y1621153D01*
X194300Y1621053D01*
X194074Y1620761D01*
X193842Y1620474D01*
X193766Y1620363D01*
X193684Y1620256D01*
X193482Y1619947D01*
X193274Y1619642D01*
X193207Y1619525D01*
X193133Y1619412D01*
X192956Y1619088D01*
X192772Y1618768D01*
X192715Y1618646D01*
X192650Y1618528D01*
X192500Y1618191D01*
X192342Y1617856D01*
X192294Y1617730D01*
X192240Y1617607D01*
X192117Y1617260D01*
X191986Y1616914D01*
X191948Y1616784D01*
X191903Y1616658D01*
X191808Y1616301D01*
X191705Y1615946D01*
X191678Y1615814D01*
X191643Y1615684D01*
X191576Y1615321D01*
X191502Y1614959D01*
X191485Y1614825D01*
X191461Y1614693D01*
X191423Y1614326D01*
X191378Y1613959D01*
X191372Y1613824D01*
X191358Y1613690D01*
X191349Y1613321D01*
X191333Y1612952D01*
X191338Y1612817D01*
X191335Y1612683D01*
X191356Y1612314D01*
X191369Y1611945D01*
X191387Y1611757D01*
X191391Y1611677D01*
X191396Y1611646D01*
X191396Y1611639D01*
X191405Y1611575D01*
X191426Y1611364D01*
X191617Y1609788D01*
X190409Y1599836D01*
X186854Y1590463D01*
X181159Y1582213D01*
X173655Y1575565D01*
X164779Y1570906D01*
X155045Y1568507D01*
X152400Y1568507D01*
X152294Y1568503D01*
X152188Y1568505D01*
X151791Y1568483D01*
X151393Y1568467D01*
X151288Y1568455D01*
X151182Y1568449D01*
X150787Y1568395D01*
X150392Y1568348D01*
X150288Y1568327D01*
X150183Y1568312D01*
X149795Y1568227D01*
X149404Y1568149D01*
X149302Y1568120D01*
X149199Y1568097D01*
X148819Y1567982D01*
X148435Y1567873D01*
X148336Y1567835D01*
X148234Y1567805D01*
X147864Y1567659D01*
X147491Y1567520D01*
X147395Y1567475D01*
X147296Y1567437D01*
X146938Y1567262D01*
X146578Y1567094D01*
X146486Y1567042D01*
X146390Y1566995D01*
X146047Y1566793D01*
X145701Y1566597D01*
X145614Y1566537D01*
X145522Y1566484D01*
X145196Y1566255D01*
X144867Y1566032D01*
X144784Y1565965D01*
X144697Y1565905D01*
X144392Y1565651D01*
X144080Y1565402D01*
X144002Y1565329D01*
X143921Y1565262D01*
X143636Y1564985D01*
X143346Y1564712D01*
X143274Y1564634D01*
X143198Y1564560D01*
X142936Y1564261D01*
X142668Y1563966D01*
X142603Y1563883D01*
X142533Y1563803D01*
X142295Y1563483D01*
X142052Y1563169D01*
X141994Y1563080D01*
X141930Y1562995D01*
X141718Y1562658D01*
X141501Y1562325D01*
X141450Y1562232D01*
X141393Y1562142D01*
X141209Y1561790D01*
X141018Y1561441D01*
X140975Y1561344D01*
X140926Y1561250D01*
X140769Y1560883D01*
X140607Y1560520D01*
X140572Y1560421D01*
X140530Y1560323D01*
X140404Y1559945D01*
X140271Y1559571D01*
X140244Y1559468D01*
X140210Y1559367D01*
X140113Y1558980D01*
X140011Y1558597D01*
X139992Y1558493D01*
X139966Y1558390D01*
X139900Y1557996D01*
X139829Y1557606D01*
X139818Y1557500D01*
X139800Y1557396D01*
X139766Y1556999D01*
X139726Y1556603D01*
X139723Y1556497D01*
X139714Y1556391D01*
X139701Y1555808D01*
X139701Y1529260D01*
X134440Y1523999D01*
X38105Y1523999D01*
X37999Y1523995D01*
X37893Y1523997D01*
X37496Y1523975D01*
X37098Y1523959D01*
X36993Y1523947D01*
X36887Y1523941D01*
X36492Y1523887D01*
X36097Y1523840D01*
X35993Y1523819D01*
X35888Y1523804D01*
X35500Y1523719D01*
X35109Y1523641D01*
X35007Y1523612D01*
X34904Y1523589D01*
X34524Y1523474D01*
X34140Y1523365D01*
X34041Y1523327D01*
X33939Y1523297D01*
X33569Y1523151D01*
X33196Y1523012D01*
X33100Y1522967D01*
X33001Y1522929D01*
X32643Y1522754D01*
X32283Y1522586D01*
X32191Y1522534D01*
X32095Y1522487D01*
X31752Y1522285D01*
X31406Y1522089D01*
X31319Y1522029D01*
X31227Y1521976D01*
X30901Y1521747D01*
X30572Y1521524D01*
X30489Y1521457D01*
X30402Y1521397D01*
X30097Y1521143D01*
X29785Y1520894D01*
X29707Y1520821D01*
X29626Y1520754D01*
X29341Y1520477D01*
X29051Y1520204D01*
X28979Y1520126D01*
X28903Y1520052D01*
X28640Y1519753D01*
X28373Y1519458D01*
X28308Y1519375D01*
X28238Y1519295D01*
X28000Y1518975D01*
X27757Y1518661D01*
X27699Y1518572D01*
X27635Y1518487D01*
X27423Y1518150D01*
X27206Y1517817D01*
X27155Y1517724D01*
X27098Y1517634D01*
X26914Y1517282D01*
X26723Y1516933D01*
X26680Y1516836D01*
X26631Y1516742D01*
X26474Y1516375D01*
X26312Y1516012D01*
X26277Y1515913D01*
X26235Y1515815D01*
X26108Y1515437D01*
X25976Y1515063D01*
X25949Y1514960D01*
X25915Y1514859D01*
X25818Y1514472D01*
X25716Y1514089D01*
X25697Y1513985D01*
X25671Y1513882D01*
X25605Y1513488D01*
X25534Y1513098D01*
X25523Y1512992D01*
X25505Y1512888D01*
X25471Y1512491D01*
X25431Y1512095D01*
X25428Y1511989D01*
X25419Y1511883D01*
X25406Y1511300D01*
X25406Y889000D01*
X25410Y888894D01*
X25408Y888788D01*
X25430Y888391D01*
X25446Y887993D01*
X25458Y887888D01*
X25464Y887782D01*
X25518Y887387D01*
X25565Y886992D01*
X25586Y886888D01*
X25601Y886783D01*
X25686Y886395D01*
X25764Y886004D01*
X25793Y885902D01*
X25816Y885799D01*
X25931Y885419D01*
X26040Y885035D01*
X26078Y884936D01*
X26108Y884834D01*
X26254Y884464D01*
X26393Y884091D01*
X26438Y883995D01*
X26476Y883896D01*
X26651Y883538D01*
X26819Y883178D01*
X26871Y883086D01*
X26918Y882990D01*
X27120Y882647D01*
X27316Y882301D01*
X27376Y882214D01*
X27429Y882122D01*
X27658Y881796D01*
X27881Y881467D01*
X27948Y881384D01*
X28008Y881297D01*
X28262Y880992D01*
X28511Y880680D01*
X28584Y880602D01*
X28651Y880521D01*
X28928Y880236D01*
X29201Y879946D01*
X29279Y879874D01*
X29353Y879798D01*
X29652Y879536D01*
X29947Y879268D01*
X30030Y879203D01*
X30110Y879133D01*
X30430Y878895D01*
X30744Y878652D01*
X30833Y878594D01*
X30918Y878530D01*
X31255Y878318D01*
X31588Y878101D01*
X31681Y878050D01*
X31771Y877993D01*
X32123Y877809D01*
X32472Y877618D01*
X32569Y877575D01*
X32663Y877526D01*
X33030Y877369D01*
X33393Y877207D01*
X33492Y877172D01*
X33590Y877130D01*
X33968Y877004D01*
X34342Y876871D01*
X34445Y876844D01*
X34546Y876810D01*
X34933Y876713D01*
X35316Y876611D01*
X35420Y876592D01*
X35523Y876566D01*
X35917Y876500D01*
X36307Y876429D01*
X36413Y876418D01*
X36517Y876400D01*
X36914Y876366D01*
X37310Y876326D01*
X37416Y876323D01*
X37522Y876314D01*
X38105Y876301D01*
X64770Y876301D01*
X64876Y876305D01*
G37*
G36*
X571606Y876305D02*
X571606Y876305D01*
X571712Y876303D01*
X572109Y876325D01*
X572507Y876341D01*
X572612Y876353D01*
X572718Y876359D01*
X573113Y876413D01*
X573508Y876460D01*
X573612Y876481D01*
X573717Y876496D01*
X574105Y876581D01*
X574496Y876659D01*
X574598Y876688D01*
X574701Y876711D01*
X575081Y876826D01*
X575465Y876935D01*
X575564Y876973D01*
X575666Y877003D01*
X576036Y877149D01*
X576409Y877288D01*
X576505Y877333D01*
X576604Y877371D01*
X576962Y877546D01*
X577322Y877714D01*
X577414Y877766D01*
X577510Y877813D01*
X577853Y878015D01*
X578199Y878211D01*
X578286Y878271D01*
X578378Y878325D01*
X578704Y878553D01*
X579033Y878776D01*
X579116Y878843D01*
X579203Y878903D01*
X579508Y879157D01*
X579820Y879406D01*
X579898Y879479D01*
X579979Y879546D01*
X580264Y879823D01*
X580554Y880096D01*
X580626Y880174D01*
X580702Y880248D01*
X580965Y880547D01*
X581232Y880842D01*
X581297Y880926D01*
X581367Y881005D01*
X581605Y881325D01*
X581848Y881639D01*
X581906Y881728D01*
X581970Y881813D01*
X582182Y882150D01*
X582399Y882483D01*
X582450Y882576D01*
X582507Y882666D01*
X582691Y883018D01*
X582882Y883367D01*
X582925Y883464D01*
X582974Y883558D01*
X583131Y883925D01*
X583293Y884288D01*
X583328Y884387D01*
X583370Y884485D01*
X583497Y884863D01*
X583629Y885237D01*
X583656Y885340D01*
X583690Y885441D01*
X583787Y885828D01*
X583889Y886211D01*
X583908Y886315D01*
X583934Y886418D01*
X584000Y886812D01*
X584071Y887202D01*
X584082Y887308D01*
X584100Y887412D01*
X584134Y887809D01*
X584174Y888205D01*
X584177Y888311D01*
X584186Y888417D01*
X584199Y889000D01*
X584199Y1226937D01*
X584189Y1227193D01*
X584189Y1227450D01*
X584169Y1227696D01*
X584159Y1227944D01*
X584129Y1228199D01*
X584108Y1228454D01*
X584069Y1228698D01*
X584040Y1228945D01*
X583989Y1229196D01*
X583948Y1229449D01*
X583890Y1229689D01*
X583841Y1229932D01*
X583771Y1230179D01*
X583710Y1230428D01*
X583632Y1230663D01*
X583565Y1230902D01*
X583475Y1231142D01*
X583395Y1231385D01*
X583299Y1231613D01*
X583212Y1231846D01*
X583104Y1232078D01*
X583004Y1232315D01*
X582891Y1232535D01*
X582786Y1232759D01*
X582660Y1232982D01*
X582542Y1233210D01*
X582411Y1233421D01*
X582289Y1233635D01*
X582145Y1233847D01*
X582010Y1234066D01*
X581863Y1234265D01*
X581724Y1234470D01*
X581564Y1234670D01*
X581411Y1234876D01*
X581249Y1235063D01*
X581094Y1235257D01*
X580919Y1235444D01*
X580751Y1235637D01*
X580574Y1235811D01*
X580404Y1235991D01*
X580215Y1236164D01*
X580032Y1236343D01*
X579842Y1236502D01*
X579658Y1236669D01*
X579455Y1236826D01*
X579259Y1236990D01*
X579057Y1237134D01*
X578861Y1237285D01*
X578646Y1237425D01*
X578437Y1237574D01*
X578225Y1237701D01*
X578017Y1237836D01*
X577792Y1237959D01*
X577572Y1238090D01*
X577350Y1238200D01*
X577133Y1238319D01*
X576899Y1238423D01*
X576669Y1238537D01*
X576438Y1238629D01*
X576212Y1238729D01*
X575971Y1238815D01*
X575732Y1238910D01*
X575496Y1238983D01*
X575263Y1239066D01*
X575015Y1239132D01*
X574770Y1239208D01*
X574528Y1239262D01*
X574289Y1239326D01*
X574037Y1239372D01*
X573786Y1239429D01*
X573541Y1239464D01*
X573298Y1239508D01*
X573043Y1239534D01*
X572789Y1239571D01*
X572541Y1239586D01*
X572295Y1239611D01*
X572039Y1239617D01*
X571783Y1239633D01*
X571535Y1239629D01*
X571288Y1239634D01*
X571032Y1239620D01*
X570775Y1239616D01*
X570529Y1239592D01*
X570282Y1239578D01*
X570027Y1239543D01*
X569772Y1239518D01*
X569529Y1239475D01*
X569283Y1239441D01*
X569033Y1239387D01*
X568780Y1239342D01*
X568369Y1239241D01*
X568299Y1239226D01*
X568269Y1239217D01*
X568213Y1239203D01*
X564652Y1238249D01*
X552948Y1238249D01*
X541643Y1241279D01*
X531507Y1247131D01*
X530315Y1248322D01*
X530276Y1248358D01*
X530239Y1248397D01*
X529905Y1248701D01*
X529574Y1249006D01*
X529533Y1249039D01*
X529493Y1249075D01*
X529135Y1249352D01*
X528782Y1249629D01*
X528738Y1249658D01*
X528696Y1249691D01*
X528318Y1249938D01*
X527943Y1250187D01*
X527897Y1250213D01*
X527852Y1250242D01*
X527456Y1250458D01*
X527063Y1250677D01*
X527014Y1250699D01*
X526968Y1250725D01*
X526557Y1250908D01*
X526146Y1251096D01*
X526096Y1251114D01*
X526047Y1251135D01*
X525623Y1251286D01*
X525199Y1251440D01*
X525148Y1251454D01*
X525098Y1251472D01*
X524662Y1251588D01*
X524227Y1251708D01*
X524175Y1251718D01*
X524124Y1251732D01*
X523680Y1251814D01*
X523238Y1251899D01*
X523185Y1251905D01*
X523133Y1251914D01*
X522684Y1251960D01*
X522236Y1252010D01*
X522183Y1252012D01*
X522130Y1252017D01*
X521680Y1252027D01*
X521229Y1252042D01*
X521176Y1252039D01*
X521123Y1252040D01*
X520672Y1252015D01*
X520222Y1251993D01*
X520170Y1251986D01*
X520117Y1251983D01*
X519669Y1251922D01*
X519223Y1251865D01*
X519171Y1251854D01*
X519118Y1251847D01*
X518678Y1251751D01*
X518237Y1251658D01*
X518185Y1251643D01*
X518134Y1251632D01*
X517702Y1251501D01*
X517270Y1251374D01*
X517220Y1251355D01*
X517169Y1251339D01*
X516750Y1251175D01*
X516329Y1251014D01*
X516280Y1250991D01*
X516231Y1250971D01*
X515827Y1250774D01*
X515419Y1250580D01*
X515373Y1250553D01*
X515325Y1250530D01*
X514936Y1250300D01*
X514547Y1250075D01*
X514503Y1250045D01*
X514457Y1250018D01*
X514088Y1249759D01*
X513717Y1249503D01*
X513676Y1249470D01*
X513632Y1249439D01*
X513286Y1249153D01*
X512935Y1248867D01*
X512897Y1248830D01*
X512856Y1248797D01*
X512534Y1248484D01*
X512207Y1248171D01*
X512171Y1248132D01*
X512133Y1248095D01*
X511835Y1247756D01*
X511535Y1247420D01*
X511503Y1247378D01*
X511468Y1247337D01*
X511197Y1246974D01*
X510926Y1246617D01*
X510897Y1246573D01*
X510865Y1246530D01*
X510624Y1246147D01*
X510382Y1245769D01*
X510357Y1245722D01*
X510328Y1245677D01*
X510119Y1245278D01*
X509907Y1244880D01*
X509885Y1244832D01*
X509861Y1244784D01*
X509684Y1244369D01*
X509504Y1243957D01*
X509486Y1243906D01*
X509465Y1243858D01*
X509322Y1243430D01*
X509175Y1243004D01*
X509162Y1242953D01*
X509145Y1242902D01*
X509035Y1242463D01*
X508923Y1242028D01*
X508914Y1241976D01*
X508901Y1241924D01*
X508827Y1241478D01*
X508749Y1241036D01*
X508744Y1240983D01*
X508735Y1240930D01*
X508697Y1240481D01*
X508654Y1240032D01*
X508654Y1239979D01*
X508649Y1239926D01*
X508636Y1239343D01*
X508636Y1063372D01*
X506861Y1056751D01*
X503434Y1050814D01*
X498586Y1045966D01*
X492649Y1042539D01*
X486028Y1040764D01*
X480483Y1040764D01*
X480128Y1040750D01*
X479775Y1040745D01*
X479626Y1040730D01*
X479476Y1040724D01*
X479124Y1040682D01*
X478772Y1040648D01*
X478624Y1040622D01*
X478475Y1040605D01*
X478128Y1040535D01*
X477779Y1040473D01*
X477634Y1040436D01*
X477487Y1040406D01*
X477146Y1040309D01*
X476804Y1040220D01*
X476662Y1040171D01*
X476518Y1040130D01*
X476186Y1040006D01*
X475852Y1039890D01*
X475714Y1039830D01*
X475574Y1039777D01*
X475253Y1039628D01*
X474929Y1039485D01*
X474796Y1039414D01*
X474661Y1039351D01*
X474354Y1039177D01*
X474041Y1039009D01*
X473914Y1038928D01*
X473784Y1038854D01*
X473491Y1038655D01*
X473193Y1038464D01*
X473074Y1038373D01*
X472950Y1038289D01*
X472673Y1038067D01*
X472392Y1037853D01*
X472280Y1037753D01*
X472163Y1037659D01*
X471904Y1037417D01*
X471641Y1037181D01*
X471538Y1037072D01*
X471428Y1036969D01*
X471190Y1036707D01*
X470946Y1036451D01*
X470852Y1036335D01*
X470751Y1036223D01*
X470534Y1035943D01*
X470311Y1035668D01*
X470226Y1035545D01*
X470134Y1035426D01*
X469941Y1035130D01*
X469740Y1034838D01*
X469665Y1034708D01*
X469583Y1034582D01*
X469414Y1034271D01*
X469237Y1033965D01*
X469173Y1033829D01*
X469101Y1033698D01*
X468957Y1033375D01*
X468805Y1033055D01*
X468751Y1032914D01*
X468690Y1032777D01*
X468572Y1032444D01*
X468446Y1032113D01*
X468403Y1031969D01*
X468354Y1031828D01*
X468262Y1031486D01*
X468163Y1031146D01*
X468132Y1030999D01*
X468093Y1030854D01*
X468029Y1030506D01*
X467957Y1030159D01*
X467938Y1030010D01*
X467911Y1029863D01*
X467875Y1029511D01*
X467831Y1029159D01*
X467824Y1029010D01*
X467808Y1028860D01*
X467800Y1028506D01*
X467784Y1028153D01*
X467789Y1028003D01*
X467785Y1027853D01*
X467805Y1027499D01*
X467817Y1027146D01*
X467833Y1026997D01*
X467842Y1026847D01*
X467890Y1026495D01*
X467929Y1026144D01*
X467958Y1025997D01*
X467978Y1025848D01*
X468054Y1025502D01*
X468121Y1025155D01*
X468161Y1025010D01*
X468193Y1024864D01*
X468296Y1024525D01*
X468391Y1024184D01*
X468442Y1024043D01*
X468486Y1023899D01*
X468615Y1023570D01*
X468737Y1023237D01*
X468799Y1023101D01*
X468854Y1022961D01*
X469009Y1022643D01*
X469157Y1022321D01*
X469230Y1022190D01*
X469295Y1022055D01*
X469475Y1021750D01*
X469648Y1021441D01*
X469731Y1021316D01*
X469807Y1021187D01*
X470011Y1020897D01*
X470207Y1020603D01*
X470300Y1020485D01*
X470386Y1020362D01*
X470612Y1020090D01*
X470831Y1019812D01*
X470933Y1019701D01*
X471029Y1019586D01*
X471275Y1019332D01*
X471516Y1019072D01*
X471626Y1018971D01*
X471731Y1018863D01*
X471997Y1018630D01*
X472257Y1018390D01*
X472375Y1018297D01*
X472488Y1018198D01*
X472772Y1017986D01*
X473050Y1017768D01*
X473175Y1017685D01*
X473295Y1017595D01*
X473596Y1017406D01*
X473890Y1017211D01*
X474021Y1017138D01*
X474148Y1017058D01*
X474462Y1016894D01*
X474771Y1016722D01*
X474908Y1016660D01*
X475041Y1016591D01*
X475367Y1016452D01*
X475649Y1016323D01*
X484115Y1011436D01*
X490736Y1004815D01*
X495417Y996706D01*
X497841Y987662D01*
X497841Y978298D01*
X495417Y969254D01*
X490736Y961145D01*
X483450Y953860D01*
X483378Y953782D01*
X483301Y953708D01*
X483037Y953412D01*
X482766Y953119D01*
X482701Y953036D01*
X482630Y952957D01*
X482389Y952640D01*
X482144Y952327D01*
X482085Y952239D01*
X482021Y952154D01*
X481806Y951819D01*
X481585Y951488D01*
X481534Y951395D01*
X481477Y951306D01*
X481289Y950956D01*
X481096Y950608D01*
X481051Y950511D01*
X481002Y950417D01*
X480842Y950053D01*
X480677Y949691D01*
X480641Y949591D01*
X480598Y949494D01*
X480469Y949118D01*
X480333Y948744D01*
X480304Y948641D01*
X480270Y948541D01*
X480171Y948157D01*
X480064Y947772D01*
X480044Y947668D01*
X480018Y947565D01*
X479949Y947173D01*
X479874Y946783D01*
X479862Y946677D01*
X479844Y946573D01*
X479807Y946176D01*
X479763Y945781D01*
X479759Y945675D01*
X479749Y945569D01*
X479744Y945170D01*
X479731Y944774D01*
X479736Y944668D01*
X479735Y944562D01*
X479760Y944165D01*
X479780Y943767D01*
X479793Y943662D01*
X479800Y943556D01*
X479857Y943163D01*
X479908Y942768D01*
X479929Y942664D01*
X479945Y942559D01*
X480033Y942172D01*
X480114Y941782D01*
X480144Y941680D01*
X480168Y941576D01*
X480287Y941197D01*
X480399Y940815D01*
X480437Y940716D01*
X480469Y940614D01*
X480617Y940245D01*
X480759Y939874D01*
X480805Y939778D01*
X480844Y939679D01*
X481021Y939323D01*
X481193Y938964D01*
X481246Y938872D01*
X481293Y938777D01*
X481498Y938436D01*
X481697Y938092D01*
X481757Y938004D01*
X481812Y937913D01*
X482044Y937589D01*
X482269Y937262D01*
X482336Y937180D01*
X482398Y937093D01*
X482654Y936789D01*
X482905Y936480D01*
X482979Y936403D01*
X483047Y936322D01*
X483450Y935900D01*
X490736Y928615D01*
X495417Y920506D01*
X497841Y911462D01*
X497841Y902098D01*
X495212Y892287D01*
X495155Y892037D01*
X495089Y891789D01*
X495044Y891546D01*
X494990Y891304D01*
X494953Y891050D01*
X494907Y890798D01*
X494882Y890552D01*
X494846Y890306D01*
X494830Y890050D01*
X494804Y889795D01*
X494798Y889548D01*
X494783Y889301D01*
X494787Y889044D01*
X494781Y888788D01*
X494795Y888541D01*
X494799Y888293D01*
X494823Y888037D01*
X494838Y887782D01*
X494871Y887536D01*
X494895Y887290D01*
X494939Y887038D01*
X494974Y886783D01*
X495027Y886541D01*
X495070Y886297D01*
X495134Y886049D01*
X495189Y885799D01*
X495261Y885562D01*
X495323Y885322D01*
X495407Y885080D01*
X495482Y884834D01*
X495572Y884604D01*
X495653Y884370D01*
X495756Y884135D01*
X495850Y883896D01*
X495958Y883674D01*
X496058Y883447D01*
X496179Y883221D01*
X496291Y882990D01*
X496417Y882777D01*
X496534Y882559D01*
X496672Y882343D01*
X496803Y882122D01*
X496945Y881919D01*
X497079Y881711D01*
X497234Y881507D01*
X497382Y881297D01*
X497540Y881107D01*
X497690Y880910D01*
X497861Y880718D01*
X498024Y880521D01*
X498197Y880344D01*
X498362Y880159D01*
X498548Y879982D01*
X498726Y879798D01*
X498912Y879635D01*
X499092Y879464D01*
X499291Y879302D01*
X499484Y879133D01*
X499682Y878985D01*
X499874Y878829D01*
X500086Y878684D01*
X500291Y878530D01*
X500501Y878398D01*
X500705Y878258D01*
X500927Y878130D01*
X501144Y877993D01*
X501363Y877878D01*
X501578Y877755D01*
X501809Y877645D01*
X502037Y877526D01*
X502264Y877429D01*
X502488Y877322D01*
X502728Y877231D01*
X502964Y877130D01*
X503199Y877052D01*
X503430Y876963D01*
X503675Y876892D01*
X503919Y876810D01*
X504160Y876750D01*
X504397Y876680D01*
X504647Y876628D01*
X504897Y876566D01*
X505141Y876525D01*
X505383Y876475D01*
X505638Y876442D01*
X505891Y876400D01*
X506137Y876379D01*
X506383Y876348D01*
X506639Y876336D01*
X506895Y876314D01*
X507317Y876304D01*
X507390Y876301D01*
X507421Y876302D01*
X507478Y876301D01*
X571500Y876301D01*
X571606Y876305D01*
G37*
G36*
X482665Y1066177D02*
X482665Y1066177D01*
X482731Y1066179D01*
X482774Y1066197D01*
X482821Y1066205D01*
X482878Y1066239D01*
X482938Y1066264D01*
X482973Y1066295D01*
X483014Y1066320D01*
X483056Y1066371D01*
X483104Y1066415D01*
X483126Y1066457D01*
X483155Y1066494D01*
X483176Y1066556D01*
X483207Y1066615D01*
X483215Y1066669D01*
X483227Y1066706D01*
X483226Y1066746D01*
X483234Y1066800D01*
X483234Y1333500D01*
X483223Y1333565D01*
X483221Y1333631D01*
X483203Y1333674D01*
X483195Y1333721D01*
X483161Y1333778D01*
X483136Y1333838D01*
X483105Y1333873D01*
X483080Y1333914D01*
X483029Y1333956D01*
X482985Y1334004D01*
X482943Y1334026D01*
X482906Y1334055D01*
X482844Y1334076D01*
X482785Y1334107D01*
X482731Y1334115D01*
X482694Y1334127D01*
X482654Y1334126D01*
X482600Y1334134D01*
X381000Y1334134D01*
X380935Y1334123D01*
X380869Y1334121D01*
X380826Y1334103D01*
X380779Y1334095D01*
X380722Y1334061D01*
X380662Y1334036D01*
X380627Y1334005D01*
X380586Y1333980D01*
X380545Y1333929D01*
X380496Y1333885D01*
X380474Y1333843D01*
X380445Y1333806D01*
X380424Y1333744D01*
X380393Y1333685D01*
X380385Y1333631D01*
X380373Y1333594D01*
X380374Y1333554D01*
X380366Y1333500D01*
X380366Y1066800D01*
X380377Y1066735D01*
X380379Y1066669D01*
X380397Y1066626D01*
X380405Y1066579D01*
X380439Y1066522D01*
X380464Y1066462D01*
X380495Y1066427D01*
X380520Y1066386D01*
X380571Y1066345D01*
X380615Y1066296D01*
X380657Y1066274D01*
X380694Y1066245D01*
X380756Y1066224D01*
X380815Y1066193D01*
X380869Y1066185D01*
X380906Y1066173D01*
X380946Y1066174D01*
X381000Y1066166D01*
X482600Y1066166D01*
X482665Y1066177D01*
G37*
G36*
X304865Y1066177D02*
X304865Y1066177D01*
X304931Y1066179D01*
X304974Y1066197D01*
X305021Y1066205D01*
X305078Y1066239D01*
X305138Y1066264D01*
X305173Y1066295D01*
X305214Y1066320D01*
X305256Y1066371D01*
X305304Y1066415D01*
X305326Y1066457D01*
X305355Y1066494D01*
X305376Y1066556D01*
X305407Y1066615D01*
X305415Y1066669D01*
X305427Y1066706D01*
X305426Y1066746D01*
X305434Y1066800D01*
X305434Y1333500D01*
X305423Y1333565D01*
X305421Y1333631D01*
X305403Y1333674D01*
X305395Y1333721D01*
X305361Y1333778D01*
X305336Y1333838D01*
X305305Y1333873D01*
X305280Y1333914D01*
X305229Y1333956D01*
X305185Y1334004D01*
X305143Y1334026D01*
X305106Y1334055D01*
X305044Y1334076D01*
X304985Y1334107D01*
X304931Y1334115D01*
X304894Y1334127D01*
X304854Y1334126D01*
X304800Y1334134D01*
X203200Y1334134D01*
X203135Y1334123D01*
X203069Y1334121D01*
X203026Y1334103D01*
X202979Y1334095D01*
X202922Y1334061D01*
X202862Y1334036D01*
X202827Y1334005D01*
X202786Y1333980D01*
X202745Y1333929D01*
X202696Y1333885D01*
X202674Y1333843D01*
X202645Y1333806D01*
X202624Y1333744D01*
X202593Y1333685D01*
X202585Y1333631D01*
X202573Y1333594D01*
X202574Y1333554D01*
X202566Y1333500D01*
X202566Y1066800D01*
X202577Y1066735D01*
X202579Y1066669D01*
X202597Y1066626D01*
X202605Y1066579D01*
X202639Y1066522D01*
X202664Y1066462D01*
X202695Y1066427D01*
X202720Y1066386D01*
X202771Y1066345D01*
X202815Y1066296D01*
X202857Y1066274D01*
X202894Y1066245D01*
X202956Y1066224D01*
X203015Y1066193D01*
X203069Y1066185D01*
X203106Y1066173D01*
X203146Y1066174D01*
X203200Y1066166D01*
X304800Y1066166D01*
X304865Y1066177D01*
G37*
G36*
X238268Y876311D02*
X238268Y876311D01*
X238524Y876311D01*
X238771Y876331D01*
X239019Y876341D01*
X239273Y876371D01*
X239529Y876392D01*
X239773Y876431D01*
X240019Y876460D01*
X240271Y876511D01*
X240524Y876552D01*
X240764Y876610D01*
X241007Y876659D01*
X241254Y876729D01*
X241503Y876790D01*
X241738Y876867D01*
X241976Y876935D01*
X242217Y877025D01*
X242460Y877105D01*
X242688Y877201D01*
X242920Y877288D01*
X243153Y877396D01*
X243389Y877496D01*
X243610Y877609D01*
X243834Y877714D01*
X244057Y877840D01*
X244285Y877958D01*
X244495Y878089D01*
X244710Y878211D01*
X244922Y878355D01*
X245140Y878490D01*
X245340Y878637D01*
X245545Y878776D01*
X245745Y878937D01*
X245951Y879089D01*
X246138Y879251D01*
X246332Y879406D01*
X246518Y879581D01*
X246712Y879749D01*
X246886Y879926D01*
X247066Y880096D01*
X247239Y880285D01*
X247418Y880468D01*
X247577Y880658D01*
X247744Y880842D01*
X247901Y881045D01*
X248065Y881241D01*
X248208Y881443D01*
X248360Y881639D01*
X248500Y881853D01*
X248649Y882063D01*
X248776Y882275D01*
X248911Y882483D01*
X249034Y882708D01*
X249165Y882928D01*
X249275Y883150D01*
X249393Y883367D01*
X249498Y883601D01*
X249612Y883831D01*
X249704Y884062D01*
X249804Y884288D01*
X249890Y884529D01*
X249985Y884767D01*
X250058Y885005D01*
X250141Y885237D01*
X250207Y885485D01*
X250283Y885730D01*
X250337Y885972D01*
X250401Y886211D01*
X250447Y886463D01*
X250503Y886713D01*
X250538Y886959D01*
X250583Y887202D01*
X250609Y887457D01*
X250645Y887711D01*
X250661Y887958D01*
X250686Y888205D01*
X250692Y888461D01*
X250708Y888717D01*
X250704Y888965D01*
X250709Y889212D01*
X250695Y889468D01*
X250690Y889724D01*
X250666Y889971D01*
X250652Y890218D01*
X250618Y890472D01*
X250593Y890728D01*
X250550Y890972D01*
X250516Y891217D01*
X250461Y891467D01*
X250416Y891720D01*
X250316Y892131D01*
X250301Y892201D01*
X250292Y892231D01*
X250278Y892287D01*
X249757Y894234D01*
X249652Y894571D01*
X249555Y894912D01*
X249502Y895053D01*
X249457Y895196D01*
X249326Y895524D01*
X249202Y895856D01*
X249138Y895993D01*
X249083Y896132D01*
X248926Y896448D01*
X248776Y896769D01*
X248702Y896900D01*
X248635Y897035D01*
X248453Y897338D01*
X248279Y897646D01*
X248195Y897770D01*
X248117Y897899D01*
X247912Y898187D01*
X247714Y898480D01*
X247620Y898598D01*
X247533Y898720D01*
X247306Y898990D01*
X247084Y899267D01*
X246981Y899377D01*
X246949Y899415D01*
X247028Y899668D01*
X247140Y900003D01*
X247177Y900149D01*
X247221Y900293D01*
X247298Y900638D01*
X247384Y900981D01*
X247409Y901130D01*
X247442Y901276D01*
X247491Y901626D01*
X247550Y901975D01*
X247563Y902125D01*
X247584Y902274D01*
X247606Y902626D01*
X247636Y902979D01*
X247641Y903194D01*
X247646Y903280D01*
X247645Y903363D01*
X247649Y903563D01*
X247649Y911462D01*
X250073Y920506D01*
X254754Y928615D01*
X262040Y935900D01*
X262112Y935978D01*
X262189Y936052D01*
X262454Y936348D01*
X262724Y936641D01*
X262789Y936724D01*
X262860Y936803D01*
X263101Y937120D01*
X263346Y937433D01*
X263405Y937521D01*
X263469Y937606D01*
X263684Y937940D01*
X263905Y938272D01*
X263956Y938365D01*
X264013Y938454D01*
X264201Y938805D01*
X264394Y939153D01*
X264438Y939249D01*
X264489Y939343D01*
X264648Y939707D01*
X264813Y940069D01*
X264849Y940169D01*
X264892Y940266D01*
X265021Y940643D01*
X265157Y941016D01*
X265185Y941118D01*
X265220Y941219D01*
X265320Y941605D01*
X265426Y941988D01*
X265446Y942092D01*
X265472Y942195D01*
X265541Y942586D01*
X265616Y942977D01*
X265628Y943083D01*
X265646Y943187D01*
X265683Y943583D01*
X265727Y943979D01*
X265731Y944085D01*
X265741Y944191D01*
X265746Y944588D01*
X265759Y944986D01*
X265754Y945092D01*
X265755Y945198D01*
X265730Y945595D01*
X265710Y945993D01*
X265697Y946098D01*
X265690Y946204D01*
X265633Y946598D01*
X265582Y946992D01*
X265561Y947096D01*
X265545Y947201D01*
X265457Y947590D01*
X265376Y947979D01*
X265346Y948080D01*
X265322Y948184D01*
X265203Y948563D01*
X265091Y948945D01*
X265053Y949045D01*
X265021Y949146D01*
X264873Y949514D01*
X264731Y949886D01*
X264685Y949982D01*
X264646Y950081D01*
X264468Y950437D01*
X264297Y950796D01*
X264244Y950888D01*
X264197Y950983D01*
X263992Y951324D01*
X263793Y951668D01*
X263732Y951756D01*
X263678Y951847D01*
X263447Y952170D01*
X263221Y952498D01*
X263153Y952581D01*
X263092Y952667D01*
X262836Y952971D01*
X262585Y953280D01*
X262511Y953356D01*
X262443Y953438D01*
X262040Y953860D01*
X254754Y961145D01*
X250073Y969254D01*
X247649Y978298D01*
X247649Y987662D01*
X250073Y996706D01*
X254754Y1004815D01*
X261375Y1011436D01*
X269848Y1016327D01*
X269916Y1016353D01*
X270052Y1016416D01*
X270192Y1016472D01*
X270509Y1016630D01*
X270829Y1016779D01*
X270960Y1016853D01*
X271094Y1016920D01*
X271398Y1017102D01*
X271706Y1017276D01*
X271830Y1017360D01*
X271959Y1017437D01*
X272247Y1017643D01*
X272540Y1017841D01*
X272658Y1017935D01*
X272780Y1018022D01*
X273051Y1018249D01*
X273327Y1018471D01*
X273437Y1018574D01*
X273552Y1018670D01*
X273804Y1018918D01*
X274062Y1019161D01*
X274163Y1019272D01*
X274270Y1019377D01*
X274501Y1019645D01*
X274739Y1019907D01*
X274831Y1020025D01*
X274929Y1020139D01*
X275139Y1020424D01*
X275356Y1020704D01*
X275438Y1020829D01*
X275527Y1020950D01*
X275713Y1021251D01*
X275907Y1021548D01*
X275979Y1021679D01*
X276058Y1021807D01*
X276220Y1022122D01*
X276389Y1022432D01*
X276450Y1022569D01*
X276519Y1022703D01*
X276656Y1023030D01*
X276800Y1023353D01*
X276850Y1023494D01*
X276908Y1023633D01*
X277018Y1023969D01*
X277136Y1024302D01*
X277175Y1024447D01*
X277222Y1024590D01*
X277305Y1024934D01*
X277397Y1025276D01*
X277424Y1025424D01*
X277459Y1025570D01*
X277515Y1025919D01*
X277579Y1026267D01*
X277594Y1026417D01*
X277618Y1026565D01*
X277646Y1026918D01*
X277682Y1027270D01*
X277685Y1027420D01*
X277697Y1027569D01*
X277697Y1027923D01*
X277705Y1028277D01*
X277696Y1028427D01*
X277696Y1028577D01*
X277668Y1028930D01*
X277648Y1029283D01*
X277628Y1029432D01*
X277616Y1029582D01*
X277560Y1029931D01*
X277512Y1030282D01*
X277480Y1030428D01*
X277456Y1030577D01*
X277372Y1030921D01*
X277297Y1031266D01*
X277253Y1031410D01*
X277217Y1031556D01*
X277107Y1031892D01*
X277004Y1032231D01*
X276949Y1032370D01*
X276902Y1032513D01*
X276765Y1032840D01*
X276636Y1033169D01*
X276570Y1033303D01*
X276512Y1033442D01*
X276350Y1033757D01*
X276195Y1034075D01*
X276118Y1034204D01*
X276050Y1034337D01*
X275863Y1034637D01*
X275683Y1034943D01*
X275597Y1035066D01*
X275517Y1035193D01*
X275307Y1035478D01*
X275104Y1035768D01*
X275008Y1035883D01*
X274919Y1036004D01*
X274687Y1036272D01*
X274461Y1036544D01*
X274357Y1036651D01*
X274258Y1036765D01*
X274006Y1037013D01*
X273759Y1037267D01*
X273646Y1037366D01*
X273539Y1037471D01*
X273269Y1037698D01*
X273002Y1037932D01*
X272882Y1038022D01*
X272767Y1038118D01*
X272479Y1038322D01*
X272195Y1038535D01*
X272067Y1038615D01*
X271945Y1038702D01*
X271642Y1038883D01*
X271342Y1039072D01*
X271209Y1039141D01*
X271080Y1039218D01*
X270763Y1039375D01*
X270449Y1039539D01*
X270311Y1039598D01*
X270176Y1039665D01*
X269848Y1039795D01*
X269522Y1039935D01*
X269380Y1039983D01*
X269240Y1040038D01*
X268903Y1040142D01*
X268567Y1040255D01*
X268421Y1040292D01*
X268278Y1040336D01*
X267933Y1040413D01*
X267589Y1040499D01*
X267441Y1040524D01*
X267294Y1040557D01*
X266945Y1040606D01*
X266595Y1040665D01*
X266445Y1040677D01*
X266297Y1040699D01*
X265943Y1040721D01*
X265591Y1040751D01*
X265377Y1040756D01*
X265291Y1040761D01*
X265208Y1040760D01*
X265007Y1040764D01*
X208333Y1040764D01*
X208077Y1040754D01*
X207820Y1040754D01*
X207574Y1040734D01*
X207326Y1040724D01*
X207071Y1040694D01*
X206816Y1040673D01*
X206572Y1040634D01*
X206326Y1040605D01*
X206074Y1040554D01*
X205821Y1040513D01*
X205581Y1040455D01*
X205338Y1040406D01*
X205091Y1040335D01*
X204842Y1040275D01*
X204607Y1040198D01*
X204369Y1040130D01*
X204128Y1040040D01*
X203885Y1039960D01*
X203657Y1039864D01*
X203424Y1039777D01*
X203192Y1039669D01*
X202956Y1039569D01*
X202735Y1039456D01*
X202511Y1039351D01*
X202289Y1039225D01*
X202060Y1039107D01*
X201850Y1038976D01*
X201635Y1038854D01*
X201423Y1038710D01*
X201204Y1038575D01*
X201005Y1038428D01*
X200800Y1038289D01*
X200600Y1038129D01*
X200394Y1037976D01*
X200207Y1037814D01*
X200013Y1037659D01*
X199826Y1037484D01*
X199633Y1037316D01*
X199459Y1037139D01*
X199279Y1036969D01*
X199106Y1036780D01*
X198927Y1036597D01*
X198768Y1036407D01*
X198601Y1036223D01*
X198444Y1036020D01*
X198280Y1035824D01*
X198136Y1035622D01*
X197985Y1035426D01*
X197845Y1035211D01*
X197696Y1035002D01*
X197569Y1034790D01*
X197434Y1034582D01*
X197311Y1034357D01*
X197180Y1034137D01*
X197070Y1033915D01*
X196951Y1033698D01*
X196847Y1033464D01*
X196733Y1033233D01*
X196641Y1033003D01*
X196541Y1032777D01*
X196455Y1032536D01*
X196360Y1032297D01*
X196287Y1032061D01*
X196204Y1031828D01*
X196138Y1031580D01*
X196062Y1031335D01*
X196008Y1031093D01*
X195944Y1030854D01*
X195898Y1030602D01*
X195841Y1030351D01*
X195807Y1030106D01*
X195762Y1029863D01*
X195736Y1029608D01*
X195699Y1029354D01*
X195684Y1029106D01*
X195659Y1028860D01*
X195653Y1028604D01*
X195637Y1028348D01*
X195641Y1028100D01*
X195636Y1027853D01*
X195650Y1027597D01*
X195655Y1027340D01*
X195679Y1027094D01*
X195692Y1026847D01*
X195727Y1026593D01*
X195752Y1026337D01*
X195795Y1026094D01*
X195829Y1025848D01*
X195884Y1025598D01*
X195929Y1025345D01*
X196029Y1024935D01*
X196044Y1024864D01*
X196053Y1024834D01*
X196067Y1024778D01*
X196851Y1021852D01*
X196851Y1010148D01*
X193821Y998843D01*
X192729Y996950D01*
X192585Y996676D01*
X192432Y996406D01*
X192352Y996234D01*
X192348Y996227D01*
X192346Y996222D01*
X192260Y996058D01*
X192138Y995773D01*
X192007Y995492D01*
X191943Y995319D01*
X191937Y995306D01*
X191934Y995297D01*
X191863Y995131D01*
X191764Y994838D01*
X191656Y994548D01*
X191607Y994375D01*
X191601Y994357D01*
X191597Y994341D01*
X191541Y994176D01*
X191466Y993877D01*
X191381Y993578D01*
X191347Y993408D01*
X191341Y993383D01*
X191337Y993361D01*
X191296Y993199D01*
X191245Y992894D01*
X191184Y992590D01*
X191164Y992424D01*
X191159Y992392D01*
X191156Y992364D01*
X191129Y992205D01*
X191102Y991897D01*
X191066Y991589D01*
X191060Y991428D01*
X191056Y991389D01*
X191055Y991354D01*
X191041Y991201D01*
X191039Y990892D01*
X191027Y990582D01*
X191033Y990429D01*
X191032Y990382D01*
X191035Y990340D01*
X191034Y990193D01*
X191056Y989884D01*
X191069Y989575D01*
X191086Y989431D01*
X191089Y989376D01*
X191096Y989326D01*
X191106Y989188D01*
X191152Y988882D01*
X191190Y988575D01*
X191217Y988440D01*
X191226Y988377D01*
X191238Y988321D01*
X191258Y988192D01*
X191328Y987890D01*
X191390Y987587D01*
X191426Y987462D01*
X191441Y987393D01*
X191460Y987330D01*
X191488Y987211D01*
X191582Y986916D01*
X191667Y986619D01*
X191710Y986505D01*
X191733Y986428D01*
X191760Y986359D01*
X191795Y986251D01*
X191912Y985965D01*
X192021Y985675D01*
X192069Y985572D01*
X192101Y985490D01*
X192137Y985416D01*
X192177Y985319D01*
X192317Y985042D01*
X192448Y984762D01*
X192516Y984638D01*
X192543Y984584D01*
X192588Y984508D01*
X192590Y984503D01*
X192632Y984420D01*
X192665Y984366D01*
X192729Y984250D01*
X193821Y982357D01*
X196851Y971052D01*
X196851Y959348D01*
X193821Y948043D01*
X189733Y940960D01*
X189613Y940733D01*
X189485Y940511D01*
X189379Y940288D01*
X189264Y940068D01*
X189163Y939833D01*
X189053Y939601D01*
X188965Y939370D01*
X188867Y939142D01*
X188785Y938899D01*
X188694Y938659D01*
X188624Y938421D01*
X188545Y938187D01*
X188483Y937939D01*
X188411Y937692D01*
X188360Y937450D01*
X188300Y937210D01*
X188257Y936957D01*
X188205Y936706D01*
X188174Y936460D01*
X188133Y936216D01*
X188111Y935960D01*
X188079Y935706D01*
X188067Y935459D01*
X188045Y935212D01*
X188043Y934955D01*
X188032Y934699D01*
X188040Y934452D01*
X188038Y934204D01*
X188056Y933948D01*
X188064Y933692D01*
X188092Y933446D01*
X188110Y933199D01*
X188149Y932946D01*
X188177Y932691D01*
X188224Y932447D01*
X188262Y932203D01*
X188320Y931953D01*
X188369Y931701D01*
X188435Y931463D01*
X188492Y931222D01*
X188570Y930977D01*
X188639Y930730D01*
X188724Y930498D01*
X188799Y930262D01*
X188896Y930025D01*
X188984Y929784D01*
X189087Y929559D01*
X189181Y929330D01*
X189297Y929100D01*
X189404Y928868D01*
X189525Y928652D01*
X189637Y928430D01*
X189770Y928212D01*
X189895Y927988D01*
X190033Y927781D01*
X190162Y927570D01*
X190312Y927363D01*
X190454Y927149D01*
X190608Y926955D01*
X190753Y926754D01*
X190919Y926560D01*
X191078Y926358D01*
X191247Y926176D01*
X191407Y925988D01*
X191589Y925807D01*
X191763Y925619D01*
X191945Y925451D01*
X192121Y925276D01*
X192316Y925110D01*
X192504Y924936D01*
X192699Y924783D01*
X192888Y924623D01*
X193096Y924472D01*
X193297Y924314D01*
X193504Y924177D01*
X193705Y924032D01*
X193924Y923899D01*
X194137Y923757D01*
X194354Y923637D01*
X194565Y923508D01*
X194794Y923393D01*
X195019Y923269D01*
X195244Y923166D01*
X195465Y923055D01*
X195702Y922958D01*
X195936Y922851D01*
X196169Y922767D01*
X196398Y922673D01*
X196643Y922595D01*
X196884Y922508D01*
X197288Y922390D01*
X197358Y922368D01*
X197389Y922360D01*
X197444Y922344D01*
X202956Y920867D01*
X211065Y916186D01*
X217686Y909565D01*
X222367Y901456D01*
X222683Y900276D01*
X222788Y899939D01*
X222885Y899598D01*
X222938Y899457D01*
X222983Y899314D01*
X223114Y898985D01*
X223238Y898654D01*
X223301Y898518D01*
X223357Y898378D01*
X223515Y898061D01*
X223664Y897741D01*
X223738Y897610D01*
X223805Y897475D01*
X223987Y897171D01*
X224161Y896864D01*
X224245Y896740D01*
X224323Y896611D01*
X224528Y896323D01*
X224726Y896030D01*
X224820Y895913D01*
X224907Y895790D01*
X225135Y895519D01*
X225356Y895243D01*
X225459Y895133D01*
X225491Y895095D01*
X225412Y894842D01*
X225300Y894507D01*
X225263Y894361D01*
X225219Y894217D01*
X225142Y893872D01*
X225056Y893529D01*
X225031Y893380D01*
X224998Y893234D01*
X224949Y892884D01*
X224890Y892535D01*
X224877Y892385D01*
X224856Y892236D01*
X224834Y891884D01*
X224804Y891531D01*
X224799Y891316D01*
X224794Y891230D01*
X224795Y891147D01*
X224791Y890947D01*
X224791Y889000D01*
X224795Y888894D01*
X224793Y888788D01*
X224815Y888391D01*
X224831Y887993D01*
X224843Y887888D01*
X224849Y887782D01*
X224903Y887387D01*
X224950Y886992D01*
X224971Y886888D01*
X224986Y886783D01*
X225071Y886395D01*
X225149Y886004D01*
X225178Y885902D01*
X225201Y885799D01*
X225316Y885419D01*
X225425Y885035D01*
X225463Y884936D01*
X225493Y884834D01*
X225639Y884464D01*
X225778Y884091D01*
X225823Y883995D01*
X225861Y883896D01*
X226036Y883538D01*
X226204Y883178D01*
X226256Y883086D01*
X226303Y882990D01*
X226505Y882647D01*
X226701Y882301D01*
X226761Y882214D01*
X226814Y882122D01*
X227043Y881796D01*
X227266Y881467D01*
X227333Y881384D01*
X227393Y881297D01*
X227647Y880992D01*
X227896Y880680D01*
X227969Y880602D01*
X228036Y880521D01*
X228313Y880236D01*
X228586Y879946D01*
X228664Y879874D01*
X228738Y879798D01*
X229037Y879536D01*
X229332Y879268D01*
X229415Y879203D01*
X229495Y879133D01*
X229815Y878895D01*
X230129Y878652D01*
X230218Y878594D01*
X230303Y878530D01*
X230640Y878318D01*
X230973Y878101D01*
X231066Y878050D01*
X231156Y877993D01*
X231508Y877809D01*
X231857Y877618D01*
X231954Y877575D01*
X232048Y877526D01*
X232415Y877369D01*
X232778Y877207D01*
X232877Y877172D01*
X232975Y877130D01*
X233353Y877004D01*
X233727Y876871D01*
X233830Y876844D01*
X233931Y876810D01*
X234318Y876713D01*
X234701Y876611D01*
X234805Y876592D01*
X234908Y876566D01*
X235302Y876500D01*
X235692Y876429D01*
X235798Y876418D01*
X235902Y876400D01*
X236299Y876366D01*
X236695Y876326D01*
X236801Y876323D01*
X236907Y876314D01*
X237490Y876301D01*
X238012Y876301D01*
X238268Y876311D01*
G37*
%LPC*%
G36*
X337048Y1377949D02*
X337048Y1377949D01*
X325743Y1380979D01*
X315607Y1386831D01*
X307331Y1395107D01*
X301479Y1405243D01*
X298449Y1416548D01*
X298449Y1428252D01*
X301479Y1439557D01*
X307331Y1449693D01*
X315607Y1457969D01*
X325743Y1463821D01*
X337048Y1466851D01*
X348752Y1466851D01*
X360057Y1463821D01*
X370193Y1457969D01*
X378469Y1449693D01*
X384321Y1439557D01*
X387351Y1428252D01*
X387351Y1416548D01*
X384321Y1405243D01*
X378469Y1395107D01*
X370193Y1386831D01*
X360057Y1380979D01*
X348752Y1377949D01*
X337048Y1377949D01*
G37*
%LPD*%
G36*
X378909Y1002586D02*
X378909Y1002586D01*
X378953Y1002584D01*
X379412Y1002606D01*
X379871Y1002625D01*
X379915Y1002631D01*
X379959Y1002633D01*
X380415Y1002691D01*
X380872Y1002746D01*
X380915Y1002755D01*
X380959Y1002761D01*
X381409Y1002855D01*
X381859Y1002946D01*
X381902Y1002959D01*
X381945Y1002968D01*
X382385Y1003097D01*
X382828Y1003224D01*
X382870Y1003240D01*
X382912Y1003252D01*
X383340Y1003416D01*
X383772Y1003578D01*
X383812Y1003597D01*
X383853Y1003612D01*
X384267Y1003810D01*
X384684Y1004005D01*
X384735Y1004033D01*
X384763Y1004046D01*
X384826Y1004083D01*
X385196Y1004285D01*
X389243Y1006621D01*
X400548Y1009651D01*
X412252Y1009651D01*
X423745Y1006571D01*
X424086Y1006425D01*
X424509Y1006241D01*
X424551Y1006226D01*
X424591Y1006209D01*
X425025Y1006063D01*
X425461Y1005912D01*
X425504Y1005901D01*
X425546Y1005887D01*
X425992Y1005775D01*
X426437Y1005660D01*
X426480Y1005653D01*
X426523Y1005642D01*
X426976Y1005566D01*
X427430Y1005486D01*
X427474Y1005482D01*
X427517Y1005475D01*
X427974Y1005435D01*
X428433Y1005392D01*
X428477Y1005391D01*
X428521Y1005387D01*
X428981Y1005384D01*
X429441Y1005377D01*
X429484Y1005380D01*
X429529Y1005380D01*
X429988Y1005412D01*
X430446Y1005442D01*
X430490Y1005449D01*
X430534Y1005452D01*
X430988Y1005521D01*
X431444Y1005587D01*
X431487Y1005597D01*
X431530Y1005603D01*
X431976Y1005708D01*
X432426Y1005810D01*
X432468Y1005824D01*
X432511Y1005834D01*
X432948Y1005973D01*
X433388Y1006111D01*
X433429Y1006127D01*
X433471Y1006141D01*
X433897Y1006315D01*
X434323Y1006487D01*
X434362Y1006506D01*
X434403Y1006523D01*
X434814Y1006731D01*
X435225Y1006936D01*
X435263Y1006958D01*
X435302Y1006978D01*
X435695Y1007218D01*
X436089Y1007455D01*
X436125Y1007480D01*
X436163Y1007503D01*
X436534Y1007772D01*
X436909Y1008040D01*
X436943Y1008069D01*
X436978Y1008095D01*
X437328Y1008393D01*
X437680Y1008690D01*
X437721Y1008729D01*
X437745Y1008749D01*
X437796Y1008800D01*
X438102Y1009093D01*
X440445Y1011436D01*
X448918Y1016327D01*
X448986Y1016353D01*
X449122Y1016416D01*
X449261Y1016472D01*
X449579Y1016629D01*
X449899Y1016779D01*
X450030Y1016853D01*
X450164Y1016920D01*
X450468Y1017101D01*
X450776Y1017276D01*
X450900Y1017360D01*
X451029Y1017437D01*
X451317Y1017642D01*
X451610Y1017841D01*
X451728Y1017935D01*
X451850Y1018022D01*
X452120Y1018249D01*
X452397Y1018471D01*
X452507Y1018573D01*
X452621Y1018670D01*
X452874Y1018918D01*
X453132Y1019161D01*
X453233Y1019272D01*
X453340Y1019377D01*
X453571Y1019644D01*
X453809Y1019907D01*
X453901Y1020025D01*
X453999Y1020139D01*
X454209Y1020424D01*
X454426Y1020704D01*
X454508Y1020829D01*
X454597Y1020950D01*
X454783Y1021251D01*
X454977Y1021548D01*
X455049Y1021680D01*
X455128Y1021807D01*
X455289Y1022121D01*
X455459Y1022432D01*
X455520Y1022569D01*
X455589Y1022703D01*
X455726Y1023030D01*
X455870Y1023353D01*
X455920Y1023494D01*
X455978Y1023632D01*
X456089Y1023970D01*
X456206Y1024302D01*
X456245Y1024447D01*
X456292Y1024590D01*
X456375Y1024935D01*
X456467Y1025276D01*
X456494Y1025423D01*
X456529Y1025569D01*
X456585Y1025919D01*
X456649Y1026267D01*
X456664Y1026416D01*
X456688Y1026565D01*
X456716Y1026918D01*
X456752Y1027270D01*
X456755Y1027420D01*
X456767Y1027569D01*
X456767Y1027924D01*
X456775Y1028277D01*
X456766Y1028427D01*
X456766Y1028577D01*
X456738Y1028930D01*
X456718Y1029283D01*
X456698Y1029432D01*
X456686Y1029581D01*
X456630Y1029931D01*
X456582Y1030282D01*
X456550Y1030428D01*
X456526Y1030576D01*
X456442Y1030921D01*
X456367Y1031266D01*
X456323Y1031410D01*
X456288Y1031556D01*
X456177Y1031891D01*
X456074Y1032231D01*
X456019Y1032370D01*
X455972Y1032513D01*
X455835Y1032839D01*
X455706Y1033169D01*
X455640Y1033303D01*
X455582Y1033442D01*
X455420Y1033757D01*
X455265Y1034075D01*
X455189Y1034204D01*
X455120Y1034337D01*
X454933Y1034638D01*
X454753Y1034943D01*
X454667Y1035065D01*
X454588Y1035193D01*
X454377Y1035478D01*
X454174Y1035768D01*
X454078Y1035883D01*
X453989Y1036004D01*
X453757Y1036272D01*
X453531Y1036544D01*
X453427Y1036651D01*
X453329Y1036765D01*
X453076Y1037013D01*
X452829Y1037267D01*
X452717Y1037366D01*
X452610Y1037471D01*
X452339Y1037698D01*
X452072Y1037932D01*
X451952Y1038022D01*
X451837Y1038118D01*
X451549Y1038322D01*
X451265Y1038535D01*
X451137Y1038615D01*
X451015Y1038702D01*
X450711Y1038883D01*
X450412Y1039072D01*
X450279Y1039141D01*
X450150Y1039218D01*
X449833Y1039375D01*
X449519Y1039539D01*
X449381Y1039598D01*
X449247Y1039665D01*
X448918Y1039796D01*
X448592Y1039935D01*
X448450Y1039982D01*
X448311Y1040038D01*
X447973Y1040142D01*
X447637Y1040255D01*
X447491Y1040292D01*
X447348Y1040336D01*
X447003Y1040413D01*
X446659Y1040499D01*
X446511Y1040524D01*
X446365Y1040557D01*
X446014Y1040606D01*
X445665Y1040665D01*
X445516Y1040677D01*
X445367Y1040699D01*
X445014Y1040721D01*
X444661Y1040751D01*
X444446Y1040756D01*
X444361Y1040761D01*
X444279Y1040760D01*
X444077Y1040764D01*
X377572Y1040764D01*
X370951Y1042539D01*
X365014Y1045966D01*
X360166Y1050814D01*
X356739Y1056751D01*
X355167Y1062617D01*
X355106Y1062812D01*
X355055Y1063009D01*
X354957Y1063293D01*
X354867Y1063580D01*
X354792Y1063769D01*
X354725Y1063961D01*
X354605Y1064236D01*
X354493Y1064515D01*
X354402Y1064697D01*
X354321Y1064884D01*
X354179Y1065149D01*
X354045Y1065418D01*
X353941Y1065593D01*
X353844Y1065772D01*
X353682Y1066025D01*
X353527Y1066283D01*
X353409Y1066449D01*
X353299Y1066619D01*
X353117Y1066858D01*
X352943Y1067103D01*
X352812Y1067260D01*
X352689Y1067421D01*
X352488Y1067645D01*
X352295Y1067875D01*
X352152Y1068020D01*
X352016Y1068172D01*
X351798Y1068379D01*
X351588Y1068593D01*
X351434Y1068726D01*
X351287Y1068867D01*
X351053Y1069056D01*
X350826Y1069253D01*
X350662Y1069374D01*
X350504Y1069502D01*
X350256Y1069672D01*
X350014Y1069850D01*
X349841Y1069957D01*
X349674Y1070073D01*
X349413Y1070223D01*
X349158Y1070381D01*
X348977Y1070474D01*
X348800Y1070576D01*
X348528Y1070705D01*
X348262Y1070843D01*
X348074Y1070921D01*
X347890Y1071008D01*
X347609Y1071115D01*
X347332Y1071231D01*
X347139Y1071295D01*
X346949Y1071367D01*
X346660Y1071452D01*
X346374Y1071545D01*
X346177Y1071593D01*
X345981Y1071650D01*
X345687Y1071712D01*
X345395Y1071782D01*
X345194Y1071814D01*
X344995Y1071856D01*
X344696Y1071894D01*
X344400Y1071941D01*
X344197Y1071957D01*
X343995Y1071983D01*
X343695Y1071997D01*
X343395Y1072020D01*
X343192Y1072020D01*
X342989Y1072030D01*
X342688Y1072020D01*
X342387Y1072020D01*
X342184Y1072003D01*
X341981Y1071997D01*
X341683Y1071963D01*
X341383Y1071939D01*
X341182Y1071907D01*
X340980Y1071884D01*
X340685Y1071827D01*
X340388Y1071779D01*
X340190Y1071731D01*
X339991Y1071692D01*
X339701Y1071612D01*
X339409Y1071541D01*
X339215Y1071477D01*
X339020Y1071423D01*
X338738Y1071320D01*
X338452Y1071225D01*
X338264Y1071147D01*
X338073Y1071077D01*
X337800Y1070952D01*
X337522Y1070835D01*
X337342Y1070742D01*
X337157Y1070657D01*
X336895Y1070511D01*
X336627Y1070373D01*
X336454Y1070265D01*
X336277Y1070166D01*
X336027Y1069999D01*
X335771Y1069840D01*
X335608Y1069719D01*
X335439Y1069607D01*
X335203Y1069421D01*
X334961Y1069242D01*
X334807Y1069109D01*
X334647Y1068983D01*
X334427Y1068778D01*
X334200Y1068581D01*
X334057Y1068436D01*
X333908Y1068298D01*
X333704Y1068077D01*
X333494Y1067862D01*
X333363Y1067706D01*
X333225Y1067557D01*
X333040Y1067320D01*
X332847Y1067090D01*
X332729Y1066924D01*
X332603Y1066764D01*
X332437Y1066513D01*
X332263Y1066268D01*
X332159Y1066093D01*
X332046Y1065924D01*
X331901Y1065661D01*
X331747Y1065403D01*
X331657Y1065221D01*
X331558Y1065042D01*
X331433Y1064768D01*
X331300Y1064499D01*
X331225Y1064311D01*
X331141Y1064125D01*
X331038Y1063842D01*
X330927Y1063563D01*
X330867Y1063369D01*
X330797Y1063178D01*
X330633Y1062617D01*
X329061Y1056751D01*
X325634Y1050814D01*
X320786Y1045966D01*
X314849Y1042539D01*
X308228Y1040764D01*
X301413Y1040764D01*
X301059Y1040750D01*
X300705Y1040745D01*
X300556Y1040730D01*
X300406Y1040724D01*
X300054Y1040682D01*
X299702Y1040649D01*
X299554Y1040622D01*
X299405Y1040605D01*
X299058Y1040535D01*
X298710Y1040473D01*
X298565Y1040436D01*
X298417Y1040406D01*
X298077Y1040309D01*
X297734Y1040220D01*
X297592Y1040171D01*
X297448Y1040130D01*
X297116Y1040006D01*
X296782Y1039890D01*
X296645Y1039830D01*
X296504Y1039777D01*
X296183Y1039628D01*
X295859Y1039486D01*
X295726Y1039414D01*
X295591Y1039351D01*
X295283Y1039176D01*
X294971Y1039009D01*
X294845Y1038928D01*
X294714Y1038854D01*
X294421Y1038655D01*
X294123Y1038464D01*
X294004Y1038373D01*
X293880Y1038289D01*
X293603Y1038068D01*
X293322Y1037853D01*
X293210Y1037753D01*
X293093Y1037659D01*
X292835Y1037417D01*
X292571Y1037181D01*
X292468Y1037072D01*
X292358Y1036969D01*
X292120Y1036707D01*
X291876Y1036451D01*
X291782Y1036335D01*
X291681Y1036223D01*
X291464Y1035943D01*
X291241Y1035669D01*
X291156Y1035545D01*
X291064Y1035426D01*
X290871Y1035130D01*
X290670Y1034838D01*
X290595Y1034708D01*
X290513Y1034582D01*
X290344Y1034272D01*
X290167Y1033965D01*
X290103Y1033829D01*
X290031Y1033698D01*
X289887Y1033375D01*
X289735Y1033055D01*
X289681Y1032914D01*
X289620Y1032777D01*
X289502Y1032444D01*
X289376Y1032113D01*
X289334Y1031969D01*
X289284Y1031828D01*
X289192Y1031486D01*
X289093Y1031146D01*
X289062Y1030999D01*
X289023Y1030854D01*
X288960Y1030506D01*
X288887Y1030159D01*
X288868Y1030010D01*
X288841Y1029863D01*
X288805Y1029511D01*
X288761Y1029160D01*
X288754Y1029009D01*
X288738Y1028860D01*
X288730Y1028507D01*
X288714Y1028153D01*
X288719Y1028003D01*
X288715Y1027853D01*
X288735Y1027500D01*
X288747Y1027146D01*
X288763Y1026997D01*
X288772Y1026847D01*
X288820Y1026496D01*
X288859Y1026144D01*
X288888Y1025997D01*
X288908Y1025848D01*
X288984Y1025502D01*
X289051Y1025155D01*
X289091Y1025010D01*
X289123Y1024864D01*
X289226Y1024525D01*
X289321Y1024184D01*
X289372Y1024043D01*
X289416Y1023899D01*
X289545Y1023570D01*
X289667Y1023237D01*
X289729Y1023101D01*
X289784Y1022961D01*
X289939Y1022643D01*
X290086Y1022321D01*
X290160Y1022190D01*
X290225Y1022055D01*
X290405Y1021750D01*
X290578Y1021441D01*
X290661Y1021316D01*
X290737Y1021187D01*
X290940Y1020898D01*
X291137Y1020603D01*
X291230Y1020485D01*
X291316Y1020362D01*
X291541Y1020090D01*
X291761Y1019812D01*
X291863Y1019701D01*
X291959Y1019586D01*
X292205Y1019333D01*
X292446Y1019072D01*
X292556Y1018971D01*
X292661Y1018863D01*
X292926Y1018630D01*
X293187Y1018390D01*
X293305Y1018297D01*
X293418Y1018198D01*
X293702Y1017986D01*
X293980Y1017768D01*
X294105Y1017685D01*
X294225Y1017595D01*
X294525Y1017406D01*
X294820Y1017211D01*
X294951Y1017138D01*
X295078Y1017058D01*
X295392Y1016894D01*
X295701Y1016723D01*
X295838Y1016660D01*
X295971Y1016591D01*
X296297Y1016452D01*
X296579Y1016324D01*
X305550Y1011144D01*
X305607Y1011099D01*
X305696Y1011040D01*
X305781Y1010976D01*
X306116Y1010761D01*
X306446Y1010541D01*
X306539Y1010489D01*
X306629Y1010432D01*
X306979Y1010244D01*
X307327Y1010051D01*
X307424Y1010007D01*
X307518Y1009957D01*
X307881Y1009798D01*
X308243Y1009633D01*
X308343Y1009596D01*
X308441Y1009553D01*
X308817Y1009424D01*
X309190Y1009288D01*
X309293Y1009260D01*
X309394Y1009225D01*
X309778Y1009126D01*
X310162Y1009020D01*
X310266Y1008999D01*
X310370Y1008973D01*
X310762Y1008904D01*
X311151Y1008829D01*
X311257Y1008817D01*
X311362Y1008799D01*
X311759Y1008762D01*
X312153Y1008718D01*
X312259Y1008714D01*
X312366Y1008704D01*
X312763Y1008699D01*
X313160Y1008686D01*
X313267Y1008691D01*
X313373Y1008690D01*
X313769Y1008715D01*
X314167Y1008734D01*
X314272Y1008748D01*
X314379Y1008755D01*
X314772Y1008812D01*
X315166Y1008862D01*
X315271Y1008884D01*
X315376Y1008900D01*
X315763Y1008988D01*
X316153Y1009069D01*
X316255Y1009099D01*
X316359Y1009123D01*
X316738Y1009242D01*
X317119Y1009354D01*
X317219Y1009392D01*
X317321Y1009424D01*
X317690Y1009572D01*
X318061Y1009714D01*
X318157Y1009760D01*
X318256Y1009799D01*
X318611Y1009976D01*
X318970Y1010147D01*
X319063Y1010201D01*
X319158Y1010248D01*
X319499Y1010453D01*
X319843Y1010652D01*
X319930Y1010712D01*
X320022Y1010767D01*
X320345Y1010999D01*
X320538Y1011132D01*
X329174Y1016117D01*
X338218Y1018541D01*
X347582Y1018541D01*
X356626Y1016117D01*
X364735Y1011436D01*
X369867Y1006303D01*
X370205Y1005991D01*
X370540Y1005677D01*
X370575Y1005650D01*
X370607Y1005620D01*
X370968Y1005336D01*
X371328Y1005049D01*
X371365Y1005024D01*
X371399Y1004997D01*
X371783Y1004742D01*
X372163Y1004485D01*
X372202Y1004463D01*
X372238Y1004439D01*
X372643Y1004214D01*
X373040Y1003989D01*
X373080Y1003971D01*
X373119Y1003949D01*
X373539Y1003757D01*
X373954Y1003564D01*
X373996Y1003549D01*
X374036Y1003530D01*
X374469Y1003373D01*
X374899Y1003213D01*
X374941Y1003201D01*
X374983Y1003186D01*
X375429Y1003063D01*
X375868Y1002938D01*
X375911Y1002930D01*
X375954Y1002918D01*
X376408Y1002830D01*
X376857Y1002741D01*
X376900Y1002736D01*
X376944Y1002727D01*
X377400Y1002677D01*
X377857Y1002623D01*
X377902Y1002621D01*
X377946Y1002616D01*
X378403Y1002602D01*
X378864Y1002584D01*
X378909Y1002586D01*
G37*
%LPC*%
G36*
X617893Y269944D02*
X617893Y269944D01*
X608159Y272343D01*
X599283Y277002D01*
X591779Y283650D01*
X586084Y291900D01*
X582529Y301273D01*
X581321Y311225D01*
X582529Y321177D01*
X586084Y330550D01*
X591779Y338800D01*
X599283Y345448D01*
X608159Y350107D01*
X617893Y352506D01*
X627917Y352506D01*
X637651Y350107D01*
X646527Y345448D01*
X654031Y338800D01*
X659726Y330550D01*
X663281Y321177D01*
X664489Y311225D01*
X663281Y301273D01*
X659726Y291900D01*
X654031Y283650D01*
X646527Y277002D01*
X637651Y272343D01*
X627917Y269944D01*
X617893Y269944D01*
G37*
%LPD*%
G36*
X417338Y876311D02*
X417338Y876311D01*
X417594Y876311D01*
X417841Y876331D01*
X418089Y876341D01*
X418344Y876371D01*
X418599Y876392D01*
X418843Y876431D01*
X419089Y876460D01*
X419341Y876511D01*
X419594Y876552D01*
X419834Y876610D01*
X420077Y876659D01*
X420324Y876730D01*
X420573Y876790D01*
X420808Y876867D01*
X421046Y876935D01*
X421287Y877025D01*
X421530Y877105D01*
X421758Y877201D01*
X421990Y877288D01*
X422223Y877396D01*
X422459Y877496D01*
X422680Y877609D01*
X422904Y877714D01*
X423126Y877840D01*
X423355Y877958D01*
X423565Y878089D01*
X423780Y878211D01*
X423993Y878355D01*
X424210Y878490D01*
X424410Y878637D01*
X424615Y878776D01*
X424815Y878937D01*
X425021Y879089D01*
X425208Y879251D01*
X425402Y879406D01*
X425588Y879581D01*
X425782Y879749D01*
X425956Y879926D01*
X426136Y880096D01*
X426309Y880285D01*
X426488Y880468D01*
X426647Y880658D01*
X426814Y880842D01*
X426971Y881045D01*
X427135Y881241D01*
X427278Y881443D01*
X427430Y881639D01*
X427570Y881854D01*
X427719Y882063D01*
X427845Y882275D01*
X427981Y882483D01*
X428104Y882708D01*
X428235Y882928D01*
X428345Y883150D01*
X428463Y883367D01*
X428568Y883601D01*
X428682Y883831D01*
X428773Y884062D01*
X428874Y884288D01*
X428960Y884529D01*
X429055Y884768D01*
X429128Y885005D01*
X429211Y885237D01*
X429277Y885485D01*
X429353Y885730D01*
X429407Y885972D01*
X429471Y886211D01*
X429517Y886463D01*
X429573Y886714D01*
X429608Y886959D01*
X429653Y887202D01*
X429679Y887457D01*
X429715Y887711D01*
X429731Y887959D01*
X429756Y888205D01*
X429762Y888461D01*
X429778Y888717D01*
X429774Y888965D01*
X429779Y889212D01*
X429765Y889468D01*
X429760Y889725D01*
X429736Y889971D01*
X429722Y890218D01*
X429688Y890473D01*
X429663Y890728D01*
X429620Y890971D01*
X429586Y891217D01*
X429531Y891467D01*
X429486Y891720D01*
X429386Y892131D01*
X429371Y892201D01*
X429362Y892231D01*
X429348Y892287D01*
X426719Y902098D01*
X426719Y908076D01*
X426709Y908333D01*
X426709Y908590D01*
X426689Y908836D01*
X426679Y909083D01*
X426649Y909338D01*
X426628Y909594D01*
X426589Y909838D01*
X426560Y910083D01*
X426509Y910335D01*
X426468Y910589D01*
X426410Y910829D01*
X426361Y911071D01*
X426290Y911319D01*
X426230Y911568D01*
X426152Y911803D01*
X426085Y912040D01*
X425995Y912281D01*
X425914Y912525D01*
X425819Y912753D01*
X425732Y912985D01*
X425623Y913217D01*
X425524Y913454D01*
X425410Y913674D01*
X425306Y913898D01*
X425179Y914121D01*
X425061Y914350D01*
X424931Y914560D01*
X424809Y914774D01*
X424665Y914987D01*
X424529Y915205D01*
X424382Y915404D01*
X424244Y915609D01*
X424083Y915809D01*
X423931Y916016D01*
X423769Y916203D01*
X423614Y916396D01*
X423438Y916583D01*
X423270Y916777D01*
X423094Y916950D01*
X422924Y917130D01*
X422734Y917303D01*
X422551Y917483D01*
X422362Y917641D01*
X422178Y917808D01*
X421975Y917965D01*
X421778Y918130D01*
X421577Y918273D01*
X421381Y918424D01*
X421166Y918565D01*
X420956Y918713D01*
X420744Y918840D01*
X420537Y918975D01*
X420312Y919098D01*
X420091Y919230D01*
X419869Y919339D01*
X419653Y919458D01*
X419418Y919562D01*
X419187Y919676D01*
X418958Y919768D01*
X418732Y919868D01*
X418491Y919954D01*
X418251Y920049D01*
X418015Y920122D01*
X417783Y920205D01*
X417534Y920271D01*
X417289Y920347D01*
X417047Y920401D01*
X416809Y920465D01*
X416556Y920511D01*
X416305Y920568D01*
X416060Y920603D01*
X415818Y920647D01*
X415562Y920673D01*
X415308Y920710D01*
X415061Y920725D01*
X414815Y920750D01*
X414559Y920756D01*
X414302Y920772D01*
X414055Y920768D01*
X413808Y920773D01*
X413551Y920759D01*
X413294Y920754D01*
X413243Y920749D01*
X400548Y920749D01*
X394447Y922384D01*
X394196Y922441D01*
X393949Y922507D01*
X393706Y922551D01*
X393464Y922606D01*
X393210Y922643D01*
X392958Y922689D01*
X392712Y922714D01*
X392466Y922749D01*
X392210Y922766D01*
X391955Y922792D01*
X391708Y922798D01*
X391461Y922813D01*
X391204Y922809D01*
X390948Y922815D01*
X390701Y922801D01*
X390453Y922797D01*
X390198Y922773D01*
X389942Y922758D01*
X389696Y922725D01*
X389450Y922701D01*
X389198Y922657D01*
X388943Y922622D01*
X388701Y922569D01*
X388457Y922526D01*
X388209Y922461D01*
X387959Y922407D01*
X387722Y922335D01*
X387482Y922273D01*
X387240Y922189D01*
X386994Y922114D01*
X386764Y922024D01*
X386530Y921943D01*
X386295Y921840D01*
X386056Y921746D01*
X385834Y921638D01*
X385607Y921538D01*
X385381Y921417D01*
X385150Y921305D01*
X384937Y921179D01*
X384719Y921062D01*
X384503Y920923D01*
X384282Y920793D01*
X384080Y920651D01*
X383871Y920517D01*
X383667Y920361D01*
X383457Y920214D01*
X383267Y920057D01*
X383070Y919906D01*
X382878Y919735D01*
X382681Y919572D01*
X382504Y919399D01*
X382319Y919234D01*
X382142Y919048D01*
X381958Y918869D01*
X381795Y918683D01*
X381624Y918504D01*
X381462Y918305D01*
X381293Y918112D01*
X381145Y917914D01*
X380989Y917722D01*
X380844Y917510D01*
X380690Y917305D01*
X380558Y917095D01*
X380418Y916891D01*
X380290Y916669D01*
X380153Y916452D01*
X380038Y916233D01*
X379915Y916018D01*
X379805Y915787D01*
X379686Y915559D01*
X379589Y915331D01*
X379482Y915108D01*
X379391Y914868D01*
X379290Y914632D01*
X379211Y914397D01*
X379123Y914166D01*
X379051Y913921D01*
X378970Y913677D01*
X378910Y913436D01*
X378840Y913199D01*
X378788Y912948D01*
X378726Y912699D01*
X378685Y912455D01*
X378635Y912212D01*
X378602Y911958D01*
X378560Y911705D01*
X378539Y911458D01*
X378508Y911213D01*
X378496Y910957D01*
X378474Y910701D01*
X378464Y910279D01*
X378461Y910206D01*
X378462Y910175D01*
X378461Y910118D01*
X378461Y902098D01*
X375832Y892287D01*
X375775Y892037D01*
X375709Y891789D01*
X375664Y891546D01*
X375610Y891304D01*
X375573Y891050D01*
X375527Y890798D01*
X375502Y890552D01*
X375466Y890306D01*
X375450Y890050D01*
X375424Y889795D01*
X375418Y889548D01*
X375403Y889301D01*
X375407Y889044D01*
X375401Y888788D01*
X375415Y888541D01*
X375419Y888293D01*
X375443Y888037D01*
X375458Y887782D01*
X375491Y887536D01*
X375515Y887290D01*
X375559Y887038D01*
X375594Y886783D01*
X375647Y886541D01*
X375690Y886297D01*
X375754Y886049D01*
X375809Y885799D01*
X375881Y885562D01*
X375943Y885322D01*
X376027Y885080D01*
X376102Y884834D01*
X376192Y884604D01*
X376273Y884370D01*
X376376Y884135D01*
X376470Y883896D01*
X376578Y883674D01*
X376678Y883447D01*
X376799Y883221D01*
X376911Y882990D01*
X377037Y882777D01*
X377154Y882559D01*
X377292Y882343D01*
X377423Y882122D01*
X377565Y881919D01*
X377699Y881711D01*
X377854Y881507D01*
X378002Y881297D01*
X378160Y881107D01*
X378310Y880910D01*
X378481Y880718D01*
X378644Y880521D01*
X378817Y880344D01*
X378982Y880159D01*
X379168Y879982D01*
X379346Y879798D01*
X379532Y879635D01*
X379712Y879464D01*
X379911Y879302D01*
X380104Y879133D01*
X380302Y878985D01*
X380494Y878829D01*
X380706Y878684D01*
X380911Y878530D01*
X381121Y878398D01*
X381325Y878258D01*
X381547Y878130D01*
X381764Y877993D01*
X381983Y877878D01*
X382198Y877755D01*
X382429Y877645D01*
X382657Y877526D01*
X382884Y877429D01*
X383108Y877322D01*
X383348Y877231D01*
X383584Y877130D01*
X383819Y877052D01*
X384050Y876963D01*
X384295Y876892D01*
X384539Y876810D01*
X384780Y876750D01*
X385017Y876680D01*
X385267Y876628D01*
X385517Y876566D01*
X385761Y876525D01*
X386003Y876475D01*
X386258Y876442D01*
X386511Y876400D01*
X386757Y876379D01*
X387003Y876348D01*
X387259Y876336D01*
X387515Y876314D01*
X387937Y876304D01*
X388010Y876301D01*
X388041Y876302D01*
X388098Y876301D01*
X417082Y876301D01*
X417338Y876311D01*
G37*
D10*
X525860Y736600D02*
X540940Y736600D01*
X540940Y711200D02*
X525860Y711200D01*
X525860Y685800D02*
X540940Y685800D01*
D11*
X127000Y1282700D03*
X558800Y1282700D03*
X152400Y1016000D03*
X342900Y1422400D03*
X406400Y965200D03*
X152400Y965200D03*
D12*
X431800Y673100D03*
X431800Y749300D03*
X254000Y673100D03*
X254000Y749300D03*
X283210Y982980D03*
X283210Y906780D03*
X462280Y982980D03*
X462280Y906780D03*
X342900Y982980D03*
X342900Y906780D03*
X113030Y887730D03*
X189230Y887730D03*
D13*
X464820Y1191260D03*
X401320Y1191260D03*
X433070Y1212850D03*
X285750Y1189990D03*
X222250Y1189990D03*
X254000Y1211580D03*
M02*
