G04 EAGLE Gerber RS-274X export*
G75*
%MOMM*%
%FSLAX34Y34*%
%LPD*%
%IN*%
%IPPOS*%
%AMOC8*
5,1,8,0,0,1.08239X$1,22.5*%
G01*

G36*
X1052340Y-4D02*
X1052340Y-4D01*
X1055469Y242D01*
X1055470Y242D01*
X1058521Y975D01*
X1058522Y975D01*
X1061421Y2176D01*
X1061422Y2176D01*
X1064098Y3816D01*
X1064098Y3817D01*
X1064098Y3816D01*
X1066485Y5855D01*
X1068524Y8242D01*
X1070164Y10918D01*
X1070164Y10919D01*
X1071365Y13818D01*
X1071365Y13819D01*
X1072098Y16870D01*
X1072098Y16871D01*
X1072344Y20000D01*
X1072344Y70006D01*
X1072738Y76006D01*
X1073911Y81904D01*
X1075844Y87598D01*
X1078503Y92991D01*
X1081844Y97991D01*
X1085808Y102512D01*
X1090329Y106476D01*
X1095329Y109817D01*
X1100722Y112476D01*
X1106416Y114409D01*
X1112314Y115582D01*
X1118314Y115976D01*
X1161128Y115976D01*
X1164257Y116222D01*
X1164258Y116222D01*
X1167309Y116955D01*
X1167310Y116955D01*
X1170209Y118156D01*
X1170210Y118156D01*
X1172886Y119796D01*
X1172886Y119797D01*
X1172886Y119796D01*
X1175273Y121835D01*
X1177312Y124222D01*
X1178952Y126898D01*
X1178952Y126899D01*
X1180153Y129798D01*
X1180153Y129799D01*
X1180886Y132850D01*
X1180886Y132851D01*
X1181132Y135980D01*
X1181132Y1530000D01*
X1180886Y1533129D01*
X1180886Y1533130D01*
X1180153Y1536181D01*
X1180153Y1536182D01*
X1178952Y1539081D01*
X1178952Y1539082D01*
X1177312Y1541758D01*
X1175273Y1544145D01*
X1172886Y1546184D01*
X1170210Y1547824D01*
X1170209Y1547824D01*
X1167310Y1549025D01*
X1167309Y1549025D01*
X1164258Y1549758D01*
X1164257Y1549758D01*
X1161128Y1550004D01*
X1091128Y1550004D01*
X1088000Y1550250D01*
X1084949Y1550983D01*
X1082050Y1552184D01*
X1079375Y1553823D01*
X1076989Y1555861D01*
X1074951Y1558247D01*
X1073312Y1560922D01*
X1072111Y1563821D01*
X1071378Y1566872D01*
X1071132Y1570000D01*
X1071132Y1630032D01*
X1070956Y1633241D01*
X1070280Y1636383D01*
X1069122Y1639380D01*
X1069121Y1639380D01*
X1069122Y1639381D01*
X1067509Y1642160D01*
X1067508Y1642160D01*
X1067509Y1642161D01*
X1065481Y1644653D01*
X1065481Y1644654D01*
X1063089Y1646799D01*
X1063088Y1646799D01*
X1063088Y1646800D01*
X1060390Y1648545D01*
X1060390Y1648544D01*
X1060390Y1648545D01*
X1057452Y1649847D01*
X1057451Y1649846D01*
X1057451Y1649847D01*
X1054346Y1650673D01*
X1051149Y1651004D01*
X130021Y1651004D01*
X126889Y1650762D01*
X123834Y1650032D01*
X123833Y1650032D01*
X120931Y1648833D01*
X120930Y1648833D01*
X118251Y1647194D01*
X118251Y1647193D01*
X118250Y1647194D01*
X115861Y1645155D01*
X115860Y1645155D01*
X113819Y1642768D01*
X113819Y1642767D01*
X112177Y1640090D01*
X112177Y1640089D01*
X110975Y1637188D01*
X110975Y1637187D01*
X110242Y1634133D01*
X110241Y1634132D01*
X109996Y1631001D01*
X109996Y1570000D01*
X109750Y1566872D01*
X109017Y1563821D01*
X107816Y1560922D01*
X106177Y1558247D01*
X104139Y1555861D01*
X101753Y1553823D01*
X99078Y1552184D01*
X96179Y1550983D01*
X93128Y1550250D01*
X90000Y1550004D01*
X20000Y1550004D01*
X16871Y1549758D01*
X16870Y1549758D01*
X13819Y1549025D01*
X13818Y1549025D01*
X10919Y1547824D01*
X10918Y1547824D01*
X8242Y1546184D01*
X5855Y1544145D01*
X3816Y1541758D01*
X2176Y1539082D01*
X2176Y1539081D01*
X975Y1536182D01*
X975Y1536181D01*
X242Y1533130D01*
X242Y1533129D01*
X-4Y1530000D01*
X-4Y136000D01*
X242Y132871D01*
X242Y132870D01*
X975Y129819D01*
X975Y129818D01*
X2176Y126919D01*
X2176Y126918D01*
X3816Y124242D01*
X3817Y124242D01*
X3816Y124242D01*
X5855Y121855D01*
X8242Y119816D01*
X10918Y118176D01*
X10919Y118176D01*
X13818Y116975D01*
X13819Y116975D01*
X16870Y116242D01*
X16871Y116242D01*
X20000Y115996D01*
X430000Y115996D01*
X433128Y115750D01*
X436179Y115017D01*
X439078Y113816D01*
X441753Y112177D01*
X444139Y110139D01*
X446177Y107753D01*
X447816Y105078D01*
X449017Y102179D01*
X449750Y99128D01*
X449996Y96000D01*
X449996Y20000D01*
X450242Y16871D01*
X450242Y16870D01*
X450975Y13819D01*
X450975Y13818D01*
X452176Y10919D01*
X452176Y10918D01*
X453816Y8242D01*
X453817Y8242D01*
X453816Y8242D01*
X455855Y5855D01*
X458242Y3816D01*
X460918Y2176D01*
X460919Y2176D01*
X463818Y975D01*
X463819Y975D01*
X466870Y242D01*
X466871Y242D01*
X470000Y-4D01*
X1052340Y-4D01*
X1052340Y-4D01*
G37*
M02*
