G04 EAGLE Gerber RS-274X export*
G75*
%MOMM*%
%FSLAX34Y34*%
%LPD*%
%INLabels*%
%IPPOS*%
%AMOC8*
5,1,8,0,0,1.08239X$1,22.5*%
G01*
%ADD10C,0.635000*%
%ADD11C,0.609600*%


D10*
X176742Y1501775D02*
X176890Y1501777D01*
X177037Y1501783D01*
X177185Y1501792D01*
X177332Y1501806D01*
X177479Y1501823D01*
X177625Y1501844D01*
X177771Y1501870D01*
X177915Y1501898D01*
X178060Y1501931D01*
X178203Y1501967D01*
X178345Y1502007D01*
X178486Y1502051D01*
X178626Y1502099D01*
X178765Y1502150D01*
X178902Y1502205D01*
X179038Y1502263D01*
X179172Y1502325D01*
X179304Y1502390D01*
X179435Y1502459D01*
X179564Y1502531D01*
X179691Y1502607D01*
X179816Y1502686D01*
X179939Y1502768D01*
X180059Y1502853D01*
X180178Y1502941D01*
X180294Y1503033D01*
X180407Y1503127D01*
X180519Y1503225D01*
X180627Y1503325D01*
X180733Y1503428D01*
X180836Y1503534D01*
X180936Y1503642D01*
X181034Y1503754D01*
X181128Y1503867D01*
X181220Y1503983D01*
X181308Y1504102D01*
X181393Y1504222D01*
X181475Y1504345D01*
X181554Y1504470D01*
X181630Y1504597D01*
X181702Y1504726D01*
X181771Y1504857D01*
X181836Y1504989D01*
X181898Y1505123D01*
X181956Y1505259D01*
X182011Y1505396D01*
X182062Y1505535D01*
X182110Y1505675D01*
X182154Y1505816D01*
X182194Y1505958D01*
X182230Y1506101D01*
X182263Y1506246D01*
X182291Y1506390D01*
X182317Y1506536D01*
X182338Y1506682D01*
X182355Y1506829D01*
X182369Y1506976D01*
X182378Y1507124D01*
X182384Y1507271D01*
X182386Y1507419D01*
X176742Y1501775D02*
X176457Y1501778D01*
X176172Y1501789D01*
X175887Y1501806D01*
X175603Y1501830D01*
X175319Y1501860D01*
X175036Y1501898D01*
X174754Y1501942D01*
X174474Y1501993D01*
X174194Y1502050D01*
X173916Y1502115D01*
X173640Y1502186D01*
X173365Y1502263D01*
X173093Y1502347D01*
X172822Y1502438D01*
X172554Y1502535D01*
X172288Y1502638D01*
X172025Y1502748D01*
X171764Y1502864D01*
X171506Y1502986D01*
X171251Y1503114D01*
X171000Y1503249D01*
X170751Y1503389D01*
X170506Y1503535D01*
X170265Y1503688D01*
X170027Y1503845D01*
X169793Y1504009D01*
X169564Y1504178D01*
X169338Y1504352D01*
X169116Y1504532D01*
X168899Y1504717D01*
X168687Y1504907D01*
X168479Y1505103D01*
X168275Y1505303D01*
X168981Y1521531D02*
X168983Y1521679D01*
X168989Y1521826D01*
X168998Y1521974D01*
X169012Y1522121D01*
X169029Y1522268D01*
X169050Y1522414D01*
X169076Y1522560D01*
X169104Y1522704D01*
X169137Y1522849D01*
X169173Y1522992D01*
X169213Y1523134D01*
X169257Y1523275D01*
X169305Y1523415D01*
X169356Y1523554D01*
X169411Y1523691D01*
X169469Y1523827D01*
X169531Y1523961D01*
X169596Y1524093D01*
X169665Y1524224D01*
X169737Y1524353D01*
X169813Y1524480D01*
X169892Y1524605D01*
X169974Y1524728D01*
X170059Y1524848D01*
X170147Y1524967D01*
X170239Y1525083D01*
X170333Y1525196D01*
X170431Y1525308D01*
X170531Y1525416D01*
X170634Y1525522D01*
X170740Y1525625D01*
X170848Y1525725D01*
X170960Y1525823D01*
X171073Y1525917D01*
X171189Y1526009D01*
X171308Y1526097D01*
X171428Y1526182D01*
X171551Y1526264D01*
X171676Y1526343D01*
X171803Y1526419D01*
X171932Y1526491D01*
X172063Y1526560D01*
X172195Y1526625D01*
X172329Y1526687D01*
X172465Y1526745D01*
X172602Y1526800D01*
X172741Y1526851D01*
X172881Y1526899D01*
X173022Y1526943D01*
X173164Y1526983D01*
X173307Y1527019D01*
X173452Y1527052D01*
X173596Y1527080D01*
X173742Y1527106D01*
X173888Y1527127D01*
X174035Y1527144D01*
X174182Y1527158D01*
X174330Y1527167D01*
X174477Y1527173D01*
X174625Y1527175D01*
X174877Y1527172D01*
X175129Y1527163D01*
X175381Y1527148D01*
X175632Y1527127D01*
X175883Y1527100D01*
X176133Y1527067D01*
X176382Y1527028D01*
X176631Y1526983D01*
X176878Y1526932D01*
X177124Y1526876D01*
X177368Y1526813D01*
X177611Y1526745D01*
X177852Y1526671D01*
X178091Y1526591D01*
X178328Y1526506D01*
X178564Y1526415D01*
X178797Y1526318D01*
X179027Y1526216D01*
X179255Y1526108D01*
X179481Y1525995D01*
X179703Y1525877D01*
X179923Y1525753D01*
X180140Y1525624D01*
X180354Y1525490D01*
X180564Y1525351D01*
X180771Y1525207D01*
X180975Y1525058D01*
X171802Y1516592D02*
X171675Y1516669D01*
X171550Y1516749D01*
X171427Y1516833D01*
X171306Y1516920D01*
X171188Y1517010D01*
X171072Y1517103D01*
X170958Y1517199D01*
X170847Y1517298D01*
X170738Y1517400D01*
X170632Y1517504D01*
X170529Y1517612D01*
X170429Y1517721D01*
X170331Y1517834D01*
X170237Y1517949D01*
X170145Y1518066D01*
X170057Y1518186D01*
X169972Y1518308D01*
X169890Y1518432D01*
X169811Y1518558D01*
X169735Y1518687D01*
X169663Y1518817D01*
X169594Y1518949D01*
X169529Y1519082D01*
X169467Y1519218D01*
X169409Y1519355D01*
X169354Y1519493D01*
X169303Y1519633D01*
X169256Y1519774D01*
X169212Y1519916D01*
X169172Y1520060D01*
X169136Y1520204D01*
X169103Y1520349D01*
X169074Y1520495D01*
X169049Y1520642D01*
X169028Y1520789D01*
X169011Y1520937D01*
X168997Y1521085D01*
X168988Y1521234D01*
X168982Y1521382D01*
X168980Y1521531D01*
X179564Y1512358D02*
X179691Y1512281D01*
X179816Y1512201D01*
X179939Y1512117D01*
X180060Y1512030D01*
X180178Y1511940D01*
X180295Y1511847D01*
X180408Y1511751D01*
X180519Y1511652D01*
X180628Y1511550D01*
X180734Y1511446D01*
X180837Y1511338D01*
X180937Y1511228D01*
X181035Y1511116D01*
X181129Y1511001D01*
X181221Y1510884D01*
X181309Y1510764D01*
X181394Y1510642D01*
X181476Y1510518D01*
X181555Y1510392D01*
X181631Y1510263D01*
X181703Y1510133D01*
X181772Y1510001D01*
X181837Y1509868D01*
X181899Y1509732D01*
X181957Y1509595D01*
X182012Y1509457D01*
X182063Y1509317D01*
X182110Y1509176D01*
X182154Y1509034D01*
X182194Y1508890D01*
X182230Y1508746D01*
X182263Y1508601D01*
X182292Y1508455D01*
X182317Y1508308D01*
X182338Y1508161D01*
X182355Y1508013D01*
X182369Y1507865D01*
X182378Y1507716D01*
X182384Y1507568D01*
X182386Y1507419D01*
X179564Y1512358D02*
X171803Y1516592D01*
X196047Y1501775D02*
X203103Y1501775D01*
X196047Y1501775D02*
X195919Y1501777D01*
X195791Y1501783D01*
X195664Y1501792D01*
X195537Y1501806D01*
X195410Y1501823D01*
X195284Y1501844D01*
X195159Y1501869D01*
X195034Y1501898D01*
X194910Y1501930D01*
X194788Y1501967D01*
X194666Y1502007D01*
X194546Y1502050D01*
X194427Y1502097D01*
X194310Y1502148D01*
X194194Y1502202D01*
X194080Y1502260D01*
X193968Y1502321D01*
X193857Y1502385D01*
X193749Y1502453D01*
X193642Y1502524D01*
X193538Y1502599D01*
X193436Y1502676D01*
X193337Y1502756D01*
X193240Y1502840D01*
X193146Y1502926D01*
X193054Y1503015D01*
X192965Y1503107D01*
X192879Y1503201D01*
X192795Y1503298D01*
X192715Y1503397D01*
X192638Y1503499D01*
X192563Y1503603D01*
X192492Y1503710D01*
X192424Y1503818D01*
X192360Y1503929D01*
X192299Y1504041D01*
X192241Y1504155D01*
X192187Y1504271D01*
X192136Y1504388D01*
X192089Y1504507D01*
X192046Y1504627D01*
X192006Y1504749D01*
X191969Y1504871D01*
X191937Y1504995D01*
X191908Y1505120D01*
X191883Y1505245D01*
X191862Y1505371D01*
X191845Y1505498D01*
X191831Y1505625D01*
X191822Y1505752D01*
X191816Y1505880D01*
X191814Y1506008D01*
X191814Y1513064D01*
X191816Y1513213D01*
X191822Y1513362D01*
X191832Y1513511D01*
X191845Y1513659D01*
X191863Y1513807D01*
X191885Y1513954D01*
X191910Y1514101D01*
X191939Y1514247D01*
X191973Y1514392D01*
X192010Y1514537D01*
X192050Y1514680D01*
X192095Y1514822D01*
X192143Y1514963D01*
X192195Y1515103D01*
X192251Y1515241D01*
X192310Y1515378D01*
X192373Y1515513D01*
X192439Y1515646D01*
X192509Y1515778D01*
X192583Y1515907D01*
X192659Y1516035D01*
X192739Y1516161D01*
X192823Y1516284D01*
X192909Y1516406D01*
X192999Y1516524D01*
X193092Y1516641D01*
X193188Y1516755D01*
X193287Y1516866D01*
X193389Y1516975D01*
X193494Y1517081D01*
X193601Y1517184D01*
X193711Y1517285D01*
X193824Y1517382D01*
X193939Y1517477D01*
X194057Y1517568D01*
X194177Y1517656D01*
X194299Y1517741D01*
X194424Y1517823D01*
X194550Y1517901D01*
X194679Y1517976D01*
X194810Y1518048D01*
X194942Y1518116D01*
X195076Y1518181D01*
X195212Y1518242D01*
X195350Y1518300D01*
X195489Y1518353D01*
X195629Y1518403D01*
X195771Y1518450D01*
X195913Y1518493D01*
X196057Y1518531D01*
X196202Y1518566D01*
X196348Y1518598D01*
X196494Y1518625D01*
X196641Y1518649D01*
X196789Y1518668D01*
X196937Y1518684D01*
X197086Y1518696D01*
X197235Y1518704D01*
X197384Y1518708D01*
X197532Y1518708D01*
X197681Y1518704D01*
X197830Y1518696D01*
X197979Y1518684D01*
X198127Y1518668D01*
X198275Y1518649D01*
X198422Y1518625D01*
X198568Y1518598D01*
X198714Y1518566D01*
X198859Y1518531D01*
X199003Y1518493D01*
X199145Y1518450D01*
X199287Y1518403D01*
X199427Y1518353D01*
X199566Y1518300D01*
X199704Y1518242D01*
X199840Y1518181D01*
X199974Y1518116D01*
X200106Y1518048D01*
X200237Y1517976D01*
X200366Y1517901D01*
X200492Y1517823D01*
X200617Y1517741D01*
X200739Y1517656D01*
X200859Y1517568D01*
X200977Y1517477D01*
X201092Y1517382D01*
X201205Y1517285D01*
X201315Y1517184D01*
X201422Y1517081D01*
X201527Y1516975D01*
X201629Y1516866D01*
X201728Y1516755D01*
X201824Y1516641D01*
X201917Y1516524D01*
X202007Y1516406D01*
X202093Y1516284D01*
X202177Y1516161D01*
X202257Y1516035D01*
X202333Y1515907D01*
X202407Y1515778D01*
X202477Y1515646D01*
X202543Y1515513D01*
X202606Y1515378D01*
X202665Y1515241D01*
X202721Y1515103D01*
X202773Y1514963D01*
X202821Y1514822D01*
X202866Y1514680D01*
X202906Y1514537D01*
X202943Y1514392D01*
X202977Y1514247D01*
X203006Y1514101D01*
X203031Y1513954D01*
X203053Y1513807D01*
X203071Y1513659D01*
X203084Y1513511D01*
X203094Y1513362D01*
X203100Y1513213D01*
X203102Y1513064D01*
X203103Y1513064D02*
X203103Y1510242D01*
X191814Y1510242D01*
X214398Y1518708D02*
X214398Y1501775D01*
X214398Y1518708D02*
X227098Y1518708D01*
X227226Y1518706D01*
X227354Y1518700D01*
X227481Y1518691D01*
X227608Y1518677D01*
X227735Y1518660D01*
X227861Y1518639D01*
X227986Y1518614D01*
X228111Y1518585D01*
X228235Y1518553D01*
X228357Y1518516D01*
X228479Y1518476D01*
X228599Y1518433D01*
X228718Y1518386D01*
X228835Y1518335D01*
X228951Y1518281D01*
X229065Y1518223D01*
X229177Y1518162D01*
X229288Y1518098D01*
X229396Y1518030D01*
X229503Y1517959D01*
X229607Y1517884D01*
X229709Y1517807D01*
X229808Y1517727D01*
X229905Y1517643D01*
X229999Y1517557D01*
X230091Y1517468D01*
X230180Y1517376D01*
X230266Y1517282D01*
X230350Y1517185D01*
X230430Y1517086D01*
X230507Y1516984D01*
X230582Y1516880D01*
X230653Y1516773D01*
X230721Y1516665D01*
X230785Y1516554D01*
X230846Y1516442D01*
X230904Y1516328D01*
X230958Y1516212D01*
X231009Y1516095D01*
X231056Y1515976D01*
X231099Y1515856D01*
X231139Y1515734D01*
X231176Y1515612D01*
X231208Y1515488D01*
X231237Y1515363D01*
X231262Y1515238D01*
X231283Y1515112D01*
X231300Y1514985D01*
X231314Y1514858D01*
X231323Y1514731D01*
X231329Y1514603D01*
X231331Y1514475D01*
X231331Y1501775D01*
X222864Y1501775D02*
X222864Y1518708D01*
X242533Y1518708D02*
X242533Y1501775D01*
X241828Y1525764D02*
X241828Y1527175D01*
X243239Y1527175D01*
X243239Y1525764D01*
X241828Y1525764D01*
X252916Y1511653D02*
X269850Y1511653D01*
X281532Y1501775D02*
X281532Y1527175D01*
X288588Y1527175D01*
X288760Y1527173D01*
X288932Y1527167D01*
X289103Y1527156D01*
X289274Y1527142D01*
X289445Y1527123D01*
X289615Y1527100D01*
X289785Y1527073D01*
X289954Y1527042D01*
X290122Y1527006D01*
X290289Y1526967D01*
X290456Y1526923D01*
X290621Y1526876D01*
X290785Y1526824D01*
X290947Y1526769D01*
X291109Y1526709D01*
X291268Y1526646D01*
X291427Y1526579D01*
X291583Y1526508D01*
X291738Y1526433D01*
X291890Y1526354D01*
X292041Y1526272D01*
X292190Y1526186D01*
X292337Y1526097D01*
X292481Y1526004D01*
X292623Y1525907D01*
X292763Y1525807D01*
X292900Y1525704D01*
X293035Y1525597D01*
X293167Y1525487D01*
X293297Y1525374D01*
X293423Y1525258D01*
X293547Y1525139D01*
X293668Y1525016D01*
X293785Y1524891D01*
X293900Y1524763D01*
X294012Y1524633D01*
X294120Y1524499D01*
X294225Y1524363D01*
X294327Y1524225D01*
X294425Y1524084D01*
X294520Y1523940D01*
X294611Y1523795D01*
X294699Y1523647D01*
X294783Y1523497D01*
X294863Y1523345D01*
X294940Y1523192D01*
X295013Y1523036D01*
X295082Y1522879D01*
X295147Y1522720D01*
X295209Y1522559D01*
X295266Y1522397D01*
X295320Y1522234D01*
X295369Y1522069D01*
X295415Y1521904D01*
X295456Y1521737D01*
X295493Y1521569D01*
X295527Y1521401D01*
X295556Y1521231D01*
X295581Y1521061D01*
X295602Y1520891D01*
X295618Y1520720D01*
X295631Y1520548D01*
X295639Y1520377D01*
X295643Y1520205D01*
X295643Y1520033D01*
X295639Y1519861D01*
X295631Y1519690D01*
X295618Y1519518D01*
X295602Y1519347D01*
X295581Y1519177D01*
X295556Y1519007D01*
X295527Y1518837D01*
X295493Y1518669D01*
X295456Y1518501D01*
X295415Y1518334D01*
X295369Y1518169D01*
X295320Y1518004D01*
X295266Y1517841D01*
X295209Y1517679D01*
X295147Y1517518D01*
X295082Y1517359D01*
X295013Y1517202D01*
X294940Y1517046D01*
X294863Y1516893D01*
X294783Y1516741D01*
X294699Y1516591D01*
X294611Y1516443D01*
X294520Y1516298D01*
X294425Y1516154D01*
X294327Y1516013D01*
X294225Y1515875D01*
X294120Y1515739D01*
X294012Y1515605D01*
X293900Y1515475D01*
X293785Y1515347D01*
X293668Y1515222D01*
X293547Y1515099D01*
X293423Y1514980D01*
X293297Y1514864D01*
X293167Y1514751D01*
X293035Y1514641D01*
X292900Y1514534D01*
X292763Y1514431D01*
X292623Y1514331D01*
X292481Y1514234D01*
X292337Y1514141D01*
X292190Y1514052D01*
X292041Y1513966D01*
X291890Y1513884D01*
X291738Y1513805D01*
X291583Y1513730D01*
X291427Y1513659D01*
X291268Y1513592D01*
X291109Y1513529D01*
X290947Y1513469D01*
X290785Y1513414D01*
X290621Y1513362D01*
X290456Y1513315D01*
X290289Y1513271D01*
X290122Y1513232D01*
X289954Y1513196D01*
X289785Y1513165D01*
X289615Y1513138D01*
X289445Y1513115D01*
X289274Y1513096D01*
X289103Y1513082D01*
X288932Y1513071D01*
X288760Y1513065D01*
X288588Y1513063D01*
X288588Y1513064D02*
X281532Y1513064D01*
X289999Y1513064D02*
X295643Y1501775D01*
X309964Y1501775D02*
X317020Y1501775D01*
X309964Y1501775D02*
X309836Y1501777D01*
X309708Y1501783D01*
X309581Y1501792D01*
X309454Y1501806D01*
X309327Y1501823D01*
X309201Y1501844D01*
X309076Y1501869D01*
X308951Y1501898D01*
X308827Y1501930D01*
X308705Y1501967D01*
X308583Y1502007D01*
X308463Y1502050D01*
X308344Y1502097D01*
X308227Y1502148D01*
X308111Y1502202D01*
X307997Y1502260D01*
X307885Y1502321D01*
X307774Y1502385D01*
X307666Y1502453D01*
X307559Y1502524D01*
X307455Y1502599D01*
X307353Y1502676D01*
X307254Y1502756D01*
X307157Y1502840D01*
X307063Y1502926D01*
X306971Y1503015D01*
X306882Y1503107D01*
X306796Y1503201D01*
X306712Y1503298D01*
X306632Y1503397D01*
X306555Y1503499D01*
X306480Y1503603D01*
X306409Y1503710D01*
X306341Y1503818D01*
X306277Y1503929D01*
X306216Y1504041D01*
X306158Y1504155D01*
X306104Y1504271D01*
X306053Y1504388D01*
X306006Y1504507D01*
X305963Y1504627D01*
X305923Y1504749D01*
X305886Y1504871D01*
X305854Y1504995D01*
X305825Y1505120D01*
X305800Y1505245D01*
X305779Y1505371D01*
X305762Y1505498D01*
X305748Y1505625D01*
X305739Y1505752D01*
X305733Y1505880D01*
X305731Y1506008D01*
X305731Y1513064D01*
X305733Y1513213D01*
X305739Y1513362D01*
X305749Y1513511D01*
X305762Y1513659D01*
X305780Y1513807D01*
X305802Y1513954D01*
X305827Y1514101D01*
X305856Y1514247D01*
X305890Y1514392D01*
X305927Y1514537D01*
X305967Y1514680D01*
X306012Y1514822D01*
X306060Y1514963D01*
X306112Y1515103D01*
X306168Y1515241D01*
X306227Y1515378D01*
X306290Y1515513D01*
X306356Y1515646D01*
X306426Y1515778D01*
X306500Y1515907D01*
X306576Y1516035D01*
X306656Y1516161D01*
X306740Y1516284D01*
X306826Y1516406D01*
X306916Y1516524D01*
X307009Y1516641D01*
X307105Y1516755D01*
X307204Y1516866D01*
X307306Y1516975D01*
X307411Y1517081D01*
X307518Y1517184D01*
X307628Y1517285D01*
X307741Y1517382D01*
X307856Y1517477D01*
X307974Y1517568D01*
X308094Y1517656D01*
X308216Y1517741D01*
X308341Y1517823D01*
X308467Y1517901D01*
X308596Y1517976D01*
X308727Y1518048D01*
X308859Y1518116D01*
X308993Y1518181D01*
X309129Y1518242D01*
X309267Y1518300D01*
X309406Y1518353D01*
X309546Y1518403D01*
X309688Y1518450D01*
X309830Y1518493D01*
X309974Y1518531D01*
X310119Y1518566D01*
X310265Y1518598D01*
X310411Y1518625D01*
X310558Y1518649D01*
X310706Y1518668D01*
X310854Y1518684D01*
X311003Y1518696D01*
X311152Y1518704D01*
X311301Y1518708D01*
X311449Y1518708D01*
X311598Y1518704D01*
X311747Y1518696D01*
X311896Y1518684D01*
X312044Y1518668D01*
X312192Y1518649D01*
X312339Y1518625D01*
X312485Y1518598D01*
X312631Y1518566D01*
X312776Y1518531D01*
X312920Y1518493D01*
X313062Y1518450D01*
X313204Y1518403D01*
X313344Y1518353D01*
X313483Y1518300D01*
X313621Y1518242D01*
X313757Y1518181D01*
X313891Y1518116D01*
X314023Y1518048D01*
X314154Y1517976D01*
X314283Y1517901D01*
X314409Y1517823D01*
X314534Y1517741D01*
X314656Y1517656D01*
X314776Y1517568D01*
X314894Y1517477D01*
X315009Y1517382D01*
X315122Y1517285D01*
X315232Y1517184D01*
X315339Y1517081D01*
X315444Y1516975D01*
X315546Y1516866D01*
X315645Y1516755D01*
X315741Y1516641D01*
X315834Y1516524D01*
X315924Y1516406D01*
X316010Y1516284D01*
X316094Y1516161D01*
X316174Y1516035D01*
X316250Y1515907D01*
X316324Y1515778D01*
X316394Y1515646D01*
X316460Y1515513D01*
X316523Y1515378D01*
X316582Y1515241D01*
X316638Y1515103D01*
X316690Y1514963D01*
X316738Y1514822D01*
X316783Y1514680D01*
X316823Y1514537D01*
X316860Y1514392D01*
X316894Y1514247D01*
X316923Y1514101D01*
X316948Y1513954D01*
X316970Y1513807D01*
X316988Y1513659D01*
X317001Y1513511D01*
X317011Y1513362D01*
X317017Y1513213D01*
X317019Y1513064D01*
X317020Y1513064D02*
X317020Y1510242D01*
X305731Y1510242D01*
X331314Y1501775D02*
X336958Y1501775D01*
X331314Y1501775D02*
X331186Y1501777D01*
X331058Y1501783D01*
X330931Y1501792D01*
X330804Y1501806D01*
X330677Y1501823D01*
X330551Y1501844D01*
X330426Y1501869D01*
X330301Y1501898D01*
X330177Y1501930D01*
X330055Y1501967D01*
X329933Y1502007D01*
X329813Y1502050D01*
X329694Y1502097D01*
X329577Y1502148D01*
X329461Y1502202D01*
X329347Y1502260D01*
X329235Y1502321D01*
X329124Y1502385D01*
X329016Y1502453D01*
X328909Y1502524D01*
X328805Y1502599D01*
X328703Y1502676D01*
X328604Y1502756D01*
X328507Y1502840D01*
X328413Y1502926D01*
X328321Y1503015D01*
X328232Y1503107D01*
X328146Y1503201D01*
X328062Y1503298D01*
X327982Y1503397D01*
X327905Y1503499D01*
X327830Y1503603D01*
X327759Y1503710D01*
X327691Y1503818D01*
X327627Y1503929D01*
X327566Y1504041D01*
X327508Y1504155D01*
X327454Y1504271D01*
X327403Y1504388D01*
X327356Y1504507D01*
X327313Y1504627D01*
X327273Y1504749D01*
X327236Y1504871D01*
X327204Y1504995D01*
X327175Y1505120D01*
X327150Y1505245D01*
X327129Y1505371D01*
X327112Y1505498D01*
X327098Y1505625D01*
X327089Y1505752D01*
X327083Y1505880D01*
X327081Y1506008D01*
X327081Y1514475D01*
X327083Y1514603D01*
X327089Y1514731D01*
X327098Y1514858D01*
X327112Y1514985D01*
X327129Y1515112D01*
X327150Y1515238D01*
X327175Y1515363D01*
X327204Y1515488D01*
X327236Y1515612D01*
X327273Y1515734D01*
X327313Y1515856D01*
X327356Y1515976D01*
X327403Y1516095D01*
X327454Y1516212D01*
X327508Y1516328D01*
X327566Y1516442D01*
X327627Y1516554D01*
X327691Y1516665D01*
X327759Y1516773D01*
X327830Y1516880D01*
X327905Y1516984D01*
X327982Y1517086D01*
X328062Y1517185D01*
X328146Y1517282D01*
X328232Y1517376D01*
X328321Y1517468D01*
X328413Y1517557D01*
X328507Y1517643D01*
X328604Y1517727D01*
X328703Y1517807D01*
X328805Y1517884D01*
X328909Y1517959D01*
X329016Y1518030D01*
X329124Y1518098D01*
X329235Y1518162D01*
X329347Y1518223D01*
X329461Y1518281D01*
X329577Y1518335D01*
X329694Y1518386D01*
X329813Y1518433D01*
X329933Y1518476D01*
X330055Y1518516D01*
X330177Y1518553D01*
X330301Y1518585D01*
X330426Y1518614D01*
X330551Y1518639D01*
X330677Y1518660D01*
X330804Y1518677D01*
X330931Y1518691D01*
X331058Y1518700D01*
X331186Y1518706D01*
X331314Y1518708D01*
X336958Y1518708D01*
X343803Y1518708D02*
X352269Y1518708D01*
X346625Y1527175D02*
X346625Y1506008D01*
X346627Y1505880D01*
X346633Y1505752D01*
X346642Y1505625D01*
X346656Y1505498D01*
X346673Y1505371D01*
X346694Y1505245D01*
X346719Y1505120D01*
X346748Y1504995D01*
X346780Y1504871D01*
X346817Y1504749D01*
X346857Y1504627D01*
X346900Y1504507D01*
X346947Y1504388D01*
X346998Y1504271D01*
X347052Y1504155D01*
X347110Y1504041D01*
X347171Y1503929D01*
X347235Y1503818D01*
X347303Y1503710D01*
X347374Y1503603D01*
X347449Y1503499D01*
X347526Y1503397D01*
X347606Y1503298D01*
X347690Y1503201D01*
X347776Y1503107D01*
X347865Y1503015D01*
X347957Y1502926D01*
X348051Y1502840D01*
X348148Y1502756D01*
X348247Y1502676D01*
X348349Y1502599D01*
X348453Y1502524D01*
X348560Y1502453D01*
X348668Y1502385D01*
X348779Y1502321D01*
X348891Y1502260D01*
X349005Y1502202D01*
X349121Y1502148D01*
X349238Y1502097D01*
X349357Y1502050D01*
X349477Y1502007D01*
X349599Y1501967D01*
X349721Y1501930D01*
X349845Y1501898D01*
X349970Y1501869D01*
X350095Y1501844D01*
X350221Y1501823D01*
X350348Y1501806D01*
X350475Y1501792D01*
X350602Y1501783D01*
X350730Y1501777D01*
X350858Y1501775D01*
X352269Y1501775D01*
X361367Y1501775D02*
X361367Y1518708D01*
X360662Y1525764D02*
X360662Y1527175D01*
X362073Y1527175D01*
X362073Y1525764D01*
X360662Y1525764D01*
X372857Y1522942D02*
X372857Y1501775D01*
X372857Y1522942D02*
X372859Y1523070D01*
X372865Y1523198D01*
X372874Y1523325D01*
X372888Y1523452D01*
X372905Y1523579D01*
X372926Y1523705D01*
X372951Y1523830D01*
X372980Y1523955D01*
X373012Y1524079D01*
X373049Y1524201D01*
X373089Y1524323D01*
X373132Y1524443D01*
X373179Y1524562D01*
X373230Y1524679D01*
X373284Y1524795D01*
X373342Y1524909D01*
X373403Y1525021D01*
X373467Y1525132D01*
X373535Y1525240D01*
X373606Y1525347D01*
X373681Y1525451D01*
X373758Y1525553D01*
X373838Y1525652D01*
X373922Y1525749D01*
X374008Y1525843D01*
X374097Y1525935D01*
X374189Y1526024D01*
X374283Y1526110D01*
X374380Y1526194D01*
X374479Y1526274D01*
X374581Y1526351D01*
X374685Y1526426D01*
X374792Y1526497D01*
X374900Y1526565D01*
X375011Y1526629D01*
X375123Y1526690D01*
X375237Y1526748D01*
X375353Y1526802D01*
X375470Y1526853D01*
X375589Y1526900D01*
X375709Y1526943D01*
X375831Y1526983D01*
X375953Y1527020D01*
X376077Y1527052D01*
X376202Y1527081D01*
X376327Y1527106D01*
X376453Y1527127D01*
X376580Y1527144D01*
X376707Y1527158D01*
X376834Y1527167D01*
X376962Y1527173D01*
X377090Y1527175D01*
X378501Y1527175D01*
X378501Y1518708D02*
X370035Y1518708D01*
X385134Y1518708D02*
X385134Y1501775D01*
X384429Y1525764D02*
X384429Y1527175D01*
X385840Y1527175D01*
X385840Y1525764D01*
X384429Y1525764D01*
X399294Y1501775D02*
X406350Y1501775D01*
X399294Y1501775D02*
X399166Y1501777D01*
X399038Y1501783D01*
X398911Y1501792D01*
X398784Y1501806D01*
X398657Y1501823D01*
X398531Y1501844D01*
X398406Y1501869D01*
X398281Y1501898D01*
X398157Y1501930D01*
X398035Y1501967D01*
X397913Y1502007D01*
X397793Y1502050D01*
X397674Y1502097D01*
X397557Y1502148D01*
X397441Y1502202D01*
X397327Y1502260D01*
X397215Y1502321D01*
X397104Y1502385D01*
X396996Y1502453D01*
X396889Y1502524D01*
X396785Y1502599D01*
X396683Y1502676D01*
X396584Y1502756D01*
X396487Y1502840D01*
X396393Y1502926D01*
X396301Y1503015D01*
X396212Y1503107D01*
X396126Y1503201D01*
X396042Y1503298D01*
X395962Y1503397D01*
X395885Y1503499D01*
X395810Y1503603D01*
X395739Y1503710D01*
X395671Y1503818D01*
X395607Y1503929D01*
X395546Y1504041D01*
X395488Y1504155D01*
X395434Y1504271D01*
X395383Y1504388D01*
X395336Y1504507D01*
X395293Y1504627D01*
X395253Y1504749D01*
X395216Y1504871D01*
X395184Y1504995D01*
X395155Y1505120D01*
X395130Y1505245D01*
X395109Y1505371D01*
X395092Y1505498D01*
X395078Y1505625D01*
X395069Y1505752D01*
X395063Y1505880D01*
X395061Y1506008D01*
X395061Y1513064D01*
X395062Y1513064D02*
X395064Y1513213D01*
X395070Y1513362D01*
X395080Y1513511D01*
X395093Y1513659D01*
X395111Y1513807D01*
X395133Y1513954D01*
X395158Y1514101D01*
X395187Y1514247D01*
X395221Y1514392D01*
X395258Y1514537D01*
X395298Y1514680D01*
X395343Y1514822D01*
X395391Y1514963D01*
X395443Y1515103D01*
X395499Y1515241D01*
X395558Y1515378D01*
X395621Y1515513D01*
X395687Y1515646D01*
X395757Y1515778D01*
X395831Y1515907D01*
X395907Y1516035D01*
X395987Y1516161D01*
X396071Y1516284D01*
X396157Y1516406D01*
X396247Y1516524D01*
X396340Y1516641D01*
X396436Y1516755D01*
X396535Y1516866D01*
X396637Y1516975D01*
X396742Y1517081D01*
X396849Y1517184D01*
X396959Y1517285D01*
X397072Y1517382D01*
X397187Y1517477D01*
X397305Y1517568D01*
X397425Y1517656D01*
X397547Y1517741D01*
X397672Y1517823D01*
X397798Y1517901D01*
X397927Y1517976D01*
X398058Y1518048D01*
X398190Y1518116D01*
X398324Y1518181D01*
X398460Y1518242D01*
X398598Y1518300D01*
X398737Y1518353D01*
X398877Y1518403D01*
X399019Y1518450D01*
X399161Y1518493D01*
X399305Y1518531D01*
X399450Y1518566D01*
X399596Y1518598D01*
X399742Y1518625D01*
X399889Y1518649D01*
X400037Y1518668D01*
X400185Y1518684D01*
X400334Y1518696D01*
X400483Y1518704D01*
X400632Y1518708D01*
X400780Y1518708D01*
X400929Y1518704D01*
X401078Y1518696D01*
X401227Y1518684D01*
X401375Y1518668D01*
X401523Y1518649D01*
X401670Y1518625D01*
X401816Y1518598D01*
X401962Y1518566D01*
X402107Y1518531D01*
X402251Y1518493D01*
X402393Y1518450D01*
X402535Y1518403D01*
X402675Y1518353D01*
X402814Y1518300D01*
X402952Y1518242D01*
X403088Y1518181D01*
X403222Y1518116D01*
X403354Y1518048D01*
X403485Y1517976D01*
X403614Y1517901D01*
X403740Y1517823D01*
X403865Y1517741D01*
X403987Y1517656D01*
X404107Y1517568D01*
X404225Y1517477D01*
X404340Y1517382D01*
X404453Y1517285D01*
X404563Y1517184D01*
X404670Y1517081D01*
X404775Y1516975D01*
X404877Y1516866D01*
X404976Y1516755D01*
X405072Y1516641D01*
X405165Y1516524D01*
X405255Y1516406D01*
X405341Y1516284D01*
X405425Y1516161D01*
X405505Y1516035D01*
X405581Y1515907D01*
X405655Y1515778D01*
X405725Y1515646D01*
X405791Y1515513D01*
X405854Y1515378D01*
X405913Y1515241D01*
X405969Y1515103D01*
X406021Y1514963D01*
X406069Y1514822D01*
X406114Y1514680D01*
X406154Y1514537D01*
X406191Y1514392D01*
X406225Y1514247D01*
X406254Y1514101D01*
X406279Y1513954D01*
X406301Y1513807D01*
X406319Y1513659D01*
X406332Y1513511D01*
X406342Y1513362D01*
X406348Y1513213D01*
X406350Y1513064D01*
X406350Y1510242D01*
X395061Y1510242D01*
X417361Y1518708D02*
X417361Y1501775D01*
X417361Y1518708D02*
X425828Y1518708D01*
X425828Y1515886D01*
X445873Y1518708D02*
X451517Y1501775D01*
X457162Y1518708D01*
X466590Y1521531D02*
X473645Y1527175D01*
X473645Y1501775D01*
X466590Y1501775D02*
X480701Y1501775D01*
X490150Y1501775D02*
X490150Y1503186D01*
X491561Y1503186D01*
X491561Y1501775D01*
X490150Y1501775D01*
X501011Y1521531D02*
X508066Y1527175D01*
X508066Y1501775D01*
X501011Y1501775D02*
X515122Y1501775D01*
D11*
X193548Y941832D02*
X193548Y917448D01*
X193548Y941832D02*
X200321Y941832D01*
X200485Y941830D01*
X200648Y941824D01*
X200812Y941814D01*
X200975Y941800D01*
X201137Y941783D01*
X201300Y941761D01*
X201461Y941735D01*
X201622Y941706D01*
X201783Y941672D01*
X201942Y941635D01*
X202100Y941594D01*
X202258Y941549D01*
X202414Y941501D01*
X202569Y941448D01*
X202723Y941392D01*
X202875Y941332D01*
X203026Y941268D01*
X203175Y941201D01*
X203323Y941130D01*
X203469Y941056D01*
X203613Y940978D01*
X203755Y940897D01*
X203895Y940812D01*
X204033Y940724D01*
X204169Y940633D01*
X204302Y940538D01*
X204433Y940441D01*
X204562Y940340D01*
X204689Y940236D01*
X204812Y940129D01*
X204934Y940019D01*
X205052Y939906D01*
X205168Y939790D01*
X205281Y939672D01*
X205391Y939550D01*
X205498Y939427D01*
X205602Y939300D01*
X205703Y939171D01*
X205800Y939040D01*
X205895Y938907D01*
X205986Y938771D01*
X206074Y938633D01*
X206159Y938493D01*
X206240Y938351D01*
X206318Y938207D01*
X206392Y938061D01*
X206463Y937913D01*
X206530Y937764D01*
X206594Y937613D01*
X206654Y937461D01*
X206710Y937307D01*
X206763Y937152D01*
X206811Y936996D01*
X206856Y936838D01*
X206897Y936680D01*
X206934Y936521D01*
X206968Y936360D01*
X206997Y936199D01*
X207023Y936038D01*
X207045Y935875D01*
X207062Y935713D01*
X207076Y935550D01*
X207086Y935386D01*
X207092Y935223D01*
X207094Y935059D01*
X207095Y935059D02*
X207095Y924221D01*
X207094Y924221D02*
X207092Y924057D01*
X207086Y923894D01*
X207076Y923730D01*
X207062Y923567D01*
X207045Y923405D01*
X207023Y923242D01*
X206997Y923081D01*
X206968Y922920D01*
X206934Y922759D01*
X206897Y922600D01*
X206856Y922442D01*
X206811Y922284D01*
X206763Y922128D01*
X206710Y921973D01*
X206654Y921819D01*
X206594Y921667D01*
X206530Y921516D01*
X206463Y921367D01*
X206392Y921219D01*
X206318Y921073D01*
X206240Y920929D01*
X206159Y920787D01*
X206074Y920647D01*
X205986Y920509D01*
X205895Y920373D01*
X205800Y920240D01*
X205703Y920109D01*
X205602Y919980D01*
X205498Y919853D01*
X205391Y919730D01*
X205281Y919608D01*
X205168Y919490D01*
X205052Y919374D01*
X204934Y919261D01*
X204812Y919151D01*
X204689Y919044D01*
X204562Y918940D01*
X204433Y918839D01*
X204302Y918742D01*
X204169Y918647D01*
X204033Y918556D01*
X203895Y918468D01*
X203755Y918383D01*
X203613Y918302D01*
X203469Y918224D01*
X203323Y918150D01*
X203175Y918079D01*
X203026Y918012D01*
X202875Y917948D01*
X202723Y917888D01*
X202569Y917832D01*
X202414Y917779D01*
X202258Y917731D01*
X202100Y917686D01*
X201942Y917645D01*
X201783Y917608D01*
X201622Y917574D01*
X201461Y917545D01*
X201300Y917519D01*
X201137Y917497D01*
X200975Y917480D01*
X200812Y917466D01*
X200648Y917456D01*
X200485Y917450D01*
X200321Y917448D01*
X193548Y917448D01*
X223602Y917448D02*
X229021Y917448D01*
X223602Y917448D02*
X223458Y917450D01*
X223314Y917456D01*
X223170Y917465D01*
X223026Y917479D01*
X222883Y917496D01*
X222740Y917517D01*
X222598Y917542D01*
X222457Y917570D01*
X222316Y917603D01*
X222176Y917639D01*
X222038Y917679D01*
X221900Y917722D01*
X221764Y917769D01*
X221629Y917820D01*
X221495Y917874D01*
X221363Y917932D01*
X221232Y917994D01*
X221103Y918058D01*
X220976Y918127D01*
X220851Y918198D01*
X220728Y918273D01*
X220606Y918351D01*
X220487Y918433D01*
X220370Y918517D01*
X220256Y918605D01*
X220143Y918695D01*
X220034Y918789D01*
X219926Y918885D01*
X219822Y918985D01*
X219720Y919087D01*
X219620Y919191D01*
X219524Y919299D01*
X219430Y919408D01*
X219340Y919521D01*
X219252Y919635D01*
X219168Y919752D01*
X219086Y919871D01*
X219008Y919993D01*
X218933Y920116D01*
X218862Y920241D01*
X218793Y920368D01*
X218729Y920497D01*
X218667Y920628D01*
X218609Y920760D01*
X218555Y920894D01*
X218504Y921029D01*
X218457Y921165D01*
X218414Y921303D01*
X218374Y921441D01*
X218338Y921581D01*
X218305Y921722D01*
X218277Y921863D01*
X218252Y922005D01*
X218231Y922148D01*
X218214Y922291D01*
X218200Y922435D01*
X218191Y922579D01*
X218185Y922723D01*
X218183Y922867D01*
X218184Y922867D02*
X218184Y936413D01*
X218183Y936413D02*
X218185Y936560D01*
X218191Y936706D01*
X218201Y936853D01*
X218215Y936999D01*
X218233Y937145D01*
X218254Y937290D01*
X218280Y937434D01*
X218310Y937578D01*
X218343Y937721D01*
X218381Y937863D01*
X218422Y938004D01*
X218467Y938143D01*
X218515Y938282D01*
X218568Y938419D01*
X218624Y938554D01*
X218684Y938688D01*
X218747Y938821D01*
X218814Y938951D01*
X218885Y939080D01*
X218959Y939207D01*
X219036Y939331D01*
X219117Y939454D01*
X219201Y939574D01*
X219288Y939692D01*
X219378Y939808D01*
X219472Y939921D01*
X219568Y940032D01*
X219668Y940140D01*
X219770Y940245D01*
X219875Y940347D01*
X219983Y940447D01*
X220094Y940543D01*
X220207Y940637D01*
X220323Y940727D01*
X220441Y940814D01*
X220561Y940898D01*
X220683Y940979D01*
X220808Y941056D01*
X220935Y941130D01*
X221064Y941201D01*
X221194Y941268D01*
X221327Y941331D01*
X221461Y941391D01*
X221596Y941447D01*
X221733Y941500D01*
X221872Y941548D01*
X222011Y941593D01*
X222152Y941634D01*
X222294Y941672D01*
X222437Y941705D01*
X222581Y941735D01*
X222725Y941761D01*
X222870Y941782D01*
X223016Y941800D01*
X223162Y941814D01*
X223309Y941824D01*
X223455Y941830D01*
X223602Y941832D01*
X229021Y941832D01*
X238387Y926931D02*
X254643Y926931D01*
X246515Y918803D02*
X246515Y935059D01*
X315468Y1350518D02*
X315468Y1374902D01*
X322241Y1374902D01*
X322405Y1374900D01*
X322568Y1374894D01*
X322732Y1374884D01*
X322895Y1374870D01*
X323057Y1374853D01*
X323220Y1374831D01*
X323381Y1374805D01*
X323542Y1374776D01*
X323703Y1374742D01*
X323862Y1374705D01*
X324020Y1374664D01*
X324178Y1374619D01*
X324334Y1374571D01*
X324489Y1374518D01*
X324643Y1374462D01*
X324795Y1374402D01*
X324946Y1374338D01*
X325095Y1374271D01*
X325243Y1374200D01*
X325389Y1374126D01*
X325533Y1374048D01*
X325675Y1373967D01*
X325815Y1373882D01*
X325953Y1373794D01*
X326089Y1373703D01*
X326222Y1373608D01*
X326353Y1373511D01*
X326482Y1373410D01*
X326609Y1373306D01*
X326732Y1373199D01*
X326854Y1373089D01*
X326972Y1372976D01*
X327088Y1372860D01*
X327201Y1372742D01*
X327311Y1372620D01*
X327418Y1372497D01*
X327522Y1372370D01*
X327623Y1372241D01*
X327720Y1372110D01*
X327815Y1371977D01*
X327906Y1371841D01*
X327994Y1371703D01*
X328079Y1371563D01*
X328160Y1371421D01*
X328238Y1371277D01*
X328312Y1371131D01*
X328383Y1370983D01*
X328450Y1370834D01*
X328514Y1370683D01*
X328574Y1370531D01*
X328630Y1370377D01*
X328683Y1370222D01*
X328731Y1370066D01*
X328776Y1369908D01*
X328817Y1369750D01*
X328854Y1369591D01*
X328888Y1369430D01*
X328917Y1369269D01*
X328943Y1369108D01*
X328965Y1368945D01*
X328982Y1368783D01*
X328996Y1368620D01*
X329006Y1368456D01*
X329012Y1368293D01*
X329014Y1368129D01*
X329015Y1368129D02*
X329015Y1357291D01*
X329014Y1357291D02*
X329012Y1357127D01*
X329006Y1356964D01*
X328996Y1356800D01*
X328982Y1356637D01*
X328965Y1356475D01*
X328943Y1356312D01*
X328917Y1356151D01*
X328888Y1355990D01*
X328854Y1355829D01*
X328817Y1355670D01*
X328776Y1355512D01*
X328731Y1355354D01*
X328683Y1355198D01*
X328630Y1355043D01*
X328574Y1354889D01*
X328514Y1354737D01*
X328450Y1354586D01*
X328383Y1354437D01*
X328312Y1354289D01*
X328238Y1354143D01*
X328160Y1353999D01*
X328079Y1353857D01*
X327994Y1353717D01*
X327906Y1353579D01*
X327815Y1353443D01*
X327720Y1353310D01*
X327623Y1353179D01*
X327522Y1353050D01*
X327418Y1352923D01*
X327311Y1352800D01*
X327201Y1352678D01*
X327088Y1352560D01*
X326972Y1352444D01*
X326854Y1352331D01*
X326732Y1352221D01*
X326609Y1352114D01*
X326482Y1352010D01*
X326353Y1351909D01*
X326222Y1351812D01*
X326089Y1351717D01*
X325953Y1351626D01*
X325815Y1351538D01*
X325675Y1351453D01*
X325533Y1351372D01*
X325389Y1351294D01*
X325243Y1351220D01*
X325095Y1351149D01*
X324946Y1351082D01*
X324795Y1351018D01*
X324643Y1350958D01*
X324489Y1350902D01*
X324334Y1350849D01*
X324178Y1350801D01*
X324020Y1350756D01*
X323862Y1350715D01*
X323703Y1350678D01*
X323542Y1350644D01*
X323381Y1350615D01*
X323220Y1350589D01*
X323057Y1350567D01*
X322895Y1350550D01*
X322732Y1350536D01*
X322568Y1350526D01*
X322405Y1350520D01*
X322241Y1350518D01*
X315468Y1350518D01*
X345522Y1350518D02*
X350941Y1350518D01*
X345522Y1350518D02*
X345378Y1350520D01*
X345234Y1350526D01*
X345090Y1350535D01*
X344946Y1350549D01*
X344803Y1350566D01*
X344660Y1350587D01*
X344518Y1350612D01*
X344377Y1350640D01*
X344236Y1350673D01*
X344096Y1350709D01*
X343958Y1350749D01*
X343820Y1350792D01*
X343684Y1350839D01*
X343549Y1350890D01*
X343415Y1350944D01*
X343283Y1351002D01*
X343152Y1351064D01*
X343023Y1351128D01*
X342896Y1351197D01*
X342771Y1351268D01*
X342648Y1351343D01*
X342526Y1351421D01*
X342407Y1351503D01*
X342290Y1351587D01*
X342176Y1351675D01*
X342063Y1351765D01*
X341954Y1351859D01*
X341846Y1351955D01*
X341742Y1352055D01*
X341640Y1352157D01*
X341540Y1352261D01*
X341444Y1352369D01*
X341350Y1352478D01*
X341260Y1352591D01*
X341172Y1352705D01*
X341088Y1352822D01*
X341006Y1352941D01*
X340928Y1353063D01*
X340853Y1353186D01*
X340782Y1353311D01*
X340713Y1353438D01*
X340649Y1353567D01*
X340587Y1353698D01*
X340529Y1353830D01*
X340475Y1353964D01*
X340424Y1354099D01*
X340377Y1354235D01*
X340334Y1354373D01*
X340294Y1354511D01*
X340258Y1354651D01*
X340225Y1354792D01*
X340197Y1354933D01*
X340172Y1355075D01*
X340151Y1355218D01*
X340134Y1355361D01*
X340120Y1355505D01*
X340111Y1355649D01*
X340105Y1355793D01*
X340103Y1355937D01*
X340104Y1355937D02*
X340104Y1369483D01*
X340103Y1369483D02*
X340105Y1369630D01*
X340111Y1369776D01*
X340121Y1369923D01*
X340135Y1370069D01*
X340153Y1370215D01*
X340174Y1370360D01*
X340200Y1370504D01*
X340230Y1370648D01*
X340263Y1370791D01*
X340301Y1370933D01*
X340342Y1371074D01*
X340387Y1371213D01*
X340435Y1371352D01*
X340488Y1371489D01*
X340544Y1371624D01*
X340604Y1371758D01*
X340667Y1371891D01*
X340734Y1372021D01*
X340805Y1372150D01*
X340879Y1372277D01*
X340956Y1372401D01*
X341037Y1372524D01*
X341121Y1372644D01*
X341208Y1372762D01*
X341298Y1372878D01*
X341392Y1372991D01*
X341488Y1373102D01*
X341588Y1373210D01*
X341690Y1373315D01*
X341795Y1373417D01*
X341903Y1373517D01*
X342014Y1373613D01*
X342127Y1373707D01*
X342243Y1373797D01*
X342361Y1373884D01*
X342481Y1373968D01*
X342603Y1374049D01*
X342728Y1374126D01*
X342855Y1374200D01*
X342984Y1374271D01*
X343114Y1374338D01*
X343247Y1374401D01*
X343381Y1374461D01*
X343516Y1374517D01*
X343653Y1374570D01*
X343792Y1374618D01*
X343931Y1374663D01*
X344072Y1374704D01*
X344214Y1374742D01*
X344357Y1374775D01*
X344501Y1374805D01*
X344645Y1374831D01*
X344790Y1374852D01*
X344936Y1374870D01*
X345082Y1374884D01*
X345229Y1374894D01*
X345375Y1374900D01*
X345522Y1374902D01*
X350941Y1374902D01*
X360307Y1360001D02*
X376563Y1360001D01*
X134180Y1228852D02*
X134180Y1204468D01*
X134180Y1228852D02*
X140953Y1228852D01*
X141118Y1228850D01*
X141283Y1228844D01*
X141447Y1228834D01*
X141612Y1228820D01*
X141776Y1228802D01*
X141939Y1228780D01*
X142102Y1228754D01*
X142264Y1228724D01*
X142426Y1228690D01*
X142586Y1228652D01*
X142746Y1228610D01*
X142904Y1228565D01*
X143062Y1228515D01*
X143218Y1228462D01*
X143373Y1228405D01*
X143526Y1228344D01*
X143678Y1228280D01*
X143828Y1228212D01*
X143976Y1228140D01*
X144123Y1228064D01*
X144268Y1227985D01*
X144411Y1227903D01*
X144551Y1227817D01*
X144690Y1227728D01*
X144827Y1227635D01*
X144961Y1227539D01*
X145092Y1227440D01*
X145222Y1227337D01*
X145349Y1227232D01*
X145473Y1227123D01*
X145594Y1227012D01*
X145713Y1226897D01*
X145829Y1226780D01*
X145942Y1226660D01*
X146052Y1226537D01*
X146159Y1226412D01*
X146263Y1226283D01*
X146364Y1226153D01*
X146461Y1226020D01*
X146556Y1225885D01*
X146647Y1225747D01*
X146734Y1225607D01*
X146819Y1225466D01*
X146899Y1225322D01*
X146977Y1225176D01*
X147050Y1225028D01*
X147120Y1224879D01*
X147187Y1224728D01*
X147249Y1224575D01*
X147308Y1224421D01*
X147363Y1224266D01*
X147415Y1224109D01*
X147462Y1223951D01*
X147506Y1223792D01*
X147546Y1223632D01*
X147581Y1223471D01*
X147613Y1223309D01*
X147641Y1223147D01*
X147665Y1222983D01*
X147685Y1222820D01*
X147701Y1222656D01*
X147713Y1222491D01*
X147721Y1222326D01*
X147725Y1222161D01*
X147725Y1221997D01*
X147721Y1221832D01*
X147713Y1221667D01*
X147701Y1221502D01*
X147685Y1221338D01*
X147665Y1221175D01*
X147641Y1221011D01*
X147613Y1220849D01*
X147581Y1220687D01*
X147546Y1220526D01*
X147506Y1220366D01*
X147462Y1220207D01*
X147415Y1220049D01*
X147363Y1219892D01*
X147308Y1219737D01*
X147249Y1219583D01*
X147187Y1219430D01*
X147120Y1219279D01*
X147050Y1219130D01*
X146977Y1218982D01*
X146899Y1218836D01*
X146819Y1218693D01*
X146734Y1218551D01*
X146647Y1218411D01*
X146556Y1218273D01*
X146461Y1218138D01*
X146364Y1218005D01*
X146263Y1217875D01*
X146159Y1217746D01*
X146052Y1217621D01*
X145942Y1217498D01*
X145829Y1217378D01*
X145713Y1217261D01*
X145594Y1217146D01*
X145473Y1217035D01*
X145349Y1216926D01*
X145222Y1216821D01*
X145092Y1216718D01*
X144961Y1216619D01*
X144827Y1216523D01*
X144690Y1216430D01*
X144551Y1216341D01*
X144411Y1216255D01*
X144268Y1216173D01*
X144123Y1216094D01*
X143976Y1216018D01*
X143828Y1215946D01*
X143678Y1215878D01*
X143526Y1215814D01*
X143373Y1215753D01*
X143218Y1215696D01*
X143062Y1215643D01*
X142904Y1215593D01*
X142746Y1215548D01*
X142586Y1215506D01*
X142426Y1215468D01*
X142264Y1215434D01*
X142102Y1215404D01*
X141939Y1215378D01*
X141776Y1215356D01*
X141612Y1215338D01*
X141447Y1215324D01*
X141283Y1215314D01*
X141118Y1215308D01*
X140953Y1215306D01*
X140953Y1215305D02*
X134180Y1215305D01*
X156891Y1223433D02*
X163664Y1228852D01*
X163664Y1204468D01*
X156891Y1204468D02*
X170438Y1204468D01*
X182033Y1204468D02*
X182033Y1224788D01*
X182035Y1224913D01*
X182041Y1225038D01*
X182050Y1225163D01*
X182064Y1225287D01*
X182081Y1225411D01*
X182102Y1225535D01*
X182127Y1225657D01*
X182156Y1225779D01*
X182188Y1225900D01*
X182224Y1226020D01*
X182264Y1226139D01*
X182307Y1226256D01*
X182354Y1226372D01*
X182405Y1226487D01*
X182459Y1226599D01*
X182517Y1226711D01*
X182577Y1226820D01*
X182642Y1226927D01*
X182709Y1227033D01*
X182780Y1227136D01*
X182854Y1227237D01*
X182931Y1227336D01*
X183011Y1227432D01*
X183094Y1227526D01*
X183179Y1227617D01*
X183268Y1227706D01*
X183359Y1227791D01*
X183453Y1227874D01*
X183549Y1227954D01*
X183648Y1228031D01*
X183749Y1228105D01*
X183852Y1228176D01*
X183958Y1228243D01*
X184065Y1228308D01*
X184174Y1228368D01*
X184286Y1228426D01*
X184398Y1228480D01*
X184513Y1228531D01*
X184629Y1228578D01*
X184746Y1228621D01*
X184865Y1228661D01*
X184985Y1228697D01*
X185106Y1228729D01*
X185228Y1228758D01*
X185350Y1228783D01*
X185474Y1228804D01*
X185598Y1228821D01*
X185722Y1228835D01*
X185847Y1228844D01*
X185972Y1228850D01*
X186097Y1228852D01*
X187452Y1228852D01*
X187452Y1220724D02*
X179324Y1220724D01*
X499174Y1228852D02*
X499174Y1204468D01*
X499174Y1228852D02*
X505948Y1228852D01*
X506113Y1228850D01*
X506278Y1228844D01*
X506442Y1228834D01*
X506607Y1228820D01*
X506771Y1228802D01*
X506934Y1228780D01*
X507097Y1228754D01*
X507259Y1228724D01*
X507421Y1228690D01*
X507581Y1228652D01*
X507741Y1228610D01*
X507899Y1228565D01*
X508057Y1228515D01*
X508213Y1228462D01*
X508368Y1228405D01*
X508521Y1228344D01*
X508673Y1228280D01*
X508823Y1228212D01*
X508971Y1228140D01*
X509118Y1228064D01*
X509263Y1227985D01*
X509406Y1227903D01*
X509546Y1227817D01*
X509685Y1227728D01*
X509822Y1227635D01*
X509956Y1227539D01*
X510087Y1227440D01*
X510217Y1227337D01*
X510344Y1227232D01*
X510468Y1227123D01*
X510589Y1227012D01*
X510708Y1226897D01*
X510824Y1226780D01*
X510937Y1226660D01*
X511047Y1226537D01*
X511154Y1226412D01*
X511258Y1226283D01*
X511359Y1226153D01*
X511456Y1226020D01*
X511551Y1225885D01*
X511642Y1225747D01*
X511729Y1225607D01*
X511814Y1225466D01*
X511894Y1225322D01*
X511972Y1225176D01*
X512045Y1225028D01*
X512115Y1224879D01*
X512182Y1224728D01*
X512244Y1224575D01*
X512303Y1224421D01*
X512358Y1224266D01*
X512410Y1224109D01*
X512457Y1223951D01*
X512501Y1223792D01*
X512541Y1223632D01*
X512576Y1223471D01*
X512608Y1223309D01*
X512636Y1223147D01*
X512660Y1222983D01*
X512680Y1222820D01*
X512696Y1222656D01*
X512708Y1222491D01*
X512716Y1222326D01*
X512720Y1222161D01*
X512720Y1221997D01*
X512716Y1221832D01*
X512708Y1221667D01*
X512696Y1221502D01*
X512680Y1221338D01*
X512660Y1221175D01*
X512636Y1221011D01*
X512608Y1220849D01*
X512576Y1220687D01*
X512541Y1220526D01*
X512501Y1220366D01*
X512457Y1220207D01*
X512410Y1220049D01*
X512358Y1219892D01*
X512303Y1219737D01*
X512244Y1219583D01*
X512182Y1219430D01*
X512115Y1219279D01*
X512045Y1219130D01*
X511972Y1218982D01*
X511894Y1218836D01*
X511814Y1218693D01*
X511729Y1218551D01*
X511642Y1218411D01*
X511551Y1218273D01*
X511456Y1218138D01*
X511359Y1218005D01*
X511258Y1217875D01*
X511154Y1217746D01*
X511047Y1217621D01*
X510937Y1217498D01*
X510824Y1217378D01*
X510708Y1217261D01*
X510589Y1217146D01*
X510468Y1217035D01*
X510344Y1216926D01*
X510217Y1216821D01*
X510087Y1216718D01*
X509956Y1216619D01*
X509822Y1216523D01*
X509685Y1216430D01*
X509546Y1216341D01*
X509406Y1216255D01*
X509263Y1216173D01*
X509118Y1216094D01*
X508971Y1216018D01*
X508823Y1215946D01*
X508673Y1215878D01*
X508521Y1215814D01*
X508368Y1215753D01*
X508213Y1215696D01*
X508057Y1215643D01*
X507899Y1215593D01*
X507741Y1215548D01*
X507581Y1215506D01*
X507421Y1215468D01*
X507259Y1215434D01*
X507097Y1215404D01*
X506934Y1215378D01*
X506771Y1215356D01*
X506607Y1215338D01*
X506442Y1215324D01*
X506278Y1215314D01*
X506113Y1215308D01*
X505948Y1215306D01*
X505948Y1215305D02*
X499174Y1215305D01*
X529336Y1228852D02*
X529490Y1228850D01*
X529645Y1228844D01*
X529799Y1228834D01*
X529953Y1228821D01*
X530106Y1228803D01*
X530259Y1228782D01*
X530411Y1228756D01*
X530563Y1228727D01*
X530714Y1228694D01*
X530864Y1228657D01*
X531013Y1228617D01*
X531161Y1228572D01*
X531308Y1228524D01*
X531453Y1228473D01*
X531597Y1228417D01*
X531740Y1228358D01*
X531881Y1228295D01*
X532021Y1228229D01*
X532158Y1228159D01*
X532294Y1228086D01*
X532428Y1228009D01*
X532561Y1227929D01*
X532691Y1227846D01*
X532818Y1227759D01*
X532944Y1227670D01*
X533067Y1227577D01*
X533188Y1227480D01*
X533307Y1227381D01*
X533423Y1227279D01*
X533536Y1227174D01*
X533647Y1227067D01*
X533754Y1226956D01*
X533859Y1226843D01*
X533961Y1226727D01*
X534060Y1226608D01*
X534157Y1226487D01*
X534250Y1226364D01*
X534339Y1226238D01*
X534426Y1226111D01*
X534509Y1225981D01*
X534589Y1225848D01*
X534666Y1225714D01*
X534739Y1225578D01*
X534809Y1225441D01*
X534875Y1225301D01*
X534938Y1225160D01*
X534997Y1225017D01*
X535053Y1224873D01*
X535104Y1224728D01*
X535152Y1224581D01*
X535197Y1224433D01*
X535237Y1224284D01*
X535274Y1224134D01*
X535307Y1223983D01*
X535336Y1223831D01*
X535362Y1223679D01*
X535383Y1223526D01*
X535401Y1223373D01*
X535414Y1223219D01*
X535424Y1223065D01*
X535430Y1222910D01*
X535432Y1222756D01*
X529336Y1228852D02*
X529147Y1228850D01*
X528957Y1228843D01*
X528768Y1228831D01*
X528580Y1228815D01*
X528391Y1228795D01*
X528204Y1228770D01*
X528016Y1228740D01*
X527830Y1228706D01*
X527645Y1228667D01*
X527460Y1228624D01*
X527277Y1228576D01*
X527095Y1228524D01*
X526914Y1228468D01*
X526735Y1228407D01*
X526557Y1228342D01*
X526380Y1228273D01*
X526206Y1228199D01*
X526033Y1228122D01*
X525862Y1228040D01*
X525694Y1227954D01*
X525527Y1227863D01*
X525363Y1227769D01*
X525201Y1227671D01*
X525041Y1227569D01*
X524884Y1227464D01*
X524729Y1227354D01*
X524578Y1227241D01*
X524429Y1227124D01*
X524282Y1227003D01*
X524139Y1226879D01*
X523999Y1226752D01*
X523862Y1226621D01*
X523728Y1226487D01*
X523598Y1226350D01*
X523470Y1226210D01*
X523347Y1226066D01*
X523226Y1225920D01*
X523110Y1225771D01*
X522996Y1225619D01*
X522887Y1225464D01*
X522782Y1225307D01*
X522680Y1225147D01*
X522582Y1224985D01*
X522488Y1224821D01*
X522398Y1224654D01*
X522312Y1224485D01*
X522231Y1224314D01*
X522153Y1224141D01*
X522080Y1223967D01*
X522010Y1223791D01*
X521946Y1223613D01*
X521885Y1223433D01*
X533400Y1218014D02*
X533515Y1218127D01*
X533627Y1218242D01*
X533736Y1218359D01*
X533843Y1218480D01*
X533946Y1218603D01*
X534047Y1218728D01*
X534144Y1218856D01*
X534238Y1218986D01*
X534329Y1219119D01*
X534417Y1219253D01*
X534501Y1219390D01*
X534582Y1219529D01*
X534659Y1219670D01*
X534733Y1219813D01*
X534804Y1219957D01*
X534870Y1220103D01*
X534934Y1220251D01*
X534993Y1220400D01*
X535049Y1220550D01*
X535102Y1220702D01*
X535150Y1220856D01*
X535195Y1221010D01*
X535236Y1221165D01*
X535273Y1221322D01*
X535306Y1221479D01*
X535336Y1221637D01*
X535361Y1221795D01*
X535383Y1221955D01*
X535400Y1222114D01*
X535414Y1222274D01*
X535424Y1222435D01*
X535430Y1222595D01*
X535432Y1222756D01*
X533400Y1218015D02*
X521885Y1204468D01*
X535432Y1204468D01*
D10*
X574675Y714375D02*
X574675Y695325D01*
X574675Y714375D02*
X579967Y714375D01*
X580078Y714373D01*
X580188Y714367D01*
X580299Y714358D01*
X580409Y714344D01*
X580518Y714327D01*
X580627Y714306D01*
X580735Y714281D01*
X580842Y714252D01*
X580948Y714220D01*
X581053Y714184D01*
X581156Y714144D01*
X581258Y714101D01*
X581359Y714054D01*
X581458Y714003D01*
X581555Y713950D01*
X581649Y713893D01*
X581742Y713832D01*
X581833Y713769D01*
X581922Y713702D01*
X582008Y713632D01*
X582091Y713559D01*
X582173Y713484D01*
X582251Y713406D01*
X582326Y713324D01*
X582399Y713241D01*
X582469Y713155D01*
X582536Y713066D01*
X582599Y712975D01*
X582660Y712882D01*
X582717Y712788D01*
X582770Y712691D01*
X582821Y712592D01*
X582868Y712491D01*
X582911Y712389D01*
X582951Y712286D01*
X582987Y712181D01*
X583019Y712075D01*
X583048Y711968D01*
X583073Y711860D01*
X583094Y711751D01*
X583111Y711642D01*
X583125Y711532D01*
X583134Y711421D01*
X583140Y711311D01*
X583142Y711200D01*
X583142Y704850D01*
X583140Y704739D01*
X583134Y704629D01*
X583125Y704518D01*
X583111Y704408D01*
X583094Y704299D01*
X583073Y704190D01*
X583048Y704082D01*
X583019Y703975D01*
X582987Y703869D01*
X582951Y703764D01*
X582911Y703661D01*
X582868Y703559D01*
X582821Y703458D01*
X582770Y703359D01*
X582717Y703263D01*
X582660Y703168D01*
X582599Y703075D01*
X582536Y702984D01*
X582469Y702895D01*
X582399Y702809D01*
X582326Y702726D01*
X582251Y702644D01*
X582173Y702566D01*
X582091Y702491D01*
X582008Y702418D01*
X581922Y702348D01*
X581833Y702281D01*
X581742Y702218D01*
X581649Y702157D01*
X581555Y702100D01*
X581458Y702047D01*
X581359Y701996D01*
X581258Y701949D01*
X581156Y701906D01*
X581053Y701866D01*
X580948Y701830D01*
X580842Y701798D01*
X580735Y701769D01*
X580627Y701744D01*
X580518Y701723D01*
X580409Y701706D01*
X580299Y701692D01*
X580188Y701683D01*
X580078Y701677D01*
X579967Y701675D01*
X574675Y701675D01*
X593284Y701675D02*
X593284Y720725D01*
X593284Y714375D02*
X598576Y714375D01*
X598687Y714373D01*
X598797Y714367D01*
X598908Y714358D01*
X599018Y714344D01*
X599127Y714327D01*
X599236Y714306D01*
X599344Y714281D01*
X599451Y714252D01*
X599557Y714220D01*
X599662Y714184D01*
X599765Y714144D01*
X599867Y714101D01*
X599968Y714054D01*
X600067Y714003D01*
X600164Y713950D01*
X600258Y713893D01*
X600351Y713832D01*
X600442Y713769D01*
X600531Y713702D01*
X600617Y713632D01*
X600700Y713559D01*
X600782Y713484D01*
X600860Y713406D01*
X600935Y713324D01*
X601008Y713241D01*
X601078Y713155D01*
X601145Y713066D01*
X601208Y712975D01*
X601269Y712882D01*
X601326Y712788D01*
X601379Y712691D01*
X601430Y712592D01*
X601477Y712491D01*
X601520Y712389D01*
X601560Y712286D01*
X601596Y712181D01*
X601628Y712075D01*
X601657Y711968D01*
X601682Y711860D01*
X601703Y711751D01*
X601720Y711642D01*
X601734Y711532D01*
X601743Y711421D01*
X601749Y711311D01*
X601751Y711200D01*
X601751Y701675D01*
X615598Y709083D02*
X620360Y709083D01*
X615598Y709083D02*
X615478Y709081D01*
X615358Y709075D01*
X615239Y709066D01*
X615119Y709052D01*
X615001Y709035D01*
X614883Y709013D01*
X614765Y708988D01*
X614649Y708959D01*
X614534Y708927D01*
X614419Y708890D01*
X614306Y708850D01*
X614194Y708807D01*
X614084Y708760D01*
X613975Y708709D01*
X613868Y708654D01*
X613763Y708597D01*
X613660Y708536D01*
X613559Y708471D01*
X613460Y708404D01*
X613363Y708333D01*
X613269Y708259D01*
X613177Y708182D01*
X613087Y708102D01*
X613000Y708019D01*
X612916Y707934D01*
X612835Y707846D01*
X612756Y707755D01*
X612681Y707662D01*
X612608Y707566D01*
X612539Y707468D01*
X612473Y707368D01*
X612410Y707266D01*
X612351Y707161D01*
X612295Y707055D01*
X612242Y706947D01*
X612193Y706838D01*
X612148Y706727D01*
X612106Y706614D01*
X612068Y706501D01*
X612033Y706386D01*
X612003Y706270D01*
X611976Y706153D01*
X611953Y706035D01*
X611933Y705917D01*
X611918Y705798D01*
X611906Y705679D01*
X611898Y705559D01*
X611894Y705439D01*
X611894Y705319D01*
X611898Y705199D01*
X611906Y705079D01*
X611918Y704960D01*
X611933Y704841D01*
X611953Y704723D01*
X611976Y704605D01*
X612003Y704488D01*
X612033Y704372D01*
X612068Y704257D01*
X612106Y704144D01*
X612148Y704031D01*
X612193Y703920D01*
X612242Y703811D01*
X612295Y703703D01*
X612351Y703597D01*
X612410Y703492D01*
X612473Y703390D01*
X612539Y703290D01*
X612608Y703192D01*
X612681Y703096D01*
X612756Y703003D01*
X612835Y702912D01*
X612916Y702824D01*
X613000Y702739D01*
X613087Y702656D01*
X613177Y702576D01*
X613269Y702499D01*
X613363Y702425D01*
X613460Y702354D01*
X613559Y702287D01*
X613660Y702222D01*
X613763Y702161D01*
X613868Y702104D01*
X613975Y702049D01*
X614084Y701998D01*
X614194Y701951D01*
X614306Y701908D01*
X614419Y701868D01*
X614534Y701831D01*
X614649Y701799D01*
X614765Y701770D01*
X614883Y701745D01*
X615001Y701723D01*
X615119Y701706D01*
X615239Y701692D01*
X615358Y701683D01*
X615478Y701677D01*
X615598Y701675D01*
X620360Y701675D01*
X620360Y711200D01*
X620358Y711311D01*
X620352Y711421D01*
X620343Y711532D01*
X620329Y711642D01*
X620312Y711751D01*
X620291Y711860D01*
X620266Y711968D01*
X620237Y712075D01*
X620205Y712181D01*
X620169Y712286D01*
X620129Y712389D01*
X620086Y712491D01*
X620039Y712592D01*
X619988Y712691D01*
X619935Y712788D01*
X619878Y712882D01*
X619817Y712975D01*
X619754Y713066D01*
X619687Y713155D01*
X619617Y713241D01*
X619544Y713324D01*
X619469Y713406D01*
X619391Y713484D01*
X619309Y713559D01*
X619226Y713632D01*
X619140Y713702D01*
X619051Y713769D01*
X618960Y713832D01*
X618867Y713893D01*
X618773Y713950D01*
X618676Y714003D01*
X618577Y714054D01*
X618476Y714101D01*
X618374Y714144D01*
X618271Y714184D01*
X618166Y714220D01*
X618060Y714252D01*
X617953Y714281D01*
X617845Y714306D01*
X617736Y714327D01*
X617627Y714344D01*
X617517Y714358D01*
X617406Y714367D01*
X617296Y714373D01*
X617185Y714375D01*
X612952Y714375D01*
X632454Y709083D02*
X637745Y706967D01*
X632454Y709083D02*
X632358Y709124D01*
X632263Y709168D01*
X632171Y709216D01*
X632080Y709267D01*
X631991Y709322D01*
X631904Y709380D01*
X631820Y709441D01*
X631738Y709505D01*
X631658Y709573D01*
X631581Y709643D01*
X631507Y709717D01*
X631436Y709793D01*
X631367Y709872D01*
X631302Y709953D01*
X631240Y710037D01*
X631181Y710123D01*
X631125Y710211D01*
X631073Y710301D01*
X631024Y710393D01*
X630979Y710487D01*
X630937Y710583D01*
X630899Y710680D01*
X630865Y710779D01*
X630834Y710878D01*
X630808Y710979D01*
X630785Y711081D01*
X630766Y711184D01*
X630751Y711287D01*
X630740Y711391D01*
X630732Y711495D01*
X630729Y711599D01*
X630730Y711703D01*
X630735Y711807D01*
X630743Y711911D01*
X630756Y712015D01*
X630773Y712118D01*
X630793Y712220D01*
X630817Y712322D01*
X630846Y712422D01*
X630877Y712521D01*
X630913Y712619D01*
X630953Y712716D01*
X630996Y712811D01*
X631042Y712904D01*
X631092Y712996D01*
X631146Y713085D01*
X631203Y713173D01*
X631263Y713258D01*
X631327Y713341D01*
X631393Y713421D01*
X631463Y713499D01*
X631535Y713574D01*
X631610Y713646D01*
X631688Y713715D01*
X631769Y713782D01*
X631852Y713845D01*
X631937Y713905D01*
X632025Y713962D01*
X632114Y714015D01*
X632206Y714065D01*
X632299Y714111D01*
X632395Y714154D01*
X632491Y714193D01*
X632589Y714229D01*
X632689Y714261D01*
X632789Y714288D01*
X632891Y714313D01*
X632993Y714333D01*
X633096Y714349D01*
X633200Y714361D01*
X633304Y714370D01*
X633408Y714374D01*
X633512Y714375D01*
X633512Y714376D02*
X633801Y714368D01*
X634089Y714354D01*
X634377Y714332D01*
X634665Y714304D01*
X634952Y714268D01*
X635238Y714226D01*
X635523Y714177D01*
X635806Y714121D01*
X636088Y714059D01*
X636369Y713989D01*
X636647Y713913D01*
X636924Y713830D01*
X637199Y713741D01*
X637472Y713645D01*
X637742Y713542D01*
X638009Y713433D01*
X638274Y713317D01*
X637745Y706967D02*
X637841Y706926D01*
X637936Y706882D01*
X638028Y706834D01*
X638119Y706783D01*
X638208Y706728D01*
X638295Y706670D01*
X638379Y706609D01*
X638461Y706545D01*
X638541Y706477D01*
X638618Y706407D01*
X638692Y706333D01*
X638763Y706257D01*
X638832Y706178D01*
X638897Y706097D01*
X638959Y706013D01*
X639018Y705927D01*
X639074Y705839D01*
X639126Y705749D01*
X639175Y705657D01*
X639220Y705563D01*
X639262Y705467D01*
X639300Y705370D01*
X639334Y705271D01*
X639365Y705172D01*
X639391Y705071D01*
X639414Y704969D01*
X639433Y704866D01*
X639448Y704763D01*
X639459Y704659D01*
X639467Y704555D01*
X639470Y704451D01*
X639469Y704347D01*
X639464Y704243D01*
X639456Y704139D01*
X639443Y704035D01*
X639426Y703932D01*
X639406Y703830D01*
X639382Y703728D01*
X639353Y703628D01*
X639322Y703529D01*
X639286Y703431D01*
X639246Y703334D01*
X639203Y703239D01*
X639157Y703146D01*
X639107Y703054D01*
X639053Y702965D01*
X638996Y702877D01*
X638936Y702792D01*
X638872Y702709D01*
X638806Y702629D01*
X638736Y702551D01*
X638664Y702476D01*
X638589Y702404D01*
X638511Y702335D01*
X638430Y702268D01*
X638347Y702205D01*
X638262Y702145D01*
X638174Y702088D01*
X638085Y702035D01*
X637993Y701985D01*
X637900Y701939D01*
X637804Y701896D01*
X637708Y701857D01*
X637610Y701821D01*
X637510Y701789D01*
X637410Y701762D01*
X637308Y701737D01*
X637206Y701717D01*
X637103Y701701D01*
X636999Y701689D01*
X636895Y701680D01*
X636791Y701676D01*
X636687Y701675D01*
X636262Y701686D01*
X635838Y701707D01*
X635415Y701738D01*
X634992Y701779D01*
X634571Y701830D01*
X634151Y701892D01*
X633732Y701963D01*
X633316Y702043D01*
X632901Y702134D01*
X632488Y702235D01*
X632078Y702345D01*
X631671Y702465D01*
X631267Y702594D01*
X630866Y702733D01*
X652136Y701675D02*
X657428Y701675D01*
X652136Y701675D02*
X652025Y701677D01*
X651915Y701683D01*
X651804Y701692D01*
X651694Y701706D01*
X651585Y701723D01*
X651476Y701744D01*
X651368Y701769D01*
X651261Y701798D01*
X651155Y701830D01*
X651050Y701866D01*
X650947Y701906D01*
X650845Y701949D01*
X650744Y701996D01*
X650645Y702047D01*
X650549Y702100D01*
X650454Y702157D01*
X650361Y702218D01*
X650270Y702281D01*
X650181Y702348D01*
X650095Y702418D01*
X650012Y702491D01*
X649930Y702566D01*
X649852Y702644D01*
X649777Y702726D01*
X649704Y702809D01*
X649634Y702895D01*
X649567Y702984D01*
X649504Y703075D01*
X649443Y703168D01*
X649386Y703263D01*
X649333Y703359D01*
X649282Y703458D01*
X649235Y703559D01*
X649192Y703661D01*
X649152Y703764D01*
X649116Y703869D01*
X649084Y703975D01*
X649055Y704082D01*
X649030Y704190D01*
X649009Y704299D01*
X648992Y704408D01*
X648978Y704518D01*
X648969Y704629D01*
X648963Y704739D01*
X648961Y704850D01*
X648961Y710142D01*
X648963Y710271D01*
X648969Y710400D01*
X648979Y710529D01*
X648992Y710657D01*
X649010Y710785D01*
X649032Y710912D01*
X649057Y711039D01*
X649086Y711165D01*
X649119Y711289D01*
X649156Y711413D01*
X649197Y711536D01*
X649241Y711657D01*
X649289Y711777D01*
X649341Y711895D01*
X649396Y712012D01*
X649455Y712127D01*
X649517Y712240D01*
X649583Y712351D01*
X649652Y712460D01*
X649724Y712567D01*
X649800Y712672D01*
X649879Y712774D01*
X649961Y712874D01*
X650045Y712971D01*
X650133Y713066D01*
X650224Y713158D01*
X650317Y713247D01*
X650413Y713333D01*
X650512Y713417D01*
X650613Y713497D01*
X650716Y713574D01*
X650822Y713648D01*
X650930Y713719D01*
X651040Y713786D01*
X651152Y713850D01*
X651267Y713911D01*
X651382Y713968D01*
X651500Y714021D01*
X651619Y714071D01*
X651739Y714117D01*
X651861Y714160D01*
X651985Y714199D01*
X652109Y714234D01*
X652234Y714265D01*
X652360Y714292D01*
X652487Y714316D01*
X652615Y714335D01*
X652743Y714351D01*
X652872Y714363D01*
X653000Y714371D01*
X653129Y714375D01*
X653259Y714375D01*
X653388Y714371D01*
X653516Y714363D01*
X653645Y714351D01*
X653773Y714335D01*
X653901Y714316D01*
X654028Y714292D01*
X654154Y714265D01*
X654279Y714234D01*
X654403Y714199D01*
X654527Y714160D01*
X654649Y714117D01*
X654769Y714071D01*
X654888Y714021D01*
X655006Y713968D01*
X655121Y713911D01*
X655236Y713850D01*
X655348Y713786D01*
X655458Y713719D01*
X655566Y713648D01*
X655672Y713574D01*
X655775Y713497D01*
X655876Y713417D01*
X655975Y713333D01*
X656071Y713247D01*
X656164Y713158D01*
X656255Y713066D01*
X656343Y712971D01*
X656427Y712874D01*
X656509Y712774D01*
X656588Y712672D01*
X656664Y712567D01*
X656736Y712460D01*
X656805Y712351D01*
X656871Y712240D01*
X656933Y712127D01*
X656992Y712012D01*
X657047Y711895D01*
X657099Y711777D01*
X657147Y711657D01*
X657191Y711536D01*
X657232Y711413D01*
X657269Y711289D01*
X657302Y711165D01*
X657331Y711039D01*
X657356Y710912D01*
X657378Y710785D01*
X657396Y710657D01*
X657409Y710529D01*
X657419Y710400D01*
X657425Y710271D01*
X657427Y710142D01*
X657428Y710142D02*
X657428Y708025D01*
X648961Y708025D01*
X587375Y747183D02*
X574675Y747183D01*
X581025Y740833D02*
X581025Y753533D01*
X598004Y739775D02*
X604354Y739775D01*
X604482Y739777D01*
X604610Y739783D01*
X604737Y739792D01*
X604864Y739806D01*
X604991Y739823D01*
X605117Y739844D01*
X605242Y739869D01*
X605367Y739898D01*
X605491Y739930D01*
X605613Y739967D01*
X605735Y740007D01*
X605855Y740050D01*
X605974Y740097D01*
X606091Y740148D01*
X606207Y740202D01*
X606321Y740260D01*
X606433Y740321D01*
X606544Y740385D01*
X606652Y740453D01*
X606759Y740524D01*
X606863Y740599D01*
X606965Y740676D01*
X607064Y740756D01*
X607161Y740840D01*
X607255Y740926D01*
X607347Y741015D01*
X607436Y741107D01*
X607522Y741201D01*
X607606Y741298D01*
X607686Y741397D01*
X607763Y741499D01*
X607838Y741603D01*
X607909Y741710D01*
X607977Y741818D01*
X608041Y741929D01*
X608102Y742041D01*
X608160Y742155D01*
X608214Y742271D01*
X608265Y742388D01*
X608312Y742507D01*
X608355Y742627D01*
X608395Y742749D01*
X608432Y742871D01*
X608464Y742995D01*
X608493Y743120D01*
X608518Y743245D01*
X608539Y743371D01*
X608556Y743498D01*
X608570Y743625D01*
X608579Y743752D01*
X608585Y743880D01*
X608587Y744008D01*
X608587Y746125D01*
X608585Y746253D01*
X608579Y746381D01*
X608570Y746508D01*
X608556Y746635D01*
X608539Y746762D01*
X608518Y746888D01*
X608493Y747013D01*
X608464Y747138D01*
X608432Y747262D01*
X608395Y747384D01*
X608355Y747506D01*
X608312Y747626D01*
X608265Y747745D01*
X608214Y747862D01*
X608160Y747978D01*
X608102Y748092D01*
X608041Y748204D01*
X607977Y748315D01*
X607909Y748423D01*
X607838Y748530D01*
X607763Y748634D01*
X607686Y748736D01*
X607606Y748835D01*
X607522Y748932D01*
X607436Y749026D01*
X607347Y749118D01*
X607255Y749207D01*
X607161Y749293D01*
X607064Y749377D01*
X606965Y749457D01*
X606863Y749534D01*
X606759Y749609D01*
X606652Y749680D01*
X606544Y749748D01*
X606433Y749812D01*
X606321Y749873D01*
X606207Y749931D01*
X606091Y749985D01*
X605974Y750036D01*
X605855Y750083D01*
X605735Y750126D01*
X605613Y750166D01*
X605491Y750203D01*
X605367Y750235D01*
X605242Y750264D01*
X605117Y750289D01*
X604991Y750310D01*
X604864Y750327D01*
X604737Y750341D01*
X604610Y750350D01*
X604482Y750356D01*
X604354Y750358D01*
X598004Y750358D01*
X598004Y758825D01*
X608587Y758825D01*
X617824Y758825D02*
X624174Y739775D01*
X630524Y758825D01*
M02*
