M48
;GenerationSoftware,Autodesk,EAGLE,9.6.2*%
;CreationDate,2022-04-03T20:09:09Z*%
FMAT,2
ICI,OFF
METRIC,TZ,000.000
T4C1.000
T3C1.016
T2C2.032
T1C2.286
%
G90
M71
T1
X43180Y38100
X83820Y38100
X46355Y70231
X63500Y6350
X79248Y71374
X53848Y71374
T2
X40640Y6350
X45720Y6350
X86360Y6350
X81280Y6350
T3
X71120Y53340
X73660Y53340
X76200Y53340
X76200Y50800
X73660Y50800
X71120Y50800
X71120Y48260
X73660Y48260
X76200Y48260
X76200Y45720
X73660Y45720
X71120Y45720
X78740Y48260
X78740Y45720
X81280Y45720
X81280Y48260
X83820Y48260
X83820Y45720
X86360Y45720
X86360Y48260
X88900Y48260
X88900Y45720
X91440Y45720
X91440Y48260
X93980Y48260
X93980Y45720
X96520Y45720
X96520Y50800
X96520Y48260
X93980Y50800
X91440Y50800
X91440Y53340
X93980Y53340
X96520Y53340
X96520Y55880
X93980Y55880
X91440Y55880
X91440Y58420
X93980Y58420
X96520Y58420
X91440Y17780
X91440Y20320
X93980Y20320
X93980Y17780
X96520Y17780
X96520Y20320
X96520Y22860
X93980Y22860
X91440Y22860
X91440Y25400
X93980Y25400
X96520Y25400
X96520Y27940
X93980Y27940
X91440Y27940
X91440Y30480
X93980Y30480
X96520Y30480
X88900Y27940
X88900Y30480
X86360Y30480
X86360Y27940
X83820Y27940
X83820Y30480
X81280Y30480
X81280Y27940
X78740Y27940
X78740Y30480
X76200Y30480
X76200Y27940
X73660Y27940
X73660Y30480
X71120Y30480
X71120Y25400
X71120Y27940
X73660Y25400
X76200Y25400
X76200Y22860
X73660Y22860
X71120Y22860
X71120Y20320
X73660Y20320
X76200Y20320
X76200Y17780
X73660Y17780
X71120Y17780
X35560Y17780
X33020Y17780
X30480Y17780
X30480Y20320
X33020Y20320
X35560Y20320
X35560Y22860
X33020Y22860
X30480Y22860
X30480Y25400
X33020Y25400
X35560Y25400
X35560Y27940
X33020Y27940
X30480Y27940
X30480Y30480
X33020Y30480
X35560Y30480
X38100Y30480
X38100Y27940
X40640Y27940
X40640Y30480
X43180Y27940
X45720Y27940
X45720Y30480
X48260Y30480
X48260Y27940
X50800Y27940
X50800Y30480
X53340Y30480
X53340Y27940
X50800Y25400
X53340Y25400
X53340Y22860
X50800Y22860
X50800Y20320
X53340Y20320
X53340Y17780
X50800Y17780
X55880Y17780
X55880Y20320
X55880Y22860
X55880Y25400
X55880Y27940
X55880Y30480
X50800Y58293
X53340Y58293
X55880Y58293
X55880Y55753
X53340Y55753
X50800Y55753
X50800Y53213
X53340Y53213
X55880Y53213
X55880Y50673
X53340Y50673
X50800Y50673
X50800Y48133
X53340Y48133
X55880Y48133
X55880Y45593
X53340Y45593
X50800Y45593
X48260Y45593
X48260Y48133
X45720Y48133
X45720Y45593
X43180Y45593
X43180Y48133
X40640Y48133
X40640Y45593
X38100Y45593
X38100Y48133
X35560Y48133
X35560Y45593
X33020Y45593
X33020Y48133
X35560Y50673
X33020Y50673
X33020Y53213
X35560Y53213
X35560Y55753
X33020Y55753
X33020Y58293
X35560Y58293
X30480Y58293
X30480Y55753
X30480Y53213
X30480Y50673
X30480Y48133
X30480Y45593
X43180Y30480
X96520Y64770
X96520Y72390
X62484Y67437
X62484Y75057
X73660Y95250
X81280Y95250
X49530Y95250
X41910Y95250
X39370Y68580
X39370Y76200
X71120Y67310
X71120Y74930
X76200Y58420
X76200Y55880
X73660Y55880
X73660Y58420
X71120Y58420
X71120Y55880
T4
X62230Y92710
X62230Y95250
X62230Y97790
M30