M48
;GenerationSoftware,Autodesk,EAGLE,9.6.2*%
;CreationDate,2022-03-23T02:18:33Z*%
FMAT,2
ICI,OFF
METRIC,TZ,000.000
T4C1.000
T3C1.016
T2C2.032
T1C2.286
%
G90
M71
T1
X12700Y128270
X55880Y128270
X15240Y101600
X34290Y142240
X40640Y96520
X15240Y96520
T2
X40640Y119380
X45720Y119380
X27940Y119380
X22860Y119380
T3
X43180Y67310
X43180Y74930
X25400Y67310
X25400Y74930
X28321Y98298
X28321Y90678
X46228Y98298
X46228Y90678
X34290Y98298
X34290Y90678
X11303Y88773
X18923Y88773
T4
X53340Y73660
X53340Y71120
X53340Y68580
M30