M48
;GenerationSoftware,Autodesk,EAGLE,9.6.2*%
;CreationDate,2022-03-25T20:25:58Z*%
FMAT,2
ICI,OFF
METRIC,TZ,000.000
T5C1.000
T4C1.016
T3C2.032
T2C2.286
%
G90
M71
T2
X15240Y96520
X40640Y96520
X34290Y142240
X15240Y101600
X55880Y128270
X12700Y128270
T3
X40132Y119126
X25400Y121158
X22225Y118999
X28575Y118999
X43307Y121285
X46482Y119126
T4
X25400Y67310
X18923Y88773
X11303Y88773
X34290Y90678
X34290Y98298
X46228Y90678
X46228Y98298
X28321Y90678
X28321Y98298
X25400Y74930
X43180Y74930
X43180Y67310
T5
X53340Y71120
X53340Y73660
X53340Y68580
M30