G04 EAGLE Gerber RS-274X export*
G75*
%MOMM*%
%FSLAX34Y34*%
%LPD*%
%INCopper Top*%
%IPPOS*%
%AMOC8*
5,1,8,0,0,1.08239X$1,22.5*%
G01*
%ADD10R,1.320800X2.209800*%
%ADD11R,10.210800X10.007600*%
%ADD12R,1.450000X1.700000*%
%ADD13R,1.018200X1.700000*%
%ADD14C,1.508000*%
%ADD15C,3.810000*%
%ADD16P,1.429621X8X112.500000*%
%ADD17P,1.429621X8X292.500000*%
%ADD18C,2.540000*%
%ADD19C,5.842000*%
%ADD20C,0.152400*%
%ADD21C,1.016000*%
%ADD22C,3.810000*%
%ADD23C,1.397000*%
%ADD24C,0.762000*%

G36*
X965273Y121925D02*
X965273Y121925D01*
X965346Y121923D01*
X965591Y121945D01*
X965836Y121961D01*
X965907Y121974D01*
X965980Y121981D01*
X966220Y122034D01*
X966462Y122080D01*
X966531Y122103D01*
X966602Y122118D01*
X966833Y122201D01*
X967068Y122277D01*
X967134Y122308D01*
X967203Y122332D01*
X967422Y122443D01*
X967644Y122548D01*
X967706Y122587D01*
X967771Y122620D01*
X967975Y122757D01*
X968183Y122889D01*
X968239Y122935D01*
X968299Y122976D01*
X968473Y123129D01*
X968674Y123294D01*
X968731Y123355D01*
X968792Y123408D01*
X1003377Y157993D01*
X1003425Y158048D01*
X1003478Y158098D01*
X1003636Y158287D01*
X1003798Y158471D01*
X1003839Y158532D01*
X1003886Y158588D01*
X1004018Y158795D01*
X1004156Y158998D01*
X1004189Y159063D01*
X1004229Y159125D01*
X1004334Y159347D01*
X1004446Y159566D01*
X1004470Y159634D01*
X1004502Y159700D01*
X1004578Y159934D01*
X1004662Y160165D01*
X1004678Y160236D01*
X1004701Y160306D01*
X1004747Y160547D01*
X1004801Y160787D01*
X1004808Y160860D01*
X1004822Y160931D01*
X1004837Y161162D01*
X1004851Y161308D01*
X1007413Y169195D01*
X1012262Y175868D01*
X1016243Y178760D01*
X1016243Y178761D01*
X1018935Y180717D01*
X1026825Y183280D01*
X1026936Y183290D01*
X1027181Y183306D01*
X1027252Y183319D01*
X1027325Y183326D01*
X1027565Y183379D01*
X1027807Y183425D01*
X1027876Y183448D01*
X1027947Y183463D01*
X1028178Y183546D01*
X1028413Y183622D01*
X1028479Y183653D01*
X1028548Y183677D01*
X1028767Y183788D01*
X1028989Y183893D01*
X1029051Y183932D01*
X1029116Y183965D01*
X1029320Y184102D01*
X1029528Y184234D01*
X1029584Y184280D01*
X1029644Y184321D01*
X1029818Y184474D01*
X1030019Y184639D01*
X1030076Y184700D01*
X1030137Y184753D01*
X1108492Y263108D01*
X1108540Y263163D01*
X1108593Y263213D01*
X1108751Y263402D01*
X1108913Y263586D01*
X1108954Y263647D01*
X1109001Y263703D01*
X1109133Y263910D01*
X1109271Y264113D01*
X1109304Y264178D01*
X1109344Y264240D01*
X1109449Y264462D01*
X1109561Y264681D01*
X1109585Y264749D01*
X1109617Y264815D01*
X1109693Y265049D01*
X1109777Y265280D01*
X1109793Y265351D01*
X1109816Y265421D01*
X1109862Y265662D01*
X1109916Y265902D01*
X1109923Y265975D01*
X1109937Y266046D01*
X1109952Y266277D01*
X1109977Y266536D01*
X1109974Y266620D01*
X1109979Y266700D01*
X1109979Y1460500D01*
X1109975Y1460573D01*
X1109977Y1460646D01*
X1109955Y1460891D01*
X1109939Y1461136D01*
X1109926Y1461207D01*
X1109919Y1461280D01*
X1109866Y1461520D01*
X1109820Y1461762D01*
X1109797Y1461831D01*
X1109782Y1461902D01*
X1109699Y1462133D01*
X1109623Y1462368D01*
X1109592Y1462434D01*
X1109568Y1462503D01*
X1109457Y1462722D01*
X1109352Y1462944D01*
X1109313Y1463006D01*
X1109280Y1463071D01*
X1109143Y1463275D01*
X1109011Y1463483D01*
X1108965Y1463539D01*
X1108924Y1463599D01*
X1108771Y1463773D01*
X1108606Y1463974D01*
X1108545Y1464031D01*
X1108492Y1464092D01*
X994192Y1578392D01*
X994137Y1578440D01*
X994087Y1578493D01*
X993898Y1578651D01*
X993714Y1578813D01*
X993653Y1578854D01*
X993597Y1578901D01*
X993390Y1579033D01*
X993187Y1579171D01*
X993122Y1579204D01*
X993060Y1579244D01*
X992838Y1579349D01*
X992619Y1579461D01*
X992551Y1579485D01*
X992485Y1579517D01*
X992251Y1579593D01*
X992020Y1579677D01*
X991949Y1579693D01*
X991879Y1579716D01*
X991638Y1579762D01*
X991398Y1579816D01*
X991326Y1579823D01*
X991254Y1579837D01*
X991023Y1579852D01*
X990764Y1579877D01*
X990680Y1579874D01*
X990600Y1579879D01*
X673100Y1579879D01*
X673027Y1579875D01*
X672954Y1579877D01*
X672709Y1579855D01*
X672464Y1579839D01*
X672393Y1579826D01*
X672320Y1579819D01*
X672080Y1579766D01*
X671838Y1579720D01*
X671769Y1579697D01*
X671698Y1579682D01*
X671467Y1579599D01*
X671232Y1579523D01*
X671166Y1579492D01*
X671097Y1579468D01*
X670878Y1579357D01*
X670656Y1579252D01*
X670594Y1579213D01*
X670529Y1579180D01*
X670325Y1579043D01*
X670117Y1578911D01*
X670061Y1578865D01*
X670001Y1578824D01*
X669827Y1578671D01*
X669626Y1578506D01*
X669569Y1578445D01*
X669508Y1578392D01*
X644108Y1552992D01*
X644060Y1552937D01*
X644007Y1552887D01*
X643849Y1552698D01*
X643687Y1552514D01*
X643646Y1552453D01*
X643599Y1552397D01*
X643467Y1552190D01*
X643329Y1551987D01*
X643296Y1551922D01*
X643256Y1551860D01*
X643151Y1551638D01*
X643039Y1551419D01*
X643015Y1551351D01*
X642983Y1551285D01*
X642907Y1551051D01*
X642823Y1550820D01*
X642807Y1550749D01*
X642785Y1550679D01*
X642738Y1550438D01*
X642684Y1550198D01*
X642677Y1550126D01*
X642663Y1550054D01*
X642648Y1549823D01*
X642623Y1549564D01*
X642626Y1549480D01*
X642621Y1549400D01*
X642621Y637104D01*
X607496Y601979D01*
X127000Y601979D01*
X126927Y601975D01*
X126854Y601977D01*
X126609Y601955D01*
X126364Y601939D01*
X126293Y601926D01*
X126220Y601919D01*
X125980Y601866D01*
X125738Y601820D01*
X125669Y601797D01*
X125598Y601782D01*
X125367Y601699D01*
X125132Y601623D01*
X125066Y601592D01*
X124997Y601568D01*
X124778Y601457D01*
X124556Y601352D01*
X124494Y601313D01*
X124429Y601280D01*
X124225Y601143D01*
X124017Y601011D01*
X123961Y600965D01*
X123901Y600924D01*
X123727Y600771D01*
X123526Y600606D01*
X123469Y600545D01*
X123408Y600492D01*
X85308Y562392D01*
X85260Y562337D01*
X85207Y562287D01*
X85049Y562098D01*
X84887Y561914D01*
X84846Y561853D01*
X84799Y561797D01*
X84667Y561590D01*
X84529Y561387D01*
X84496Y561322D01*
X84456Y561260D01*
X84351Y561038D01*
X84239Y560819D01*
X84215Y560751D01*
X84183Y560685D01*
X84107Y560451D01*
X84023Y560220D01*
X84007Y560149D01*
X83985Y560079D01*
X83938Y559838D01*
X83884Y559598D01*
X83877Y559526D01*
X83863Y559454D01*
X83848Y559223D01*
X83838Y559113D01*
X83831Y559064D01*
X83831Y559047D01*
X83823Y558964D01*
X83826Y558880D01*
X83821Y558800D01*
X83821Y292100D01*
X83825Y292027D01*
X83823Y291954D01*
X83845Y291709D01*
X83861Y291464D01*
X83874Y291393D01*
X83881Y291320D01*
X83934Y291080D01*
X83980Y290838D01*
X84003Y290769D01*
X84018Y290698D01*
X84101Y290467D01*
X84177Y290232D01*
X84208Y290166D01*
X84232Y290097D01*
X84343Y289878D01*
X84448Y289656D01*
X84487Y289594D01*
X84520Y289529D01*
X84657Y289325D01*
X84789Y289117D01*
X84835Y289061D01*
X84876Y289001D01*
X85029Y288827D01*
X85194Y288626D01*
X85255Y288569D01*
X85308Y288508D01*
X199608Y174208D01*
X199663Y174160D01*
X199713Y174107D01*
X199902Y173949D01*
X200086Y173787D01*
X200147Y173746D01*
X200203Y173699D01*
X200410Y173567D01*
X200613Y173429D01*
X200678Y173396D01*
X200740Y173356D01*
X200962Y173251D01*
X201181Y173139D01*
X201249Y173115D01*
X201315Y173083D01*
X201549Y173007D01*
X201780Y172923D01*
X201851Y172907D01*
X201921Y172885D01*
X202162Y172838D01*
X202402Y172784D01*
X202475Y172777D01*
X202546Y172763D01*
X202777Y172748D01*
X203036Y172723D01*
X203120Y172726D01*
X203200Y172721D01*
X455096Y172721D01*
X504408Y123408D01*
X504463Y123360D01*
X504513Y123307D01*
X504702Y123149D01*
X504886Y122987D01*
X504947Y122946D01*
X505003Y122899D01*
X505210Y122767D01*
X505413Y122629D01*
X505478Y122596D01*
X505540Y122556D01*
X505762Y122451D01*
X505981Y122339D01*
X506049Y122315D01*
X506115Y122283D01*
X506349Y122207D01*
X506580Y122123D01*
X506651Y122107D01*
X506721Y122085D01*
X506962Y122038D01*
X507202Y121984D01*
X507275Y121977D01*
X507346Y121963D01*
X507577Y121948D01*
X507836Y121923D01*
X507920Y121926D01*
X508000Y121921D01*
X965200Y121921D01*
X965273Y121925D01*
G37*
%LPC*%
G36*
X618781Y285184D02*
X618781Y285184D01*
X610935Y287733D01*
X604262Y292582D01*
X599413Y299255D01*
X596864Y307101D01*
X596864Y315349D01*
X599413Y323195D01*
X604262Y329868D01*
X606009Y331138D01*
X606010Y331138D01*
X610935Y334717D01*
X618781Y337266D01*
X627029Y337266D01*
X634875Y334717D01*
X641548Y329868D01*
X646397Y323195D01*
X648946Y315349D01*
X648946Y307101D01*
X646397Y299255D01*
X641548Y292582D01*
X636024Y288568D01*
X636023Y288568D01*
X634875Y287733D01*
X627029Y285184D01*
X618781Y285184D01*
G37*
%LPD*%
G36*
X623024Y305523D02*
X623024Y305523D01*
X623144Y305521D01*
X623225Y305530D01*
X623303Y305531D01*
X623402Y305539D01*
X623501Y305553D01*
X623541Y305556D01*
X623607Y305568D01*
X623670Y305577D01*
X623938Y305610D01*
X623984Y305622D01*
X624032Y305629D01*
X624331Y305710D01*
X624573Y305772D01*
X624760Y305833D01*
X624901Y305889D01*
X625046Y305935D01*
X625197Y306006D01*
X625353Y306067D01*
X625486Y306140D01*
X625623Y306204D01*
X625760Y306291D01*
X625911Y306374D01*
X626045Y306471D01*
X626177Y306555D01*
X626336Y306670D01*
X626453Y306767D01*
X626575Y306855D01*
X626698Y306969D01*
X626827Y307077D01*
X626931Y307187D01*
X627041Y307290D01*
X627145Y307415D01*
X627263Y307541D01*
X627360Y307674D01*
X627460Y307794D01*
X627575Y307953D01*
X627657Y308081D01*
X627746Y308203D01*
X627827Y308350D01*
X627917Y308491D01*
X627981Y308628D01*
X628055Y308761D01*
X628115Y308912D01*
X628188Y309068D01*
X628239Y309224D01*
X628297Y309369D01*
X628358Y309557D01*
X628396Y309703D01*
X628443Y309847D01*
X628475Y310012D01*
X628516Y310174D01*
X628535Y310324D01*
X628564Y310473D01*
X628575Y310635D01*
X628596Y310806D01*
X628596Y310971D01*
X628607Y311126D01*
X628607Y311324D01*
X628597Y311475D01*
X628598Y311626D01*
X628577Y311792D01*
X628567Y311959D01*
X628538Y312108D01*
X628520Y312258D01*
X628480Y312416D01*
X628447Y312585D01*
X628396Y312742D01*
X628358Y312893D01*
X628297Y313080D01*
X628241Y313221D01*
X628195Y313366D01*
X628124Y313517D01*
X628063Y313673D01*
X627990Y313806D01*
X627926Y313943D01*
X627839Y314080D01*
X627756Y314231D01*
X627659Y314365D01*
X627575Y314497D01*
X627460Y314656D01*
X627363Y314773D01*
X627275Y314895D01*
X627161Y315018D01*
X627053Y315147D01*
X626943Y315251D01*
X626840Y315361D01*
X626715Y315465D01*
X626589Y315583D01*
X626456Y315680D01*
X626336Y315780D01*
X626177Y315895D01*
X626049Y315977D01*
X625927Y316066D01*
X625780Y316147D01*
X625639Y316237D01*
X625502Y316302D01*
X625369Y316375D01*
X625219Y316435D01*
X625062Y316508D01*
X624905Y316559D01*
X624760Y316617D01*
X624573Y316678D01*
X624311Y316745D01*
X624050Y316817D01*
X624003Y316824D01*
X623956Y316836D01*
X623650Y316875D01*
X623402Y316911D01*
X623303Y316919D01*
X623232Y316920D01*
X623162Y316928D01*
X622929Y316925D01*
X622666Y316929D01*
X622585Y316920D01*
X622507Y316919D01*
X622408Y316911D01*
X622140Y316873D01*
X621872Y316840D01*
X621826Y316828D01*
X621778Y316821D01*
X621479Y316740D01*
X621237Y316678D01*
X621050Y316617D01*
X620909Y316561D01*
X620764Y316515D01*
X620613Y316444D01*
X620457Y316383D01*
X620324Y316310D01*
X620187Y316246D01*
X620050Y316159D01*
X619899Y316076D01*
X619765Y315979D01*
X619633Y315895D01*
X619474Y315780D01*
X619357Y315683D01*
X619235Y315595D01*
X619112Y315481D01*
X618983Y315373D01*
X618879Y315263D01*
X618769Y315160D01*
X618665Y315035D01*
X618547Y314909D01*
X618450Y314776D01*
X618350Y314656D01*
X618235Y314497D01*
X618153Y314369D01*
X618064Y314247D01*
X617983Y314100D01*
X617893Y313959D01*
X617828Y313822D01*
X617755Y313689D01*
X617695Y313539D01*
X617622Y313382D01*
X617571Y313225D01*
X617513Y313080D01*
X617452Y312893D01*
X617414Y312747D01*
X617367Y312603D01*
X617335Y312438D01*
X617294Y312276D01*
X617275Y312126D01*
X617246Y311977D01*
X617235Y311815D01*
X617214Y311644D01*
X617214Y311479D01*
X617203Y311324D01*
X617203Y311126D01*
X617213Y310975D01*
X617212Y310824D01*
X617233Y310658D01*
X617243Y310491D01*
X617272Y310342D01*
X617290Y310192D01*
X617330Y310034D01*
X617363Y309865D01*
X617414Y309708D01*
X617452Y309557D01*
X617513Y309370D01*
X617569Y309229D01*
X617615Y309084D01*
X617686Y308933D01*
X617747Y308777D01*
X617820Y308644D01*
X617884Y308507D01*
X617971Y308370D01*
X618054Y308219D01*
X618151Y308085D01*
X618235Y307953D01*
X618350Y307794D01*
X618447Y307677D01*
X618535Y307555D01*
X618649Y307432D01*
X618757Y307303D01*
X618867Y307199D01*
X618970Y307089D01*
X619095Y306985D01*
X619221Y306867D01*
X619354Y306770D01*
X619474Y306670D01*
X619633Y306555D01*
X619761Y306473D01*
X619884Y306384D01*
X619888Y306381D01*
X619892Y306378D01*
X620035Y306300D01*
X620171Y306213D01*
X620308Y306149D01*
X620441Y306075D01*
X620446Y306073D01*
X620450Y306071D01*
X620601Y306011D01*
X620748Y305942D01*
X620896Y305893D01*
X621043Y305835D01*
X621047Y305834D01*
X621050Y305833D01*
X621237Y305772D01*
X621499Y305705D01*
X621760Y305633D01*
X621807Y305626D01*
X621855Y305613D01*
X622160Y305575D01*
X622177Y305572D01*
X622251Y305558D01*
X622298Y305555D01*
X622408Y305539D01*
X622507Y305531D01*
X622578Y305530D01*
X622648Y305522D01*
X622777Y305524D01*
X622905Y305516D01*
X623024Y305523D01*
G37*
D10*
X282956Y1379093D03*
X225044Y1379093D03*
D11*
X254000Y1281684D03*
D10*
X460756Y1379093D03*
X402844Y1379093D03*
D11*
X431800Y1281684D03*
D12*
X228600Y778500D03*
X254000Y778500D03*
X279400Y778500D03*
X279400Y872500D03*
D13*
X254000Y872500D03*
D12*
X228600Y872500D03*
X406400Y778500D03*
X431800Y778500D03*
X457200Y778500D03*
X457200Y872500D03*
D13*
X431800Y872500D03*
D12*
X406400Y872500D03*
D10*
X225044Y1021207D03*
X282956Y1021207D03*
D11*
X254000Y1118616D03*
D10*
X404114Y1019937D03*
X462026Y1019937D03*
D11*
X433070Y1117346D03*
D14*
X525860Y736600D02*
X540940Y736600D01*
X540940Y711200D02*
X525860Y711200D01*
X525860Y685800D02*
X540940Y685800D01*
D15*
X127000Y1282700D03*
X558800Y1282700D03*
X152400Y1016000D03*
X342900Y1422400D03*
X406400Y965200D03*
X152400Y965200D03*
D16*
X431800Y673100D03*
X431800Y749300D03*
X254000Y673100D03*
X254000Y749300D03*
D17*
X283210Y982980D03*
X283210Y906780D03*
X462280Y982980D03*
X462280Y906780D03*
D18*
X460756Y1379093D02*
X460756Y1422400D01*
X282956Y1422400D02*
X282956Y1379093D01*
X225044Y1379093D02*
X225044Y1422400D01*
D19*
X266700Y1422400D02*
X282956Y1422400D01*
X266700Y1422400D02*
X241300Y1422400D01*
D18*
X225044Y1422400D02*
X266700Y1422400D01*
X444500Y1422400D02*
X460756Y1422400D01*
D19*
X342900Y1422400D02*
X282956Y1422400D01*
X342900Y1422400D02*
X444500Y1422400D01*
D18*
X402844Y1397000D02*
X402844Y1379093D01*
X402844Y1409700D01*
X415544Y1422400D01*
X444500Y1422400D01*
D19*
X433070Y1206500D02*
X433070Y1117346D01*
X495300Y1282700D02*
X558800Y1282700D01*
D20*
X495300Y1282700D02*
X495300Y1270000D01*
D19*
X432816Y1282700D02*
X431800Y1281684D01*
X432816Y1282700D02*
X495300Y1282700D01*
X433070Y1280414D02*
X431800Y1281684D01*
X433070Y1280414D02*
X433070Y1117346D01*
X254000Y1118616D02*
X254000Y1281684D01*
X127000Y1281684D01*
D21*
X342900Y936000D02*
X406400Y872500D01*
X342900Y936000D02*
X342900Y1066800D01*
X291084Y1118616D02*
X254000Y1118616D01*
X291084Y1118616D02*
X342900Y1066800D01*
X212100Y889000D02*
X228600Y872500D01*
X212100Y889000D02*
X114300Y889000D01*
X88900Y914400D01*
X88900Y1054100D01*
X152400Y1117600D01*
X252984Y1117600D02*
X254000Y1118616D01*
X252984Y1117600D02*
X152400Y1117600D01*
D22*
X225044Y1021207D02*
X194437Y990600D01*
X190500Y990600D01*
D19*
X194437Y990600D02*
X152400Y990600D01*
X152400Y965200D01*
X152400Y990600D02*
X152400Y1016000D01*
D23*
X283210Y906780D02*
X283210Y892810D01*
X279400Y889000D01*
X279400Y876300D01*
X462280Y894080D02*
X462280Y906780D01*
X462280Y894080D02*
X457200Y889000D01*
X457200Y872500D01*
X431800Y778500D02*
X431800Y749300D01*
X254000Y749300D02*
X254000Y778500D01*
D24*
X228600Y736600D02*
X241300Y723900D01*
X228600Y736600D02*
X228600Y778500D01*
X495300Y736600D02*
X533400Y736600D01*
X495300Y736600D02*
X482600Y723900D01*
X406400Y723900D01*
X241300Y723900D01*
X406400Y723900D02*
X406400Y778500D01*
D23*
X431800Y673100D02*
X254000Y673100D01*
X431800Y673100D02*
X482600Y673100D01*
X520700Y711200D02*
X533400Y711200D01*
X520700Y711200D02*
X482600Y673100D01*
X283210Y982980D02*
X282956Y983234D01*
X282956Y1021207D01*
X462026Y1019937D02*
X462026Y983234D01*
X462280Y982980D01*
D22*
X406400Y1017651D02*
X404114Y1019937D01*
X406400Y1017651D02*
X406400Y965200D01*
M02*
