G04 EAGLE Gerber RS-274X export*
G75*
%MOMM*%
%FSLAX34Y34*%
%LPD*%
%IN*%
%IPPOS*%
%AMOC8*
5,1,8,0,0,1.08239X$1,22.5*%
G01*
%ADD10C,0.001000*%


D10*
X1118314Y115980D02*
X1161128Y115980D01*
X1161128Y115918D02*
X1161142Y115920D01*
X1161155Y115924D01*
X1161167Y115932D01*
X1161177Y115942D01*
X1161185Y115954D01*
X1161189Y115967D01*
X1161191Y115981D01*
X1161189Y115995D01*
X1161185Y116008D01*
X1161177Y116020D01*
X1161167Y116030D01*
X1161155Y116038D01*
X1161142Y116042D01*
X1161128Y116044D01*
X1118314Y116044D02*
X1118300Y116042D01*
X1118287Y116038D01*
X1118275Y116030D01*
X1118265Y116020D01*
X1118257Y116008D01*
X1118253Y115995D01*
X1118251Y115981D01*
X1118253Y115967D01*
X1118257Y115954D01*
X1118265Y115942D01*
X1118275Y115932D01*
X1118287Y115924D01*
X1118300Y115920D01*
X1118314Y115918D01*
X1161128Y115980D02*
X1161611Y115986D01*
X1162094Y116003D01*
X1162577Y116033D01*
X1163058Y116073D01*
X1163539Y116126D01*
X1164018Y116190D01*
X1164495Y116265D01*
X1164971Y116353D01*
X1165444Y116451D01*
X1165914Y116561D01*
X1166382Y116682D01*
X1166847Y116815D01*
X1167308Y116959D01*
X1167766Y117114D01*
X1168220Y117280D01*
X1168670Y117457D01*
X1169115Y117644D01*
X1169556Y117843D01*
X1169992Y118051D01*
X1170422Y118271D01*
X1170848Y118501D01*
X1171267Y118741D01*
X1171681Y118991D01*
X1172088Y119251D01*
X1172489Y119520D01*
X1172884Y119800D01*
X1173271Y120088D01*
X1173652Y120387D01*
X1174025Y120694D01*
X1174390Y121010D01*
X1174748Y121335D01*
X1175098Y121668D01*
X1175440Y122010D01*
X1175773Y122360D01*
X1176098Y122718D01*
X1176414Y123083D01*
X1176721Y123456D01*
X1177020Y123837D01*
X1177308Y124224D01*
X1177588Y124619D01*
X1177857Y125020D01*
X1178117Y125427D01*
X1178367Y125841D01*
X1178607Y126260D01*
X1178837Y126686D01*
X1179057Y127116D01*
X1179265Y127552D01*
X1179464Y127993D01*
X1179651Y128438D01*
X1179828Y128888D01*
X1179994Y129342D01*
X1180149Y129800D01*
X1180293Y130261D01*
X1180426Y130726D01*
X1180547Y131194D01*
X1180657Y131664D01*
X1180755Y132137D01*
X1180843Y132613D01*
X1180918Y133090D01*
X1180982Y133569D01*
X1181035Y134050D01*
X1181075Y134531D01*
X1181105Y135014D01*
X1181122Y135497D01*
X1181128Y135980D01*
X1161128Y116044D02*
X1161114Y116042D01*
X1161101Y116038D01*
X1161089Y116030D01*
X1161079Y116020D01*
X1161071Y116008D01*
X1161067Y115995D01*
X1161065Y115981D01*
X1161067Y115967D01*
X1161071Y115954D01*
X1161079Y115942D01*
X1161089Y115932D01*
X1161101Y115924D01*
X1161114Y115920D01*
X1161128Y115918D01*
X1181066Y135980D02*
X1181068Y135994D01*
X1181072Y136007D01*
X1181080Y136019D01*
X1181090Y136029D01*
X1181102Y136037D01*
X1181115Y136041D01*
X1181129Y136043D01*
X1181143Y136041D01*
X1181156Y136037D01*
X1181168Y136029D01*
X1181178Y136019D01*
X1181186Y136007D01*
X1181190Y135994D01*
X1181192Y135980D01*
X1181128Y135980D02*
X1181128Y1530000D01*
X1181066Y1530000D02*
X1181068Y1530014D01*
X1181072Y1530027D01*
X1181080Y1530039D01*
X1181090Y1530049D01*
X1181102Y1530057D01*
X1181115Y1530061D01*
X1181129Y1530063D01*
X1181143Y1530061D01*
X1181156Y1530057D01*
X1181168Y1530049D01*
X1181178Y1530039D01*
X1181186Y1530027D01*
X1181190Y1530014D01*
X1181192Y1530000D01*
X1181066Y135980D02*
X1181068Y135966D01*
X1181072Y135953D01*
X1181080Y135941D01*
X1181090Y135931D01*
X1181102Y135923D01*
X1181115Y135919D01*
X1181129Y135917D01*
X1181143Y135919D01*
X1181156Y135923D01*
X1181168Y135931D01*
X1181178Y135941D01*
X1181186Y135953D01*
X1181190Y135966D01*
X1181192Y135980D01*
X1181128Y1530000D02*
X1181122Y1530483D01*
X1181105Y1530966D01*
X1181075Y1531449D01*
X1181035Y1531930D01*
X1180982Y1532411D01*
X1180918Y1532890D01*
X1180843Y1533367D01*
X1180755Y1533843D01*
X1180657Y1534316D01*
X1180547Y1534786D01*
X1180426Y1535254D01*
X1180293Y1535719D01*
X1180149Y1536180D01*
X1179994Y1536638D01*
X1179828Y1537092D01*
X1179651Y1537542D01*
X1179464Y1537987D01*
X1179265Y1538428D01*
X1179057Y1538864D01*
X1178837Y1539294D01*
X1178607Y1539720D01*
X1178367Y1540139D01*
X1178117Y1540553D01*
X1177857Y1540960D01*
X1177588Y1541361D01*
X1177308Y1541756D01*
X1177020Y1542143D01*
X1176721Y1542524D01*
X1176414Y1542897D01*
X1176098Y1543262D01*
X1175773Y1543620D01*
X1175440Y1543970D01*
X1175098Y1544312D01*
X1174748Y1544645D01*
X1174390Y1544970D01*
X1174025Y1545286D01*
X1173652Y1545593D01*
X1173271Y1545892D01*
X1172884Y1546180D01*
X1172489Y1546460D01*
X1172088Y1546729D01*
X1171681Y1546989D01*
X1171267Y1547239D01*
X1170848Y1547479D01*
X1170422Y1547709D01*
X1169992Y1547929D01*
X1169556Y1548137D01*
X1169115Y1548336D01*
X1168670Y1548523D01*
X1168220Y1548700D01*
X1167766Y1548866D01*
X1167308Y1549021D01*
X1166847Y1549165D01*
X1166382Y1549298D01*
X1165914Y1549419D01*
X1165444Y1549529D01*
X1164971Y1549627D01*
X1164495Y1549715D01*
X1164018Y1549790D01*
X1163539Y1549854D01*
X1163058Y1549907D01*
X1162577Y1549947D01*
X1162094Y1549977D01*
X1161611Y1549994D01*
X1161128Y1550000D01*
X1181066Y1530000D02*
X1181068Y1529986D01*
X1181072Y1529973D01*
X1181080Y1529961D01*
X1181090Y1529951D01*
X1181102Y1529943D01*
X1181115Y1529939D01*
X1181129Y1529937D01*
X1181143Y1529939D01*
X1181156Y1529943D01*
X1181168Y1529951D01*
X1181178Y1529961D01*
X1181186Y1529973D01*
X1181190Y1529986D01*
X1181192Y1530000D01*
X1161128Y1549938D02*
X1161113Y1549940D01*
X1161099Y1549945D01*
X1161087Y1549954D01*
X1161077Y1549965D01*
X1161070Y1549978D01*
X1161066Y1549993D01*
X1161066Y1550007D01*
X1161070Y1550022D01*
X1161077Y1550035D01*
X1161087Y1550046D01*
X1161099Y1550055D01*
X1161113Y1550060D01*
X1161128Y1550062D01*
X1161128Y1550000D02*
X1091128Y1550000D01*
X1091128Y1550062D02*
X1091113Y1550060D01*
X1091099Y1550055D01*
X1091087Y1550046D01*
X1091077Y1550035D01*
X1091070Y1550022D01*
X1091066Y1550007D01*
X1091066Y1549993D01*
X1091070Y1549978D01*
X1091077Y1549965D01*
X1091087Y1549954D01*
X1091099Y1549945D01*
X1091113Y1549940D01*
X1091128Y1549938D01*
X1161128Y1549938D02*
X1161143Y1549940D01*
X1161157Y1549945D01*
X1161169Y1549954D01*
X1161179Y1549965D01*
X1161186Y1549978D01*
X1161190Y1549993D01*
X1161190Y1550007D01*
X1161186Y1550022D01*
X1161179Y1550035D01*
X1161169Y1550046D01*
X1161157Y1550055D01*
X1161143Y1550060D01*
X1161128Y1550062D01*
X1091128Y1550000D02*
X1090645Y1550006D01*
X1090162Y1550023D01*
X1089679Y1550053D01*
X1089198Y1550093D01*
X1088717Y1550146D01*
X1088238Y1550210D01*
X1087761Y1550285D01*
X1087285Y1550373D01*
X1086812Y1550471D01*
X1086342Y1550581D01*
X1085874Y1550702D01*
X1085409Y1550835D01*
X1084948Y1550979D01*
X1084490Y1551134D01*
X1084036Y1551300D01*
X1083586Y1551477D01*
X1083141Y1551664D01*
X1082700Y1551863D01*
X1082264Y1552071D01*
X1081834Y1552291D01*
X1081408Y1552521D01*
X1080989Y1552761D01*
X1080575Y1553011D01*
X1080168Y1553271D01*
X1079767Y1553540D01*
X1079372Y1553820D01*
X1078985Y1554108D01*
X1078604Y1554407D01*
X1078231Y1554714D01*
X1077866Y1555030D01*
X1077508Y1555355D01*
X1077158Y1555688D01*
X1076816Y1556030D01*
X1076483Y1556380D01*
X1076158Y1556738D01*
X1075842Y1557103D01*
X1075535Y1557476D01*
X1075236Y1557857D01*
X1074948Y1558244D01*
X1074668Y1558639D01*
X1074399Y1559040D01*
X1074139Y1559447D01*
X1073889Y1559861D01*
X1073649Y1560280D01*
X1073419Y1560706D01*
X1073199Y1561136D01*
X1072991Y1561572D01*
X1072792Y1562013D01*
X1072605Y1562458D01*
X1072428Y1562908D01*
X1072262Y1563362D01*
X1072107Y1563820D01*
X1071963Y1564281D01*
X1071830Y1564746D01*
X1071709Y1565214D01*
X1071599Y1565684D01*
X1071501Y1566157D01*
X1071413Y1566633D01*
X1071338Y1567110D01*
X1071274Y1567589D01*
X1071221Y1568070D01*
X1071181Y1568551D01*
X1071151Y1569034D01*
X1071134Y1569517D01*
X1071128Y1570000D01*
X1071066Y1570000D02*
X1071068Y1570014D01*
X1071072Y1570027D01*
X1071080Y1570039D01*
X1071090Y1570049D01*
X1071102Y1570057D01*
X1071115Y1570061D01*
X1071129Y1570063D01*
X1071143Y1570061D01*
X1071156Y1570057D01*
X1071168Y1570049D01*
X1071178Y1570039D01*
X1071186Y1570027D01*
X1071190Y1570014D01*
X1071192Y1570000D01*
X1091128Y1550062D02*
X1091143Y1550060D01*
X1091157Y1550055D01*
X1091169Y1550046D01*
X1091179Y1550035D01*
X1091186Y1550022D01*
X1091190Y1550007D01*
X1091190Y1549993D01*
X1091186Y1549978D01*
X1091179Y1549965D01*
X1091169Y1549954D01*
X1091157Y1549945D01*
X1091143Y1549940D01*
X1091128Y1549938D01*
X1071128Y1570000D02*
X1071128Y1630032D01*
X1071191Y1630032D02*
X1071189Y1630047D01*
X1071184Y1630061D01*
X1071175Y1630074D01*
X1071164Y1630084D01*
X1071151Y1630091D01*
X1071136Y1630094D01*
X1071121Y1630095D01*
X1071106Y1630091D01*
X1071093Y1630084D01*
X1071081Y1630074D01*
X1071073Y1630062D01*
X1071067Y1630048D01*
X1071065Y1630033D01*
X1071066Y1630034D02*
X1071066Y1630032D01*
X1071066Y1570000D02*
X1071068Y1569986D01*
X1071072Y1569973D01*
X1071080Y1569961D01*
X1071090Y1569951D01*
X1071102Y1569943D01*
X1071115Y1569939D01*
X1071129Y1569937D01*
X1071143Y1569939D01*
X1071156Y1569943D01*
X1071168Y1569951D01*
X1071178Y1569961D01*
X1071186Y1569973D01*
X1071190Y1569986D01*
X1071192Y1570000D01*
X1071128Y1630032D02*
X1071134Y1630534D01*
X1071127Y1631037D01*
X1071108Y1631539D01*
X1071077Y1632041D01*
X1071034Y1632541D01*
X1070978Y1633041D01*
X1070910Y1633539D01*
X1070830Y1634035D01*
X1070737Y1634529D01*
X1070633Y1635020D01*
X1070516Y1635509D01*
X1070388Y1635995D01*
X1070248Y1636478D01*
X1070095Y1636957D01*
X1069932Y1637432D01*
X1069756Y1637903D01*
X1069569Y1638369D01*
X1069371Y1638831D01*
X1069161Y1639288D01*
X1068941Y1639739D01*
X1068709Y1640185D01*
X1068466Y1640625D01*
X1068213Y1641059D01*
X1067949Y1641487D01*
X1067675Y1641908D01*
X1067390Y1642323D01*
X1067096Y1642730D01*
X1066791Y1643130D01*
X1066477Y1643522D01*
X1066153Y1643906D01*
X1065820Y1644282D01*
X1065478Y1644651D01*
X1065127Y1645010D01*
X1064767Y1645361D01*
X1064399Y1645703D01*
X1064022Y1646036D01*
X1063638Y1646359D01*
X1063245Y1646673D01*
X1062845Y1646977D01*
X1062438Y1647271D01*
X1062023Y1647556D01*
X1061602Y1647830D01*
X1061174Y1648093D01*
X1060740Y1648346D01*
X1060300Y1648588D01*
X1059853Y1648820D01*
X1059402Y1649040D01*
X1058945Y1649249D01*
X1058483Y1649447D01*
X1058016Y1649634D01*
X1057545Y1649809D01*
X1057070Y1649972D01*
X1056591Y1650124D01*
X1056108Y1650264D01*
X1055622Y1650392D01*
X1055133Y1650508D01*
X1054642Y1650612D01*
X1054148Y1650704D01*
X1053651Y1650784D01*
X1053153Y1650852D01*
X1052654Y1650907D01*
X1052153Y1650950D01*
X1051652Y1650981D01*
X1051149Y1651000D01*
X1071066Y1630034D02*
X1071067Y1630019D01*
X1071072Y1630006D01*
X1071079Y1629994D01*
X1071089Y1629984D01*
X1071100Y1629976D01*
X1071114Y1629971D01*
X1071127Y1629969D01*
X1071142Y1629970D01*
X1071155Y1629975D01*
X1071167Y1629982D01*
X1071177Y1629992D01*
X1071185Y1630003D01*
X1071190Y1630017D01*
X1071192Y1630030D01*
X1051149Y1650938D02*
X1051134Y1650940D01*
X1051120Y1650946D01*
X1051108Y1650955D01*
X1051098Y1650966D01*
X1051092Y1650979D01*
X1051088Y1650994D01*
X1051089Y1651009D01*
X1051093Y1651023D01*
X1051100Y1651036D01*
X1051110Y1651047D01*
X1051123Y1651056D01*
X1051137Y1651061D01*
X1051151Y1651062D01*
X1051149Y1651000D02*
X130021Y1651000D01*
X130021Y1651062D02*
X130006Y1651060D01*
X129992Y1651055D01*
X129980Y1651046D01*
X129970Y1651035D01*
X129963Y1651022D01*
X129959Y1651007D01*
X129959Y1650993D01*
X129963Y1650978D01*
X129970Y1650965D01*
X129980Y1650954D01*
X129992Y1650945D01*
X130006Y1650940D01*
X130021Y1650938D01*
X1051149Y1650938D02*
X1051164Y1650940D01*
X1051178Y1650945D01*
X1051190Y1650954D01*
X1051200Y1650965D01*
X1051207Y1650978D01*
X1051211Y1650993D01*
X1051211Y1651007D01*
X1051207Y1651022D01*
X1051200Y1651035D01*
X1051190Y1651046D01*
X1051178Y1651055D01*
X1051164Y1651060D01*
X1051149Y1651062D01*
X130021Y1651000D02*
X129538Y1650995D01*
X129054Y1650978D01*
X128572Y1650949D01*
X128090Y1650909D01*
X127609Y1650857D01*
X127129Y1650794D01*
X126651Y1650719D01*
X126176Y1650632D01*
X125702Y1650534D01*
X125231Y1650425D01*
X124762Y1650304D01*
X124297Y1650171D01*
X123835Y1650028D01*
X123377Y1649874D01*
X122922Y1649708D01*
X122472Y1649531D01*
X122026Y1649344D01*
X121585Y1649146D01*
X121149Y1648937D01*
X120717Y1648718D01*
X120292Y1648489D01*
X119872Y1648249D01*
X119458Y1647999D01*
X119050Y1647739D01*
X118648Y1647469D01*
X118253Y1647190D01*
X117865Y1646901D01*
X117484Y1646603D01*
X117111Y1646296D01*
X116744Y1645980D01*
X116386Y1645655D01*
X116036Y1645322D01*
X115694Y1644980D01*
X115360Y1644630D01*
X115034Y1644272D01*
X114718Y1643906D01*
X114410Y1643533D01*
X114112Y1643152D01*
X113823Y1642765D01*
X113543Y1642370D01*
X113273Y1641969D01*
X113013Y1641561D01*
X112762Y1641147D01*
X112522Y1640727D01*
X112292Y1640302D01*
X112072Y1639871D01*
X111863Y1639435D01*
X111665Y1638994D01*
X111477Y1638548D01*
X111300Y1638098D01*
X111134Y1637644D01*
X110979Y1637186D01*
X110835Y1636724D01*
X110702Y1636259D01*
X110581Y1635791D01*
X110471Y1635320D01*
X110372Y1634846D01*
X110285Y1634370D01*
X110209Y1633893D01*
X110145Y1633413D01*
X110093Y1632932D01*
X110052Y1632450D01*
X110023Y1631968D01*
X110006Y1631484D01*
X110000Y1631001D01*
X130021Y1650938D02*
X130036Y1650940D01*
X130050Y1650945D01*
X130062Y1650954D01*
X130072Y1650965D01*
X130079Y1650978D01*
X130083Y1650993D01*
X130083Y1651007D01*
X130079Y1651022D01*
X130072Y1651035D01*
X130062Y1651046D01*
X130050Y1651055D01*
X130036Y1651060D01*
X130021Y1651062D01*
X110062Y1631001D02*
X110060Y1630986D01*
X110055Y1630972D01*
X110046Y1630960D01*
X110035Y1630950D01*
X110022Y1630943D01*
X110007Y1630939D01*
X109993Y1630939D01*
X109978Y1630943D01*
X109965Y1630950D01*
X109954Y1630960D01*
X109945Y1630972D01*
X109940Y1630986D01*
X109938Y1631001D01*
X110000Y1631001D02*
X110000Y1570000D01*
X109938Y1570000D02*
X109940Y1569985D01*
X109945Y1569971D01*
X109954Y1569959D01*
X109965Y1569949D01*
X109978Y1569942D01*
X109993Y1569938D01*
X110007Y1569938D01*
X110022Y1569942D01*
X110035Y1569949D01*
X110046Y1569959D01*
X110055Y1569971D01*
X110060Y1569985D01*
X110062Y1570000D01*
X110062Y1631001D02*
X110060Y1631016D01*
X110055Y1631030D01*
X110046Y1631042D01*
X110035Y1631052D01*
X110022Y1631059D01*
X110007Y1631063D01*
X109993Y1631063D01*
X109978Y1631059D01*
X109965Y1631052D01*
X109954Y1631042D01*
X109945Y1631030D01*
X109940Y1631016D01*
X109938Y1631001D01*
X110000Y1570000D02*
X109994Y1569517D01*
X109977Y1569034D01*
X109947Y1568551D01*
X109907Y1568070D01*
X109854Y1567589D01*
X109790Y1567110D01*
X109715Y1566633D01*
X109627Y1566157D01*
X109529Y1565684D01*
X109419Y1565214D01*
X109298Y1564746D01*
X109165Y1564281D01*
X109021Y1563820D01*
X108866Y1563362D01*
X108700Y1562908D01*
X108523Y1562458D01*
X108336Y1562013D01*
X108137Y1561572D01*
X107929Y1561136D01*
X107709Y1560706D01*
X107479Y1560280D01*
X107239Y1559861D01*
X106989Y1559447D01*
X106729Y1559040D01*
X106460Y1558639D01*
X106180Y1558244D01*
X105892Y1557857D01*
X105593Y1557476D01*
X105286Y1557103D01*
X104970Y1556738D01*
X104645Y1556380D01*
X104312Y1556030D01*
X103970Y1555688D01*
X103620Y1555355D01*
X103262Y1555030D01*
X102897Y1554714D01*
X102524Y1554407D01*
X102143Y1554108D01*
X101756Y1553820D01*
X101361Y1553540D01*
X100960Y1553271D01*
X100553Y1553011D01*
X100139Y1552761D01*
X99720Y1552521D01*
X99294Y1552291D01*
X98864Y1552071D01*
X98428Y1551863D01*
X97987Y1551664D01*
X97542Y1551477D01*
X97092Y1551300D01*
X96638Y1551134D01*
X96180Y1550979D01*
X95719Y1550835D01*
X95254Y1550702D01*
X94786Y1550581D01*
X94316Y1550471D01*
X93843Y1550373D01*
X93367Y1550285D01*
X92890Y1550210D01*
X92411Y1550146D01*
X91930Y1550093D01*
X91449Y1550053D01*
X90966Y1550023D01*
X90483Y1550006D01*
X90000Y1550000D01*
X90000Y1550062D02*
X89985Y1550060D01*
X89971Y1550055D01*
X89959Y1550046D01*
X89949Y1550035D01*
X89942Y1550022D01*
X89938Y1550007D01*
X89938Y1549993D01*
X89942Y1549978D01*
X89949Y1549965D01*
X89959Y1549954D01*
X89971Y1549945D01*
X89985Y1549940D01*
X90000Y1549938D01*
X109938Y1570000D02*
X109940Y1570015D01*
X109945Y1570029D01*
X109954Y1570041D01*
X109965Y1570051D01*
X109978Y1570058D01*
X109993Y1570062D01*
X110007Y1570062D01*
X110022Y1570058D01*
X110035Y1570051D01*
X110046Y1570041D01*
X110055Y1570029D01*
X110060Y1570015D01*
X110062Y1570000D01*
X90000Y1550000D02*
X20000Y1550000D01*
X20000Y1550062D02*
X19985Y1550060D01*
X19971Y1550055D01*
X19959Y1550046D01*
X19949Y1550035D01*
X19942Y1550022D01*
X19938Y1550007D01*
X19938Y1549993D01*
X19942Y1549978D01*
X19949Y1549965D01*
X19959Y1549954D01*
X19971Y1549945D01*
X19985Y1549940D01*
X20000Y1549938D01*
X90000Y1549938D02*
X90015Y1549940D01*
X90029Y1549945D01*
X90041Y1549954D01*
X90051Y1549965D01*
X90058Y1549978D01*
X90062Y1549993D01*
X90062Y1550007D01*
X90058Y1550022D01*
X90051Y1550035D01*
X90041Y1550046D01*
X90029Y1550055D01*
X90015Y1550060D01*
X90000Y1550062D01*
X20000Y1550000D02*
X19517Y1549994D01*
X19034Y1549977D01*
X18551Y1549947D01*
X18070Y1549907D01*
X17589Y1549854D01*
X17110Y1549790D01*
X16633Y1549715D01*
X16157Y1549627D01*
X15684Y1549529D01*
X15214Y1549419D01*
X14746Y1549298D01*
X14281Y1549165D01*
X13820Y1549021D01*
X13362Y1548866D01*
X12908Y1548700D01*
X12458Y1548523D01*
X12013Y1548336D01*
X11572Y1548137D01*
X11136Y1547929D01*
X10706Y1547709D01*
X10280Y1547479D01*
X9861Y1547239D01*
X9447Y1546989D01*
X9040Y1546729D01*
X8639Y1546460D01*
X8244Y1546180D01*
X7857Y1545892D01*
X7476Y1545593D01*
X7103Y1545286D01*
X6738Y1544970D01*
X6380Y1544645D01*
X6030Y1544312D01*
X5688Y1543970D01*
X5355Y1543620D01*
X5030Y1543262D01*
X4714Y1542897D01*
X4407Y1542524D01*
X4108Y1542143D01*
X3820Y1541756D01*
X3540Y1541361D01*
X3271Y1540960D01*
X3011Y1540553D01*
X2761Y1540139D01*
X2521Y1539720D01*
X2291Y1539294D01*
X2071Y1538864D01*
X1863Y1538428D01*
X1664Y1537987D01*
X1477Y1537542D01*
X1300Y1537092D01*
X1134Y1536638D01*
X979Y1536180D01*
X835Y1535719D01*
X702Y1535254D01*
X581Y1534786D01*
X471Y1534316D01*
X373Y1533843D01*
X285Y1533367D01*
X210Y1532890D01*
X146Y1532411D01*
X93Y1531930D01*
X53Y1531449D01*
X23Y1530966D01*
X6Y1530483D01*
X0Y1530000D01*
X20000Y1549938D02*
X20015Y1549940D01*
X20029Y1549945D01*
X20041Y1549954D01*
X20051Y1549965D01*
X20058Y1549978D01*
X20062Y1549993D01*
X20062Y1550007D01*
X20058Y1550022D01*
X20051Y1550035D01*
X20041Y1550046D01*
X20029Y1550055D01*
X20015Y1550060D01*
X20000Y1550062D01*
X63Y1530000D02*
X61Y1529986D01*
X57Y1529973D01*
X49Y1529961D01*
X39Y1529951D01*
X27Y1529943D01*
X14Y1529939D01*
X0Y1529937D01*
X-14Y1529939D01*
X-27Y1529943D01*
X-39Y1529951D01*
X-49Y1529961D01*
X-57Y1529973D01*
X-61Y1529986D01*
X-63Y1530000D01*
X0Y1530000D02*
X0Y136000D01*
X-63Y136000D02*
X-61Y135986D01*
X-57Y135973D01*
X-49Y135961D01*
X-39Y135951D01*
X-27Y135943D01*
X-14Y135939D01*
X0Y135937D01*
X14Y135939D01*
X27Y135943D01*
X39Y135951D01*
X49Y135961D01*
X57Y135973D01*
X61Y135986D01*
X63Y136000D01*
X63Y1530000D02*
X61Y1530014D01*
X57Y1530027D01*
X49Y1530039D01*
X39Y1530049D01*
X27Y1530057D01*
X14Y1530061D01*
X0Y1530063D01*
X-14Y1530061D01*
X-27Y1530057D01*
X-39Y1530049D01*
X-49Y1530039D01*
X-57Y1530027D01*
X-61Y1530014D01*
X-63Y1530000D01*
X0Y136000D02*
X6Y135517D01*
X23Y135034D01*
X53Y134551D01*
X93Y134070D01*
X146Y133589D01*
X210Y133110D01*
X285Y132633D01*
X373Y132157D01*
X471Y131684D01*
X581Y131214D01*
X702Y130746D01*
X835Y130281D01*
X979Y129820D01*
X1134Y129362D01*
X1300Y128908D01*
X1477Y128458D01*
X1664Y128013D01*
X1863Y127572D01*
X2071Y127136D01*
X2291Y126706D01*
X2521Y126280D01*
X2761Y125861D01*
X3011Y125447D01*
X3271Y125040D01*
X3540Y124639D01*
X3820Y124244D01*
X4108Y123857D01*
X4407Y123476D01*
X4714Y123103D01*
X5030Y122738D01*
X5355Y122380D01*
X5688Y122030D01*
X6030Y121688D01*
X6380Y121355D01*
X6738Y121030D01*
X7103Y120714D01*
X7476Y120407D01*
X7857Y120108D01*
X8244Y119820D01*
X8639Y119540D01*
X9040Y119271D01*
X9447Y119011D01*
X9861Y118761D01*
X10280Y118521D01*
X10706Y118291D01*
X11136Y118071D01*
X11572Y117863D01*
X12013Y117664D01*
X12458Y117477D01*
X12908Y117300D01*
X13362Y117134D01*
X13820Y116979D01*
X14281Y116835D01*
X14746Y116702D01*
X15214Y116581D01*
X15684Y116471D01*
X16157Y116373D01*
X16633Y116285D01*
X17110Y116210D01*
X17589Y116146D01*
X18070Y116093D01*
X18551Y116053D01*
X19034Y116023D01*
X19517Y116006D01*
X20000Y116000D01*
X63Y136000D02*
X61Y136014D01*
X57Y136027D01*
X49Y136039D01*
X39Y136049D01*
X27Y136057D01*
X14Y136061D01*
X0Y136063D01*
X-14Y136061D01*
X-27Y136057D01*
X-39Y136049D01*
X-49Y136039D01*
X-57Y136027D01*
X-61Y136014D01*
X-63Y136000D01*
X20000Y116064D02*
X20014Y116062D01*
X20027Y116058D01*
X20039Y116050D01*
X20049Y116040D01*
X20057Y116028D01*
X20061Y116015D01*
X20063Y116001D01*
X20061Y115987D01*
X20057Y115974D01*
X20049Y115962D01*
X20039Y115952D01*
X20027Y115944D01*
X20014Y115940D01*
X20000Y115938D01*
X20000Y116000D02*
X430000Y116000D01*
X430000Y115938D02*
X430014Y115940D01*
X430027Y115944D01*
X430039Y115952D01*
X430049Y115962D01*
X430057Y115974D01*
X430061Y115987D01*
X430063Y116001D01*
X430061Y116015D01*
X430057Y116028D01*
X430049Y116040D01*
X430039Y116050D01*
X430027Y116058D01*
X430014Y116062D01*
X430000Y116064D01*
X20000Y116064D02*
X19986Y116062D01*
X19973Y116058D01*
X19961Y116050D01*
X19951Y116040D01*
X19943Y116028D01*
X19939Y116015D01*
X19937Y116001D01*
X19939Y115987D01*
X19943Y115974D01*
X19951Y115962D01*
X19961Y115952D01*
X19973Y115944D01*
X19986Y115940D01*
X20000Y115938D01*
X430000Y116000D02*
X430483Y115994D01*
X430966Y115977D01*
X431449Y115947D01*
X431930Y115907D01*
X432411Y115854D01*
X432890Y115790D01*
X433367Y115715D01*
X433843Y115627D01*
X434316Y115529D01*
X434786Y115419D01*
X435254Y115298D01*
X435719Y115165D01*
X436180Y115021D01*
X436638Y114866D01*
X437092Y114700D01*
X437542Y114523D01*
X437987Y114336D01*
X438428Y114137D01*
X438864Y113929D01*
X439294Y113709D01*
X439720Y113479D01*
X440139Y113239D01*
X440553Y112989D01*
X440960Y112729D01*
X441361Y112460D01*
X441756Y112180D01*
X442143Y111892D01*
X442524Y111593D01*
X442897Y111286D01*
X443262Y110970D01*
X443620Y110645D01*
X443970Y110312D01*
X444312Y109970D01*
X444645Y109620D01*
X444970Y109262D01*
X445286Y108897D01*
X445593Y108524D01*
X445892Y108143D01*
X446180Y107756D01*
X446460Y107361D01*
X446729Y106960D01*
X446989Y106553D01*
X447239Y106139D01*
X447479Y105720D01*
X447709Y105294D01*
X447929Y104864D01*
X448137Y104428D01*
X448336Y103987D01*
X448523Y103542D01*
X448700Y103092D01*
X448866Y102638D01*
X449021Y102180D01*
X449165Y101719D01*
X449298Y101254D01*
X449419Y100786D01*
X449529Y100316D01*
X449627Y99843D01*
X449715Y99367D01*
X449790Y98890D01*
X449854Y98411D01*
X449907Y97930D01*
X449947Y97449D01*
X449977Y96966D01*
X449994Y96483D01*
X450000Y96000D01*
X449937Y96000D02*
X449939Y95986D01*
X449943Y95973D01*
X449951Y95961D01*
X449961Y95951D01*
X449973Y95943D01*
X449986Y95939D01*
X450000Y95937D01*
X450014Y95939D01*
X450027Y95943D01*
X450039Y95951D01*
X450049Y95961D01*
X450057Y95973D01*
X450061Y95986D01*
X450063Y96000D01*
X430000Y115938D02*
X429986Y115940D01*
X429973Y115944D01*
X429961Y115952D01*
X429951Y115962D01*
X429943Y115974D01*
X429939Y115987D01*
X429937Y116001D01*
X429939Y116015D01*
X429943Y116028D01*
X429951Y116040D01*
X429961Y116050D01*
X429973Y116058D01*
X429986Y116062D01*
X430000Y116064D01*
X450000Y96000D02*
X450000Y20000D01*
X449937Y20000D02*
X449939Y19986D01*
X449943Y19973D01*
X449951Y19961D01*
X449961Y19951D01*
X449973Y19943D01*
X449986Y19939D01*
X450000Y19937D01*
X450014Y19939D01*
X450027Y19943D01*
X450039Y19951D01*
X450049Y19961D01*
X450057Y19973D01*
X450061Y19986D01*
X450063Y20000D01*
X450063Y96000D02*
X450061Y96014D01*
X450057Y96027D01*
X450049Y96039D01*
X450039Y96049D01*
X450027Y96057D01*
X450014Y96061D01*
X450000Y96063D01*
X449986Y96061D01*
X449973Y96057D01*
X449961Y96049D01*
X449951Y96039D01*
X449943Y96027D01*
X449939Y96014D01*
X449937Y96000D01*
X450000Y20000D02*
X450006Y19517D01*
X450023Y19034D01*
X450053Y18551D01*
X450093Y18070D01*
X450146Y17589D01*
X450210Y17110D01*
X450285Y16633D01*
X450373Y16157D01*
X450471Y15684D01*
X450581Y15214D01*
X450702Y14746D01*
X450835Y14281D01*
X450979Y13820D01*
X451134Y13362D01*
X451300Y12908D01*
X451477Y12458D01*
X451664Y12013D01*
X451863Y11572D01*
X452071Y11136D01*
X452291Y10706D01*
X452521Y10280D01*
X452761Y9861D01*
X453011Y9447D01*
X453271Y9040D01*
X453540Y8639D01*
X453820Y8244D01*
X454108Y7857D01*
X454407Y7476D01*
X454714Y7103D01*
X455030Y6738D01*
X455355Y6380D01*
X455688Y6030D01*
X456030Y5688D01*
X456380Y5355D01*
X456738Y5030D01*
X457103Y4714D01*
X457476Y4407D01*
X457857Y4108D01*
X458244Y3820D01*
X458639Y3540D01*
X459040Y3271D01*
X459447Y3011D01*
X459861Y2761D01*
X460280Y2521D01*
X460706Y2291D01*
X461136Y2071D01*
X461572Y1863D01*
X462013Y1664D01*
X462458Y1477D01*
X462908Y1300D01*
X463362Y1134D01*
X463820Y979D01*
X464281Y835D01*
X464746Y702D01*
X465214Y581D01*
X465684Y471D01*
X466157Y373D01*
X466633Y285D01*
X467110Y210D01*
X467589Y146D01*
X468070Y93D01*
X468551Y53D01*
X469034Y23D01*
X469517Y6D01*
X470000Y0D01*
X450063Y20000D02*
X450061Y20014D01*
X450057Y20027D01*
X450049Y20039D01*
X450039Y20049D01*
X450027Y20057D01*
X450014Y20061D01*
X450000Y20063D01*
X449986Y20061D01*
X449973Y20057D01*
X449961Y20049D01*
X449951Y20039D01*
X449943Y20027D01*
X449939Y20014D01*
X449937Y20000D01*
X470000Y63D02*
X470014Y61D01*
X470027Y57D01*
X470039Y49D01*
X470049Y39D01*
X470057Y27D01*
X470061Y14D01*
X470063Y0D01*
X470061Y-14D01*
X470057Y-27D01*
X470049Y-39D01*
X470039Y-49D01*
X470027Y-57D01*
X470014Y-61D01*
X470000Y-63D01*
X470000Y0D02*
X1052340Y0D01*
X1052340Y-63D02*
X1052354Y-61D01*
X1052367Y-57D01*
X1052379Y-49D01*
X1052389Y-39D01*
X1052397Y-27D01*
X1052401Y-14D01*
X1052403Y0D01*
X1052401Y14D01*
X1052397Y27D01*
X1052389Y39D01*
X1052379Y49D01*
X1052367Y57D01*
X1052354Y61D01*
X1052340Y63D01*
X470000Y63D02*
X469986Y61D01*
X469973Y57D01*
X469961Y49D01*
X469951Y39D01*
X469943Y27D01*
X469939Y14D01*
X469937Y0D01*
X469939Y-14D01*
X469943Y-27D01*
X469951Y-39D01*
X469961Y-49D01*
X469973Y-57D01*
X469986Y-61D01*
X470000Y-63D01*
X1052340Y0D02*
X1052823Y6D01*
X1053306Y23D01*
X1053789Y53D01*
X1054270Y93D01*
X1054751Y146D01*
X1055230Y210D01*
X1055707Y285D01*
X1056183Y373D01*
X1056656Y471D01*
X1057126Y581D01*
X1057594Y702D01*
X1058059Y835D01*
X1058520Y979D01*
X1058978Y1134D01*
X1059432Y1300D01*
X1059882Y1477D01*
X1060327Y1664D01*
X1060768Y1863D01*
X1061204Y2071D01*
X1061634Y2291D01*
X1062060Y2521D01*
X1062479Y2761D01*
X1062893Y3011D01*
X1063300Y3271D01*
X1063701Y3540D01*
X1064096Y3820D01*
X1064483Y4108D01*
X1064864Y4407D01*
X1065237Y4714D01*
X1065602Y5030D01*
X1065960Y5355D01*
X1066310Y5688D01*
X1066652Y6030D01*
X1066985Y6380D01*
X1067310Y6738D01*
X1067626Y7103D01*
X1067933Y7476D01*
X1068232Y7857D01*
X1068520Y8244D01*
X1068800Y8639D01*
X1069069Y9040D01*
X1069329Y9447D01*
X1069579Y9861D01*
X1069819Y10280D01*
X1070049Y10706D01*
X1070269Y11136D01*
X1070477Y11572D01*
X1070676Y12013D01*
X1070863Y12458D01*
X1071040Y12908D01*
X1071206Y13362D01*
X1071361Y13820D01*
X1071505Y14281D01*
X1071638Y14746D01*
X1071759Y15214D01*
X1071869Y15684D01*
X1071967Y16157D01*
X1072055Y16633D01*
X1072130Y17110D01*
X1072194Y17589D01*
X1072247Y18070D01*
X1072287Y18551D01*
X1072317Y19034D01*
X1072334Y19517D01*
X1072340Y20000D01*
X1052340Y63D02*
X1052326Y61D01*
X1052313Y57D01*
X1052301Y49D01*
X1052291Y39D01*
X1052283Y27D01*
X1052279Y14D01*
X1052277Y0D01*
X1052279Y-14D01*
X1052283Y-27D01*
X1052291Y-39D01*
X1052301Y-49D01*
X1052313Y-57D01*
X1052326Y-61D01*
X1052340Y-63D01*
X1072278Y20000D02*
X1072280Y20014D01*
X1072284Y20027D01*
X1072292Y20039D01*
X1072302Y20049D01*
X1072314Y20057D01*
X1072327Y20061D01*
X1072341Y20063D01*
X1072355Y20061D01*
X1072368Y20057D01*
X1072380Y20049D01*
X1072390Y20039D01*
X1072398Y20027D01*
X1072402Y20014D01*
X1072404Y20000D01*
X1072340Y20000D02*
X1072340Y70006D01*
X1072278Y70006D02*
X1072280Y70020D01*
X1072284Y70033D01*
X1072292Y70045D01*
X1072302Y70055D01*
X1072314Y70063D01*
X1072327Y70067D01*
X1072341Y70069D01*
X1072355Y70067D01*
X1072368Y70063D01*
X1072380Y70055D01*
X1072390Y70045D01*
X1072398Y70033D01*
X1072402Y70020D01*
X1072404Y70006D01*
X1072278Y20000D02*
X1072280Y19986D01*
X1072284Y19973D01*
X1072292Y19961D01*
X1072302Y19951D01*
X1072314Y19943D01*
X1072327Y19939D01*
X1072341Y19937D01*
X1072355Y19939D01*
X1072368Y19943D01*
X1072380Y19951D01*
X1072390Y19961D01*
X1072398Y19973D01*
X1072402Y19986D01*
X1072404Y20000D01*
X1072340Y70006D02*
X1072353Y71117D01*
X1072394Y72227D01*
X1072461Y73336D01*
X1072555Y74443D01*
X1072675Y75548D01*
X1072822Y76649D01*
X1072996Y77746D01*
X1073196Y78839D01*
X1073423Y79926D01*
X1073676Y81008D01*
X1073955Y82084D01*
X1074260Y83152D01*
X1074590Y84213D01*
X1074946Y85265D01*
X1075328Y86309D01*
X1075734Y87343D01*
X1076165Y88366D01*
X1076621Y89379D01*
X1077102Y90381D01*
X1077606Y91371D01*
X1078134Y92349D01*
X1078686Y93313D01*
X1079261Y94264D01*
X1079858Y95200D01*
X1080478Y96122D01*
X1081120Y97029D01*
X1081784Y97920D01*
X1082469Y98794D01*
X1083175Y99652D01*
X1083902Y100492D01*
X1084649Y101315D01*
X1085415Y102119D01*
X1086201Y102905D01*
X1087005Y103671D01*
X1087828Y104418D01*
X1088668Y105145D01*
X1089526Y105851D01*
X1090400Y106536D01*
X1091291Y107200D01*
X1092198Y107842D01*
X1093120Y108462D01*
X1094056Y109059D01*
X1095007Y109634D01*
X1095971Y110186D01*
X1096949Y110714D01*
X1097939Y111218D01*
X1098941Y111699D01*
X1099954Y112155D01*
X1100977Y112586D01*
X1102011Y112992D01*
X1103055Y113374D01*
X1104107Y113730D01*
X1105168Y114060D01*
X1106236Y114365D01*
X1107312Y114644D01*
X1108394Y114897D01*
X1109481Y115124D01*
X1110574Y115324D01*
X1111671Y115498D01*
X1112772Y115645D01*
X1113877Y115765D01*
X1114984Y115859D01*
X1116093Y115926D01*
X1117203Y115967D01*
X1118314Y115980D01*
X1118314Y115918D02*
X1118328Y115920D01*
X1118341Y115924D01*
X1118353Y115932D01*
X1118363Y115942D01*
X1118371Y115954D01*
X1118375Y115967D01*
X1118377Y115981D01*
X1118375Y115995D01*
X1118371Y116008D01*
X1118363Y116020D01*
X1118353Y116030D01*
X1118341Y116038D01*
X1118328Y116042D01*
X1118314Y116044D01*
X1072404Y70006D02*
X1072402Y69992D01*
X1072398Y69979D01*
X1072390Y69967D01*
X1072380Y69957D01*
X1072368Y69949D01*
X1072355Y69945D01*
X1072341Y69943D01*
X1072327Y69945D01*
X1072314Y69949D01*
X1072302Y69957D01*
X1072292Y69967D01*
X1072284Y69979D01*
X1072280Y69992D01*
X1072278Y70006D01*
X150033Y141350D02*
X150420Y141355D01*
X150806Y141369D01*
X151192Y141392D01*
X151577Y141425D01*
X151961Y141468D01*
X152344Y141519D01*
X152726Y141580D01*
X153106Y141650D01*
X153485Y141730D01*
X153861Y141818D01*
X154235Y141916D01*
X154607Y142023D01*
X154975Y142139D01*
X155341Y142264D01*
X155704Y142397D01*
X156063Y142540D01*
X156419Y142691D01*
X156771Y142851D01*
X157119Y143019D01*
X157463Y143196D01*
X157803Y143381D01*
X158137Y143575D01*
X158467Y143776D01*
X158792Y143985D01*
X159112Y144203D01*
X159427Y144427D01*
X159735Y144660D01*
X160038Y144900D01*
X160336Y145147D01*
X160627Y145402D01*
X160911Y145663D01*
X161190Y145932D01*
X161461Y146207D01*
X161726Y146488D01*
X161984Y146776D01*
X162235Y147070D01*
X162479Y147370D01*
X162715Y147676D01*
X162944Y147988D01*
X163165Y148305D01*
X163378Y148628D01*
X163584Y148955D01*
X163781Y149288D01*
X163970Y149625D01*
X164151Y149966D01*
X164324Y150312D01*
X164488Y150662D01*
X164643Y151016D01*
X164790Y151374D01*
X164928Y151735D01*
X165058Y152099D01*
X165178Y152467D01*
X165289Y152837D01*
X165392Y153210D01*
X165485Y153585D01*
X165569Y153962D01*
X165644Y154342D01*
X165710Y154723D01*
X165766Y155105D01*
X165813Y155489D01*
X165850Y155874D01*
X165879Y156259D01*
X165897Y156645D01*
X165907Y157032D01*
X165907Y157418D01*
X165897Y157805D01*
X165879Y158191D01*
X165850Y158576D01*
X165813Y158961D01*
X165766Y159345D01*
X165710Y159727D01*
X165644Y160108D01*
X165569Y160488D01*
X165485Y160865D01*
X165392Y161240D01*
X165289Y161613D01*
X165178Y161983D01*
X165058Y162351D01*
X164928Y162715D01*
X164790Y163076D01*
X164643Y163434D01*
X164488Y163788D01*
X164324Y164138D01*
X164151Y164484D01*
X163970Y164825D01*
X163781Y165163D01*
X163584Y165495D01*
X163378Y165822D01*
X163165Y166145D01*
X162944Y166462D01*
X162715Y166774D01*
X162479Y167080D01*
X162235Y167380D01*
X161984Y167674D01*
X161726Y167962D01*
X161461Y168243D01*
X161190Y168518D01*
X160911Y168787D01*
X160627Y169048D01*
X160336Y169303D01*
X160038Y169550D01*
X159735Y169790D01*
X159427Y170023D01*
X159112Y170247D01*
X158792Y170465D01*
X158467Y170674D01*
X158137Y170875D01*
X157803Y171069D01*
X157463Y171254D01*
X157119Y171431D01*
X156771Y171599D01*
X156419Y171759D01*
X156063Y171910D01*
X155704Y172053D01*
X155341Y172186D01*
X154975Y172311D01*
X154607Y172427D01*
X154235Y172534D01*
X153861Y172632D01*
X153485Y172720D01*
X153106Y172800D01*
X152726Y172870D01*
X152344Y172931D01*
X151961Y172982D01*
X151577Y173025D01*
X151192Y173058D01*
X150806Y173081D01*
X150420Y173095D01*
X150033Y173100D01*
X149646Y173095D01*
X149260Y173081D01*
X148874Y173058D01*
X148489Y173025D01*
X148105Y172982D01*
X147722Y172931D01*
X147340Y172870D01*
X146960Y172800D01*
X146581Y172720D01*
X146205Y172632D01*
X145831Y172534D01*
X145459Y172427D01*
X145091Y172311D01*
X144725Y172186D01*
X144362Y172053D01*
X144003Y171910D01*
X143647Y171759D01*
X143295Y171599D01*
X142947Y171431D01*
X142603Y171254D01*
X142263Y171069D01*
X141929Y170875D01*
X141599Y170674D01*
X141274Y170465D01*
X140954Y170247D01*
X140639Y170023D01*
X140331Y169790D01*
X140028Y169550D01*
X139730Y169303D01*
X139439Y169048D01*
X139155Y168787D01*
X138876Y168518D01*
X138605Y168243D01*
X138340Y167962D01*
X138082Y167674D01*
X137831Y167380D01*
X137587Y167080D01*
X137351Y166774D01*
X137122Y166462D01*
X136901Y166145D01*
X136688Y165822D01*
X136482Y165495D01*
X136285Y165163D01*
X136096Y164825D01*
X135915Y164484D01*
X135742Y164138D01*
X135578Y163788D01*
X135423Y163434D01*
X135276Y163076D01*
X135138Y162715D01*
X135008Y162351D01*
X134888Y161983D01*
X134777Y161613D01*
X134674Y161240D01*
X134581Y160865D01*
X134497Y160488D01*
X134422Y160108D01*
X134356Y159727D01*
X134300Y159345D01*
X134253Y158961D01*
X134216Y158576D01*
X134187Y158191D01*
X134169Y157805D01*
X134159Y157418D01*
X134159Y157032D01*
X134169Y156645D01*
X134187Y156259D01*
X134216Y155874D01*
X134253Y155489D01*
X134300Y155105D01*
X134356Y154723D01*
X134422Y154342D01*
X134497Y153962D01*
X134581Y153585D01*
X134674Y153210D01*
X134777Y152837D01*
X134888Y152467D01*
X135008Y152099D01*
X135138Y151735D01*
X135276Y151374D01*
X135423Y151016D01*
X135578Y150662D01*
X135742Y150312D01*
X135915Y149966D01*
X136096Y149625D01*
X136285Y149287D01*
X136482Y148955D01*
X136688Y148628D01*
X136901Y148305D01*
X137122Y147988D01*
X137351Y147676D01*
X137587Y147370D01*
X137831Y147070D01*
X138082Y146776D01*
X138340Y146488D01*
X138605Y146207D01*
X138876Y145932D01*
X139155Y145663D01*
X139439Y145402D01*
X139730Y145147D01*
X140028Y144900D01*
X140331Y144660D01*
X140639Y144427D01*
X140954Y144203D01*
X141274Y143985D01*
X141599Y143776D01*
X141929Y143575D01*
X142263Y143381D01*
X142603Y143196D01*
X142947Y143019D01*
X143295Y142851D01*
X143647Y142691D01*
X144003Y142540D01*
X144362Y142397D01*
X144725Y142264D01*
X145091Y142139D01*
X145459Y142023D01*
X145831Y141916D01*
X146205Y141818D01*
X146581Y141730D01*
X146960Y141650D01*
X147340Y141580D01*
X147722Y141519D01*
X148105Y141468D01*
X148489Y141425D01*
X148874Y141392D01*
X149260Y141369D01*
X149646Y141355D01*
X150033Y141350D01*
X1030905Y141350D02*
X1031292Y141355D01*
X1031678Y141369D01*
X1032064Y141392D01*
X1032449Y141425D01*
X1032833Y141468D01*
X1033216Y141519D01*
X1033598Y141580D01*
X1033978Y141650D01*
X1034357Y141730D01*
X1034733Y141818D01*
X1035107Y141916D01*
X1035479Y142023D01*
X1035847Y142139D01*
X1036213Y142264D01*
X1036576Y142397D01*
X1036935Y142540D01*
X1037291Y142691D01*
X1037643Y142851D01*
X1037991Y143019D01*
X1038335Y143196D01*
X1038675Y143381D01*
X1039009Y143575D01*
X1039339Y143776D01*
X1039664Y143985D01*
X1039984Y144203D01*
X1040299Y144427D01*
X1040607Y144660D01*
X1040910Y144900D01*
X1041208Y145147D01*
X1041499Y145402D01*
X1041783Y145663D01*
X1042062Y145932D01*
X1042333Y146207D01*
X1042598Y146488D01*
X1042856Y146776D01*
X1043107Y147070D01*
X1043351Y147370D01*
X1043587Y147676D01*
X1043816Y147988D01*
X1044037Y148305D01*
X1044250Y148628D01*
X1044456Y148955D01*
X1044653Y149288D01*
X1044842Y149625D01*
X1045023Y149966D01*
X1045196Y150312D01*
X1045360Y150662D01*
X1045515Y151016D01*
X1045662Y151374D01*
X1045800Y151735D01*
X1045930Y152099D01*
X1046050Y152467D01*
X1046161Y152837D01*
X1046264Y153210D01*
X1046357Y153585D01*
X1046441Y153962D01*
X1046516Y154342D01*
X1046582Y154723D01*
X1046638Y155105D01*
X1046685Y155489D01*
X1046722Y155874D01*
X1046751Y156259D01*
X1046769Y156645D01*
X1046779Y157032D01*
X1046779Y157418D01*
X1046769Y157805D01*
X1046751Y158191D01*
X1046722Y158576D01*
X1046685Y158961D01*
X1046638Y159345D01*
X1046582Y159727D01*
X1046516Y160108D01*
X1046441Y160488D01*
X1046357Y160865D01*
X1046264Y161240D01*
X1046161Y161613D01*
X1046050Y161983D01*
X1045930Y162351D01*
X1045800Y162715D01*
X1045662Y163076D01*
X1045515Y163434D01*
X1045360Y163788D01*
X1045196Y164138D01*
X1045023Y164484D01*
X1044842Y164825D01*
X1044653Y165163D01*
X1044456Y165495D01*
X1044250Y165822D01*
X1044037Y166145D01*
X1043816Y166462D01*
X1043587Y166774D01*
X1043351Y167080D01*
X1043107Y167380D01*
X1042856Y167674D01*
X1042598Y167962D01*
X1042333Y168243D01*
X1042062Y168518D01*
X1041783Y168787D01*
X1041499Y169048D01*
X1041208Y169303D01*
X1040910Y169550D01*
X1040607Y169790D01*
X1040299Y170023D01*
X1039984Y170247D01*
X1039664Y170465D01*
X1039339Y170674D01*
X1039009Y170875D01*
X1038675Y171069D01*
X1038335Y171254D01*
X1037991Y171431D01*
X1037643Y171599D01*
X1037291Y171759D01*
X1036935Y171910D01*
X1036576Y172053D01*
X1036213Y172186D01*
X1035847Y172311D01*
X1035479Y172427D01*
X1035107Y172534D01*
X1034733Y172632D01*
X1034357Y172720D01*
X1033978Y172800D01*
X1033598Y172870D01*
X1033216Y172931D01*
X1032833Y172982D01*
X1032449Y173025D01*
X1032064Y173058D01*
X1031678Y173081D01*
X1031292Y173095D01*
X1030905Y173100D01*
X1030518Y173095D01*
X1030132Y173081D01*
X1029746Y173058D01*
X1029361Y173025D01*
X1028977Y172982D01*
X1028594Y172931D01*
X1028212Y172870D01*
X1027832Y172800D01*
X1027453Y172720D01*
X1027077Y172632D01*
X1026703Y172534D01*
X1026331Y172427D01*
X1025963Y172311D01*
X1025597Y172186D01*
X1025234Y172053D01*
X1024875Y171910D01*
X1024519Y171759D01*
X1024167Y171599D01*
X1023819Y171431D01*
X1023475Y171254D01*
X1023135Y171069D01*
X1022801Y170875D01*
X1022471Y170674D01*
X1022146Y170465D01*
X1021826Y170247D01*
X1021511Y170023D01*
X1021203Y169790D01*
X1020900Y169550D01*
X1020602Y169303D01*
X1020311Y169048D01*
X1020027Y168787D01*
X1019748Y168518D01*
X1019477Y168243D01*
X1019212Y167962D01*
X1018954Y167674D01*
X1018703Y167380D01*
X1018459Y167080D01*
X1018223Y166774D01*
X1017994Y166462D01*
X1017773Y166145D01*
X1017560Y165822D01*
X1017354Y165495D01*
X1017157Y165163D01*
X1016968Y164825D01*
X1016787Y164484D01*
X1016614Y164138D01*
X1016450Y163788D01*
X1016295Y163434D01*
X1016148Y163076D01*
X1016010Y162715D01*
X1015880Y162351D01*
X1015760Y161983D01*
X1015649Y161613D01*
X1015546Y161240D01*
X1015453Y160865D01*
X1015369Y160488D01*
X1015294Y160108D01*
X1015228Y159727D01*
X1015172Y159345D01*
X1015125Y158961D01*
X1015088Y158576D01*
X1015059Y158191D01*
X1015041Y157805D01*
X1015031Y157418D01*
X1015031Y157032D01*
X1015041Y156645D01*
X1015059Y156259D01*
X1015088Y155874D01*
X1015125Y155489D01*
X1015172Y155105D01*
X1015228Y154723D01*
X1015294Y154342D01*
X1015369Y153962D01*
X1015453Y153585D01*
X1015546Y153210D01*
X1015649Y152837D01*
X1015760Y152467D01*
X1015880Y152099D01*
X1016010Y151735D01*
X1016148Y151374D01*
X1016295Y151016D01*
X1016450Y150662D01*
X1016614Y150312D01*
X1016787Y149966D01*
X1016968Y149625D01*
X1017157Y149287D01*
X1017354Y148955D01*
X1017560Y148628D01*
X1017773Y148305D01*
X1017994Y147988D01*
X1018223Y147676D01*
X1018459Y147370D01*
X1018703Y147070D01*
X1018954Y146776D01*
X1019212Y146488D01*
X1019477Y146207D01*
X1019748Y145932D01*
X1020027Y145663D01*
X1020311Y145402D01*
X1020602Y145147D01*
X1020900Y144900D01*
X1021203Y144660D01*
X1021511Y144427D01*
X1021826Y144203D01*
X1022146Y143985D01*
X1022471Y143776D01*
X1022801Y143575D01*
X1023135Y143381D01*
X1023475Y143196D01*
X1023819Y143019D01*
X1024167Y142851D01*
X1024519Y142691D01*
X1024875Y142540D01*
X1025234Y142397D01*
X1025597Y142264D01*
X1025963Y142139D01*
X1026331Y142023D01*
X1026703Y141916D01*
X1027077Y141818D01*
X1027453Y141730D01*
X1027832Y141650D01*
X1028212Y141580D01*
X1028594Y141519D01*
X1028977Y141468D01*
X1029361Y141425D01*
X1029746Y141392D01*
X1030132Y141369D01*
X1030518Y141355D01*
X1030905Y141350D01*
X150033Y1593913D02*
X150420Y1593918D01*
X150806Y1593932D01*
X151192Y1593955D01*
X151577Y1593988D01*
X151961Y1594031D01*
X152344Y1594082D01*
X152726Y1594143D01*
X153106Y1594213D01*
X153485Y1594293D01*
X153861Y1594381D01*
X154235Y1594479D01*
X154607Y1594586D01*
X154975Y1594702D01*
X155341Y1594827D01*
X155704Y1594960D01*
X156063Y1595103D01*
X156419Y1595254D01*
X156771Y1595414D01*
X157119Y1595582D01*
X157463Y1595759D01*
X157803Y1595944D01*
X158137Y1596138D01*
X158467Y1596339D01*
X158792Y1596548D01*
X159112Y1596766D01*
X159427Y1596990D01*
X159735Y1597223D01*
X160038Y1597463D01*
X160336Y1597710D01*
X160627Y1597965D01*
X160911Y1598226D01*
X161190Y1598495D01*
X161461Y1598770D01*
X161726Y1599051D01*
X161984Y1599339D01*
X162235Y1599633D01*
X162479Y1599933D01*
X162715Y1600239D01*
X162944Y1600551D01*
X163165Y1600868D01*
X163378Y1601191D01*
X163584Y1601518D01*
X163781Y1601851D01*
X163970Y1602188D01*
X164151Y1602529D01*
X164324Y1602875D01*
X164488Y1603225D01*
X164643Y1603579D01*
X164790Y1603937D01*
X164928Y1604298D01*
X165058Y1604662D01*
X165178Y1605030D01*
X165289Y1605400D01*
X165392Y1605773D01*
X165485Y1606148D01*
X165569Y1606525D01*
X165644Y1606905D01*
X165710Y1607286D01*
X165766Y1607668D01*
X165813Y1608052D01*
X165850Y1608437D01*
X165879Y1608822D01*
X165897Y1609208D01*
X165907Y1609595D01*
X165907Y1609981D01*
X165897Y1610368D01*
X165879Y1610754D01*
X165850Y1611139D01*
X165813Y1611524D01*
X165766Y1611908D01*
X165710Y1612290D01*
X165644Y1612671D01*
X165569Y1613051D01*
X165485Y1613428D01*
X165392Y1613803D01*
X165289Y1614176D01*
X165178Y1614546D01*
X165058Y1614914D01*
X164928Y1615278D01*
X164790Y1615639D01*
X164643Y1615997D01*
X164488Y1616351D01*
X164324Y1616701D01*
X164151Y1617047D01*
X163970Y1617388D01*
X163781Y1617726D01*
X163584Y1618058D01*
X163378Y1618385D01*
X163165Y1618708D01*
X162944Y1619025D01*
X162715Y1619337D01*
X162479Y1619643D01*
X162235Y1619943D01*
X161984Y1620237D01*
X161726Y1620525D01*
X161461Y1620806D01*
X161190Y1621081D01*
X160911Y1621350D01*
X160627Y1621611D01*
X160336Y1621866D01*
X160038Y1622113D01*
X159735Y1622353D01*
X159427Y1622586D01*
X159112Y1622810D01*
X158792Y1623028D01*
X158467Y1623237D01*
X158137Y1623438D01*
X157803Y1623632D01*
X157463Y1623817D01*
X157119Y1623994D01*
X156771Y1624162D01*
X156419Y1624322D01*
X156063Y1624473D01*
X155704Y1624616D01*
X155341Y1624749D01*
X154975Y1624874D01*
X154607Y1624990D01*
X154235Y1625097D01*
X153861Y1625195D01*
X153485Y1625283D01*
X153106Y1625363D01*
X152726Y1625433D01*
X152344Y1625494D01*
X151961Y1625545D01*
X151577Y1625588D01*
X151192Y1625621D01*
X150806Y1625644D01*
X150420Y1625658D01*
X150033Y1625663D01*
X149646Y1625658D01*
X149260Y1625644D01*
X148874Y1625621D01*
X148489Y1625588D01*
X148105Y1625545D01*
X147722Y1625494D01*
X147340Y1625433D01*
X146960Y1625363D01*
X146581Y1625283D01*
X146205Y1625195D01*
X145831Y1625097D01*
X145459Y1624990D01*
X145091Y1624874D01*
X144725Y1624749D01*
X144362Y1624616D01*
X144003Y1624473D01*
X143647Y1624322D01*
X143295Y1624162D01*
X142947Y1623994D01*
X142603Y1623817D01*
X142263Y1623632D01*
X141929Y1623438D01*
X141599Y1623237D01*
X141274Y1623028D01*
X140954Y1622810D01*
X140639Y1622586D01*
X140331Y1622353D01*
X140028Y1622113D01*
X139730Y1621866D01*
X139439Y1621611D01*
X139155Y1621350D01*
X138876Y1621081D01*
X138605Y1620806D01*
X138340Y1620525D01*
X138082Y1620237D01*
X137831Y1619943D01*
X137587Y1619643D01*
X137351Y1619337D01*
X137122Y1619025D01*
X136901Y1618708D01*
X136688Y1618385D01*
X136482Y1618058D01*
X136285Y1617726D01*
X136096Y1617388D01*
X135915Y1617047D01*
X135742Y1616701D01*
X135578Y1616351D01*
X135423Y1615997D01*
X135276Y1615639D01*
X135138Y1615278D01*
X135008Y1614914D01*
X134888Y1614546D01*
X134777Y1614176D01*
X134674Y1613803D01*
X134581Y1613428D01*
X134497Y1613051D01*
X134422Y1612671D01*
X134356Y1612290D01*
X134300Y1611908D01*
X134253Y1611524D01*
X134216Y1611139D01*
X134187Y1610754D01*
X134169Y1610368D01*
X134159Y1609981D01*
X134159Y1609595D01*
X134169Y1609208D01*
X134187Y1608822D01*
X134216Y1608437D01*
X134253Y1608052D01*
X134300Y1607668D01*
X134356Y1607286D01*
X134422Y1606905D01*
X134497Y1606525D01*
X134581Y1606148D01*
X134674Y1605773D01*
X134777Y1605400D01*
X134888Y1605030D01*
X135008Y1604662D01*
X135138Y1604298D01*
X135276Y1603937D01*
X135423Y1603579D01*
X135578Y1603225D01*
X135742Y1602875D01*
X135915Y1602529D01*
X136096Y1602188D01*
X136285Y1601851D01*
X136482Y1601518D01*
X136688Y1601191D01*
X136901Y1600868D01*
X137122Y1600551D01*
X137351Y1600239D01*
X137587Y1599933D01*
X137831Y1599633D01*
X138082Y1599339D01*
X138340Y1599051D01*
X138605Y1598770D01*
X138876Y1598495D01*
X139155Y1598226D01*
X139439Y1597965D01*
X139730Y1597710D01*
X140028Y1597463D01*
X140331Y1597223D01*
X140639Y1596990D01*
X140954Y1596766D01*
X141274Y1596548D01*
X141599Y1596339D01*
X141929Y1596138D01*
X142263Y1595944D01*
X142603Y1595759D01*
X142947Y1595582D01*
X143295Y1595414D01*
X143647Y1595254D01*
X144003Y1595103D01*
X144362Y1594960D01*
X144725Y1594827D01*
X145091Y1594702D01*
X145459Y1594586D01*
X145831Y1594479D01*
X146205Y1594381D01*
X146581Y1594293D01*
X146960Y1594213D01*
X147340Y1594143D01*
X147722Y1594082D01*
X148105Y1594031D01*
X148489Y1593988D01*
X148874Y1593955D01*
X149260Y1593932D01*
X149646Y1593918D01*
X150033Y1593913D01*
X1030905Y1593913D02*
X1031292Y1593918D01*
X1031678Y1593932D01*
X1032064Y1593955D01*
X1032449Y1593988D01*
X1032833Y1594031D01*
X1033216Y1594082D01*
X1033598Y1594143D01*
X1033978Y1594213D01*
X1034357Y1594293D01*
X1034733Y1594381D01*
X1035107Y1594479D01*
X1035479Y1594586D01*
X1035847Y1594702D01*
X1036213Y1594827D01*
X1036576Y1594960D01*
X1036935Y1595103D01*
X1037291Y1595254D01*
X1037643Y1595414D01*
X1037991Y1595582D01*
X1038335Y1595759D01*
X1038675Y1595944D01*
X1039009Y1596138D01*
X1039339Y1596339D01*
X1039664Y1596548D01*
X1039984Y1596766D01*
X1040299Y1596990D01*
X1040607Y1597223D01*
X1040910Y1597463D01*
X1041208Y1597710D01*
X1041499Y1597965D01*
X1041783Y1598226D01*
X1042062Y1598495D01*
X1042333Y1598770D01*
X1042598Y1599051D01*
X1042856Y1599339D01*
X1043107Y1599633D01*
X1043351Y1599933D01*
X1043587Y1600239D01*
X1043816Y1600551D01*
X1044037Y1600868D01*
X1044250Y1601191D01*
X1044456Y1601518D01*
X1044653Y1601851D01*
X1044842Y1602188D01*
X1045023Y1602529D01*
X1045196Y1602875D01*
X1045360Y1603225D01*
X1045515Y1603579D01*
X1045662Y1603937D01*
X1045800Y1604298D01*
X1045930Y1604662D01*
X1046050Y1605030D01*
X1046161Y1605400D01*
X1046264Y1605773D01*
X1046357Y1606148D01*
X1046441Y1606525D01*
X1046516Y1606905D01*
X1046582Y1607286D01*
X1046638Y1607668D01*
X1046685Y1608052D01*
X1046722Y1608437D01*
X1046751Y1608822D01*
X1046769Y1609208D01*
X1046779Y1609595D01*
X1046779Y1609981D01*
X1046769Y1610368D01*
X1046751Y1610754D01*
X1046722Y1611139D01*
X1046685Y1611524D01*
X1046638Y1611908D01*
X1046582Y1612290D01*
X1046516Y1612671D01*
X1046441Y1613051D01*
X1046357Y1613428D01*
X1046264Y1613803D01*
X1046161Y1614176D01*
X1046050Y1614546D01*
X1045930Y1614914D01*
X1045800Y1615278D01*
X1045662Y1615639D01*
X1045515Y1615997D01*
X1045360Y1616351D01*
X1045196Y1616701D01*
X1045023Y1617047D01*
X1044842Y1617388D01*
X1044653Y1617726D01*
X1044456Y1618058D01*
X1044250Y1618385D01*
X1044037Y1618708D01*
X1043816Y1619025D01*
X1043587Y1619337D01*
X1043351Y1619643D01*
X1043107Y1619943D01*
X1042856Y1620237D01*
X1042598Y1620525D01*
X1042333Y1620806D01*
X1042062Y1621081D01*
X1041783Y1621350D01*
X1041499Y1621611D01*
X1041208Y1621866D01*
X1040910Y1622113D01*
X1040607Y1622353D01*
X1040299Y1622586D01*
X1039984Y1622810D01*
X1039664Y1623028D01*
X1039339Y1623237D01*
X1039009Y1623438D01*
X1038675Y1623632D01*
X1038335Y1623817D01*
X1037991Y1623994D01*
X1037643Y1624162D01*
X1037291Y1624322D01*
X1036935Y1624473D01*
X1036576Y1624616D01*
X1036213Y1624749D01*
X1035847Y1624874D01*
X1035479Y1624990D01*
X1035107Y1625097D01*
X1034733Y1625195D01*
X1034357Y1625283D01*
X1033978Y1625363D01*
X1033598Y1625433D01*
X1033216Y1625494D01*
X1032833Y1625545D01*
X1032449Y1625588D01*
X1032064Y1625621D01*
X1031678Y1625644D01*
X1031292Y1625658D01*
X1030905Y1625663D01*
X1030518Y1625658D01*
X1030132Y1625644D01*
X1029746Y1625621D01*
X1029361Y1625588D01*
X1028977Y1625545D01*
X1028594Y1625494D01*
X1028212Y1625433D01*
X1027832Y1625363D01*
X1027453Y1625283D01*
X1027077Y1625195D01*
X1026703Y1625097D01*
X1026331Y1624990D01*
X1025963Y1624874D01*
X1025597Y1624749D01*
X1025234Y1624616D01*
X1024875Y1624473D01*
X1024519Y1624322D01*
X1024167Y1624162D01*
X1023819Y1623994D01*
X1023475Y1623817D01*
X1023135Y1623632D01*
X1022801Y1623438D01*
X1022471Y1623237D01*
X1022146Y1623028D01*
X1021826Y1622810D01*
X1021511Y1622586D01*
X1021203Y1622353D01*
X1020900Y1622113D01*
X1020602Y1621866D01*
X1020311Y1621611D01*
X1020027Y1621350D01*
X1019748Y1621081D01*
X1019477Y1620806D01*
X1019212Y1620525D01*
X1018954Y1620237D01*
X1018703Y1619943D01*
X1018459Y1619643D01*
X1018223Y1619337D01*
X1017994Y1619025D01*
X1017773Y1618708D01*
X1017560Y1618385D01*
X1017354Y1618058D01*
X1017157Y1617726D01*
X1016968Y1617388D01*
X1016787Y1617047D01*
X1016614Y1616701D01*
X1016450Y1616351D01*
X1016295Y1615997D01*
X1016148Y1615639D01*
X1016010Y1615278D01*
X1015880Y1614914D01*
X1015760Y1614546D01*
X1015649Y1614176D01*
X1015546Y1613803D01*
X1015453Y1613428D01*
X1015369Y1613051D01*
X1015294Y1612671D01*
X1015228Y1612290D01*
X1015172Y1611908D01*
X1015125Y1611524D01*
X1015088Y1611139D01*
X1015059Y1610754D01*
X1015041Y1610368D01*
X1015031Y1609981D01*
X1015031Y1609595D01*
X1015041Y1609208D01*
X1015059Y1608822D01*
X1015088Y1608437D01*
X1015125Y1608052D01*
X1015172Y1607668D01*
X1015228Y1607286D01*
X1015294Y1606905D01*
X1015369Y1606525D01*
X1015453Y1606148D01*
X1015546Y1605773D01*
X1015649Y1605400D01*
X1015760Y1605030D01*
X1015880Y1604662D01*
X1016010Y1604298D01*
X1016148Y1603937D01*
X1016295Y1603579D01*
X1016450Y1603225D01*
X1016614Y1602875D01*
X1016787Y1602529D01*
X1016968Y1602188D01*
X1017157Y1601851D01*
X1017354Y1601518D01*
X1017560Y1601191D01*
X1017773Y1600868D01*
X1017994Y1600551D01*
X1018223Y1600239D01*
X1018459Y1599933D01*
X1018703Y1599633D01*
X1018954Y1599339D01*
X1019212Y1599051D01*
X1019477Y1598770D01*
X1019748Y1598495D01*
X1020027Y1598226D01*
X1020311Y1597965D01*
X1020602Y1597710D01*
X1020900Y1597463D01*
X1021203Y1597223D01*
X1021511Y1596990D01*
X1021826Y1596766D01*
X1022146Y1596548D01*
X1022471Y1596339D01*
X1022801Y1596138D01*
X1023135Y1595944D01*
X1023475Y1595759D01*
X1023819Y1595582D01*
X1024167Y1595414D01*
X1024519Y1595254D01*
X1024875Y1595103D01*
X1025234Y1594960D01*
X1025597Y1594827D01*
X1025963Y1594702D01*
X1026331Y1594586D01*
X1026703Y1594479D01*
X1027077Y1594381D01*
X1027453Y1594293D01*
X1027832Y1594213D01*
X1028212Y1594143D01*
X1028594Y1594082D01*
X1028977Y1594031D01*
X1029361Y1593988D01*
X1029746Y1593955D01*
X1030132Y1593932D01*
X1030518Y1593918D01*
X1030905Y1593913D01*
X622905Y327100D02*
X623292Y327095D01*
X623678Y327081D01*
X624064Y327058D01*
X624449Y327025D01*
X624833Y326982D01*
X625216Y326931D01*
X625598Y326870D01*
X625978Y326800D01*
X626357Y326720D01*
X626733Y326632D01*
X627107Y326534D01*
X627479Y326427D01*
X627847Y326311D01*
X628213Y326186D01*
X628576Y326053D01*
X628935Y325910D01*
X629291Y325759D01*
X629643Y325599D01*
X629991Y325431D01*
X630335Y325254D01*
X630675Y325069D01*
X631009Y324875D01*
X631339Y324674D01*
X631664Y324465D01*
X631984Y324247D01*
X632299Y324023D01*
X632607Y323790D01*
X632910Y323550D01*
X633208Y323303D01*
X633499Y323048D01*
X633783Y322787D01*
X634062Y322518D01*
X634333Y322243D01*
X634598Y321962D01*
X634856Y321674D01*
X635107Y321380D01*
X635351Y321080D01*
X635587Y320774D01*
X635816Y320462D01*
X636037Y320145D01*
X636250Y319822D01*
X636456Y319495D01*
X636653Y319163D01*
X636842Y318825D01*
X637023Y318484D01*
X637196Y318138D01*
X637360Y317788D01*
X637515Y317434D01*
X637662Y317076D01*
X637800Y316715D01*
X637930Y316351D01*
X638050Y315983D01*
X638161Y315613D01*
X638264Y315240D01*
X638357Y314865D01*
X638441Y314488D01*
X638516Y314108D01*
X638582Y313727D01*
X638638Y313345D01*
X638685Y312961D01*
X638722Y312576D01*
X638751Y312191D01*
X638769Y311805D01*
X638779Y311418D01*
X638779Y311032D01*
X638769Y310645D01*
X638751Y310259D01*
X638722Y309874D01*
X638685Y309489D01*
X638638Y309105D01*
X638582Y308723D01*
X638516Y308342D01*
X638441Y307962D01*
X638357Y307585D01*
X638264Y307210D01*
X638161Y306837D01*
X638050Y306467D01*
X637930Y306099D01*
X637800Y305735D01*
X637662Y305374D01*
X637515Y305016D01*
X637360Y304662D01*
X637196Y304312D01*
X637023Y303966D01*
X636842Y303625D01*
X636653Y303288D01*
X636456Y302955D01*
X636250Y302628D01*
X636037Y302305D01*
X635816Y301988D01*
X635587Y301676D01*
X635351Y301370D01*
X635107Y301070D01*
X634856Y300776D01*
X634598Y300488D01*
X634333Y300207D01*
X634062Y299932D01*
X633783Y299663D01*
X633499Y299402D01*
X633208Y299147D01*
X632910Y298900D01*
X632607Y298660D01*
X632299Y298427D01*
X631984Y298203D01*
X631664Y297985D01*
X631339Y297776D01*
X631009Y297575D01*
X630675Y297381D01*
X630335Y297196D01*
X629991Y297019D01*
X629643Y296851D01*
X629291Y296691D01*
X628935Y296540D01*
X628576Y296397D01*
X628213Y296264D01*
X627847Y296139D01*
X627479Y296023D01*
X627107Y295916D01*
X626733Y295818D01*
X626357Y295730D01*
X625978Y295650D01*
X625598Y295580D01*
X625216Y295519D01*
X624833Y295468D01*
X624449Y295425D01*
X624064Y295392D01*
X623678Y295369D01*
X623292Y295355D01*
X622905Y295350D01*
X622518Y295355D01*
X622132Y295369D01*
X621746Y295392D01*
X621361Y295425D01*
X620977Y295468D01*
X620594Y295519D01*
X620212Y295580D01*
X619832Y295650D01*
X619453Y295730D01*
X619077Y295818D01*
X618703Y295916D01*
X618331Y296023D01*
X617963Y296139D01*
X617597Y296264D01*
X617234Y296397D01*
X616875Y296540D01*
X616519Y296691D01*
X616167Y296851D01*
X615819Y297019D01*
X615475Y297196D01*
X615135Y297381D01*
X614801Y297575D01*
X614471Y297776D01*
X614146Y297985D01*
X613826Y298203D01*
X613511Y298427D01*
X613203Y298660D01*
X612900Y298900D01*
X612602Y299147D01*
X612311Y299402D01*
X612027Y299663D01*
X611748Y299932D01*
X611477Y300207D01*
X611212Y300488D01*
X610954Y300776D01*
X610703Y301070D01*
X610459Y301370D01*
X610223Y301676D01*
X609994Y301988D01*
X609773Y302305D01*
X609560Y302628D01*
X609354Y302955D01*
X609157Y303287D01*
X608968Y303625D01*
X608787Y303966D01*
X608614Y304312D01*
X608450Y304662D01*
X608295Y305016D01*
X608148Y305374D01*
X608010Y305735D01*
X607880Y306099D01*
X607760Y306467D01*
X607649Y306837D01*
X607546Y307210D01*
X607453Y307585D01*
X607369Y307962D01*
X607294Y308342D01*
X607228Y308723D01*
X607172Y309105D01*
X607125Y309489D01*
X607088Y309874D01*
X607059Y310259D01*
X607041Y310645D01*
X607031Y311032D01*
X607031Y311418D01*
X607041Y311805D01*
X607059Y312191D01*
X607088Y312576D01*
X607125Y312961D01*
X607172Y313345D01*
X607228Y313727D01*
X607294Y314108D01*
X607369Y314488D01*
X607453Y314865D01*
X607546Y315240D01*
X607649Y315613D01*
X607760Y315983D01*
X607880Y316351D01*
X608010Y316715D01*
X608148Y317076D01*
X608295Y317434D01*
X608450Y317788D01*
X608614Y318138D01*
X608787Y318484D01*
X608968Y318825D01*
X609157Y319163D01*
X609354Y319495D01*
X609560Y319822D01*
X609773Y320145D01*
X609994Y320462D01*
X610223Y320774D01*
X610459Y321080D01*
X610703Y321380D01*
X610954Y321674D01*
X611212Y321962D01*
X611477Y322243D01*
X611748Y322518D01*
X612027Y322787D01*
X612311Y323048D01*
X612602Y323303D01*
X612900Y323550D01*
X613203Y323790D01*
X613511Y324023D01*
X613826Y324247D01*
X614146Y324465D01*
X614471Y324674D01*
X614801Y324875D01*
X615135Y325069D01*
X615475Y325254D01*
X615819Y325431D01*
X616167Y325599D01*
X616519Y325759D01*
X616875Y325910D01*
X617234Y326053D01*
X617597Y326186D01*
X617963Y326311D01*
X618331Y326427D01*
X618703Y326534D01*
X619077Y326632D01*
X619453Y326720D01*
X619832Y326800D01*
X620212Y326870D01*
X620594Y326931D01*
X620977Y326982D01*
X621361Y327025D01*
X621746Y327058D01*
X622132Y327081D01*
X622518Y327095D01*
X622905Y327100D01*
X492015Y1561500D02*
X492017Y1561671D01*
X492023Y1561843D01*
X492034Y1562014D01*
X492049Y1562185D01*
X492068Y1562355D01*
X492091Y1562525D01*
X492118Y1562694D01*
X492149Y1562863D01*
X492185Y1563030D01*
X492224Y1563197D01*
X492268Y1563363D01*
X492316Y1563528D01*
X492368Y1563691D01*
X492423Y1563853D01*
X492483Y1564014D01*
X492547Y1564173D01*
X492614Y1564331D01*
X492686Y1564486D01*
X492761Y1564641D01*
X492840Y1564793D01*
X492922Y1564943D01*
X493009Y1565091D01*
X493099Y1565237D01*
X493192Y1565381D01*
X493289Y1565522D01*
X493390Y1565661D01*
X493493Y1565797D01*
X493601Y1565931D01*
X493711Y1566062D01*
X493824Y1566191D01*
X493941Y1566316D01*
X494061Y1566439D01*
X494184Y1566559D01*
X494309Y1566676D01*
X494438Y1566789D01*
X494569Y1566899D01*
X494703Y1567007D01*
X494839Y1567110D01*
X494978Y1567211D01*
X495119Y1567308D01*
X495263Y1567401D01*
X495409Y1567491D01*
X495557Y1567578D01*
X495707Y1567660D01*
X495859Y1567739D01*
X496014Y1567814D01*
X496169Y1567886D01*
X496327Y1567953D01*
X496486Y1568017D01*
X496647Y1568077D01*
X496809Y1568132D01*
X496972Y1568184D01*
X497137Y1568232D01*
X497303Y1568276D01*
X497470Y1568315D01*
X497637Y1568351D01*
X497806Y1568382D01*
X497975Y1568409D01*
X498145Y1568432D01*
X498315Y1568451D01*
X498486Y1568466D01*
X498657Y1568477D01*
X498829Y1568483D01*
X499000Y1568485D01*
X499171Y1568483D01*
X499343Y1568477D01*
X499514Y1568466D01*
X499685Y1568451D01*
X499855Y1568432D01*
X500025Y1568409D01*
X500194Y1568382D01*
X500363Y1568351D01*
X500530Y1568315D01*
X500697Y1568276D01*
X500863Y1568232D01*
X501028Y1568184D01*
X501191Y1568132D01*
X501353Y1568077D01*
X501514Y1568017D01*
X501673Y1567953D01*
X501831Y1567886D01*
X501986Y1567814D01*
X502141Y1567739D01*
X502293Y1567660D01*
X502443Y1567578D01*
X502591Y1567491D01*
X502737Y1567401D01*
X502881Y1567308D01*
X503022Y1567211D01*
X503161Y1567110D01*
X503297Y1567007D01*
X503431Y1566899D01*
X503562Y1566789D01*
X503691Y1566676D01*
X503816Y1566559D01*
X503939Y1566439D01*
X504059Y1566316D01*
X504176Y1566191D01*
X504289Y1566062D01*
X504399Y1565931D01*
X504507Y1565797D01*
X504610Y1565661D01*
X504711Y1565522D01*
X504808Y1565381D01*
X504901Y1565237D01*
X504991Y1565091D01*
X505078Y1564943D01*
X505160Y1564793D01*
X505239Y1564641D01*
X505314Y1564486D01*
X505386Y1564331D01*
X505453Y1564173D01*
X505517Y1564014D01*
X505577Y1563853D01*
X505632Y1563691D01*
X505684Y1563528D01*
X505732Y1563363D01*
X505776Y1563197D01*
X505815Y1563030D01*
X505851Y1562863D01*
X505882Y1562694D01*
X505909Y1562525D01*
X505932Y1562355D01*
X505951Y1562185D01*
X505966Y1562014D01*
X505977Y1561843D01*
X505983Y1561671D01*
X505985Y1561500D01*
X505983Y1561329D01*
X505977Y1561157D01*
X505966Y1560986D01*
X505951Y1560815D01*
X505932Y1560645D01*
X505909Y1560475D01*
X505882Y1560306D01*
X505851Y1560137D01*
X505815Y1559970D01*
X505776Y1559803D01*
X505732Y1559637D01*
X505684Y1559472D01*
X505632Y1559309D01*
X505577Y1559147D01*
X505517Y1558986D01*
X505453Y1558827D01*
X505386Y1558669D01*
X505314Y1558514D01*
X505239Y1558359D01*
X505160Y1558207D01*
X505078Y1558057D01*
X504991Y1557909D01*
X504901Y1557763D01*
X504808Y1557619D01*
X504711Y1557478D01*
X504610Y1557339D01*
X504507Y1557203D01*
X504399Y1557069D01*
X504289Y1556938D01*
X504176Y1556809D01*
X504059Y1556684D01*
X503939Y1556561D01*
X503816Y1556441D01*
X503691Y1556324D01*
X503562Y1556211D01*
X503431Y1556101D01*
X503297Y1555993D01*
X503161Y1555890D01*
X503022Y1555789D01*
X502881Y1555692D01*
X502737Y1555599D01*
X502591Y1555509D01*
X502443Y1555422D01*
X502293Y1555340D01*
X502141Y1555261D01*
X501986Y1555186D01*
X501831Y1555114D01*
X501673Y1555047D01*
X501514Y1554983D01*
X501353Y1554923D01*
X501191Y1554868D01*
X501028Y1554816D01*
X500863Y1554768D01*
X500697Y1554724D01*
X500530Y1554685D01*
X500363Y1554649D01*
X500194Y1554618D01*
X500025Y1554591D01*
X499855Y1554568D01*
X499685Y1554549D01*
X499514Y1554534D01*
X499343Y1554523D01*
X499171Y1554517D01*
X499000Y1554515D01*
X498829Y1554517D01*
X498657Y1554523D01*
X498486Y1554534D01*
X498315Y1554549D01*
X498145Y1554568D01*
X497975Y1554591D01*
X497806Y1554618D01*
X497637Y1554649D01*
X497470Y1554685D01*
X497303Y1554724D01*
X497137Y1554768D01*
X496972Y1554816D01*
X496809Y1554868D01*
X496647Y1554923D01*
X496486Y1554983D01*
X496327Y1555047D01*
X496169Y1555114D01*
X496014Y1555186D01*
X495859Y1555261D01*
X495707Y1555340D01*
X495557Y1555422D01*
X495409Y1555509D01*
X495263Y1555599D01*
X495119Y1555692D01*
X494978Y1555789D01*
X494839Y1555890D01*
X494703Y1555993D01*
X494569Y1556101D01*
X494438Y1556211D01*
X494309Y1556324D01*
X494184Y1556441D01*
X494061Y1556561D01*
X493941Y1556684D01*
X493824Y1556809D01*
X493711Y1556938D01*
X493601Y1557069D01*
X493493Y1557203D01*
X493390Y1557339D01*
X493289Y1557478D01*
X493192Y1557619D01*
X493099Y1557763D01*
X493009Y1557909D01*
X492922Y1558057D01*
X492840Y1558207D01*
X492761Y1558359D01*
X492686Y1558514D01*
X492614Y1558669D01*
X492547Y1558827D01*
X492483Y1558986D01*
X492423Y1559147D01*
X492368Y1559309D01*
X492316Y1559472D01*
X492268Y1559637D01*
X492224Y1559803D01*
X492185Y1559970D01*
X492149Y1560137D01*
X492118Y1560306D01*
X492091Y1560475D01*
X492068Y1560645D01*
X492049Y1560815D01*
X492034Y1560986D01*
X492023Y1561157D01*
X492017Y1561329D01*
X492015Y1561500D01*
X623450Y87060D02*
X623454Y87348D01*
X623464Y87637D01*
X623482Y87924D01*
X623507Y88212D01*
X623538Y88498D01*
X623577Y88784D01*
X623623Y89069D01*
X623676Y89352D01*
X623735Y89634D01*
X623802Y89915D01*
X623876Y90194D01*
X623956Y90471D01*
X624043Y90746D01*
X624137Y91018D01*
X624237Y91289D01*
X624344Y91557D01*
X624458Y91822D01*
X624578Y92084D01*
X624705Y92343D01*
X624837Y92599D01*
X624976Y92852D01*
X625122Y93101D01*
X625273Y93346D01*
X625430Y93588D01*
X625593Y93826D01*
X625762Y94059D01*
X625937Y94289D01*
X626117Y94514D01*
X626303Y94735D01*
X626494Y94951D01*
X626690Y95162D01*
X626891Y95369D01*
X627098Y95570D01*
X627309Y95766D01*
X627525Y95957D01*
X627746Y96143D01*
X627971Y96323D01*
X628201Y96498D01*
X628434Y96667D01*
X628672Y96830D01*
X628914Y96987D01*
X629159Y97138D01*
X629408Y97284D01*
X629661Y97423D01*
X629917Y97555D01*
X630176Y97682D01*
X630438Y97802D01*
X630703Y97916D01*
X630971Y98023D01*
X631242Y98123D01*
X631514Y98217D01*
X631789Y98304D01*
X632066Y98384D01*
X632345Y98458D01*
X632626Y98525D01*
X632908Y98584D01*
X633191Y98637D01*
X633476Y98683D01*
X633762Y98722D01*
X634048Y98753D01*
X634336Y98778D01*
X634623Y98796D01*
X634912Y98806D01*
X635200Y98810D01*
X635488Y98806D01*
X635777Y98796D01*
X636064Y98778D01*
X636352Y98753D01*
X636638Y98722D01*
X636924Y98683D01*
X637209Y98637D01*
X637492Y98584D01*
X637774Y98525D01*
X638055Y98458D01*
X638334Y98384D01*
X638611Y98304D01*
X638886Y98217D01*
X639158Y98123D01*
X639429Y98023D01*
X639697Y97916D01*
X639962Y97802D01*
X640224Y97682D01*
X640483Y97555D01*
X640739Y97423D01*
X640992Y97284D01*
X641241Y97138D01*
X641486Y96987D01*
X641728Y96830D01*
X641966Y96667D01*
X642199Y96498D01*
X642429Y96323D01*
X642654Y96143D01*
X642875Y95957D01*
X643091Y95766D01*
X643302Y95570D01*
X643509Y95369D01*
X643710Y95162D01*
X643906Y94951D01*
X644097Y94735D01*
X644283Y94514D01*
X644463Y94289D01*
X644638Y94059D01*
X644807Y93826D01*
X644970Y93588D01*
X645127Y93346D01*
X645278Y93101D01*
X645424Y92852D01*
X645563Y92599D01*
X645695Y92343D01*
X645822Y92084D01*
X645942Y91822D01*
X646056Y91557D01*
X646163Y91289D01*
X646263Y91018D01*
X646357Y90746D01*
X646444Y90471D01*
X646524Y90194D01*
X646598Y89915D01*
X646665Y89634D01*
X646724Y89352D01*
X646777Y89069D01*
X646823Y88784D01*
X646862Y88498D01*
X646893Y88212D01*
X646918Y87924D01*
X646936Y87637D01*
X646946Y87348D01*
X646950Y87060D01*
X646946Y86772D01*
X646936Y86483D01*
X646918Y86196D01*
X646893Y85908D01*
X646862Y85622D01*
X646823Y85336D01*
X646777Y85051D01*
X646724Y84768D01*
X646665Y84486D01*
X646598Y84205D01*
X646524Y83926D01*
X646444Y83649D01*
X646357Y83374D01*
X646263Y83102D01*
X646163Y82831D01*
X646056Y82563D01*
X645942Y82298D01*
X645822Y82036D01*
X645695Y81777D01*
X645563Y81521D01*
X645424Y81268D01*
X645278Y81019D01*
X645127Y80774D01*
X644970Y80532D01*
X644807Y80294D01*
X644638Y80061D01*
X644463Y79831D01*
X644283Y79606D01*
X644097Y79385D01*
X643906Y79169D01*
X643710Y78958D01*
X643509Y78751D01*
X643302Y78550D01*
X643091Y78354D01*
X642875Y78163D01*
X642654Y77977D01*
X642429Y77797D01*
X642199Y77622D01*
X641966Y77453D01*
X641728Y77290D01*
X641486Y77133D01*
X641241Y76982D01*
X640992Y76836D01*
X640739Y76697D01*
X640483Y76565D01*
X640224Y76438D01*
X639962Y76318D01*
X639697Y76204D01*
X639429Y76097D01*
X639158Y75997D01*
X638886Y75903D01*
X638611Y75816D01*
X638334Y75736D01*
X638055Y75662D01*
X637774Y75595D01*
X637492Y75536D01*
X637209Y75483D01*
X636924Y75437D01*
X636638Y75398D01*
X636352Y75367D01*
X636064Y75342D01*
X635777Y75324D01*
X635488Y75314D01*
X635200Y75310D01*
X634912Y75314D01*
X634623Y75324D01*
X634336Y75342D01*
X634048Y75367D01*
X633762Y75398D01*
X633476Y75437D01*
X633191Y75483D01*
X632908Y75536D01*
X632626Y75595D01*
X632345Y75662D01*
X632066Y75736D01*
X631789Y75816D01*
X631514Y75903D01*
X631242Y75997D01*
X630971Y76097D01*
X630703Y76204D01*
X630438Y76318D01*
X630176Y76438D01*
X629917Y76565D01*
X629661Y76697D01*
X629408Y76836D01*
X629159Y76982D01*
X628914Y77133D01*
X628672Y77290D01*
X628434Y77453D01*
X628201Y77622D01*
X627971Y77797D01*
X627746Y77977D01*
X627525Y78163D01*
X627309Y78354D01*
X627098Y78550D01*
X626891Y78751D01*
X626690Y78958D01*
X626494Y79169D01*
X626303Y79385D01*
X626117Y79606D01*
X625937Y79831D01*
X625762Y80061D01*
X625593Y80294D01*
X625430Y80532D01*
X625273Y80774D01*
X625122Y81019D01*
X624976Y81268D01*
X624837Y81521D01*
X624705Y81777D01*
X624578Y82036D01*
X624458Y82298D01*
X624344Y82563D01*
X624237Y82831D01*
X624137Y83102D01*
X624043Y83374D01*
X623956Y83649D01*
X623876Y83926D01*
X623802Y84205D01*
X623735Y84486D01*
X623676Y84768D01*
X623623Y85051D01*
X623577Y85336D01*
X623538Y85622D01*
X623507Y85908D01*
X623482Y86196D01*
X623464Y86483D01*
X623454Y86772D01*
X623450Y87060D01*
X473450Y87060D02*
X473454Y87348D01*
X473464Y87637D01*
X473482Y87924D01*
X473507Y88212D01*
X473538Y88498D01*
X473577Y88784D01*
X473623Y89069D01*
X473676Y89352D01*
X473735Y89634D01*
X473802Y89915D01*
X473876Y90194D01*
X473956Y90471D01*
X474043Y90746D01*
X474137Y91018D01*
X474237Y91289D01*
X474344Y91557D01*
X474458Y91822D01*
X474578Y92084D01*
X474705Y92343D01*
X474837Y92599D01*
X474976Y92852D01*
X475122Y93101D01*
X475273Y93346D01*
X475430Y93588D01*
X475593Y93826D01*
X475762Y94059D01*
X475937Y94289D01*
X476117Y94514D01*
X476303Y94735D01*
X476494Y94951D01*
X476690Y95162D01*
X476891Y95369D01*
X477098Y95570D01*
X477309Y95766D01*
X477525Y95957D01*
X477746Y96143D01*
X477971Y96323D01*
X478201Y96498D01*
X478434Y96667D01*
X478672Y96830D01*
X478914Y96987D01*
X479159Y97138D01*
X479408Y97284D01*
X479661Y97423D01*
X479917Y97555D01*
X480176Y97682D01*
X480438Y97802D01*
X480703Y97916D01*
X480971Y98023D01*
X481242Y98123D01*
X481514Y98217D01*
X481789Y98304D01*
X482066Y98384D01*
X482345Y98458D01*
X482626Y98525D01*
X482908Y98584D01*
X483191Y98637D01*
X483476Y98683D01*
X483762Y98722D01*
X484048Y98753D01*
X484336Y98778D01*
X484623Y98796D01*
X484912Y98806D01*
X485200Y98810D01*
X485488Y98806D01*
X485777Y98796D01*
X486064Y98778D01*
X486352Y98753D01*
X486638Y98722D01*
X486924Y98683D01*
X487209Y98637D01*
X487492Y98584D01*
X487774Y98525D01*
X488055Y98458D01*
X488334Y98384D01*
X488611Y98304D01*
X488886Y98217D01*
X489158Y98123D01*
X489429Y98023D01*
X489697Y97916D01*
X489962Y97802D01*
X490224Y97682D01*
X490483Y97555D01*
X490739Y97423D01*
X490992Y97284D01*
X491241Y97138D01*
X491486Y96987D01*
X491728Y96830D01*
X491966Y96667D01*
X492199Y96498D01*
X492429Y96323D01*
X492654Y96143D01*
X492875Y95957D01*
X493091Y95766D01*
X493302Y95570D01*
X493509Y95369D01*
X493710Y95162D01*
X493906Y94951D01*
X494097Y94735D01*
X494283Y94514D01*
X494463Y94289D01*
X494638Y94059D01*
X494807Y93826D01*
X494970Y93588D01*
X495127Y93346D01*
X495278Y93101D01*
X495424Y92852D01*
X495563Y92599D01*
X495695Y92343D01*
X495822Y92084D01*
X495942Y91822D01*
X496056Y91557D01*
X496163Y91289D01*
X496263Y91018D01*
X496357Y90746D01*
X496444Y90471D01*
X496524Y90194D01*
X496598Y89915D01*
X496665Y89634D01*
X496724Y89352D01*
X496777Y89069D01*
X496823Y88784D01*
X496862Y88498D01*
X496893Y88212D01*
X496918Y87924D01*
X496936Y87637D01*
X496946Y87348D01*
X496950Y87060D01*
X496946Y86772D01*
X496936Y86483D01*
X496918Y86196D01*
X496893Y85908D01*
X496862Y85622D01*
X496823Y85336D01*
X496777Y85051D01*
X496724Y84768D01*
X496665Y84486D01*
X496598Y84205D01*
X496524Y83926D01*
X496444Y83649D01*
X496357Y83374D01*
X496263Y83102D01*
X496163Y82831D01*
X496056Y82563D01*
X495942Y82298D01*
X495822Y82036D01*
X495695Y81777D01*
X495563Y81521D01*
X495424Y81268D01*
X495278Y81019D01*
X495127Y80774D01*
X494970Y80532D01*
X494807Y80294D01*
X494638Y80061D01*
X494463Y79831D01*
X494283Y79606D01*
X494097Y79385D01*
X493906Y79169D01*
X493710Y78958D01*
X493509Y78751D01*
X493302Y78550D01*
X493091Y78354D01*
X492875Y78163D01*
X492654Y77977D01*
X492429Y77797D01*
X492199Y77622D01*
X491966Y77453D01*
X491728Y77290D01*
X491486Y77133D01*
X491241Y76982D01*
X490992Y76836D01*
X490739Y76697D01*
X490483Y76565D01*
X490224Y76438D01*
X489962Y76318D01*
X489697Y76204D01*
X489429Y76097D01*
X489158Y75997D01*
X488886Y75903D01*
X488611Y75816D01*
X488334Y75736D01*
X488055Y75662D01*
X487774Y75595D01*
X487492Y75536D01*
X487209Y75483D01*
X486924Y75437D01*
X486638Y75398D01*
X486352Y75367D01*
X486064Y75342D01*
X485777Y75324D01*
X485488Y75314D01*
X485200Y75310D01*
X484912Y75314D01*
X484623Y75324D01*
X484336Y75342D01*
X484048Y75367D01*
X483762Y75398D01*
X483476Y75437D01*
X483191Y75483D01*
X482908Y75536D01*
X482626Y75595D01*
X482345Y75662D01*
X482066Y75736D01*
X481789Y75816D01*
X481514Y75903D01*
X481242Y75997D01*
X480971Y76097D01*
X480703Y76204D01*
X480438Y76318D01*
X480176Y76438D01*
X479917Y76565D01*
X479661Y76697D01*
X479408Y76836D01*
X479159Y76982D01*
X478914Y77133D01*
X478672Y77290D01*
X478434Y77453D01*
X478201Y77622D01*
X477971Y77797D01*
X477746Y77977D01*
X477525Y78163D01*
X477309Y78354D01*
X477098Y78550D01*
X476891Y78751D01*
X476690Y78958D01*
X476494Y79169D01*
X476303Y79385D01*
X476117Y79606D01*
X475937Y79831D01*
X475762Y80061D01*
X475593Y80294D01*
X475430Y80532D01*
X475273Y80774D01*
X475122Y81019D01*
X474976Y81268D01*
X474837Y81521D01*
X474705Y81777D01*
X474578Y82036D01*
X474458Y82298D01*
X474344Y82563D01*
X474237Y82831D01*
X474137Y83102D01*
X474043Y83374D01*
X473956Y83649D01*
X473876Y83926D01*
X473802Y84205D01*
X473735Y84486D01*
X473676Y84768D01*
X473623Y85051D01*
X473577Y85336D01*
X473538Y85622D01*
X473507Y85908D01*
X473482Y86196D01*
X473464Y86483D01*
X473454Y86772D01*
X473450Y87060D01*
X621200Y47060D02*
X621204Y47404D01*
X621217Y47747D01*
X621238Y48090D01*
X621267Y48432D01*
X621305Y48774D01*
X621352Y49114D01*
X621406Y49453D01*
X621469Y49791D01*
X621540Y50127D01*
X621620Y50462D01*
X621707Y50794D01*
X621803Y51124D01*
X621907Y51452D01*
X622018Y51776D01*
X622138Y52099D01*
X622266Y52418D01*
X622401Y52733D01*
X622544Y53046D01*
X622695Y53355D01*
X622853Y53660D01*
X623019Y53961D01*
X623192Y54257D01*
X623372Y54550D01*
X623559Y54838D01*
X623754Y55121D01*
X623955Y55400D01*
X624163Y55673D01*
X624378Y55942D01*
X624599Y56204D01*
X624827Y56462D01*
X625061Y56714D01*
X625301Y56959D01*
X625546Y57199D01*
X625798Y57433D01*
X626056Y57661D01*
X626318Y57882D01*
X626587Y58097D01*
X626860Y58305D01*
X627139Y58506D01*
X627422Y58701D01*
X627710Y58888D01*
X628003Y59068D01*
X628299Y59241D01*
X628600Y59407D01*
X628905Y59565D01*
X629214Y59716D01*
X629527Y59859D01*
X629842Y59994D01*
X630161Y60122D01*
X630484Y60242D01*
X630808Y60353D01*
X631136Y60457D01*
X631466Y60553D01*
X631798Y60640D01*
X632133Y60720D01*
X632469Y60791D01*
X632807Y60854D01*
X633146Y60908D01*
X633486Y60955D01*
X633828Y60993D01*
X634170Y61022D01*
X634513Y61043D01*
X634856Y61056D01*
X635200Y61060D01*
X635544Y61056D01*
X635887Y61043D01*
X636230Y61022D01*
X636572Y60993D01*
X636914Y60955D01*
X637254Y60908D01*
X637593Y60854D01*
X637931Y60791D01*
X638267Y60720D01*
X638602Y60640D01*
X638934Y60553D01*
X639264Y60457D01*
X639592Y60353D01*
X639916Y60242D01*
X640239Y60122D01*
X640558Y59994D01*
X640873Y59859D01*
X641186Y59716D01*
X641495Y59565D01*
X641800Y59407D01*
X642101Y59241D01*
X642397Y59068D01*
X642690Y58888D01*
X642978Y58701D01*
X643261Y58506D01*
X643540Y58305D01*
X643813Y58097D01*
X644082Y57882D01*
X644344Y57661D01*
X644602Y57433D01*
X644854Y57199D01*
X645099Y56959D01*
X645339Y56714D01*
X645573Y56462D01*
X645801Y56204D01*
X646022Y55942D01*
X646237Y55673D01*
X646445Y55400D01*
X646646Y55121D01*
X646841Y54838D01*
X647028Y54550D01*
X647208Y54257D01*
X647381Y53961D01*
X647547Y53660D01*
X647705Y53355D01*
X647856Y53046D01*
X647999Y52733D01*
X648134Y52418D01*
X648262Y52099D01*
X648382Y51776D01*
X648493Y51452D01*
X648597Y51124D01*
X648693Y50794D01*
X648780Y50462D01*
X648860Y50127D01*
X648931Y49791D01*
X648994Y49453D01*
X649048Y49114D01*
X649095Y48774D01*
X649133Y48432D01*
X649162Y48090D01*
X649183Y47747D01*
X649196Y47404D01*
X649200Y47060D01*
X649196Y46716D01*
X649183Y46373D01*
X649162Y46030D01*
X649133Y45688D01*
X649095Y45346D01*
X649048Y45006D01*
X648994Y44667D01*
X648931Y44329D01*
X648860Y43993D01*
X648780Y43658D01*
X648693Y43326D01*
X648597Y42996D01*
X648493Y42668D01*
X648382Y42344D01*
X648262Y42021D01*
X648134Y41702D01*
X647999Y41387D01*
X647856Y41074D01*
X647705Y40765D01*
X647547Y40460D01*
X647381Y40159D01*
X647208Y39863D01*
X647028Y39570D01*
X646841Y39282D01*
X646646Y38999D01*
X646445Y38720D01*
X646237Y38447D01*
X646022Y38178D01*
X645801Y37916D01*
X645573Y37658D01*
X645339Y37406D01*
X645099Y37161D01*
X644854Y36921D01*
X644602Y36687D01*
X644344Y36459D01*
X644082Y36238D01*
X643813Y36023D01*
X643540Y35815D01*
X643261Y35614D01*
X642978Y35419D01*
X642690Y35232D01*
X642397Y35052D01*
X642101Y34879D01*
X641800Y34713D01*
X641495Y34555D01*
X641186Y34404D01*
X640873Y34261D01*
X640558Y34126D01*
X640239Y33998D01*
X639916Y33878D01*
X639592Y33767D01*
X639264Y33663D01*
X638934Y33567D01*
X638602Y33480D01*
X638267Y33400D01*
X637931Y33329D01*
X637593Y33266D01*
X637254Y33212D01*
X636914Y33165D01*
X636572Y33127D01*
X636230Y33098D01*
X635887Y33077D01*
X635544Y33064D01*
X635200Y33060D01*
X634856Y33064D01*
X634513Y33077D01*
X634170Y33098D01*
X633828Y33127D01*
X633486Y33165D01*
X633146Y33212D01*
X632807Y33266D01*
X632469Y33329D01*
X632133Y33400D01*
X631798Y33480D01*
X631466Y33567D01*
X631136Y33663D01*
X630808Y33767D01*
X630484Y33878D01*
X630161Y33998D01*
X629842Y34126D01*
X629527Y34261D01*
X629214Y34404D01*
X628905Y34555D01*
X628600Y34713D01*
X628299Y34879D01*
X628003Y35052D01*
X627710Y35232D01*
X627422Y35419D01*
X627139Y35614D01*
X626860Y35815D01*
X626587Y36023D01*
X626318Y36238D01*
X626056Y36459D01*
X625798Y36687D01*
X625546Y36921D01*
X625301Y37161D01*
X625061Y37406D01*
X624827Y37658D01*
X624599Y37916D01*
X624378Y38178D01*
X624163Y38447D01*
X623955Y38720D01*
X623754Y38999D01*
X623559Y39282D01*
X623372Y39570D01*
X623192Y39863D01*
X623019Y40159D01*
X622853Y40460D01*
X622695Y40765D01*
X622544Y41074D01*
X622401Y41387D01*
X622266Y41702D01*
X622138Y42021D01*
X622018Y42344D01*
X621907Y42668D01*
X621803Y42996D01*
X621707Y43326D01*
X621620Y43658D01*
X621540Y43993D01*
X621469Y44329D01*
X621406Y44667D01*
X621352Y45006D01*
X621305Y45346D01*
X621267Y45688D01*
X621238Y46030D01*
X621217Y46373D01*
X621204Y46716D01*
X621200Y47060D01*
X471200Y47060D02*
X471204Y47404D01*
X471217Y47747D01*
X471238Y48090D01*
X471267Y48432D01*
X471305Y48774D01*
X471352Y49114D01*
X471406Y49453D01*
X471469Y49791D01*
X471540Y50127D01*
X471620Y50462D01*
X471707Y50794D01*
X471803Y51124D01*
X471907Y51452D01*
X472018Y51776D01*
X472138Y52099D01*
X472266Y52418D01*
X472401Y52733D01*
X472544Y53046D01*
X472695Y53355D01*
X472853Y53660D01*
X473019Y53961D01*
X473192Y54257D01*
X473372Y54550D01*
X473559Y54838D01*
X473754Y55121D01*
X473955Y55400D01*
X474163Y55673D01*
X474378Y55942D01*
X474599Y56204D01*
X474827Y56462D01*
X475061Y56714D01*
X475301Y56959D01*
X475546Y57199D01*
X475798Y57433D01*
X476056Y57661D01*
X476318Y57882D01*
X476587Y58097D01*
X476860Y58305D01*
X477139Y58506D01*
X477422Y58701D01*
X477710Y58888D01*
X478003Y59068D01*
X478299Y59241D01*
X478600Y59407D01*
X478905Y59565D01*
X479214Y59716D01*
X479527Y59859D01*
X479842Y59994D01*
X480161Y60122D01*
X480484Y60242D01*
X480808Y60353D01*
X481136Y60457D01*
X481466Y60553D01*
X481798Y60640D01*
X482133Y60720D01*
X482469Y60791D01*
X482807Y60854D01*
X483146Y60908D01*
X483486Y60955D01*
X483828Y60993D01*
X484170Y61022D01*
X484513Y61043D01*
X484856Y61056D01*
X485200Y61060D01*
X485544Y61056D01*
X485887Y61043D01*
X486230Y61022D01*
X486572Y60993D01*
X486914Y60955D01*
X487254Y60908D01*
X487593Y60854D01*
X487931Y60791D01*
X488267Y60720D01*
X488602Y60640D01*
X488934Y60553D01*
X489264Y60457D01*
X489592Y60353D01*
X489916Y60242D01*
X490239Y60122D01*
X490558Y59994D01*
X490873Y59859D01*
X491186Y59716D01*
X491495Y59565D01*
X491800Y59407D01*
X492101Y59241D01*
X492397Y59068D01*
X492690Y58888D01*
X492978Y58701D01*
X493261Y58506D01*
X493540Y58305D01*
X493813Y58097D01*
X494082Y57882D01*
X494344Y57661D01*
X494602Y57433D01*
X494854Y57199D01*
X495099Y56959D01*
X495339Y56714D01*
X495573Y56462D01*
X495801Y56204D01*
X496022Y55942D01*
X496237Y55673D01*
X496445Y55400D01*
X496646Y55121D01*
X496841Y54838D01*
X497028Y54550D01*
X497208Y54257D01*
X497381Y53961D01*
X497547Y53660D01*
X497705Y53355D01*
X497856Y53046D01*
X497999Y52733D01*
X498134Y52418D01*
X498262Y52099D01*
X498382Y51776D01*
X498493Y51452D01*
X498597Y51124D01*
X498693Y50794D01*
X498780Y50462D01*
X498860Y50127D01*
X498931Y49791D01*
X498994Y49453D01*
X499048Y49114D01*
X499095Y48774D01*
X499133Y48432D01*
X499162Y48090D01*
X499183Y47747D01*
X499196Y47404D01*
X499200Y47060D01*
X499196Y46716D01*
X499183Y46373D01*
X499162Y46030D01*
X499133Y45688D01*
X499095Y45346D01*
X499048Y45006D01*
X498994Y44667D01*
X498931Y44329D01*
X498860Y43993D01*
X498780Y43658D01*
X498693Y43326D01*
X498597Y42996D01*
X498493Y42668D01*
X498382Y42344D01*
X498262Y42021D01*
X498134Y41702D01*
X497999Y41387D01*
X497856Y41074D01*
X497705Y40765D01*
X497547Y40460D01*
X497381Y40159D01*
X497208Y39863D01*
X497028Y39570D01*
X496841Y39282D01*
X496646Y38999D01*
X496445Y38720D01*
X496237Y38447D01*
X496022Y38178D01*
X495801Y37916D01*
X495573Y37658D01*
X495339Y37406D01*
X495099Y37161D01*
X494854Y36921D01*
X494602Y36687D01*
X494344Y36459D01*
X494082Y36238D01*
X493813Y36023D01*
X493540Y35815D01*
X493261Y35614D01*
X492978Y35419D01*
X492690Y35232D01*
X492397Y35052D01*
X492101Y34879D01*
X491800Y34713D01*
X491495Y34555D01*
X491186Y34404D01*
X490873Y34261D01*
X490558Y34126D01*
X490239Y33998D01*
X489916Y33878D01*
X489592Y33767D01*
X489264Y33663D01*
X488934Y33567D01*
X488602Y33480D01*
X488267Y33400D01*
X487931Y33329D01*
X487593Y33266D01*
X487254Y33212D01*
X486914Y33165D01*
X486572Y33127D01*
X486230Y33098D01*
X485887Y33077D01*
X485544Y33064D01*
X485200Y33060D01*
X484856Y33064D01*
X484513Y33077D01*
X484170Y33098D01*
X483828Y33127D01*
X483486Y33165D01*
X483146Y33212D01*
X482807Y33266D01*
X482469Y33329D01*
X482133Y33400D01*
X481798Y33480D01*
X481466Y33567D01*
X481136Y33663D01*
X480808Y33767D01*
X480484Y33878D01*
X480161Y33998D01*
X479842Y34126D01*
X479527Y34261D01*
X479214Y34404D01*
X478905Y34555D01*
X478600Y34713D01*
X478299Y34879D01*
X478003Y35052D01*
X477710Y35232D01*
X477422Y35419D01*
X477139Y35614D01*
X476860Y35815D01*
X476587Y36023D01*
X476318Y36238D01*
X476056Y36459D01*
X475798Y36687D01*
X475546Y36921D01*
X475301Y37161D01*
X475061Y37406D01*
X474827Y37658D01*
X474599Y37916D01*
X474378Y38178D01*
X474163Y38447D01*
X473955Y38720D01*
X473754Y38999D01*
X473559Y39282D01*
X473372Y39570D01*
X473192Y39863D01*
X473019Y40159D01*
X472853Y40460D01*
X472695Y40765D01*
X472544Y41074D01*
X472401Y41387D01*
X472266Y41702D01*
X472138Y42021D01*
X472018Y42344D01*
X471907Y42668D01*
X471803Y42996D01*
X471707Y43326D01*
X471620Y43658D01*
X471540Y43993D01*
X471469Y44329D01*
X471406Y44667D01*
X471352Y45006D01*
X471305Y45346D01*
X471267Y45688D01*
X471238Y46030D01*
X471217Y46373D01*
X471204Y46716D01*
X471200Y47060D01*
X232750Y292500D02*
X232754Y292788D01*
X232764Y293077D01*
X232782Y293364D01*
X232807Y293652D01*
X232838Y293938D01*
X232877Y294224D01*
X232923Y294509D01*
X232976Y294792D01*
X233035Y295074D01*
X233102Y295355D01*
X233176Y295634D01*
X233256Y295911D01*
X233343Y296186D01*
X233437Y296458D01*
X233537Y296729D01*
X233644Y296997D01*
X233758Y297262D01*
X233878Y297524D01*
X234005Y297783D01*
X234137Y298039D01*
X234276Y298292D01*
X234422Y298541D01*
X234573Y298786D01*
X234730Y299028D01*
X234893Y299266D01*
X235062Y299499D01*
X235237Y299729D01*
X235417Y299954D01*
X235603Y300175D01*
X235794Y300391D01*
X235990Y300602D01*
X236191Y300809D01*
X236398Y301010D01*
X236609Y301206D01*
X236825Y301397D01*
X237046Y301583D01*
X237271Y301763D01*
X237501Y301938D01*
X237734Y302107D01*
X237972Y302270D01*
X238214Y302427D01*
X238459Y302578D01*
X238708Y302724D01*
X238961Y302863D01*
X239217Y302995D01*
X239476Y303122D01*
X239738Y303242D01*
X240003Y303356D01*
X240271Y303463D01*
X240542Y303563D01*
X240814Y303657D01*
X241089Y303744D01*
X241366Y303824D01*
X241645Y303898D01*
X241926Y303965D01*
X242208Y304024D01*
X242491Y304077D01*
X242776Y304123D01*
X243062Y304162D01*
X243348Y304193D01*
X243636Y304218D01*
X243923Y304236D01*
X244212Y304246D01*
X244500Y304250D01*
X244788Y304246D01*
X245077Y304236D01*
X245364Y304218D01*
X245652Y304193D01*
X245938Y304162D01*
X246224Y304123D01*
X246509Y304077D01*
X246792Y304024D01*
X247074Y303965D01*
X247355Y303898D01*
X247634Y303824D01*
X247911Y303744D01*
X248186Y303657D01*
X248458Y303563D01*
X248729Y303463D01*
X248997Y303356D01*
X249262Y303242D01*
X249524Y303122D01*
X249783Y302995D01*
X250039Y302863D01*
X250292Y302724D01*
X250541Y302578D01*
X250786Y302427D01*
X251028Y302270D01*
X251266Y302107D01*
X251499Y301938D01*
X251729Y301763D01*
X251954Y301583D01*
X252175Y301397D01*
X252391Y301206D01*
X252602Y301010D01*
X252809Y300809D01*
X253010Y300602D01*
X253206Y300391D01*
X253397Y300175D01*
X253583Y299954D01*
X253763Y299729D01*
X253938Y299499D01*
X254107Y299266D01*
X254270Y299028D01*
X254427Y298786D01*
X254578Y298541D01*
X254724Y298292D01*
X254863Y298039D01*
X254995Y297783D01*
X255122Y297524D01*
X255242Y297262D01*
X255356Y296997D01*
X255463Y296729D01*
X255563Y296458D01*
X255657Y296186D01*
X255744Y295911D01*
X255824Y295634D01*
X255898Y295355D01*
X255965Y295074D01*
X256024Y294792D01*
X256077Y294509D01*
X256123Y294224D01*
X256162Y293938D01*
X256193Y293652D01*
X256218Y293364D01*
X256236Y293077D01*
X256246Y292788D01*
X256250Y292500D01*
X256246Y292212D01*
X256236Y291923D01*
X256218Y291636D01*
X256193Y291348D01*
X256162Y291062D01*
X256123Y290776D01*
X256077Y290491D01*
X256024Y290208D01*
X255965Y289926D01*
X255898Y289645D01*
X255824Y289366D01*
X255744Y289089D01*
X255657Y288814D01*
X255563Y288542D01*
X255463Y288271D01*
X255356Y288003D01*
X255242Y287738D01*
X255122Y287476D01*
X254995Y287217D01*
X254863Y286961D01*
X254724Y286708D01*
X254578Y286459D01*
X254427Y286214D01*
X254270Y285972D01*
X254107Y285734D01*
X253938Y285501D01*
X253763Y285271D01*
X253583Y285046D01*
X253397Y284825D01*
X253206Y284609D01*
X253010Y284398D01*
X252809Y284191D01*
X252602Y283990D01*
X252391Y283794D01*
X252175Y283603D01*
X251954Y283417D01*
X251729Y283237D01*
X251499Y283062D01*
X251266Y282893D01*
X251028Y282730D01*
X250786Y282573D01*
X250541Y282422D01*
X250292Y282276D01*
X250039Y282137D01*
X249783Y282005D01*
X249524Y281878D01*
X249262Y281758D01*
X248997Y281644D01*
X248729Y281537D01*
X248458Y281437D01*
X248186Y281343D01*
X247911Y281256D01*
X247634Y281176D01*
X247355Y281102D01*
X247074Y281035D01*
X246792Y280976D01*
X246509Y280923D01*
X246224Y280877D01*
X245938Y280838D01*
X245652Y280807D01*
X245364Y280782D01*
X245077Y280764D01*
X244788Y280754D01*
X244500Y280750D01*
X244212Y280754D01*
X243923Y280764D01*
X243636Y280782D01*
X243348Y280807D01*
X243062Y280838D01*
X242776Y280877D01*
X242491Y280923D01*
X242208Y280976D01*
X241926Y281035D01*
X241645Y281102D01*
X241366Y281176D01*
X241089Y281256D01*
X240814Y281343D01*
X240542Y281437D01*
X240271Y281537D01*
X240003Y281644D01*
X239738Y281758D01*
X239476Y281878D01*
X239217Y282005D01*
X238961Y282137D01*
X238708Y282276D01*
X238459Y282422D01*
X238214Y282573D01*
X237972Y282730D01*
X237734Y282893D01*
X237501Y283062D01*
X237271Y283237D01*
X237046Y283417D01*
X236825Y283603D01*
X236609Y283794D01*
X236398Y283990D01*
X236191Y284191D01*
X235990Y284398D01*
X235794Y284609D01*
X235603Y284825D01*
X235417Y285046D01*
X235237Y285271D01*
X235062Y285501D01*
X234893Y285734D01*
X234730Y285972D01*
X234573Y286214D01*
X234422Y286459D01*
X234276Y286708D01*
X234137Y286961D01*
X234005Y287217D01*
X233878Y287476D01*
X233758Y287738D01*
X233644Y288003D01*
X233537Y288271D01*
X233437Y288542D01*
X233343Y288814D01*
X233256Y289089D01*
X233176Y289366D01*
X233102Y289645D01*
X233035Y289926D01*
X232976Y290208D01*
X232923Y290491D01*
X232877Y290776D01*
X232838Y291062D01*
X232807Y291348D01*
X232782Y291636D01*
X232764Y291923D01*
X232754Y292212D01*
X232750Y292500D01*
X132750Y292500D02*
X132754Y292788D01*
X132764Y293077D01*
X132782Y293364D01*
X132807Y293652D01*
X132838Y293938D01*
X132877Y294224D01*
X132923Y294509D01*
X132976Y294792D01*
X133035Y295074D01*
X133102Y295355D01*
X133176Y295634D01*
X133256Y295911D01*
X133343Y296186D01*
X133437Y296458D01*
X133537Y296729D01*
X133644Y296997D01*
X133758Y297262D01*
X133878Y297524D01*
X134005Y297783D01*
X134137Y298039D01*
X134276Y298292D01*
X134422Y298541D01*
X134573Y298786D01*
X134730Y299028D01*
X134893Y299266D01*
X135062Y299499D01*
X135237Y299729D01*
X135417Y299954D01*
X135603Y300175D01*
X135794Y300391D01*
X135990Y300602D01*
X136191Y300809D01*
X136398Y301010D01*
X136609Y301206D01*
X136825Y301397D01*
X137046Y301583D01*
X137271Y301763D01*
X137501Y301938D01*
X137734Y302107D01*
X137972Y302270D01*
X138214Y302427D01*
X138459Y302578D01*
X138708Y302724D01*
X138961Y302863D01*
X139217Y302995D01*
X139476Y303122D01*
X139738Y303242D01*
X140003Y303356D01*
X140271Y303463D01*
X140542Y303563D01*
X140814Y303657D01*
X141089Y303744D01*
X141366Y303824D01*
X141645Y303898D01*
X141926Y303965D01*
X142208Y304024D01*
X142491Y304077D01*
X142776Y304123D01*
X143062Y304162D01*
X143348Y304193D01*
X143636Y304218D01*
X143923Y304236D01*
X144212Y304246D01*
X144500Y304250D01*
X144788Y304246D01*
X145077Y304236D01*
X145364Y304218D01*
X145652Y304193D01*
X145938Y304162D01*
X146224Y304123D01*
X146509Y304077D01*
X146792Y304024D01*
X147074Y303965D01*
X147355Y303898D01*
X147634Y303824D01*
X147911Y303744D01*
X148186Y303657D01*
X148458Y303563D01*
X148729Y303463D01*
X148997Y303356D01*
X149262Y303242D01*
X149524Y303122D01*
X149783Y302995D01*
X150039Y302863D01*
X150292Y302724D01*
X150541Y302578D01*
X150786Y302427D01*
X151028Y302270D01*
X151266Y302107D01*
X151499Y301938D01*
X151729Y301763D01*
X151954Y301583D01*
X152175Y301397D01*
X152391Y301206D01*
X152602Y301010D01*
X152809Y300809D01*
X153010Y300602D01*
X153206Y300391D01*
X153397Y300175D01*
X153583Y299954D01*
X153763Y299729D01*
X153938Y299499D01*
X154107Y299266D01*
X154270Y299028D01*
X154427Y298786D01*
X154578Y298541D01*
X154724Y298292D01*
X154863Y298039D01*
X154995Y297783D01*
X155122Y297524D01*
X155242Y297262D01*
X155356Y296997D01*
X155463Y296729D01*
X155563Y296458D01*
X155657Y296186D01*
X155744Y295911D01*
X155824Y295634D01*
X155898Y295355D01*
X155965Y295074D01*
X156024Y294792D01*
X156077Y294509D01*
X156123Y294224D01*
X156162Y293938D01*
X156193Y293652D01*
X156218Y293364D01*
X156236Y293077D01*
X156246Y292788D01*
X156250Y292500D01*
X156246Y292212D01*
X156236Y291923D01*
X156218Y291636D01*
X156193Y291348D01*
X156162Y291062D01*
X156123Y290776D01*
X156077Y290491D01*
X156024Y290208D01*
X155965Y289926D01*
X155898Y289645D01*
X155824Y289366D01*
X155744Y289089D01*
X155657Y288814D01*
X155563Y288542D01*
X155463Y288271D01*
X155356Y288003D01*
X155242Y287738D01*
X155122Y287476D01*
X154995Y287217D01*
X154863Y286961D01*
X154724Y286708D01*
X154578Y286459D01*
X154427Y286214D01*
X154270Y285972D01*
X154107Y285734D01*
X153938Y285501D01*
X153763Y285271D01*
X153583Y285046D01*
X153397Y284825D01*
X153206Y284609D01*
X153010Y284398D01*
X152809Y284191D01*
X152602Y283990D01*
X152391Y283794D01*
X152175Y283603D01*
X151954Y283417D01*
X151729Y283237D01*
X151499Y283062D01*
X151266Y282893D01*
X151028Y282730D01*
X150786Y282573D01*
X150541Y282422D01*
X150292Y282276D01*
X150039Y282137D01*
X149783Y282005D01*
X149524Y281878D01*
X149262Y281758D01*
X148997Y281644D01*
X148729Y281537D01*
X148458Y281437D01*
X148186Y281343D01*
X147911Y281256D01*
X147634Y281176D01*
X147355Y281102D01*
X147074Y281035D01*
X146792Y280976D01*
X146509Y280923D01*
X146224Y280877D01*
X145938Y280838D01*
X145652Y280807D01*
X145364Y280782D01*
X145077Y280764D01*
X144788Y280754D01*
X144500Y280750D01*
X144212Y280754D01*
X143923Y280764D01*
X143636Y280782D01*
X143348Y280807D01*
X143062Y280838D01*
X142776Y280877D01*
X142491Y280923D01*
X142208Y280976D01*
X141926Y281035D01*
X141645Y281102D01*
X141366Y281176D01*
X141089Y281256D01*
X140814Y281343D01*
X140542Y281437D01*
X140271Y281537D01*
X140003Y281644D01*
X139738Y281758D01*
X139476Y281878D01*
X139217Y282005D01*
X138961Y282137D01*
X138708Y282276D01*
X138459Y282422D01*
X138214Y282573D01*
X137972Y282730D01*
X137734Y282893D01*
X137501Y283062D01*
X137271Y283237D01*
X137046Y283417D01*
X136825Y283603D01*
X136609Y283794D01*
X136398Y283990D01*
X136191Y284191D01*
X135990Y284398D01*
X135794Y284609D01*
X135603Y284825D01*
X135417Y285046D01*
X135237Y285271D01*
X135062Y285501D01*
X134893Y285734D01*
X134730Y285972D01*
X134573Y286214D01*
X134422Y286459D01*
X134276Y286708D01*
X134137Y286961D01*
X134005Y287217D01*
X133878Y287476D01*
X133758Y287738D01*
X133644Y288003D01*
X133537Y288271D01*
X133437Y288542D01*
X133343Y288814D01*
X133256Y289089D01*
X133176Y289366D01*
X133102Y289645D01*
X133035Y289926D01*
X132976Y290208D01*
X132923Y290491D01*
X132877Y290776D01*
X132838Y291062D01*
X132807Y291348D01*
X132782Y291636D01*
X132764Y291923D01*
X132754Y292212D01*
X132750Y292500D01*
M02*
