G04 EAGLE Gerber RS-274X export*
G75*
%MOMM*%
%FSLAX34Y34*%
%LPD*%
%INSilkscreen Top*%
%IPPOS*%
%AMOC8*
5,1,8,0,0,1.08239X$1,22.5*%
G01*
%ADD10C,0.152400*%
%ADD11C,0.076200*%
%ADD12C,0.200000*%
%ADD13C,0.101600*%
%ADD14C,0.254000*%
%ADD15C,0.609600*%
%ADD16R,0.609600X0.254000*%
%ADD17C,0.127000*%


D10*
X278892Y1340358D02*
X287020Y1340358D01*
X286766Y1384554D01*
X278892Y1384554D01*
X278892Y1340358D01*
X229108Y1340358D02*
X220980Y1340358D01*
X229108Y1340358D02*
X228854Y1384554D01*
X220980Y1384554D01*
X220980Y1340358D01*
X203454Y1340358D02*
X304546Y1340358D01*
X203454Y1340358D02*
X203454Y1250442D01*
X304546Y1250442D01*
X304546Y1340358D01*
D11*
X284769Y1339144D02*
X284769Y1335165D01*
X284769Y1339144D02*
X282448Y1342129D01*
X284769Y1339144D02*
X287091Y1342129D01*
X284769Y1339144D02*
X281122Y1337818D01*
X284769Y1339144D02*
X288417Y1337818D01*
D10*
X287020Y1346454D02*
X287020Y1364488D01*
X229108Y1364488D02*
X229108Y1346454D01*
X278892Y1346454D02*
X278892Y1364488D01*
X220980Y1364488D02*
X220980Y1346454D01*
X202184Y1341628D02*
X305816Y1341628D01*
X202184Y1341628D02*
X202184Y1335024D01*
X305816Y1335024D02*
X305816Y1341628D01*
D11*
X320075Y1376313D02*
X320075Y1380292D01*
X317754Y1383277D01*
X320075Y1380292D02*
X322397Y1383277D01*
X320075Y1380292D02*
X316428Y1378966D01*
X320075Y1380292D02*
X323723Y1378966D01*
X220091Y1352169D02*
X220091Y1340231D01*
X216775Y1340231D01*
X216661Y1340233D01*
X216546Y1340239D01*
X216432Y1340249D01*
X216319Y1340263D01*
X216205Y1340280D01*
X216093Y1340302D01*
X215981Y1340327D01*
X215871Y1340357D01*
X215761Y1340390D01*
X215653Y1340427D01*
X215546Y1340467D01*
X215440Y1340512D01*
X215336Y1340559D01*
X215234Y1340611D01*
X215134Y1340666D01*
X215035Y1340724D01*
X214939Y1340786D01*
X214844Y1340851D01*
X214753Y1340919D01*
X214663Y1340991D01*
X214576Y1341065D01*
X214492Y1341142D01*
X214410Y1341223D01*
X214331Y1341306D01*
X214255Y1341391D01*
X214182Y1341480D01*
X214113Y1341570D01*
X214046Y1341663D01*
X213983Y1341759D01*
X213923Y1341856D01*
X213866Y1341956D01*
X213813Y1342057D01*
X213763Y1342160D01*
X213717Y1342265D01*
X213674Y1342371D01*
X213636Y1342479D01*
X213601Y1342588D01*
X213570Y1342698D01*
X213542Y1342809D01*
X213519Y1342921D01*
X213499Y1343034D01*
X213483Y1343147D01*
X213471Y1343261D01*
X213463Y1343375D01*
X213459Y1343490D01*
X213459Y1343604D01*
X213463Y1343719D01*
X213471Y1343833D01*
X213483Y1343947D01*
X213499Y1344060D01*
X213519Y1344173D01*
X213542Y1344285D01*
X213570Y1344396D01*
X213601Y1344506D01*
X213636Y1344615D01*
X213674Y1344723D01*
X213717Y1344829D01*
X213763Y1344934D01*
X213813Y1345037D01*
X213866Y1345138D01*
X213923Y1345238D01*
X213983Y1345335D01*
X214046Y1345431D01*
X214113Y1345524D01*
X214182Y1345614D01*
X214255Y1345703D01*
X214331Y1345788D01*
X214410Y1345871D01*
X214492Y1345952D01*
X214576Y1346029D01*
X214663Y1346103D01*
X214753Y1346175D01*
X214844Y1346243D01*
X214939Y1346308D01*
X215035Y1346370D01*
X215134Y1346428D01*
X215234Y1346483D01*
X215336Y1346535D01*
X215440Y1346582D01*
X215546Y1346627D01*
X215653Y1346667D01*
X215761Y1346704D01*
X215871Y1346737D01*
X215981Y1346767D01*
X216093Y1346792D01*
X216205Y1346814D01*
X216319Y1346831D01*
X216432Y1346845D01*
X216546Y1346855D01*
X216661Y1346861D01*
X216775Y1346863D01*
X220091Y1346863D01*
X216112Y1346863D02*
X213459Y1352169D01*
X208325Y1352169D02*
X208325Y1340231D01*
X203019Y1340231D01*
X203019Y1345537D02*
X208325Y1345537D01*
X198438Y1340231D02*
X198438Y1352169D01*
X191806Y1352169D02*
X198438Y1340231D01*
X191806Y1340231D02*
X191806Y1352169D01*
X179995Y1343216D02*
X179997Y1343109D01*
X180003Y1343003D01*
X180012Y1342897D01*
X180025Y1342791D01*
X180042Y1342686D01*
X180063Y1342581D01*
X180088Y1342478D01*
X180116Y1342375D01*
X180148Y1342273D01*
X180183Y1342173D01*
X180222Y1342074D01*
X180265Y1341976D01*
X180311Y1341880D01*
X180360Y1341785D01*
X180413Y1341693D01*
X180469Y1341602D01*
X180528Y1341514D01*
X180590Y1341427D01*
X180656Y1341343D01*
X180724Y1341261D01*
X180795Y1341182D01*
X180869Y1341105D01*
X180946Y1341031D01*
X181025Y1340960D01*
X181107Y1340892D01*
X181191Y1340826D01*
X181278Y1340764D01*
X181366Y1340705D01*
X181457Y1340649D01*
X181549Y1340596D01*
X181644Y1340547D01*
X181740Y1340501D01*
X181838Y1340458D01*
X181937Y1340419D01*
X182037Y1340384D01*
X182139Y1340352D01*
X182242Y1340324D01*
X182345Y1340299D01*
X182450Y1340278D01*
X182555Y1340261D01*
X182661Y1340248D01*
X182767Y1340239D01*
X182873Y1340233D01*
X182980Y1340231D01*
X183101Y1340233D01*
X183221Y1340239D01*
X183341Y1340248D01*
X183461Y1340261D01*
X183580Y1340278D01*
X183699Y1340299D01*
X183817Y1340323D01*
X183934Y1340352D01*
X184050Y1340383D01*
X184166Y1340419D01*
X184280Y1340458D01*
X184392Y1340501D01*
X184504Y1340547D01*
X184614Y1340596D01*
X184722Y1340650D01*
X184828Y1340706D01*
X184933Y1340766D01*
X185036Y1340829D01*
X185136Y1340895D01*
X185235Y1340964D01*
X185331Y1341037D01*
X185425Y1341112D01*
X185517Y1341190D01*
X185606Y1341272D01*
X185693Y1341356D01*
X185777Y1341442D01*
X185858Y1341531D01*
X185936Y1341623D01*
X186011Y1341717D01*
X186083Y1341814D01*
X186153Y1341912D01*
X186219Y1342013D01*
X186282Y1342116D01*
X186341Y1342221D01*
X186398Y1342327D01*
X186451Y1342436D01*
X186500Y1342545D01*
X186546Y1342657D01*
X186589Y1342770D01*
X186627Y1342884D01*
X180990Y1345538D02*
X180910Y1345458D01*
X180832Y1345376D01*
X180758Y1345292D01*
X180686Y1345204D01*
X180618Y1345115D01*
X180552Y1345022D01*
X180490Y1344928D01*
X180432Y1344832D01*
X180377Y1344733D01*
X180325Y1344633D01*
X180277Y1344531D01*
X180232Y1344427D01*
X180192Y1344322D01*
X180155Y1344215D01*
X180121Y1344107D01*
X180092Y1343998D01*
X180066Y1343888D01*
X180045Y1343777D01*
X180027Y1343666D01*
X180013Y1343554D01*
X180003Y1343442D01*
X179997Y1343329D01*
X179995Y1343216D01*
X180990Y1345537D02*
X186628Y1352169D01*
X179995Y1352169D01*
X175198Y1346200D02*
X175195Y1345965D01*
X175187Y1345730D01*
X175173Y1345496D01*
X175153Y1345262D01*
X175128Y1345028D01*
X175097Y1344796D01*
X175061Y1344564D01*
X175019Y1344332D01*
X174972Y1344102D01*
X174919Y1343874D01*
X174861Y1343646D01*
X174797Y1343420D01*
X174728Y1343196D01*
X174654Y1342973D01*
X174574Y1342752D01*
X174489Y1342533D01*
X174399Y1342316D01*
X174304Y1342101D01*
X174203Y1341889D01*
X174202Y1341889D02*
X174169Y1341797D01*
X174131Y1341706D01*
X174090Y1341617D01*
X174046Y1341529D01*
X173998Y1341444D01*
X173947Y1341360D01*
X173892Y1341278D01*
X173834Y1341199D01*
X173773Y1341122D01*
X173709Y1341048D01*
X173642Y1340976D01*
X173572Y1340907D01*
X173500Y1340841D01*
X173425Y1340777D01*
X173347Y1340717D01*
X173267Y1340660D01*
X173185Y1340606D01*
X173101Y1340556D01*
X173015Y1340509D01*
X172927Y1340465D01*
X172837Y1340425D01*
X172746Y1340388D01*
X172653Y1340356D01*
X172559Y1340327D01*
X172465Y1340301D01*
X172369Y1340280D01*
X172272Y1340262D01*
X172175Y1340249D01*
X172077Y1340239D01*
X171979Y1340233D01*
X171881Y1340231D01*
X171783Y1340233D01*
X171685Y1340239D01*
X171587Y1340249D01*
X171490Y1340262D01*
X171393Y1340280D01*
X171297Y1340301D01*
X171203Y1340327D01*
X171109Y1340356D01*
X171016Y1340388D01*
X170925Y1340425D01*
X170835Y1340465D01*
X170747Y1340509D01*
X170661Y1340556D01*
X170577Y1340606D01*
X170495Y1340660D01*
X170415Y1340717D01*
X170337Y1340777D01*
X170262Y1340841D01*
X170190Y1340907D01*
X170120Y1340976D01*
X170053Y1341048D01*
X169989Y1341122D01*
X169928Y1341199D01*
X169870Y1341278D01*
X169815Y1341360D01*
X169764Y1341444D01*
X169716Y1341529D01*
X169672Y1341617D01*
X169631Y1341706D01*
X169593Y1341797D01*
X169560Y1341889D01*
X169459Y1342101D01*
X169364Y1342316D01*
X169274Y1342533D01*
X169189Y1342752D01*
X169109Y1342973D01*
X169035Y1343195D01*
X168966Y1343420D01*
X168902Y1343646D01*
X168844Y1343874D01*
X168791Y1344102D01*
X168744Y1344332D01*
X168702Y1344564D01*
X168666Y1344796D01*
X168635Y1345028D01*
X168610Y1345262D01*
X168590Y1345496D01*
X168576Y1345730D01*
X168568Y1345965D01*
X168565Y1346200D01*
X175198Y1346200D02*
X175195Y1346435D01*
X175187Y1346670D01*
X175173Y1346904D01*
X175153Y1347138D01*
X175128Y1347372D01*
X175097Y1347604D01*
X175061Y1347836D01*
X175019Y1348068D01*
X174972Y1348298D01*
X174919Y1348526D01*
X174861Y1348754D01*
X174797Y1348980D01*
X174728Y1349204D01*
X174654Y1349427D01*
X174574Y1349648D01*
X174489Y1349867D01*
X174399Y1350084D01*
X174304Y1350299D01*
X174203Y1350511D01*
X174202Y1350511D02*
X174169Y1350603D01*
X174131Y1350694D01*
X174090Y1350783D01*
X174046Y1350871D01*
X173998Y1350956D01*
X173946Y1351040D01*
X173892Y1351122D01*
X173834Y1351201D01*
X173773Y1351278D01*
X173709Y1351352D01*
X173642Y1351424D01*
X173572Y1351493D01*
X173500Y1351559D01*
X173425Y1351623D01*
X173347Y1351683D01*
X173267Y1351740D01*
X173185Y1351794D01*
X173101Y1351844D01*
X173015Y1351891D01*
X172927Y1351935D01*
X172837Y1351975D01*
X172746Y1352012D01*
X172653Y1352044D01*
X172559Y1352073D01*
X172465Y1352099D01*
X172369Y1352120D01*
X172272Y1352138D01*
X172175Y1352151D01*
X172077Y1352161D01*
X171979Y1352167D01*
X171881Y1352169D01*
X169560Y1350511D02*
X169459Y1350299D01*
X169364Y1350084D01*
X169274Y1349867D01*
X169189Y1349648D01*
X169109Y1349427D01*
X169035Y1349205D01*
X168966Y1348980D01*
X168902Y1348754D01*
X168844Y1348526D01*
X168791Y1348298D01*
X168744Y1348068D01*
X168702Y1347836D01*
X168666Y1347604D01*
X168635Y1347372D01*
X168610Y1347138D01*
X168590Y1346904D01*
X168576Y1346670D01*
X168568Y1346435D01*
X168565Y1346200D01*
X169560Y1350511D02*
X169593Y1350603D01*
X169631Y1350694D01*
X169672Y1350783D01*
X169716Y1350871D01*
X169764Y1350956D01*
X169816Y1351040D01*
X169870Y1351122D01*
X169928Y1351201D01*
X169989Y1351278D01*
X170053Y1351352D01*
X170120Y1351424D01*
X170190Y1351493D01*
X170262Y1351559D01*
X170337Y1351623D01*
X170415Y1351683D01*
X170495Y1351740D01*
X170577Y1351794D01*
X170661Y1351844D01*
X170747Y1351891D01*
X170835Y1351935D01*
X170925Y1351975D01*
X171016Y1352012D01*
X171109Y1352044D01*
X171203Y1352073D01*
X171297Y1352099D01*
X171393Y1352120D01*
X171490Y1352138D01*
X171587Y1352151D01*
X171685Y1352161D01*
X171783Y1352167D01*
X171881Y1352169D01*
X174534Y1349516D02*
X169229Y1342884D01*
X163387Y1340231D02*
X163387Y1352169D01*
X156754Y1352169D02*
X163387Y1340231D01*
X156754Y1340231D02*
X156754Y1352169D01*
X147977Y1352169D02*
X147875Y1352167D01*
X147774Y1352161D01*
X147673Y1352151D01*
X147572Y1352138D01*
X147472Y1352120D01*
X147373Y1352099D01*
X147274Y1352074D01*
X147177Y1352045D01*
X147080Y1352013D01*
X146985Y1351977D01*
X146892Y1351937D01*
X146800Y1351894D01*
X146710Y1351847D01*
X146621Y1351796D01*
X146535Y1351743D01*
X146451Y1351686D01*
X146369Y1351626D01*
X146289Y1351563D01*
X146212Y1351497D01*
X146137Y1351428D01*
X146065Y1351356D01*
X145996Y1351281D01*
X145930Y1351204D01*
X145867Y1351124D01*
X145807Y1351042D01*
X145750Y1350958D01*
X145697Y1350872D01*
X145646Y1350783D01*
X145599Y1350693D01*
X145556Y1350601D01*
X145516Y1350508D01*
X145480Y1350413D01*
X145448Y1350316D01*
X145419Y1350219D01*
X145394Y1350120D01*
X145373Y1350021D01*
X145355Y1349921D01*
X145342Y1349820D01*
X145332Y1349719D01*
X145326Y1349618D01*
X145324Y1349516D01*
X147977Y1352169D02*
X148125Y1352167D01*
X148272Y1352161D01*
X148419Y1352152D01*
X148566Y1352138D01*
X148712Y1352121D01*
X148858Y1352099D01*
X149004Y1352074D01*
X149148Y1352045D01*
X149292Y1352013D01*
X149435Y1351976D01*
X149577Y1351936D01*
X149718Y1351892D01*
X149857Y1351844D01*
X149995Y1351793D01*
X150132Y1351738D01*
X150268Y1351679D01*
X150402Y1351617D01*
X150534Y1351552D01*
X150664Y1351483D01*
X150792Y1351410D01*
X150919Y1351335D01*
X151044Y1351256D01*
X151166Y1351173D01*
X151286Y1351088D01*
X151404Y1350999D01*
X151519Y1350907D01*
X151632Y1350813D01*
X151743Y1350715D01*
X151851Y1350614D01*
X151956Y1350511D01*
X151625Y1342884D02*
X151623Y1342782D01*
X151617Y1342681D01*
X151607Y1342580D01*
X151594Y1342479D01*
X151576Y1342379D01*
X151555Y1342280D01*
X151530Y1342181D01*
X151501Y1342084D01*
X151469Y1341987D01*
X151433Y1341892D01*
X151393Y1341799D01*
X151350Y1341707D01*
X151303Y1341617D01*
X151252Y1341528D01*
X151199Y1341442D01*
X151142Y1341358D01*
X151082Y1341276D01*
X151019Y1341196D01*
X150953Y1341119D01*
X150884Y1341044D01*
X150812Y1340972D01*
X150737Y1340903D01*
X150660Y1340837D01*
X150580Y1340774D01*
X150498Y1340714D01*
X150414Y1340657D01*
X150328Y1340604D01*
X150239Y1340553D01*
X150149Y1340506D01*
X150057Y1340463D01*
X149964Y1340423D01*
X149869Y1340387D01*
X149772Y1340355D01*
X149675Y1340326D01*
X149577Y1340301D01*
X149477Y1340280D01*
X149377Y1340262D01*
X149276Y1340249D01*
X149175Y1340239D01*
X149074Y1340233D01*
X148972Y1340231D01*
X148833Y1340233D01*
X148694Y1340239D01*
X148555Y1340249D01*
X148417Y1340262D01*
X148278Y1340280D01*
X148141Y1340301D01*
X148004Y1340326D01*
X147868Y1340355D01*
X147733Y1340388D01*
X147598Y1340424D01*
X147465Y1340465D01*
X147333Y1340509D01*
X147202Y1340556D01*
X147073Y1340608D01*
X146945Y1340663D01*
X146819Y1340721D01*
X146694Y1340783D01*
X146572Y1340849D01*
X146451Y1340917D01*
X146332Y1340990D01*
X146215Y1341065D01*
X146100Y1341144D01*
X145988Y1341226D01*
X150299Y1345205D02*
X150384Y1345153D01*
X150467Y1345097D01*
X150548Y1345039D01*
X150627Y1344977D01*
X150703Y1344913D01*
X150777Y1344846D01*
X150849Y1344776D01*
X150917Y1344704D01*
X150984Y1344629D01*
X151047Y1344552D01*
X151107Y1344472D01*
X151165Y1344390D01*
X151219Y1344306D01*
X151270Y1344221D01*
X151318Y1344133D01*
X151363Y1344044D01*
X151404Y1343953D01*
X151442Y1343860D01*
X151476Y1343766D01*
X151507Y1343672D01*
X151535Y1343575D01*
X151559Y1343478D01*
X151579Y1343381D01*
X151595Y1343282D01*
X151608Y1343183D01*
X151618Y1343084D01*
X151623Y1342984D01*
X151625Y1342884D01*
X146651Y1347195D02*
X146566Y1347247D01*
X146483Y1347303D01*
X146402Y1347361D01*
X146323Y1347423D01*
X146247Y1347487D01*
X146173Y1347554D01*
X146101Y1347624D01*
X146033Y1347696D01*
X145966Y1347771D01*
X145903Y1347848D01*
X145843Y1347928D01*
X145785Y1348010D01*
X145731Y1348094D01*
X145680Y1348179D01*
X145632Y1348267D01*
X145587Y1348356D01*
X145546Y1348447D01*
X145508Y1348540D01*
X145474Y1348634D01*
X145443Y1348728D01*
X145415Y1348825D01*
X145391Y1348922D01*
X145371Y1349019D01*
X145355Y1349118D01*
X145342Y1349217D01*
X145332Y1349316D01*
X145327Y1349416D01*
X145325Y1349516D01*
X146651Y1347195D02*
X150299Y1345205D01*
X140908Y1345537D02*
X136928Y1345537D01*
X136826Y1345539D01*
X136725Y1345545D01*
X136624Y1345555D01*
X136523Y1345568D01*
X136423Y1345586D01*
X136324Y1345607D01*
X136225Y1345632D01*
X136128Y1345661D01*
X136031Y1345693D01*
X135936Y1345729D01*
X135843Y1345769D01*
X135751Y1345812D01*
X135661Y1345859D01*
X135572Y1345910D01*
X135486Y1345963D01*
X135402Y1346020D01*
X135320Y1346080D01*
X135240Y1346143D01*
X135163Y1346209D01*
X135088Y1346278D01*
X135016Y1346350D01*
X134947Y1346425D01*
X134881Y1346502D01*
X134818Y1346582D01*
X134758Y1346664D01*
X134701Y1346748D01*
X134648Y1346834D01*
X134597Y1346923D01*
X134550Y1347013D01*
X134507Y1347105D01*
X134467Y1347198D01*
X134431Y1347293D01*
X134399Y1347390D01*
X134370Y1347487D01*
X134345Y1347586D01*
X134324Y1347685D01*
X134306Y1347785D01*
X134293Y1347886D01*
X134283Y1347987D01*
X134277Y1348088D01*
X134275Y1348190D01*
X134275Y1348853D01*
X134276Y1348853D02*
X134278Y1348967D01*
X134284Y1349082D01*
X134294Y1349196D01*
X134308Y1349309D01*
X134325Y1349423D01*
X134347Y1349535D01*
X134372Y1349647D01*
X134402Y1349757D01*
X134435Y1349867D01*
X134472Y1349975D01*
X134512Y1350082D01*
X134557Y1350188D01*
X134604Y1350292D01*
X134656Y1350394D01*
X134711Y1350494D01*
X134769Y1350593D01*
X134831Y1350689D01*
X134896Y1350784D01*
X134964Y1350875D01*
X135036Y1350965D01*
X135110Y1351052D01*
X135187Y1351136D01*
X135268Y1351218D01*
X135351Y1351297D01*
X135436Y1351373D01*
X135525Y1351446D01*
X135615Y1351515D01*
X135708Y1351582D01*
X135804Y1351645D01*
X135901Y1351705D01*
X136001Y1351762D01*
X136102Y1351815D01*
X136205Y1351865D01*
X136310Y1351911D01*
X136416Y1351954D01*
X136524Y1351992D01*
X136633Y1352027D01*
X136743Y1352058D01*
X136854Y1352086D01*
X136966Y1352109D01*
X137079Y1352129D01*
X137192Y1352145D01*
X137306Y1352157D01*
X137420Y1352165D01*
X137535Y1352169D01*
X137649Y1352169D01*
X137764Y1352165D01*
X137878Y1352157D01*
X137992Y1352145D01*
X138105Y1352129D01*
X138218Y1352109D01*
X138330Y1352086D01*
X138441Y1352058D01*
X138551Y1352027D01*
X138660Y1351992D01*
X138768Y1351954D01*
X138874Y1351911D01*
X138979Y1351865D01*
X139082Y1351815D01*
X139183Y1351762D01*
X139283Y1351705D01*
X139380Y1351645D01*
X139476Y1351582D01*
X139569Y1351515D01*
X139659Y1351446D01*
X139748Y1351373D01*
X139833Y1351297D01*
X139916Y1351218D01*
X139997Y1351136D01*
X140074Y1351052D01*
X140148Y1350965D01*
X140220Y1350875D01*
X140288Y1350784D01*
X140353Y1350689D01*
X140415Y1350593D01*
X140473Y1350494D01*
X140528Y1350394D01*
X140580Y1350292D01*
X140627Y1350188D01*
X140672Y1350082D01*
X140712Y1349975D01*
X140749Y1349867D01*
X140782Y1349757D01*
X140812Y1349647D01*
X140837Y1349535D01*
X140859Y1349423D01*
X140876Y1349309D01*
X140890Y1349196D01*
X140900Y1349082D01*
X140906Y1348967D01*
X140908Y1348853D01*
X140908Y1345537D01*
X140906Y1345393D01*
X140900Y1345250D01*
X140890Y1345106D01*
X140877Y1344963D01*
X140859Y1344821D01*
X140838Y1344679D01*
X140813Y1344537D01*
X140784Y1344396D01*
X140751Y1344256D01*
X140715Y1344118D01*
X140674Y1343980D01*
X140630Y1343843D01*
X140583Y1343707D01*
X140531Y1343573D01*
X140476Y1343440D01*
X140418Y1343309D01*
X140356Y1343179D01*
X140290Y1343052D01*
X140221Y1342926D01*
X140148Y1342801D01*
X140073Y1342679D01*
X139994Y1342559D01*
X139911Y1342442D01*
X139826Y1342326D01*
X139738Y1342213D01*
X139646Y1342102D01*
X139552Y1341994D01*
X139454Y1341888D01*
X139354Y1341785D01*
X139251Y1341685D01*
X139145Y1341587D01*
X139037Y1341493D01*
X138926Y1341401D01*
X138813Y1341313D01*
X138698Y1341228D01*
X138580Y1341145D01*
X138460Y1341066D01*
X138338Y1340991D01*
X138213Y1340918D01*
X138087Y1340849D01*
X137960Y1340784D01*
X137830Y1340721D01*
X137699Y1340663D01*
X137566Y1340608D01*
X137432Y1340556D01*
X137296Y1340509D01*
X137159Y1340465D01*
X137022Y1340424D01*
X136883Y1340388D01*
X136743Y1340355D01*
X136602Y1340326D01*
X136460Y1340301D01*
X136318Y1340280D01*
X136176Y1340262D01*
X136033Y1340249D01*
X135889Y1340239D01*
X135746Y1340233D01*
X135602Y1340231D01*
X125879Y1352169D02*
X125777Y1352167D01*
X125676Y1352161D01*
X125575Y1352151D01*
X125474Y1352138D01*
X125374Y1352120D01*
X125275Y1352099D01*
X125176Y1352074D01*
X125079Y1352045D01*
X124982Y1352013D01*
X124887Y1351977D01*
X124794Y1351937D01*
X124702Y1351894D01*
X124612Y1351847D01*
X124523Y1351796D01*
X124437Y1351743D01*
X124353Y1351686D01*
X124271Y1351626D01*
X124191Y1351563D01*
X124114Y1351497D01*
X124039Y1351428D01*
X123967Y1351356D01*
X123898Y1351281D01*
X123832Y1351204D01*
X123769Y1351124D01*
X123709Y1351042D01*
X123652Y1350958D01*
X123599Y1350872D01*
X123548Y1350783D01*
X123501Y1350693D01*
X123458Y1350601D01*
X123418Y1350508D01*
X123382Y1350413D01*
X123350Y1350316D01*
X123321Y1350219D01*
X123296Y1350120D01*
X123275Y1350021D01*
X123257Y1349921D01*
X123244Y1349820D01*
X123234Y1349719D01*
X123228Y1349618D01*
X123226Y1349516D01*
X125879Y1352169D02*
X126027Y1352167D01*
X126174Y1352161D01*
X126321Y1352152D01*
X126468Y1352138D01*
X126614Y1352121D01*
X126760Y1352099D01*
X126906Y1352074D01*
X127050Y1352045D01*
X127194Y1352013D01*
X127337Y1351976D01*
X127479Y1351936D01*
X127620Y1351892D01*
X127759Y1351844D01*
X127897Y1351793D01*
X128034Y1351738D01*
X128170Y1351679D01*
X128304Y1351617D01*
X128436Y1351552D01*
X128566Y1351483D01*
X128694Y1351410D01*
X128821Y1351335D01*
X128946Y1351256D01*
X129068Y1351173D01*
X129188Y1351088D01*
X129306Y1350999D01*
X129421Y1350907D01*
X129534Y1350813D01*
X129645Y1350715D01*
X129753Y1350614D01*
X129858Y1350511D01*
X129527Y1342884D02*
X129525Y1342782D01*
X129519Y1342681D01*
X129509Y1342580D01*
X129496Y1342479D01*
X129478Y1342379D01*
X129457Y1342280D01*
X129432Y1342181D01*
X129403Y1342084D01*
X129371Y1341987D01*
X129335Y1341892D01*
X129295Y1341799D01*
X129252Y1341707D01*
X129205Y1341617D01*
X129154Y1341528D01*
X129101Y1341442D01*
X129044Y1341358D01*
X128984Y1341276D01*
X128921Y1341196D01*
X128855Y1341119D01*
X128786Y1341044D01*
X128714Y1340972D01*
X128639Y1340903D01*
X128562Y1340837D01*
X128482Y1340774D01*
X128400Y1340714D01*
X128316Y1340657D01*
X128230Y1340604D01*
X128141Y1340553D01*
X128051Y1340506D01*
X127959Y1340463D01*
X127866Y1340423D01*
X127771Y1340387D01*
X127674Y1340355D01*
X127577Y1340326D01*
X127479Y1340301D01*
X127379Y1340280D01*
X127279Y1340262D01*
X127178Y1340249D01*
X127077Y1340239D01*
X126976Y1340233D01*
X126874Y1340231D01*
X126735Y1340233D01*
X126596Y1340239D01*
X126457Y1340249D01*
X126319Y1340262D01*
X126180Y1340280D01*
X126043Y1340301D01*
X125906Y1340326D01*
X125770Y1340355D01*
X125635Y1340388D01*
X125500Y1340424D01*
X125367Y1340465D01*
X125235Y1340509D01*
X125104Y1340556D01*
X124975Y1340608D01*
X124847Y1340663D01*
X124721Y1340721D01*
X124596Y1340783D01*
X124474Y1340849D01*
X124353Y1340917D01*
X124234Y1340990D01*
X124117Y1341065D01*
X124002Y1341144D01*
X123890Y1341226D01*
X128201Y1345205D02*
X128286Y1345153D01*
X128369Y1345097D01*
X128450Y1345039D01*
X128529Y1344977D01*
X128605Y1344913D01*
X128679Y1344846D01*
X128751Y1344776D01*
X128819Y1344704D01*
X128886Y1344629D01*
X128949Y1344552D01*
X129009Y1344472D01*
X129067Y1344390D01*
X129121Y1344306D01*
X129172Y1344221D01*
X129220Y1344133D01*
X129265Y1344044D01*
X129306Y1343953D01*
X129344Y1343860D01*
X129378Y1343766D01*
X129409Y1343672D01*
X129437Y1343575D01*
X129461Y1343478D01*
X129481Y1343381D01*
X129497Y1343282D01*
X129510Y1343183D01*
X129520Y1343084D01*
X129525Y1342984D01*
X129527Y1342884D01*
X124553Y1347195D02*
X124468Y1347247D01*
X124385Y1347303D01*
X124304Y1347361D01*
X124225Y1347423D01*
X124149Y1347487D01*
X124075Y1347554D01*
X124003Y1347624D01*
X123935Y1347696D01*
X123868Y1347771D01*
X123805Y1347848D01*
X123745Y1347928D01*
X123687Y1348010D01*
X123633Y1348094D01*
X123582Y1348179D01*
X123534Y1348267D01*
X123489Y1348356D01*
X123448Y1348447D01*
X123410Y1348540D01*
X123376Y1348634D01*
X123345Y1348728D01*
X123317Y1348825D01*
X123293Y1348922D01*
X123273Y1349019D01*
X123257Y1349118D01*
X123244Y1349217D01*
X123234Y1349316D01*
X123229Y1349416D01*
X123227Y1349516D01*
X124553Y1347195D02*
X128201Y1345205D01*
X118409Y1340231D02*
X118409Y1352169D01*
X118409Y1340231D02*
X113103Y1340231D01*
X113103Y1345537D02*
X118409Y1345537D01*
X108523Y1340231D02*
X108523Y1352169D01*
X108523Y1345537D02*
X101891Y1345537D01*
X101891Y1340231D02*
X101891Y1352169D01*
X94158Y1352169D02*
X94158Y1340231D01*
X97474Y1340231D02*
X90842Y1340231D01*
X86405Y1340231D02*
X86405Y1352169D01*
X81099Y1352169D01*
D10*
X456692Y1340358D02*
X464820Y1340358D01*
X464566Y1384554D01*
X456692Y1384554D01*
X456692Y1340358D01*
X406908Y1340358D02*
X398780Y1340358D01*
X406908Y1340358D02*
X406654Y1384554D01*
X398780Y1384554D01*
X398780Y1340358D01*
X381254Y1340358D02*
X482346Y1340358D01*
X381254Y1340358D02*
X381254Y1250442D01*
X482346Y1250442D01*
X482346Y1340358D01*
D11*
X462569Y1339144D02*
X462569Y1335165D01*
X462569Y1339144D02*
X460248Y1342129D01*
X462569Y1339144D02*
X464891Y1342129D01*
X462569Y1339144D02*
X458922Y1337818D01*
X462569Y1339144D02*
X466217Y1337818D01*
D10*
X464820Y1346454D02*
X464820Y1364488D01*
X406908Y1364488D02*
X406908Y1346454D01*
X456692Y1346454D02*
X456692Y1364488D01*
X398780Y1364488D02*
X398780Y1346454D01*
X379984Y1341628D02*
X483616Y1341628D01*
X379984Y1341628D02*
X379984Y1335024D01*
X483616Y1335024D02*
X483616Y1341628D01*
D11*
X497875Y1376313D02*
X497875Y1380292D01*
X495554Y1383277D01*
X497875Y1380292D02*
X500197Y1383277D01*
X497875Y1380292D02*
X494228Y1378966D01*
X497875Y1380292D02*
X501523Y1378966D01*
X397891Y1301369D02*
X397891Y1289431D01*
X394575Y1289431D01*
X394461Y1289433D01*
X394346Y1289439D01*
X394232Y1289449D01*
X394119Y1289463D01*
X394005Y1289480D01*
X393893Y1289502D01*
X393781Y1289527D01*
X393671Y1289557D01*
X393561Y1289590D01*
X393453Y1289627D01*
X393346Y1289667D01*
X393240Y1289712D01*
X393136Y1289759D01*
X393034Y1289811D01*
X392934Y1289866D01*
X392835Y1289924D01*
X392739Y1289986D01*
X392644Y1290051D01*
X392553Y1290119D01*
X392463Y1290191D01*
X392376Y1290265D01*
X392292Y1290342D01*
X392210Y1290423D01*
X392131Y1290506D01*
X392055Y1290591D01*
X391982Y1290680D01*
X391913Y1290770D01*
X391846Y1290863D01*
X391783Y1290959D01*
X391723Y1291056D01*
X391666Y1291156D01*
X391613Y1291257D01*
X391563Y1291360D01*
X391517Y1291465D01*
X391474Y1291571D01*
X391436Y1291679D01*
X391401Y1291788D01*
X391370Y1291898D01*
X391342Y1292009D01*
X391319Y1292121D01*
X391299Y1292234D01*
X391283Y1292347D01*
X391271Y1292461D01*
X391263Y1292575D01*
X391259Y1292690D01*
X391259Y1292804D01*
X391263Y1292919D01*
X391271Y1293033D01*
X391283Y1293147D01*
X391299Y1293260D01*
X391319Y1293373D01*
X391342Y1293485D01*
X391370Y1293596D01*
X391401Y1293706D01*
X391436Y1293815D01*
X391474Y1293923D01*
X391517Y1294029D01*
X391563Y1294134D01*
X391613Y1294237D01*
X391666Y1294338D01*
X391723Y1294438D01*
X391783Y1294535D01*
X391846Y1294631D01*
X391913Y1294724D01*
X391982Y1294814D01*
X392055Y1294903D01*
X392131Y1294988D01*
X392210Y1295071D01*
X392292Y1295152D01*
X392376Y1295229D01*
X392463Y1295303D01*
X392553Y1295375D01*
X392644Y1295443D01*
X392739Y1295508D01*
X392835Y1295570D01*
X392934Y1295628D01*
X393034Y1295683D01*
X393136Y1295735D01*
X393240Y1295782D01*
X393346Y1295827D01*
X393453Y1295867D01*
X393561Y1295904D01*
X393671Y1295937D01*
X393781Y1295967D01*
X393893Y1295992D01*
X394005Y1296014D01*
X394119Y1296031D01*
X394232Y1296045D01*
X394346Y1296055D01*
X394461Y1296061D01*
X394575Y1296063D01*
X397891Y1296063D01*
X393912Y1296063D02*
X391259Y1301369D01*
X386125Y1301369D02*
X386125Y1289431D01*
X380819Y1289431D01*
X380819Y1294737D02*
X386125Y1294737D01*
X376238Y1289431D02*
X376238Y1301369D01*
X369606Y1301369D02*
X376238Y1289431D01*
X369606Y1289431D02*
X369606Y1301369D01*
X357795Y1292416D02*
X357797Y1292309D01*
X357803Y1292203D01*
X357812Y1292097D01*
X357825Y1291991D01*
X357842Y1291886D01*
X357863Y1291781D01*
X357888Y1291678D01*
X357916Y1291575D01*
X357948Y1291473D01*
X357983Y1291373D01*
X358022Y1291274D01*
X358065Y1291176D01*
X358111Y1291080D01*
X358160Y1290985D01*
X358213Y1290893D01*
X358269Y1290802D01*
X358328Y1290714D01*
X358390Y1290627D01*
X358456Y1290543D01*
X358524Y1290461D01*
X358595Y1290382D01*
X358669Y1290305D01*
X358746Y1290231D01*
X358825Y1290160D01*
X358907Y1290092D01*
X358991Y1290026D01*
X359078Y1289964D01*
X359166Y1289905D01*
X359257Y1289849D01*
X359349Y1289796D01*
X359444Y1289747D01*
X359540Y1289701D01*
X359638Y1289658D01*
X359737Y1289619D01*
X359837Y1289584D01*
X359939Y1289552D01*
X360042Y1289524D01*
X360145Y1289499D01*
X360250Y1289478D01*
X360355Y1289461D01*
X360461Y1289448D01*
X360567Y1289439D01*
X360673Y1289433D01*
X360780Y1289431D01*
X360901Y1289433D01*
X361021Y1289439D01*
X361141Y1289448D01*
X361261Y1289461D01*
X361380Y1289478D01*
X361499Y1289499D01*
X361617Y1289523D01*
X361734Y1289552D01*
X361850Y1289583D01*
X361966Y1289619D01*
X362080Y1289658D01*
X362192Y1289701D01*
X362304Y1289747D01*
X362414Y1289796D01*
X362522Y1289850D01*
X362628Y1289906D01*
X362733Y1289966D01*
X362836Y1290029D01*
X362936Y1290095D01*
X363035Y1290164D01*
X363131Y1290237D01*
X363225Y1290312D01*
X363317Y1290390D01*
X363406Y1290472D01*
X363493Y1290556D01*
X363577Y1290642D01*
X363658Y1290731D01*
X363736Y1290823D01*
X363811Y1290917D01*
X363883Y1291014D01*
X363953Y1291112D01*
X364019Y1291213D01*
X364082Y1291316D01*
X364141Y1291421D01*
X364198Y1291527D01*
X364251Y1291636D01*
X364300Y1291745D01*
X364346Y1291857D01*
X364389Y1291970D01*
X364427Y1292084D01*
X358790Y1294738D02*
X358710Y1294658D01*
X358632Y1294576D01*
X358558Y1294492D01*
X358486Y1294404D01*
X358418Y1294315D01*
X358352Y1294222D01*
X358290Y1294128D01*
X358232Y1294032D01*
X358177Y1293933D01*
X358125Y1293833D01*
X358077Y1293731D01*
X358032Y1293627D01*
X357992Y1293522D01*
X357955Y1293415D01*
X357921Y1293307D01*
X357892Y1293198D01*
X357866Y1293088D01*
X357845Y1292977D01*
X357827Y1292866D01*
X357813Y1292754D01*
X357803Y1292642D01*
X357797Y1292529D01*
X357795Y1292416D01*
X358790Y1294737D02*
X364428Y1301369D01*
X357795Y1301369D01*
X352998Y1295400D02*
X352995Y1295165D01*
X352987Y1294930D01*
X352973Y1294696D01*
X352953Y1294462D01*
X352928Y1294228D01*
X352897Y1293996D01*
X352861Y1293764D01*
X352819Y1293532D01*
X352772Y1293302D01*
X352719Y1293074D01*
X352661Y1292846D01*
X352597Y1292620D01*
X352528Y1292396D01*
X352454Y1292173D01*
X352374Y1291952D01*
X352289Y1291733D01*
X352199Y1291516D01*
X352104Y1291301D01*
X352003Y1291089D01*
X352002Y1291089D02*
X351969Y1290997D01*
X351931Y1290906D01*
X351890Y1290817D01*
X351846Y1290729D01*
X351798Y1290644D01*
X351747Y1290560D01*
X351692Y1290478D01*
X351634Y1290399D01*
X351573Y1290322D01*
X351509Y1290248D01*
X351442Y1290176D01*
X351372Y1290107D01*
X351300Y1290041D01*
X351225Y1289977D01*
X351147Y1289917D01*
X351067Y1289860D01*
X350985Y1289806D01*
X350901Y1289756D01*
X350815Y1289709D01*
X350727Y1289665D01*
X350637Y1289625D01*
X350546Y1289588D01*
X350453Y1289556D01*
X350359Y1289527D01*
X350265Y1289501D01*
X350169Y1289480D01*
X350072Y1289462D01*
X349975Y1289449D01*
X349877Y1289439D01*
X349779Y1289433D01*
X349681Y1289431D01*
X349583Y1289433D01*
X349485Y1289439D01*
X349387Y1289449D01*
X349290Y1289462D01*
X349193Y1289480D01*
X349097Y1289501D01*
X349003Y1289527D01*
X348909Y1289556D01*
X348816Y1289588D01*
X348725Y1289625D01*
X348635Y1289665D01*
X348547Y1289709D01*
X348461Y1289756D01*
X348377Y1289806D01*
X348295Y1289860D01*
X348215Y1289917D01*
X348137Y1289977D01*
X348062Y1290041D01*
X347990Y1290107D01*
X347920Y1290176D01*
X347853Y1290248D01*
X347789Y1290322D01*
X347728Y1290399D01*
X347670Y1290478D01*
X347615Y1290560D01*
X347564Y1290644D01*
X347516Y1290729D01*
X347472Y1290817D01*
X347431Y1290906D01*
X347393Y1290997D01*
X347360Y1291089D01*
X347259Y1291301D01*
X347164Y1291516D01*
X347074Y1291733D01*
X346989Y1291952D01*
X346909Y1292173D01*
X346835Y1292395D01*
X346766Y1292620D01*
X346702Y1292846D01*
X346644Y1293074D01*
X346591Y1293302D01*
X346544Y1293532D01*
X346502Y1293764D01*
X346466Y1293996D01*
X346435Y1294228D01*
X346410Y1294462D01*
X346390Y1294696D01*
X346376Y1294930D01*
X346368Y1295165D01*
X346365Y1295400D01*
X352998Y1295400D02*
X352995Y1295635D01*
X352987Y1295870D01*
X352973Y1296104D01*
X352953Y1296338D01*
X352928Y1296572D01*
X352897Y1296804D01*
X352861Y1297036D01*
X352819Y1297268D01*
X352772Y1297498D01*
X352719Y1297726D01*
X352661Y1297954D01*
X352597Y1298180D01*
X352528Y1298404D01*
X352454Y1298627D01*
X352374Y1298848D01*
X352289Y1299067D01*
X352199Y1299284D01*
X352104Y1299499D01*
X352003Y1299711D01*
X352002Y1299711D02*
X351969Y1299803D01*
X351931Y1299894D01*
X351890Y1299983D01*
X351846Y1300071D01*
X351798Y1300156D01*
X351746Y1300240D01*
X351692Y1300322D01*
X351634Y1300401D01*
X351573Y1300478D01*
X351509Y1300552D01*
X351442Y1300624D01*
X351372Y1300693D01*
X351300Y1300759D01*
X351225Y1300823D01*
X351147Y1300883D01*
X351067Y1300940D01*
X350985Y1300994D01*
X350901Y1301044D01*
X350815Y1301091D01*
X350727Y1301135D01*
X350637Y1301175D01*
X350546Y1301212D01*
X350453Y1301244D01*
X350359Y1301273D01*
X350265Y1301299D01*
X350169Y1301320D01*
X350072Y1301338D01*
X349975Y1301351D01*
X349877Y1301361D01*
X349779Y1301367D01*
X349681Y1301369D01*
X347360Y1299711D02*
X347259Y1299499D01*
X347164Y1299284D01*
X347074Y1299067D01*
X346989Y1298848D01*
X346909Y1298627D01*
X346835Y1298405D01*
X346766Y1298180D01*
X346702Y1297954D01*
X346644Y1297726D01*
X346591Y1297498D01*
X346544Y1297268D01*
X346502Y1297036D01*
X346466Y1296804D01*
X346435Y1296572D01*
X346410Y1296338D01*
X346390Y1296104D01*
X346376Y1295870D01*
X346368Y1295635D01*
X346365Y1295400D01*
X347360Y1299711D02*
X347393Y1299803D01*
X347431Y1299894D01*
X347472Y1299983D01*
X347516Y1300071D01*
X347564Y1300156D01*
X347616Y1300240D01*
X347670Y1300322D01*
X347728Y1300401D01*
X347789Y1300478D01*
X347853Y1300552D01*
X347920Y1300624D01*
X347990Y1300693D01*
X348062Y1300759D01*
X348137Y1300823D01*
X348215Y1300883D01*
X348295Y1300940D01*
X348377Y1300994D01*
X348461Y1301044D01*
X348547Y1301091D01*
X348635Y1301135D01*
X348725Y1301175D01*
X348816Y1301212D01*
X348909Y1301244D01*
X349003Y1301273D01*
X349097Y1301299D01*
X349193Y1301320D01*
X349290Y1301338D01*
X349387Y1301351D01*
X349485Y1301361D01*
X349583Y1301367D01*
X349681Y1301369D01*
X352334Y1298716D02*
X347029Y1292084D01*
X341187Y1289431D02*
X341187Y1301369D01*
X334554Y1301369D02*
X341187Y1289431D01*
X334554Y1289431D02*
X334554Y1301369D01*
X325777Y1301369D02*
X325675Y1301367D01*
X325574Y1301361D01*
X325473Y1301351D01*
X325372Y1301338D01*
X325272Y1301320D01*
X325173Y1301299D01*
X325074Y1301274D01*
X324977Y1301245D01*
X324880Y1301213D01*
X324785Y1301177D01*
X324692Y1301137D01*
X324600Y1301094D01*
X324510Y1301047D01*
X324421Y1300996D01*
X324335Y1300943D01*
X324251Y1300886D01*
X324169Y1300826D01*
X324089Y1300763D01*
X324012Y1300697D01*
X323937Y1300628D01*
X323865Y1300556D01*
X323796Y1300481D01*
X323730Y1300404D01*
X323667Y1300324D01*
X323607Y1300242D01*
X323550Y1300158D01*
X323497Y1300072D01*
X323446Y1299983D01*
X323399Y1299893D01*
X323356Y1299801D01*
X323316Y1299708D01*
X323280Y1299613D01*
X323248Y1299516D01*
X323219Y1299419D01*
X323194Y1299320D01*
X323173Y1299221D01*
X323155Y1299121D01*
X323142Y1299020D01*
X323132Y1298919D01*
X323126Y1298818D01*
X323124Y1298716D01*
X325777Y1301369D02*
X325925Y1301367D01*
X326072Y1301361D01*
X326219Y1301352D01*
X326366Y1301338D01*
X326512Y1301321D01*
X326658Y1301299D01*
X326804Y1301274D01*
X326948Y1301245D01*
X327092Y1301213D01*
X327235Y1301176D01*
X327377Y1301136D01*
X327518Y1301092D01*
X327657Y1301044D01*
X327795Y1300993D01*
X327932Y1300938D01*
X328068Y1300879D01*
X328202Y1300817D01*
X328334Y1300752D01*
X328464Y1300683D01*
X328592Y1300610D01*
X328719Y1300535D01*
X328844Y1300456D01*
X328966Y1300373D01*
X329086Y1300288D01*
X329204Y1300199D01*
X329319Y1300107D01*
X329432Y1300013D01*
X329543Y1299915D01*
X329651Y1299814D01*
X329756Y1299711D01*
X329425Y1292084D02*
X329423Y1291982D01*
X329417Y1291881D01*
X329407Y1291780D01*
X329394Y1291679D01*
X329376Y1291579D01*
X329355Y1291480D01*
X329330Y1291381D01*
X329301Y1291284D01*
X329269Y1291187D01*
X329233Y1291092D01*
X329193Y1290999D01*
X329150Y1290907D01*
X329103Y1290817D01*
X329052Y1290728D01*
X328999Y1290642D01*
X328942Y1290558D01*
X328882Y1290476D01*
X328819Y1290396D01*
X328753Y1290319D01*
X328684Y1290244D01*
X328612Y1290172D01*
X328537Y1290103D01*
X328460Y1290037D01*
X328380Y1289974D01*
X328298Y1289914D01*
X328214Y1289857D01*
X328128Y1289804D01*
X328039Y1289753D01*
X327949Y1289706D01*
X327857Y1289663D01*
X327764Y1289623D01*
X327669Y1289587D01*
X327572Y1289555D01*
X327475Y1289526D01*
X327377Y1289501D01*
X327277Y1289480D01*
X327177Y1289462D01*
X327076Y1289449D01*
X326975Y1289439D01*
X326874Y1289433D01*
X326772Y1289431D01*
X326633Y1289433D01*
X326494Y1289439D01*
X326355Y1289449D01*
X326217Y1289462D01*
X326078Y1289480D01*
X325941Y1289501D01*
X325804Y1289526D01*
X325668Y1289555D01*
X325533Y1289588D01*
X325398Y1289624D01*
X325265Y1289665D01*
X325133Y1289709D01*
X325002Y1289756D01*
X324873Y1289808D01*
X324745Y1289863D01*
X324619Y1289921D01*
X324494Y1289983D01*
X324372Y1290049D01*
X324251Y1290117D01*
X324132Y1290190D01*
X324015Y1290265D01*
X323900Y1290344D01*
X323788Y1290426D01*
X328099Y1294405D02*
X328184Y1294353D01*
X328267Y1294297D01*
X328348Y1294239D01*
X328427Y1294177D01*
X328503Y1294113D01*
X328577Y1294046D01*
X328649Y1293976D01*
X328717Y1293904D01*
X328784Y1293829D01*
X328847Y1293752D01*
X328907Y1293672D01*
X328965Y1293590D01*
X329019Y1293506D01*
X329070Y1293421D01*
X329118Y1293333D01*
X329163Y1293244D01*
X329204Y1293153D01*
X329242Y1293060D01*
X329276Y1292966D01*
X329307Y1292872D01*
X329335Y1292775D01*
X329359Y1292678D01*
X329379Y1292581D01*
X329395Y1292482D01*
X329408Y1292383D01*
X329418Y1292284D01*
X329423Y1292184D01*
X329425Y1292084D01*
X324451Y1296395D02*
X324366Y1296447D01*
X324283Y1296503D01*
X324202Y1296561D01*
X324123Y1296623D01*
X324047Y1296687D01*
X323973Y1296754D01*
X323901Y1296824D01*
X323833Y1296896D01*
X323766Y1296971D01*
X323703Y1297048D01*
X323643Y1297128D01*
X323585Y1297210D01*
X323531Y1297294D01*
X323480Y1297379D01*
X323432Y1297467D01*
X323387Y1297556D01*
X323346Y1297647D01*
X323308Y1297740D01*
X323274Y1297834D01*
X323243Y1297928D01*
X323215Y1298025D01*
X323191Y1298122D01*
X323171Y1298219D01*
X323155Y1298318D01*
X323142Y1298417D01*
X323132Y1298516D01*
X323127Y1298616D01*
X323125Y1298716D01*
X324451Y1296395D02*
X328099Y1294405D01*
X318708Y1294737D02*
X314728Y1294737D01*
X314626Y1294739D01*
X314525Y1294745D01*
X314424Y1294755D01*
X314323Y1294768D01*
X314223Y1294786D01*
X314124Y1294807D01*
X314025Y1294832D01*
X313928Y1294861D01*
X313831Y1294893D01*
X313736Y1294929D01*
X313643Y1294969D01*
X313551Y1295012D01*
X313461Y1295059D01*
X313372Y1295110D01*
X313286Y1295163D01*
X313202Y1295220D01*
X313120Y1295280D01*
X313040Y1295343D01*
X312963Y1295409D01*
X312888Y1295478D01*
X312816Y1295550D01*
X312747Y1295625D01*
X312681Y1295702D01*
X312618Y1295782D01*
X312558Y1295864D01*
X312501Y1295948D01*
X312448Y1296034D01*
X312397Y1296123D01*
X312350Y1296213D01*
X312307Y1296305D01*
X312267Y1296398D01*
X312231Y1296493D01*
X312199Y1296590D01*
X312170Y1296687D01*
X312145Y1296786D01*
X312124Y1296885D01*
X312106Y1296985D01*
X312093Y1297086D01*
X312083Y1297187D01*
X312077Y1297288D01*
X312075Y1297390D01*
X312075Y1298053D01*
X312076Y1298053D02*
X312078Y1298167D01*
X312084Y1298282D01*
X312094Y1298396D01*
X312108Y1298509D01*
X312125Y1298623D01*
X312147Y1298735D01*
X312172Y1298847D01*
X312202Y1298957D01*
X312235Y1299067D01*
X312272Y1299175D01*
X312312Y1299282D01*
X312357Y1299388D01*
X312404Y1299492D01*
X312456Y1299594D01*
X312511Y1299694D01*
X312569Y1299793D01*
X312631Y1299889D01*
X312696Y1299984D01*
X312764Y1300075D01*
X312836Y1300165D01*
X312910Y1300252D01*
X312987Y1300336D01*
X313068Y1300418D01*
X313151Y1300497D01*
X313236Y1300573D01*
X313325Y1300646D01*
X313415Y1300715D01*
X313508Y1300782D01*
X313604Y1300845D01*
X313701Y1300905D01*
X313801Y1300962D01*
X313902Y1301015D01*
X314005Y1301065D01*
X314110Y1301111D01*
X314216Y1301154D01*
X314324Y1301192D01*
X314433Y1301227D01*
X314543Y1301258D01*
X314654Y1301286D01*
X314766Y1301309D01*
X314879Y1301329D01*
X314992Y1301345D01*
X315106Y1301357D01*
X315220Y1301365D01*
X315335Y1301369D01*
X315449Y1301369D01*
X315564Y1301365D01*
X315678Y1301357D01*
X315792Y1301345D01*
X315905Y1301329D01*
X316018Y1301309D01*
X316130Y1301286D01*
X316241Y1301258D01*
X316351Y1301227D01*
X316460Y1301192D01*
X316568Y1301154D01*
X316674Y1301111D01*
X316779Y1301065D01*
X316882Y1301015D01*
X316983Y1300962D01*
X317083Y1300905D01*
X317180Y1300845D01*
X317276Y1300782D01*
X317369Y1300715D01*
X317459Y1300646D01*
X317548Y1300573D01*
X317633Y1300497D01*
X317716Y1300418D01*
X317797Y1300336D01*
X317874Y1300252D01*
X317948Y1300165D01*
X318020Y1300075D01*
X318088Y1299984D01*
X318153Y1299889D01*
X318215Y1299793D01*
X318273Y1299694D01*
X318328Y1299594D01*
X318380Y1299492D01*
X318427Y1299388D01*
X318472Y1299282D01*
X318512Y1299175D01*
X318549Y1299067D01*
X318582Y1298957D01*
X318612Y1298847D01*
X318637Y1298735D01*
X318659Y1298623D01*
X318676Y1298509D01*
X318690Y1298396D01*
X318700Y1298282D01*
X318706Y1298167D01*
X318708Y1298053D01*
X318708Y1294737D01*
X318706Y1294593D01*
X318700Y1294450D01*
X318690Y1294306D01*
X318677Y1294163D01*
X318659Y1294021D01*
X318638Y1293879D01*
X318613Y1293737D01*
X318584Y1293596D01*
X318551Y1293456D01*
X318515Y1293318D01*
X318474Y1293180D01*
X318430Y1293043D01*
X318383Y1292907D01*
X318331Y1292773D01*
X318276Y1292640D01*
X318218Y1292509D01*
X318156Y1292379D01*
X318090Y1292252D01*
X318021Y1292126D01*
X317948Y1292001D01*
X317873Y1291879D01*
X317794Y1291759D01*
X317711Y1291642D01*
X317626Y1291526D01*
X317538Y1291413D01*
X317446Y1291302D01*
X317352Y1291194D01*
X317254Y1291088D01*
X317154Y1290985D01*
X317051Y1290885D01*
X316945Y1290787D01*
X316837Y1290693D01*
X316726Y1290601D01*
X316613Y1290513D01*
X316498Y1290428D01*
X316380Y1290345D01*
X316260Y1290266D01*
X316138Y1290191D01*
X316013Y1290118D01*
X315887Y1290049D01*
X315760Y1289984D01*
X315630Y1289921D01*
X315499Y1289863D01*
X315366Y1289808D01*
X315232Y1289756D01*
X315096Y1289709D01*
X314959Y1289665D01*
X314822Y1289624D01*
X314683Y1289588D01*
X314543Y1289555D01*
X314402Y1289526D01*
X314260Y1289501D01*
X314118Y1289480D01*
X313976Y1289462D01*
X313833Y1289449D01*
X313689Y1289439D01*
X313546Y1289433D01*
X313402Y1289431D01*
X303679Y1301369D02*
X303577Y1301367D01*
X303476Y1301361D01*
X303375Y1301351D01*
X303274Y1301338D01*
X303174Y1301320D01*
X303075Y1301299D01*
X302976Y1301274D01*
X302879Y1301245D01*
X302782Y1301213D01*
X302687Y1301177D01*
X302594Y1301137D01*
X302502Y1301094D01*
X302412Y1301047D01*
X302323Y1300996D01*
X302237Y1300943D01*
X302153Y1300886D01*
X302071Y1300826D01*
X301991Y1300763D01*
X301914Y1300697D01*
X301839Y1300628D01*
X301767Y1300556D01*
X301698Y1300481D01*
X301632Y1300404D01*
X301569Y1300324D01*
X301509Y1300242D01*
X301452Y1300158D01*
X301399Y1300072D01*
X301348Y1299983D01*
X301301Y1299893D01*
X301258Y1299801D01*
X301218Y1299708D01*
X301182Y1299613D01*
X301150Y1299516D01*
X301121Y1299419D01*
X301096Y1299320D01*
X301075Y1299221D01*
X301057Y1299121D01*
X301044Y1299020D01*
X301034Y1298919D01*
X301028Y1298818D01*
X301026Y1298716D01*
X303679Y1301369D02*
X303827Y1301367D01*
X303974Y1301361D01*
X304121Y1301352D01*
X304268Y1301338D01*
X304414Y1301321D01*
X304560Y1301299D01*
X304706Y1301274D01*
X304850Y1301245D01*
X304994Y1301213D01*
X305137Y1301176D01*
X305279Y1301136D01*
X305420Y1301092D01*
X305559Y1301044D01*
X305697Y1300993D01*
X305834Y1300938D01*
X305970Y1300879D01*
X306104Y1300817D01*
X306236Y1300752D01*
X306366Y1300683D01*
X306494Y1300610D01*
X306621Y1300535D01*
X306746Y1300456D01*
X306868Y1300373D01*
X306988Y1300288D01*
X307106Y1300199D01*
X307221Y1300107D01*
X307334Y1300013D01*
X307445Y1299915D01*
X307553Y1299814D01*
X307658Y1299711D01*
X307327Y1292084D02*
X307325Y1291982D01*
X307319Y1291881D01*
X307309Y1291780D01*
X307296Y1291679D01*
X307278Y1291579D01*
X307257Y1291480D01*
X307232Y1291381D01*
X307203Y1291284D01*
X307171Y1291187D01*
X307135Y1291092D01*
X307095Y1290999D01*
X307052Y1290907D01*
X307005Y1290817D01*
X306954Y1290728D01*
X306901Y1290642D01*
X306844Y1290558D01*
X306784Y1290476D01*
X306721Y1290396D01*
X306655Y1290319D01*
X306586Y1290244D01*
X306514Y1290172D01*
X306439Y1290103D01*
X306362Y1290037D01*
X306282Y1289974D01*
X306200Y1289914D01*
X306116Y1289857D01*
X306030Y1289804D01*
X305941Y1289753D01*
X305851Y1289706D01*
X305759Y1289663D01*
X305666Y1289623D01*
X305571Y1289587D01*
X305474Y1289555D01*
X305377Y1289526D01*
X305279Y1289501D01*
X305179Y1289480D01*
X305079Y1289462D01*
X304978Y1289449D01*
X304877Y1289439D01*
X304776Y1289433D01*
X304674Y1289431D01*
X304535Y1289433D01*
X304396Y1289439D01*
X304257Y1289449D01*
X304119Y1289462D01*
X303980Y1289480D01*
X303843Y1289501D01*
X303706Y1289526D01*
X303570Y1289555D01*
X303435Y1289588D01*
X303300Y1289624D01*
X303167Y1289665D01*
X303035Y1289709D01*
X302904Y1289756D01*
X302775Y1289808D01*
X302647Y1289863D01*
X302521Y1289921D01*
X302396Y1289983D01*
X302274Y1290049D01*
X302153Y1290117D01*
X302034Y1290190D01*
X301917Y1290265D01*
X301802Y1290344D01*
X301690Y1290426D01*
X306001Y1294405D02*
X306086Y1294353D01*
X306169Y1294297D01*
X306250Y1294239D01*
X306329Y1294177D01*
X306405Y1294113D01*
X306479Y1294046D01*
X306551Y1293976D01*
X306619Y1293904D01*
X306686Y1293829D01*
X306749Y1293752D01*
X306809Y1293672D01*
X306867Y1293590D01*
X306921Y1293506D01*
X306972Y1293421D01*
X307020Y1293333D01*
X307065Y1293244D01*
X307106Y1293153D01*
X307144Y1293060D01*
X307178Y1292966D01*
X307209Y1292872D01*
X307237Y1292775D01*
X307261Y1292678D01*
X307281Y1292581D01*
X307297Y1292482D01*
X307310Y1292383D01*
X307320Y1292284D01*
X307325Y1292184D01*
X307327Y1292084D01*
X302353Y1296395D02*
X302268Y1296447D01*
X302185Y1296503D01*
X302104Y1296561D01*
X302025Y1296623D01*
X301949Y1296687D01*
X301875Y1296754D01*
X301803Y1296824D01*
X301735Y1296896D01*
X301668Y1296971D01*
X301605Y1297048D01*
X301545Y1297128D01*
X301487Y1297210D01*
X301433Y1297294D01*
X301382Y1297379D01*
X301334Y1297467D01*
X301289Y1297556D01*
X301248Y1297647D01*
X301210Y1297740D01*
X301176Y1297834D01*
X301145Y1297928D01*
X301117Y1298025D01*
X301093Y1298122D01*
X301073Y1298219D01*
X301057Y1298318D01*
X301044Y1298417D01*
X301034Y1298516D01*
X301029Y1298616D01*
X301027Y1298716D01*
X302353Y1296395D02*
X306001Y1294405D01*
X296209Y1289431D02*
X296209Y1301369D01*
X296209Y1289431D02*
X290903Y1289431D01*
X290903Y1294737D02*
X296209Y1294737D01*
X286323Y1289431D02*
X286323Y1301369D01*
X286323Y1294737D02*
X279691Y1294737D01*
X279691Y1289431D02*
X279691Y1301369D01*
X271958Y1301369D02*
X271958Y1289431D01*
X275274Y1289431D02*
X268642Y1289431D01*
X264205Y1289431D02*
X264205Y1301369D01*
X258899Y1301369D01*
D12*
X209000Y860750D02*
X209000Y790250D01*
X209000Y860750D02*
X299000Y860750D01*
X299000Y790250D01*
X209000Y790250D01*
X215394Y800500D02*
X215396Y800620D01*
X215402Y800740D01*
X215412Y800859D01*
X215426Y800978D01*
X215444Y801097D01*
X215465Y801215D01*
X215491Y801332D01*
X215521Y801448D01*
X215554Y801563D01*
X215591Y801677D01*
X215632Y801789D01*
X215677Y801901D01*
X215726Y802010D01*
X215778Y802118D01*
X215833Y802225D01*
X215892Y802329D01*
X215955Y802431D01*
X216021Y802531D01*
X216090Y802629D01*
X216162Y802725D01*
X216238Y802818D01*
X216316Y802908D01*
X216398Y802996D01*
X216482Y803081D01*
X216569Y803164D01*
X216659Y803243D01*
X216752Y803319D01*
X216847Y803392D01*
X216944Y803462D01*
X217044Y803529D01*
X217145Y803592D01*
X217249Y803652D01*
X217355Y803709D01*
X217462Y803762D01*
X217572Y803811D01*
X217683Y803857D01*
X217795Y803899D01*
X217909Y803937D01*
X218023Y803971D01*
X218139Y804002D01*
X218256Y804028D01*
X218374Y804051D01*
X218492Y804070D01*
X218611Y804085D01*
X218731Y804096D01*
X218850Y804103D01*
X218970Y804106D01*
X219090Y804105D01*
X219210Y804100D01*
X219329Y804091D01*
X219448Y804078D01*
X219567Y804061D01*
X219685Y804040D01*
X219802Y804016D01*
X219919Y803987D01*
X220034Y803955D01*
X220148Y803918D01*
X220261Y803878D01*
X220373Y803834D01*
X220483Y803787D01*
X220592Y803736D01*
X220698Y803681D01*
X220803Y803623D01*
X220906Y803561D01*
X221007Y803496D01*
X221105Y803428D01*
X221201Y803356D01*
X221295Y803282D01*
X221386Y803204D01*
X221475Y803123D01*
X221560Y803039D01*
X221643Y802953D01*
X221723Y802863D01*
X221801Y802772D01*
X221874Y802677D01*
X221945Y802581D01*
X222013Y802482D01*
X222077Y802380D01*
X222138Y802277D01*
X222195Y802172D01*
X222249Y802065D01*
X222299Y801956D01*
X222346Y801845D01*
X222389Y801733D01*
X222428Y801620D01*
X222463Y801505D01*
X222494Y801390D01*
X222522Y801273D01*
X222546Y801156D01*
X222566Y801037D01*
X222582Y800919D01*
X222594Y800799D01*
X222602Y800680D01*
X222606Y800560D01*
X222606Y800440D01*
X222602Y800320D01*
X222594Y800201D01*
X222582Y800081D01*
X222566Y799963D01*
X222546Y799844D01*
X222522Y799727D01*
X222494Y799610D01*
X222463Y799495D01*
X222428Y799380D01*
X222389Y799267D01*
X222346Y799155D01*
X222299Y799044D01*
X222249Y798935D01*
X222195Y798828D01*
X222138Y798723D01*
X222077Y798620D01*
X222013Y798518D01*
X221945Y798419D01*
X221874Y798323D01*
X221801Y798228D01*
X221723Y798137D01*
X221643Y798047D01*
X221560Y797961D01*
X221475Y797877D01*
X221386Y797796D01*
X221295Y797718D01*
X221201Y797644D01*
X221105Y797572D01*
X221007Y797504D01*
X220906Y797439D01*
X220803Y797377D01*
X220698Y797319D01*
X220592Y797264D01*
X220483Y797213D01*
X220373Y797166D01*
X220261Y797122D01*
X220148Y797082D01*
X220034Y797045D01*
X219919Y797013D01*
X219802Y796984D01*
X219685Y796960D01*
X219567Y796939D01*
X219448Y796922D01*
X219329Y796909D01*
X219210Y796900D01*
X219090Y796895D01*
X218970Y796894D01*
X218850Y796897D01*
X218731Y796904D01*
X218611Y796915D01*
X218492Y796930D01*
X218374Y796949D01*
X218256Y796972D01*
X218139Y796998D01*
X218023Y797029D01*
X217909Y797063D01*
X217795Y797101D01*
X217683Y797143D01*
X217572Y797189D01*
X217462Y797238D01*
X217355Y797291D01*
X217249Y797348D01*
X217145Y797408D01*
X217044Y797471D01*
X216944Y797538D01*
X216847Y797608D01*
X216752Y797681D01*
X216659Y797757D01*
X216569Y797836D01*
X216482Y797919D01*
X216398Y798004D01*
X216316Y798092D01*
X216238Y798182D01*
X216162Y798275D01*
X216090Y798371D01*
X216021Y798469D01*
X215955Y798569D01*
X215892Y798671D01*
X215833Y798775D01*
X215778Y798882D01*
X215726Y798990D01*
X215677Y799099D01*
X215632Y799211D01*
X215591Y799323D01*
X215554Y799437D01*
X215521Y799552D01*
X215491Y799668D01*
X215465Y799785D01*
X215444Y799903D01*
X215426Y800022D01*
X215412Y800141D01*
X215402Y800260D01*
X215396Y800380D01*
X215394Y800500D01*
X214000Y778500D02*
X214002Y778563D01*
X214008Y778625D01*
X214018Y778687D01*
X214031Y778749D01*
X214049Y778809D01*
X214070Y778868D01*
X214095Y778926D01*
X214124Y778982D01*
X214156Y779036D01*
X214191Y779088D01*
X214229Y779137D01*
X214271Y779185D01*
X214315Y779229D01*
X214363Y779271D01*
X214412Y779309D01*
X214464Y779344D01*
X214518Y779376D01*
X214574Y779405D01*
X214632Y779430D01*
X214691Y779451D01*
X214751Y779469D01*
X214813Y779482D01*
X214875Y779492D01*
X214937Y779498D01*
X215000Y779500D01*
X215063Y779498D01*
X215125Y779492D01*
X215187Y779482D01*
X215249Y779469D01*
X215309Y779451D01*
X215368Y779430D01*
X215426Y779405D01*
X215482Y779376D01*
X215536Y779344D01*
X215588Y779309D01*
X215637Y779271D01*
X215685Y779229D01*
X215729Y779185D01*
X215771Y779137D01*
X215809Y779088D01*
X215844Y779036D01*
X215876Y778982D01*
X215905Y778926D01*
X215930Y778868D01*
X215951Y778809D01*
X215969Y778749D01*
X215982Y778687D01*
X215992Y778625D01*
X215998Y778563D01*
X216000Y778500D01*
X215998Y778437D01*
X215992Y778375D01*
X215982Y778313D01*
X215969Y778251D01*
X215951Y778191D01*
X215930Y778132D01*
X215905Y778074D01*
X215876Y778018D01*
X215844Y777964D01*
X215809Y777912D01*
X215771Y777863D01*
X215729Y777815D01*
X215685Y777771D01*
X215637Y777729D01*
X215588Y777691D01*
X215536Y777656D01*
X215482Y777624D01*
X215426Y777595D01*
X215368Y777570D01*
X215309Y777549D01*
X215249Y777531D01*
X215187Y777518D01*
X215125Y777508D01*
X215063Y777502D01*
X215000Y777500D01*
X214937Y777502D01*
X214875Y777508D01*
X214813Y777518D01*
X214751Y777531D01*
X214691Y777549D01*
X214632Y777570D01*
X214574Y777595D01*
X214518Y777624D01*
X214464Y777656D01*
X214412Y777691D01*
X214363Y777729D01*
X214315Y777771D01*
X214271Y777815D01*
X214229Y777863D01*
X214191Y777912D01*
X214156Y777964D01*
X214124Y778018D01*
X214095Y778074D01*
X214070Y778132D01*
X214049Y778191D01*
X214031Y778251D01*
X214018Y778313D01*
X214008Y778375D01*
X214002Y778437D01*
X214000Y778500D01*
D13*
X202155Y791948D02*
X193700Y791948D01*
X202155Y791947D02*
X202267Y791949D01*
X202379Y791955D01*
X202491Y791964D01*
X202603Y791978D01*
X202714Y791995D01*
X202824Y792017D01*
X202933Y792041D01*
X203042Y792070D01*
X203149Y792103D01*
X203256Y792139D01*
X203360Y792179D01*
X203464Y792222D01*
X203566Y792269D01*
X203666Y792319D01*
X203765Y792373D01*
X203861Y792431D01*
X203956Y792491D01*
X204048Y792555D01*
X204138Y792622D01*
X204226Y792692D01*
X204311Y792765D01*
X204394Y792841D01*
X204474Y792919D01*
X204552Y793001D01*
X204626Y793085D01*
X204698Y793171D01*
X204766Y793260D01*
X204831Y793352D01*
X204894Y793445D01*
X204952Y793541D01*
X205008Y793638D01*
X205060Y793738D01*
X205109Y793839D01*
X205154Y793942D01*
X205196Y794046D01*
X205234Y794151D01*
X205268Y794258D01*
X205299Y794366D01*
X205325Y794475D01*
X205349Y794585D01*
X205368Y794696D01*
X205383Y794807D01*
X205395Y794919D01*
X205403Y795031D01*
X205407Y795143D01*
X205407Y795255D01*
X205403Y795367D01*
X205395Y795479D01*
X205383Y795591D01*
X205368Y795702D01*
X205349Y795813D01*
X205325Y795923D01*
X205299Y796032D01*
X205268Y796140D01*
X205234Y796247D01*
X205196Y796352D01*
X205154Y796456D01*
X205109Y796559D01*
X205060Y796660D01*
X205008Y796760D01*
X204952Y796857D01*
X204894Y796953D01*
X204831Y797046D01*
X204766Y797138D01*
X204698Y797227D01*
X204626Y797313D01*
X204552Y797397D01*
X204474Y797479D01*
X204394Y797557D01*
X204311Y797633D01*
X204226Y797706D01*
X204138Y797776D01*
X204048Y797843D01*
X203956Y797907D01*
X203861Y797967D01*
X203765Y798025D01*
X203666Y798079D01*
X203566Y798129D01*
X203464Y798176D01*
X203360Y798219D01*
X203256Y798259D01*
X203149Y798295D01*
X203042Y798328D01*
X202933Y798357D01*
X202824Y798381D01*
X202714Y798403D01*
X202603Y798420D01*
X202491Y798434D01*
X202379Y798443D01*
X202267Y798449D01*
X202155Y798451D01*
X193700Y798451D01*
X196301Y803780D02*
X193700Y807031D01*
X205407Y807031D01*
X205407Y803780D02*
X205407Y810283D01*
X199553Y815230D02*
X199323Y815233D01*
X199093Y815241D01*
X198863Y815255D01*
X198633Y815274D01*
X198404Y815299D01*
X198176Y815329D01*
X197948Y815364D01*
X197722Y815405D01*
X197496Y815452D01*
X197272Y815504D01*
X197049Y815561D01*
X196827Y815623D01*
X196607Y815691D01*
X196388Y815764D01*
X196172Y815842D01*
X195957Y815925D01*
X195744Y816014D01*
X195534Y816107D01*
X195326Y816206D01*
X195235Y816239D01*
X195146Y816276D01*
X195059Y816316D01*
X194973Y816360D01*
X194889Y816407D01*
X194807Y816457D01*
X194727Y816510D01*
X194649Y816567D01*
X194574Y816627D01*
X194501Y816690D01*
X194430Y816756D01*
X194363Y816824D01*
X194298Y816895D01*
X194236Y816969D01*
X194177Y817045D01*
X194121Y817123D01*
X194068Y817204D01*
X194018Y817286D01*
X193972Y817371D01*
X193929Y817457D01*
X193890Y817545D01*
X193854Y817634D01*
X193822Y817725D01*
X193794Y817817D01*
X193769Y817910D01*
X193748Y818004D01*
X193731Y818099D01*
X193717Y818194D01*
X193708Y818290D01*
X193702Y818386D01*
X193700Y818482D01*
X193702Y818578D01*
X193708Y818674D01*
X193717Y818770D01*
X193731Y818865D01*
X193748Y818960D01*
X193769Y819054D01*
X193794Y819147D01*
X193822Y819239D01*
X193854Y819330D01*
X193890Y819419D01*
X193929Y819507D01*
X193972Y819593D01*
X194018Y819678D01*
X194068Y819761D01*
X194121Y819841D01*
X194177Y819919D01*
X194236Y819995D01*
X194298Y820069D01*
X194363Y820140D01*
X194430Y820209D01*
X194501Y820274D01*
X194574Y820337D01*
X194649Y820397D01*
X194727Y820454D01*
X194807Y820507D01*
X194889Y820557D01*
X194973Y820605D01*
X195059Y820648D01*
X195146Y820688D01*
X195235Y820725D01*
X195326Y820758D01*
X195534Y820857D01*
X195744Y820950D01*
X195957Y821039D01*
X196172Y821122D01*
X196388Y821200D01*
X196607Y821273D01*
X196827Y821341D01*
X197049Y821403D01*
X197272Y821460D01*
X197496Y821512D01*
X197722Y821559D01*
X197948Y821600D01*
X198176Y821635D01*
X198404Y821665D01*
X198633Y821690D01*
X198863Y821709D01*
X199093Y821723D01*
X199323Y821731D01*
X199553Y821734D01*
X199553Y815230D02*
X199783Y815233D01*
X200013Y815241D01*
X200243Y815255D01*
X200473Y815274D01*
X200702Y815299D01*
X200930Y815329D01*
X201158Y815364D01*
X201384Y815405D01*
X201610Y815452D01*
X201834Y815504D01*
X202057Y815561D01*
X202279Y815623D01*
X202499Y815691D01*
X202718Y815764D01*
X202934Y815842D01*
X203149Y815925D01*
X203362Y816014D01*
X203572Y816107D01*
X203780Y816206D01*
X203871Y816239D01*
X203960Y816276D01*
X204047Y816316D01*
X204133Y816360D01*
X204217Y816407D01*
X204299Y816457D01*
X204379Y816511D01*
X204457Y816567D01*
X204532Y816627D01*
X204605Y816690D01*
X204676Y816756D01*
X204743Y816824D01*
X204808Y816895D01*
X204870Y816969D01*
X204929Y817045D01*
X204985Y817123D01*
X205038Y817204D01*
X205088Y817286D01*
X205134Y817371D01*
X205177Y817457D01*
X205216Y817545D01*
X205252Y817634D01*
X205284Y817725D01*
X205312Y817817D01*
X205337Y817910D01*
X205358Y818004D01*
X205375Y818099D01*
X205389Y818194D01*
X205398Y818290D01*
X205404Y818386D01*
X205406Y818482D01*
X203780Y820758D02*
X203572Y820857D01*
X203362Y820950D01*
X203149Y821039D01*
X202934Y821122D01*
X202718Y821200D01*
X202499Y821273D01*
X202279Y821341D01*
X202057Y821403D01*
X201834Y821460D01*
X201610Y821512D01*
X201384Y821559D01*
X201158Y821600D01*
X200930Y821635D01*
X200702Y821665D01*
X200473Y821690D01*
X200243Y821709D01*
X200013Y821723D01*
X199783Y821731D01*
X199553Y821734D01*
X203780Y820758D02*
X203871Y820725D01*
X203960Y820688D01*
X204047Y820648D01*
X204133Y820604D01*
X204217Y820557D01*
X204299Y820507D01*
X204379Y820454D01*
X204457Y820397D01*
X204532Y820337D01*
X204605Y820274D01*
X204676Y820208D01*
X204743Y820140D01*
X204808Y820069D01*
X204870Y819995D01*
X204929Y819919D01*
X204985Y819841D01*
X205038Y819760D01*
X205088Y819678D01*
X205134Y819593D01*
X205177Y819507D01*
X205216Y819419D01*
X205252Y819330D01*
X205284Y819239D01*
X205312Y819147D01*
X205337Y819054D01*
X205358Y818960D01*
X205375Y818865D01*
X205389Y818770D01*
X205398Y818674D01*
X205404Y818578D01*
X205406Y818482D01*
X202805Y815880D02*
X196301Y821083D01*
D12*
X386800Y790250D02*
X386800Y860750D01*
X476800Y860750D01*
X476800Y790250D01*
X386800Y790250D01*
X393194Y800500D02*
X393196Y800620D01*
X393202Y800740D01*
X393212Y800859D01*
X393226Y800978D01*
X393244Y801097D01*
X393265Y801215D01*
X393291Y801332D01*
X393321Y801448D01*
X393354Y801563D01*
X393391Y801677D01*
X393432Y801789D01*
X393477Y801901D01*
X393526Y802010D01*
X393578Y802118D01*
X393633Y802225D01*
X393692Y802329D01*
X393755Y802431D01*
X393821Y802531D01*
X393890Y802629D01*
X393962Y802725D01*
X394038Y802818D01*
X394116Y802908D01*
X394198Y802996D01*
X394282Y803081D01*
X394369Y803164D01*
X394459Y803243D01*
X394552Y803319D01*
X394647Y803392D01*
X394744Y803462D01*
X394844Y803529D01*
X394945Y803592D01*
X395049Y803652D01*
X395155Y803709D01*
X395262Y803762D01*
X395372Y803811D01*
X395483Y803857D01*
X395595Y803899D01*
X395709Y803937D01*
X395823Y803971D01*
X395939Y804002D01*
X396056Y804028D01*
X396174Y804051D01*
X396292Y804070D01*
X396411Y804085D01*
X396531Y804096D01*
X396650Y804103D01*
X396770Y804106D01*
X396890Y804105D01*
X397010Y804100D01*
X397129Y804091D01*
X397248Y804078D01*
X397367Y804061D01*
X397485Y804040D01*
X397602Y804016D01*
X397719Y803987D01*
X397834Y803955D01*
X397948Y803918D01*
X398061Y803878D01*
X398173Y803834D01*
X398283Y803787D01*
X398392Y803736D01*
X398498Y803681D01*
X398603Y803623D01*
X398706Y803561D01*
X398807Y803496D01*
X398905Y803428D01*
X399001Y803356D01*
X399095Y803282D01*
X399186Y803204D01*
X399275Y803123D01*
X399360Y803039D01*
X399443Y802953D01*
X399523Y802863D01*
X399601Y802772D01*
X399674Y802677D01*
X399745Y802581D01*
X399813Y802482D01*
X399877Y802380D01*
X399938Y802277D01*
X399995Y802172D01*
X400049Y802065D01*
X400099Y801956D01*
X400146Y801845D01*
X400189Y801733D01*
X400228Y801620D01*
X400263Y801505D01*
X400294Y801390D01*
X400322Y801273D01*
X400346Y801156D01*
X400366Y801037D01*
X400382Y800919D01*
X400394Y800799D01*
X400402Y800680D01*
X400406Y800560D01*
X400406Y800440D01*
X400402Y800320D01*
X400394Y800201D01*
X400382Y800081D01*
X400366Y799963D01*
X400346Y799844D01*
X400322Y799727D01*
X400294Y799610D01*
X400263Y799495D01*
X400228Y799380D01*
X400189Y799267D01*
X400146Y799155D01*
X400099Y799044D01*
X400049Y798935D01*
X399995Y798828D01*
X399938Y798723D01*
X399877Y798620D01*
X399813Y798518D01*
X399745Y798419D01*
X399674Y798323D01*
X399601Y798228D01*
X399523Y798137D01*
X399443Y798047D01*
X399360Y797961D01*
X399275Y797877D01*
X399186Y797796D01*
X399095Y797718D01*
X399001Y797644D01*
X398905Y797572D01*
X398807Y797504D01*
X398706Y797439D01*
X398603Y797377D01*
X398498Y797319D01*
X398392Y797264D01*
X398283Y797213D01*
X398173Y797166D01*
X398061Y797122D01*
X397948Y797082D01*
X397834Y797045D01*
X397719Y797013D01*
X397602Y796984D01*
X397485Y796960D01*
X397367Y796939D01*
X397248Y796922D01*
X397129Y796909D01*
X397010Y796900D01*
X396890Y796895D01*
X396770Y796894D01*
X396650Y796897D01*
X396531Y796904D01*
X396411Y796915D01*
X396292Y796930D01*
X396174Y796949D01*
X396056Y796972D01*
X395939Y796998D01*
X395823Y797029D01*
X395709Y797063D01*
X395595Y797101D01*
X395483Y797143D01*
X395372Y797189D01*
X395262Y797238D01*
X395155Y797291D01*
X395049Y797348D01*
X394945Y797408D01*
X394844Y797471D01*
X394744Y797538D01*
X394647Y797608D01*
X394552Y797681D01*
X394459Y797757D01*
X394369Y797836D01*
X394282Y797919D01*
X394198Y798004D01*
X394116Y798092D01*
X394038Y798182D01*
X393962Y798275D01*
X393890Y798371D01*
X393821Y798469D01*
X393755Y798569D01*
X393692Y798671D01*
X393633Y798775D01*
X393578Y798882D01*
X393526Y798990D01*
X393477Y799099D01*
X393432Y799211D01*
X393391Y799323D01*
X393354Y799437D01*
X393321Y799552D01*
X393291Y799668D01*
X393265Y799785D01*
X393244Y799903D01*
X393226Y800022D01*
X393212Y800141D01*
X393202Y800260D01*
X393196Y800380D01*
X393194Y800500D01*
X391800Y778500D02*
X391802Y778563D01*
X391808Y778625D01*
X391818Y778687D01*
X391831Y778749D01*
X391849Y778809D01*
X391870Y778868D01*
X391895Y778926D01*
X391924Y778982D01*
X391956Y779036D01*
X391991Y779088D01*
X392029Y779137D01*
X392071Y779185D01*
X392115Y779229D01*
X392163Y779271D01*
X392212Y779309D01*
X392264Y779344D01*
X392318Y779376D01*
X392374Y779405D01*
X392432Y779430D01*
X392491Y779451D01*
X392551Y779469D01*
X392613Y779482D01*
X392675Y779492D01*
X392737Y779498D01*
X392800Y779500D01*
X392863Y779498D01*
X392925Y779492D01*
X392987Y779482D01*
X393049Y779469D01*
X393109Y779451D01*
X393168Y779430D01*
X393226Y779405D01*
X393282Y779376D01*
X393336Y779344D01*
X393388Y779309D01*
X393437Y779271D01*
X393485Y779229D01*
X393529Y779185D01*
X393571Y779137D01*
X393609Y779088D01*
X393644Y779036D01*
X393676Y778982D01*
X393705Y778926D01*
X393730Y778868D01*
X393751Y778809D01*
X393769Y778749D01*
X393782Y778687D01*
X393792Y778625D01*
X393798Y778563D01*
X393800Y778500D01*
X393798Y778437D01*
X393792Y778375D01*
X393782Y778313D01*
X393769Y778251D01*
X393751Y778191D01*
X393730Y778132D01*
X393705Y778074D01*
X393676Y778018D01*
X393644Y777964D01*
X393609Y777912D01*
X393571Y777863D01*
X393529Y777815D01*
X393485Y777771D01*
X393437Y777729D01*
X393388Y777691D01*
X393336Y777656D01*
X393282Y777624D01*
X393226Y777595D01*
X393168Y777570D01*
X393109Y777549D01*
X393049Y777531D01*
X392987Y777518D01*
X392925Y777508D01*
X392863Y777502D01*
X392800Y777500D01*
X392737Y777502D01*
X392675Y777508D01*
X392613Y777518D01*
X392551Y777531D01*
X392491Y777549D01*
X392432Y777570D01*
X392374Y777595D01*
X392318Y777624D01*
X392264Y777656D01*
X392212Y777691D01*
X392163Y777729D01*
X392115Y777771D01*
X392071Y777815D01*
X392029Y777863D01*
X391991Y777912D01*
X391956Y777964D01*
X391924Y778018D01*
X391895Y778074D01*
X391870Y778132D01*
X391849Y778191D01*
X391831Y778251D01*
X391818Y778313D01*
X391808Y778375D01*
X391802Y778437D01*
X391800Y778500D01*
D13*
X379955Y791948D02*
X371500Y791948D01*
X379955Y791947D02*
X380067Y791949D01*
X380179Y791955D01*
X380291Y791964D01*
X380403Y791978D01*
X380514Y791995D01*
X380624Y792017D01*
X380733Y792041D01*
X380842Y792070D01*
X380949Y792103D01*
X381056Y792139D01*
X381160Y792179D01*
X381264Y792222D01*
X381366Y792269D01*
X381466Y792319D01*
X381565Y792373D01*
X381661Y792431D01*
X381756Y792491D01*
X381848Y792555D01*
X381938Y792622D01*
X382026Y792692D01*
X382111Y792765D01*
X382194Y792841D01*
X382274Y792919D01*
X382352Y793001D01*
X382426Y793085D01*
X382498Y793171D01*
X382566Y793260D01*
X382631Y793352D01*
X382694Y793445D01*
X382752Y793541D01*
X382808Y793638D01*
X382860Y793738D01*
X382909Y793839D01*
X382954Y793942D01*
X382996Y794046D01*
X383034Y794151D01*
X383068Y794258D01*
X383099Y794366D01*
X383125Y794475D01*
X383149Y794585D01*
X383168Y794696D01*
X383183Y794807D01*
X383195Y794919D01*
X383203Y795031D01*
X383207Y795143D01*
X383207Y795255D01*
X383203Y795367D01*
X383195Y795479D01*
X383183Y795591D01*
X383168Y795702D01*
X383149Y795813D01*
X383125Y795923D01*
X383099Y796032D01*
X383068Y796140D01*
X383034Y796247D01*
X382996Y796352D01*
X382954Y796456D01*
X382909Y796559D01*
X382860Y796660D01*
X382808Y796760D01*
X382752Y796857D01*
X382694Y796953D01*
X382631Y797046D01*
X382566Y797138D01*
X382498Y797227D01*
X382426Y797313D01*
X382352Y797397D01*
X382274Y797479D01*
X382194Y797557D01*
X382111Y797633D01*
X382026Y797706D01*
X381938Y797776D01*
X381848Y797843D01*
X381756Y797907D01*
X381661Y797967D01*
X381565Y798025D01*
X381466Y798079D01*
X381366Y798129D01*
X381264Y798176D01*
X381160Y798219D01*
X381056Y798259D01*
X380949Y798295D01*
X380842Y798328D01*
X380733Y798357D01*
X380624Y798381D01*
X380514Y798403D01*
X380403Y798420D01*
X380291Y798434D01*
X380179Y798443D01*
X380067Y798449D01*
X379955Y798451D01*
X371500Y798451D01*
X374101Y803780D02*
X371500Y807031D01*
X383207Y807031D01*
X383207Y803780D02*
X383207Y810283D01*
X374101Y815230D02*
X371500Y818482D01*
X383207Y818482D01*
X383207Y815230D02*
X383207Y821734D01*
D10*
X229108Y1059942D02*
X220980Y1059942D01*
X221234Y1015746D01*
X229108Y1015746D01*
X229108Y1059942D01*
X278892Y1059942D02*
X287020Y1059942D01*
X278892Y1059942D02*
X279146Y1015746D01*
X287020Y1015746D01*
X287020Y1059942D01*
X304546Y1059942D02*
X203454Y1059942D01*
X304546Y1059942D02*
X304546Y1149858D01*
X203454Y1149858D01*
X203454Y1059942D01*
D11*
X223231Y1061156D02*
X223231Y1065135D01*
X223231Y1061156D02*
X225552Y1058171D01*
X223231Y1061156D02*
X220909Y1058171D01*
X223231Y1061156D02*
X226878Y1062482D01*
X223231Y1061156D02*
X219583Y1062482D01*
D10*
X220980Y1053846D02*
X220980Y1035812D01*
X278892Y1035812D02*
X278892Y1053846D01*
X229108Y1053846D02*
X229108Y1035812D01*
X287020Y1035812D02*
X287020Y1053846D01*
X305816Y1058672D02*
X202184Y1058672D01*
X305816Y1058672D02*
X305816Y1065276D01*
X202184Y1065276D02*
X202184Y1058672D01*
D11*
X187925Y1023987D02*
X187925Y1020008D01*
X190246Y1017023D01*
X187925Y1020008D02*
X185603Y1017023D01*
X187925Y1020008D02*
X191572Y1021334D01*
X187925Y1020008D02*
X184277Y1021334D01*
X253125Y1073531D02*
X253125Y1085469D01*
X249809Y1085469D02*
X256441Y1085469D01*
X260858Y1085469D02*
X260858Y1073531D01*
X267490Y1073531D02*
X260858Y1085469D01*
X267490Y1085469D02*
X267490Y1073531D01*
X272669Y1076184D02*
X275322Y1085469D01*
X272669Y1076184D02*
X279301Y1076184D01*
X277311Y1078837D02*
X277311Y1073531D01*
X284099Y1079500D02*
X284102Y1079735D01*
X284110Y1079970D01*
X284124Y1080204D01*
X284144Y1080438D01*
X284169Y1080672D01*
X284200Y1080904D01*
X284236Y1081136D01*
X284278Y1081368D01*
X284325Y1081598D01*
X284378Y1081826D01*
X284436Y1082054D01*
X284500Y1082280D01*
X284569Y1082504D01*
X284643Y1082727D01*
X284723Y1082948D01*
X284808Y1083167D01*
X284898Y1083384D01*
X284993Y1083599D01*
X285094Y1083811D01*
X285127Y1083903D01*
X285165Y1083994D01*
X285206Y1084083D01*
X285250Y1084171D01*
X285298Y1084256D01*
X285349Y1084340D01*
X285404Y1084422D01*
X285462Y1084501D01*
X285523Y1084578D01*
X285587Y1084652D01*
X285654Y1084724D01*
X285724Y1084793D01*
X285796Y1084859D01*
X285871Y1084923D01*
X285949Y1084983D01*
X286029Y1085040D01*
X286111Y1085094D01*
X286195Y1085144D01*
X286281Y1085191D01*
X286369Y1085235D01*
X286459Y1085275D01*
X286550Y1085312D01*
X286643Y1085344D01*
X286737Y1085373D01*
X286831Y1085399D01*
X286927Y1085420D01*
X287024Y1085438D01*
X287121Y1085451D01*
X287219Y1085461D01*
X287317Y1085467D01*
X287415Y1085469D01*
X287513Y1085467D01*
X287611Y1085461D01*
X287709Y1085451D01*
X287806Y1085438D01*
X287903Y1085420D01*
X287999Y1085399D01*
X288093Y1085373D01*
X288187Y1085344D01*
X288280Y1085312D01*
X288371Y1085275D01*
X288461Y1085235D01*
X288549Y1085191D01*
X288635Y1085144D01*
X288719Y1085094D01*
X288801Y1085040D01*
X288881Y1084983D01*
X288959Y1084923D01*
X289034Y1084859D01*
X289106Y1084793D01*
X289176Y1084724D01*
X289243Y1084652D01*
X289307Y1084578D01*
X289368Y1084501D01*
X289426Y1084422D01*
X289481Y1084340D01*
X289532Y1084256D01*
X289580Y1084171D01*
X289624Y1084083D01*
X289665Y1083994D01*
X289703Y1083903D01*
X289736Y1083811D01*
X289837Y1083599D01*
X289932Y1083384D01*
X290022Y1083167D01*
X290107Y1082948D01*
X290187Y1082727D01*
X290261Y1082505D01*
X290330Y1082280D01*
X290394Y1082054D01*
X290452Y1081826D01*
X290505Y1081598D01*
X290552Y1081368D01*
X290594Y1081136D01*
X290630Y1080904D01*
X290661Y1080672D01*
X290686Y1080438D01*
X290706Y1080204D01*
X290720Y1079970D01*
X290728Y1079735D01*
X290731Y1079500D01*
X284099Y1079500D02*
X284102Y1079265D01*
X284110Y1079030D01*
X284124Y1078796D01*
X284144Y1078562D01*
X284169Y1078328D01*
X284200Y1078096D01*
X284236Y1077864D01*
X284278Y1077633D01*
X284325Y1077402D01*
X284378Y1077174D01*
X284436Y1076946D01*
X284500Y1076720D01*
X284569Y1076496D01*
X284643Y1076273D01*
X284723Y1076052D01*
X284808Y1075833D01*
X284898Y1075616D01*
X284993Y1075401D01*
X285094Y1075189D01*
X285127Y1075097D01*
X285165Y1075006D01*
X285206Y1074917D01*
X285250Y1074829D01*
X285298Y1074744D01*
X285350Y1074660D01*
X285404Y1074578D01*
X285462Y1074499D01*
X285523Y1074422D01*
X285587Y1074348D01*
X285654Y1074276D01*
X285724Y1074207D01*
X285796Y1074141D01*
X285871Y1074077D01*
X285949Y1074017D01*
X286029Y1073960D01*
X286111Y1073906D01*
X286195Y1073856D01*
X286281Y1073809D01*
X286369Y1073765D01*
X286459Y1073725D01*
X286550Y1073688D01*
X286643Y1073656D01*
X286737Y1073627D01*
X286831Y1073601D01*
X286927Y1073580D01*
X287024Y1073562D01*
X287121Y1073549D01*
X287219Y1073539D01*
X287317Y1073533D01*
X287415Y1073531D01*
X289736Y1075189D02*
X289837Y1075401D01*
X289932Y1075616D01*
X290022Y1075833D01*
X290107Y1076052D01*
X290187Y1076273D01*
X290261Y1076496D01*
X290330Y1076720D01*
X290394Y1076946D01*
X290452Y1077174D01*
X290505Y1077402D01*
X290552Y1077632D01*
X290594Y1077864D01*
X290630Y1078096D01*
X290661Y1078328D01*
X290686Y1078562D01*
X290706Y1078796D01*
X290720Y1079030D01*
X290728Y1079265D01*
X290731Y1079500D01*
X289736Y1075189D02*
X289703Y1075097D01*
X289665Y1075006D01*
X289624Y1074917D01*
X289580Y1074829D01*
X289532Y1074744D01*
X289481Y1074660D01*
X289426Y1074578D01*
X289368Y1074499D01*
X289307Y1074422D01*
X289243Y1074348D01*
X289176Y1074276D01*
X289106Y1074207D01*
X289034Y1074141D01*
X288959Y1074077D01*
X288881Y1074017D01*
X288801Y1073960D01*
X288719Y1073906D01*
X288635Y1073856D01*
X288549Y1073809D01*
X288461Y1073765D01*
X288371Y1073725D01*
X288280Y1073688D01*
X288187Y1073656D01*
X288093Y1073627D01*
X287999Y1073601D01*
X287903Y1073580D01*
X287806Y1073562D01*
X287709Y1073549D01*
X287611Y1073539D01*
X287513Y1073533D01*
X287415Y1073531D01*
X284762Y1076184D02*
X290068Y1082816D01*
X295529Y1082816D02*
X298845Y1085469D01*
X298845Y1073531D01*
X295529Y1073531D02*
X302161Y1073531D01*
X306959Y1073531D02*
X310938Y1073531D01*
X311040Y1073533D01*
X311141Y1073539D01*
X311242Y1073549D01*
X311343Y1073562D01*
X311443Y1073580D01*
X311542Y1073601D01*
X311641Y1073626D01*
X311738Y1073655D01*
X311835Y1073687D01*
X311930Y1073723D01*
X312023Y1073763D01*
X312115Y1073806D01*
X312205Y1073853D01*
X312294Y1073904D01*
X312380Y1073957D01*
X312464Y1074014D01*
X312546Y1074074D01*
X312626Y1074137D01*
X312703Y1074203D01*
X312778Y1074272D01*
X312850Y1074344D01*
X312919Y1074419D01*
X312985Y1074496D01*
X313048Y1074576D01*
X313108Y1074658D01*
X313165Y1074742D01*
X313218Y1074828D01*
X313269Y1074917D01*
X313316Y1075007D01*
X313359Y1075099D01*
X313399Y1075192D01*
X313435Y1075287D01*
X313467Y1075384D01*
X313496Y1075481D01*
X313521Y1075579D01*
X313542Y1075679D01*
X313560Y1075779D01*
X313573Y1075880D01*
X313583Y1075981D01*
X313589Y1076082D01*
X313591Y1076184D01*
X313591Y1077510D01*
X313589Y1077612D01*
X313583Y1077713D01*
X313573Y1077814D01*
X313560Y1077915D01*
X313542Y1078015D01*
X313521Y1078114D01*
X313496Y1078213D01*
X313467Y1078310D01*
X313435Y1078407D01*
X313399Y1078502D01*
X313359Y1078595D01*
X313316Y1078687D01*
X313269Y1078777D01*
X313218Y1078866D01*
X313165Y1078952D01*
X313108Y1079036D01*
X313048Y1079118D01*
X312985Y1079198D01*
X312919Y1079275D01*
X312850Y1079350D01*
X312778Y1079422D01*
X312703Y1079491D01*
X312626Y1079557D01*
X312546Y1079620D01*
X312464Y1079680D01*
X312380Y1079737D01*
X312294Y1079790D01*
X312205Y1079841D01*
X312115Y1079888D01*
X312023Y1079931D01*
X311930Y1079971D01*
X311835Y1080007D01*
X311738Y1080039D01*
X311641Y1080068D01*
X311542Y1080093D01*
X311443Y1080114D01*
X311343Y1080132D01*
X311242Y1080145D01*
X311141Y1080155D01*
X311040Y1080161D01*
X310938Y1080163D01*
X306959Y1080163D01*
X306959Y1085469D01*
X313591Y1085469D01*
X318770Y1085469D02*
X318770Y1073531D01*
X318770Y1080163D02*
X325402Y1080163D01*
X325402Y1085469D02*
X325402Y1073531D01*
X330680Y1078174D02*
X338638Y1078174D01*
X343535Y1080163D02*
X347514Y1080163D01*
X347616Y1080161D01*
X347717Y1080155D01*
X347818Y1080145D01*
X347919Y1080132D01*
X348019Y1080114D01*
X348118Y1080093D01*
X348217Y1080068D01*
X348314Y1080039D01*
X348411Y1080007D01*
X348506Y1079971D01*
X348599Y1079931D01*
X348691Y1079888D01*
X348781Y1079841D01*
X348870Y1079790D01*
X348956Y1079737D01*
X349040Y1079680D01*
X349122Y1079620D01*
X349202Y1079557D01*
X349279Y1079491D01*
X349354Y1079422D01*
X349426Y1079350D01*
X349495Y1079275D01*
X349561Y1079198D01*
X349624Y1079118D01*
X349684Y1079036D01*
X349741Y1078952D01*
X349794Y1078866D01*
X349845Y1078777D01*
X349892Y1078687D01*
X349935Y1078595D01*
X349975Y1078502D01*
X350011Y1078407D01*
X350043Y1078310D01*
X350072Y1078213D01*
X350097Y1078114D01*
X350118Y1078015D01*
X350136Y1077915D01*
X350149Y1077814D01*
X350159Y1077713D01*
X350165Y1077612D01*
X350167Y1077510D01*
X350167Y1076847D01*
X350165Y1076733D01*
X350159Y1076618D01*
X350149Y1076504D01*
X350135Y1076391D01*
X350118Y1076277D01*
X350096Y1076165D01*
X350071Y1076053D01*
X350041Y1075943D01*
X350008Y1075833D01*
X349971Y1075725D01*
X349931Y1075618D01*
X349886Y1075512D01*
X349839Y1075408D01*
X349787Y1075306D01*
X349732Y1075206D01*
X349674Y1075107D01*
X349612Y1075011D01*
X349547Y1074916D01*
X349479Y1074825D01*
X349407Y1074735D01*
X349333Y1074648D01*
X349256Y1074564D01*
X349175Y1074482D01*
X349092Y1074403D01*
X349007Y1074327D01*
X348918Y1074254D01*
X348828Y1074185D01*
X348735Y1074118D01*
X348639Y1074055D01*
X348542Y1073995D01*
X348442Y1073938D01*
X348341Y1073885D01*
X348238Y1073835D01*
X348133Y1073789D01*
X348027Y1073746D01*
X347919Y1073708D01*
X347810Y1073673D01*
X347700Y1073642D01*
X347589Y1073614D01*
X347477Y1073591D01*
X347364Y1073571D01*
X347251Y1073555D01*
X347137Y1073543D01*
X347023Y1073535D01*
X346908Y1073531D01*
X346794Y1073531D01*
X346679Y1073535D01*
X346565Y1073543D01*
X346451Y1073555D01*
X346338Y1073571D01*
X346225Y1073591D01*
X346113Y1073614D01*
X346002Y1073642D01*
X345892Y1073673D01*
X345783Y1073708D01*
X345675Y1073746D01*
X345569Y1073789D01*
X345464Y1073835D01*
X345361Y1073885D01*
X345260Y1073938D01*
X345160Y1073995D01*
X345063Y1074055D01*
X344967Y1074118D01*
X344874Y1074185D01*
X344784Y1074254D01*
X344695Y1074327D01*
X344610Y1074403D01*
X344527Y1074482D01*
X344446Y1074564D01*
X344369Y1074648D01*
X344295Y1074735D01*
X344223Y1074825D01*
X344155Y1074916D01*
X344090Y1075011D01*
X344028Y1075107D01*
X343970Y1075206D01*
X343915Y1075306D01*
X343863Y1075408D01*
X343816Y1075512D01*
X343771Y1075618D01*
X343731Y1075725D01*
X343694Y1075833D01*
X343661Y1075943D01*
X343631Y1076053D01*
X343606Y1076165D01*
X343584Y1076277D01*
X343567Y1076391D01*
X343553Y1076504D01*
X343543Y1076618D01*
X343537Y1076733D01*
X343535Y1076847D01*
X343535Y1080163D01*
X343537Y1080307D01*
X343543Y1080450D01*
X343553Y1080594D01*
X343566Y1080737D01*
X343584Y1080879D01*
X343605Y1081021D01*
X343630Y1081163D01*
X343659Y1081304D01*
X343692Y1081444D01*
X343728Y1081583D01*
X343769Y1081720D01*
X343813Y1081857D01*
X343860Y1081993D01*
X343912Y1082127D01*
X343967Y1082260D01*
X344025Y1082391D01*
X344087Y1082521D01*
X344153Y1082648D01*
X344222Y1082774D01*
X344295Y1082899D01*
X344370Y1083021D01*
X344449Y1083141D01*
X344532Y1083258D01*
X344617Y1083374D01*
X344705Y1083487D01*
X344797Y1083598D01*
X344891Y1083706D01*
X344989Y1083812D01*
X345089Y1083915D01*
X345192Y1084015D01*
X345298Y1084113D01*
X345406Y1084207D01*
X345517Y1084299D01*
X345630Y1084387D01*
X345745Y1084472D01*
X345863Y1084555D01*
X345983Y1084634D01*
X346105Y1084709D01*
X346230Y1084782D01*
X346356Y1084851D01*
X346483Y1084916D01*
X346613Y1084979D01*
X346744Y1085037D01*
X346877Y1085092D01*
X347011Y1085144D01*
X347147Y1085191D01*
X347284Y1085235D01*
X347421Y1085276D01*
X347560Y1085312D01*
X347700Y1085345D01*
X347841Y1085374D01*
X347983Y1085399D01*
X348125Y1085420D01*
X348267Y1085438D01*
X348410Y1085451D01*
X348554Y1085461D01*
X348697Y1085467D01*
X348841Y1085469D01*
X359988Y1080163D02*
X361978Y1080163D01*
X361978Y1073531D01*
X357999Y1073531D01*
X357897Y1073533D01*
X357796Y1073539D01*
X357695Y1073549D01*
X357594Y1073562D01*
X357494Y1073580D01*
X357395Y1073601D01*
X357296Y1073626D01*
X357199Y1073655D01*
X357102Y1073687D01*
X357007Y1073723D01*
X356914Y1073763D01*
X356822Y1073806D01*
X356732Y1073853D01*
X356643Y1073904D01*
X356557Y1073957D01*
X356473Y1074014D01*
X356391Y1074074D01*
X356311Y1074137D01*
X356234Y1074203D01*
X356159Y1074272D01*
X356087Y1074344D01*
X356018Y1074419D01*
X355952Y1074496D01*
X355889Y1074576D01*
X355829Y1074658D01*
X355772Y1074742D01*
X355719Y1074828D01*
X355668Y1074917D01*
X355621Y1075007D01*
X355578Y1075099D01*
X355538Y1075192D01*
X355502Y1075287D01*
X355470Y1075384D01*
X355441Y1075481D01*
X355416Y1075580D01*
X355395Y1075679D01*
X355377Y1075779D01*
X355364Y1075880D01*
X355354Y1075981D01*
X355348Y1076082D01*
X355346Y1076184D01*
X355346Y1082816D01*
X355348Y1082918D01*
X355354Y1083019D01*
X355364Y1083120D01*
X355377Y1083221D01*
X355395Y1083321D01*
X355416Y1083420D01*
X355441Y1083519D01*
X355470Y1083616D01*
X355502Y1083713D01*
X355538Y1083808D01*
X355578Y1083901D01*
X355621Y1083993D01*
X355668Y1084083D01*
X355719Y1084172D01*
X355772Y1084258D01*
X355829Y1084342D01*
X355889Y1084424D01*
X355952Y1084504D01*
X356018Y1084581D01*
X356087Y1084656D01*
X356159Y1084728D01*
X356234Y1084797D01*
X356311Y1084863D01*
X356391Y1084926D01*
X356473Y1084986D01*
X356557Y1085043D01*
X356643Y1085096D01*
X356732Y1085147D01*
X356822Y1085194D01*
X356914Y1085237D01*
X357007Y1085277D01*
X357102Y1085313D01*
X357199Y1085345D01*
X357296Y1085374D01*
X357394Y1085399D01*
X357494Y1085420D01*
X357594Y1085438D01*
X357695Y1085451D01*
X357796Y1085461D01*
X357897Y1085467D01*
X357999Y1085469D01*
X361978Y1085469D01*
D10*
X400050Y1058672D02*
X408178Y1058672D01*
X400050Y1058672D02*
X400304Y1014476D01*
X408178Y1014476D01*
X408178Y1058672D01*
X457962Y1058672D02*
X466090Y1058672D01*
X457962Y1058672D02*
X458216Y1014476D01*
X466090Y1014476D01*
X466090Y1058672D01*
X483616Y1058672D02*
X382524Y1058672D01*
X483616Y1058672D02*
X483616Y1148588D01*
X382524Y1148588D01*
X382524Y1058672D01*
D11*
X402301Y1059886D02*
X402301Y1063865D01*
X402301Y1059886D02*
X404622Y1056901D01*
X402301Y1059886D02*
X399979Y1056901D01*
X402301Y1059886D02*
X405948Y1061212D01*
X402301Y1059886D02*
X398653Y1061212D01*
D10*
X400050Y1052576D02*
X400050Y1034542D01*
X457962Y1034542D02*
X457962Y1052576D01*
X408178Y1052576D02*
X408178Y1034542D01*
X466090Y1034542D02*
X466090Y1052576D01*
X484886Y1057402D02*
X381254Y1057402D01*
X484886Y1057402D02*
X484886Y1064006D01*
X381254Y1064006D02*
X381254Y1057402D01*
D11*
X366995Y1022717D02*
X366995Y1018738D01*
X369316Y1015753D01*
X366995Y1018738D02*
X364673Y1015753D01*
X366995Y1018738D02*
X370642Y1020064D01*
X366995Y1018738D02*
X363347Y1020064D01*
X508395Y1123061D02*
X508395Y1134999D01*
X505079Y1134999D02*
X511711Y1134999D01*
X516128Y1134999D02*
X516128Y1123061D01*
X522760Y1123061D02*
X516128Y1134999D01*
X522760Y1134999D02*
X522760Y1123061D01*
X527939Y1125714D02*
X530592Y1134999D01*
X527939Y1125714D02*
X534571Y1125714D01*
X532581Y1128367D02*
X532581Y1123061D01*
X539369Y1129030D02*
X539372Y1129265D01*
X539380Y1129500D01*
X539394Y1129734D01*
X539414Y1129968D01*
X539439Y1130202D01*
X539470Y1130434D01*
X539506Y1130666D01*
X539548Y1130898D01*
X539595Y1131128D01*
X539648Y1131356D01*
X539706Y1131584D01*
X539770Y1131810D01*
X539839Y1132034D01*
X539913Y1132257D01*
X539993Y1132478D01*
X540078Y1132697D01*
X540168Y1132914D01*
X540263Y1133129D01*
X540364Y1133341D01*
X540397Y1133433D01*
X540435Y1133524D01*
X540476Y1133613D01*
X540520Y1133701D01*
X540568Y1133786D01*
X540619Y1133870D01*
X540674Y1133952D01*
X540732Y1134031D01*
X540793Y1134108D01*
X540857Y1134182D01*
X540924Y1134254D01*
X540994Y1134323D01*
X541066Y1134389D01*
X541141Y1134453D01*
X541219Y1134513D01*
X541299Y1134570D01*
X541381Y1134624D01*
X541465Y1134674D01*
X541551Y1134721D01*
X541639Y1134765D01*
X541729Y1134805D01*
X541820Y1134842D01*
X541913Y1134874D01*
X542007Y1134903D01*
X542101Y1134929D01*
X542197Y1134950D01*
X542294Y1134968D01*
X542391Y1134981D01*
X542489Y1134991D01*
X542587Y1134997D01*
X542685Y1134999D01*
X542783Y1134997D01*
X542881Y1134991D01*
X542979Y1134981D01*
X543076Y1134968D01*
X543173Y1134950D01*
X543269Y1134929D01*
X543363Y1134903D01*
X543457Y1134874D01*
X543550Y1134842D01*
X543641Y1134805D01*
X543731Y1134765D01*
X543819Y1134721D01*
X543905Y1134674D01*
X543989Y1134624D01*
X544071Y1134570D01*
X544151Y1134513D01*
X544229Y1134453D01*
X544304Y1134389D01*
X544376Y1134323D01*
X544446Y1134254D01*
X544513Y1134182D01*
X544577Y1134108D01*
X544638Y1134031D01*
X544696Y1133952D01*
X544751Y1133870D01*
X544802Y1133786D01*
X544850Y1133701D01*
X544894Y1133613D01*
X544935Y1133524D01*
X544973Y1133433D01*
X545006Y1133341D01*
X545107Y1133129D01*
X545202Y1132914D01*
X545292Y1132697D01*
X545377Y1132478D01*
X545457Y1132257D01*
X545531Y1132035D01*
X545600Y1131810D01*
X545664Y1131584D01*
X545722Y1131356D01*
X545775Y1131128D01*
X545822Y1130898D01*
X545864Y1130666D01*
X545900Y1130434D01*
X545931Y1130202D01*
X545956Y1129968D01*
X545976Y1129734D01*
X545990Y1129500D01*
X545998Y1129265D01*
X546001Y1129030D01*
X539369Y1129030D02*
X539372Y1128795D01*
X539380Y1128560D01*
X539394Y1128326D01*
X539414Y1128092D01*
X539439Y1127858D01*
X539470Y1127626D01*
X539506Y1127394D01*
X539548Y1127163D01*
X539595Y1126932D01*
X539648Y1126704D01*
X539706Y1126476D01*
X539770Y1126250D01*
X539839Y1126026D01*
X539913Y1125803D01*
X539993Y1125582D01*
X540078Y1125363D01*
X540168Y1125146D01*
X540263Y1124931D01*
X540364Y1124719D01*
X540397Y1124627D01*
X540435Y1124536D01*
X540476Y1124447D01*
X540520Y1124359D01*
X540568Y1124274D01*
X540620Y1124190D01*
X540674Y1124108D01*
X540732Y1124029D01*
X540793Y1123952D01*
X540857Y1123878D01*
X540924Y1123806D01*
X540994Y1123737D01*
X541066Y1123671D01*
X541141Y1123607D01*
X541219Y1123547D01*
X541299Y1123490D01*
X541381Y1123436D01*
X541465Y1123386D01*
X541551Y1123339D01*
X541639Y1123295D01*
X541729Y1123255D01*
X541820Y1123218D01*
X541913Y1123186D01*
X542007Y1123157D01*
X542101Y1123131D01*
X542197Y1123110D01*
X542294Y1123092D01*
X542391Y1123079D01*
X542489Y1123069D01*
X542587Y1123063D01*
X542685Y1123061D01*
X545006Y1124719D02*
X545107Y1124931D01*
X545202Y1125146D01*
X545292Y1125363D01*
X545377Y1125582D01*
X545457Y1125803D01*
X545531Y1126026D01*
X545600Y1126250D01*
X545664Y1126476D01*
X545722Y1126704D01*
X545775Y1126932D01*
X545822Y1127162D01*
X545864Y1127394D01*
X545900Y1127626D01*
X545931Y1127858D01*
X545956Y1128092D01*
X545976Y1128326D01*
X545990Y1128560D01*
X545998Y1128795D01*
X546001Y1129030D01*
X545006Y1124719D02*
X544973Y1124627D01*
X544935Y1124536D01*
X544894Y1124447D01*
X544850Y1124359D01*
X544802Y1124274D01*
X544751Y1124190D01*
X544696Y1124108D01*
X544638Y1124029D01*
X544577Y1123952D01*
X544513Y1123878D01*
X544446Y1123806D01*
X544376Y1123737D01*
X544304Y1123671D01*
X544229Y1123607D01*
X544151Y1123547D01*
X544071Y1123490D01*
X543989Y1123436D01*
X543905Y1123386D01*
X543819Y1123339D01*
X543731Y1123295D01*
X543641Y1123255D01*
X543550Y1123218D01*
X543457Y1123186D01*
X543363Y1123157D01*
X543269Y1123131D01*
X543173Y1123110D01*
X543076Y1123092D01*
X542979Y1123079D01*
X542881Y1123069D01*
X542783Y1123063D01*
X542685Y1123061D01*
X540032Y1125714D02*
X545338Y1132346D01*
X550799Y1132346D02*
X554115Y1134999D01*
X554115Y1123061D01*
X550799Y1123061D02*
X557431Y1123061D01*
X562229Y1123061D02*
X566208Y1123061D01*
X566310Y1123063D01*
X566411Y1123069D01*
X566512Y1123079D01*
X566613Y1123092D01*
X566713Y1123110D01*
X566812Y1123131D01*
X566911Y1123156D01*
X567008Y1123185D01*
X567105Y1123217D01*
X567200Y1123253D01*
X567293Y1123293D01*
X567385Y1123336D01*
X567475Y1123383D01*
X567564Y1123434D01*
X567650Y1123487D01*
X567734Y1123544D01*
X567816Y1123604D01*
X567896Y1123667D01*
X567973Y1123733D01*
X568048Y1123802D01*
X568120Y1123874D01*
X568189Y1123949D01*
X568255Y1124026D01*
X568318Y1124106D01*
X568378Y1124188D01*
X568435Y1124272D01*
X568488Y1124358D01*
X568539Y1124447D01*
X568586Y1124537D01*
X568629Y1124629D01*
X568669Y1124722D01*
X568705Y1124817D01*
X568737Y1124914D01*
X568766Y1125011D01*
X568791Y1125109D01*
X568812Y1125209D01*
X568830Y1125309D01*
X568843Y1125410D01*
X568853Y1125511D01*
X568859Y1125612D01*
X568861Y1125714D01*
X568861Y1127040D01*
X568859Y1127142D01*
X568853Y1127243D01*
X568843Y1127344D01*
X568830Y1127445D01*
X568812Y1127545D01*
X568791Y1127644D01*
X568766Y1127743D01*
X568737Y1127840D01*
X568705Y1127937D01*
X568669Y1128032D01*
X568629Y1128125D01*
X568586Y1128217D01*
X568539Y1128307D01*
X568488Y1128396D01*
X568435Y1128482D01*
X568378Y1128566D01*
X568318Y1128648D01*
X568255Y1128728D01*
X568189Y1128805D01*
X568120Y1128880D01*
X568048Y1128952D01*
X567973Y1129021D01*
X567896Y1129087D01*
X567816Y1129150D01*
X567734Y1129210D01*
X567650Y1129267D01*
X567564Y1129320D01*
X567475Y1129371D01*
X567385Y1129418D01*
X567293Y1129461D01*
X567200Y1129501D01*
X567105Y1129537D01*
X567008Y1129569D01*
X566911Y1129598D01*
X566812Y1129623D01*
X566713Y1129644D01*
X566613Y1129662D01*
X566512Y1129675D01*
X566411Y1129685D01*
X566310Y1129691D01*
X566208Y1129693D01*
X562229Y1129693D01*
X562229Y1134999D01*
X568861Y1134999D01*
X574040Y1134999D02*
X574040Y1123061D01*
X574040Y1129693D02*
X580672Y1129693D01*
X580672Y1134999D02*
X580672Y1123061D01*
X585950Y1127704D02*
X593908Y1127704D01*
X598805Y1129693D02*
X602784Y1129693D01*
X602886Y1129691D01*
X602987Y1129685D01*
X603088Y1129675D01*
X603189Y1129662D01*
X603289Y1129644D01*
X603388Y1129623D01*
X603487Y1129598D01*
X603584Y1129569D01*
X603681Y1129537D01*
X603776Y1129501D01*
X603869Y1129461D01*
X603961Y1129418D01*
X604051Y1129371D01*
X604140Y1129320D01*
X604226Y1129267D01*
X604310Y1129210D01*
X604392Y1129150D01*
X604472Y1129087D01*
X604549Y1129021D01*
X604624Y1128952D01*
X604696Y1128880D01*
X604765Y1128805D01*
X604831Y1128728D01*
X604894Y1128648D01*
X604954Y1128566D01*
X605011Y1128482D01*
X605064Y1128396D01*
X605115Y1128307D01*
X605162Y1128217D01*
X605205Y1128125D01*
X605245Y1128032D01*
X605281Y1127937D01*
X605313Y1127840D01*
X605342Y1127743D01*
X605367Y1127644D01*
X605388Y1127545D01*
X605406Y1127445D01*
X605419Y1127344D01*
X605429Y1127243D01*
X605435Y1127142D01*
X605437Y1127040D01*
X605437Y1126377D01*
X605435Y1126263D01*
X605429Y1126148D01*
X605419Y1126034D01*
X605405Y1125921D01*
X605388Y1125807D01*
X605366Y1125695D01*
X605341Y1125583D01*
X605311Y1125473D01*
X605278Y1125363D01*
X605241Y1125255D01*
X605201Y1125148D01*
X605156Y1125042D01*
X605109Y1124938D01*
X605057Y1124836D01*
X605002Y1124736D01*
X604944Y1124637D01*
X604882Y1124541D01*
X604817Y1124446D01*
X604749Y1124355D01*
X604677Y1124265D01*
X604603Y1124178D01*
X604526Y1124094D01*
X604445Y1124012D01*
X604362Y1123933D01*
X604277Y1123857D01*
X604188Y1123784D01*
X604098Y1123715D01*
X604005Y1123648D01*
X603909Y1123585D01*
X603812Y1123525D01*
X603712Y1123468D01*
X603611Y1123415D01*
X603508Y1123365D01*
X603403Y1123319D01*
X603297Y1123276D01*
X603189Y1123238D01*
X603080Y1123203D01*
X602970Y1123172D01*
X602859Y1123144D01*
X602747Y1123121D01*
X602634Y1123101D01*
X602521Y1123085D01*
X602407Y1123073D01*
X602293Y1123065D01*
X602178Y1123061D01*
X602064Y1123061D01*
X601949Y1123065D01*
X601835Y1123073D01*
X601721Y1123085D01*
X601608Y1123101D01*
X601495Y1123121D01*
X601383Y1123144D01*
X601272Y1123172D01*
X601162Y1123203D01*
X601053Y1123238D01*
X600945Y1123276D01*
X600839Y1123319D01*
X600734Y1123365D01*
X600631Y1123415D01*
X600530Y1123468D01*
X600430Y1123525D01*
X600333Y1123585D01*
X600237Y1123648D01*
X600144Y1123715D01*
X600054Y1123784D01*
X599965Y1123857D01*
X599880Y1123933D01*
X599797Y1124012D01*
X599716Y1124094D01*
X599639Y1124178D01*
X599565Y1124265D01*
X599493Y1124355D01*
X599425Y1124446D01*
X599360Y1124541D01*
X599298Y1124637D01*
X599240Y1124736D01*
X599185Y1124836D01*
X599133Y1124938D01*
X599086Y1125042D01*
X599041Y1125148D01*
X599001Y1125255D01*
X598964Y1125363D01*
X598931Y1125473D01*
X598901Y1125583D01*
X598876Y1125695D01*
X598854Y1125807D01*
X598837Y1125921D01*
X598823Y1126034D01*
X598813Y1126148D01*
X598807Y1126263D01*
X598805Y1126377D01*
X598805Y1129693D01*
X598807Y1129837D01*
X598813Y1129980D01*
X598823Y1130124D01*
X598836Y1130267D01*
X598854Y1130409D01*
X598875Y1130551D01*
X598900Y1130693D01*
X598929Y1130834D01*
X598962Y1130974D01*
X598998Y1131113D01*
X599039Y1131250D01*
X599083Y1131387D01*
X599130Y1131523D01*
X599182Y1131657D01*
X599237Y1131790D01*
X599295Y1131921D01*
X599357Y1132051D01*
X599423Y1132178D01*
X599492Y1132304D01*
X599565Y1132429D01*
X599640Y1132551D01*
X599719Y1132671D01*
X599802Y1132788D01*
X599887Y1132904D01*
X599975Y1133017D01*
X600067Y1133128D01*
X600161Y1133236D01*
X600259Y1133342D01*
X600359Y1133445D01*
X600462Y1133545D01*
X600568Y1133643D01*
X600676Y1133737D01*
X600787Y1133829D01*
X600900Y1133917D01*
X601015Y1134002D01*
X601133Y1134085D01*
X601253Y1134164D01*
X601375Y1134239D01*
X601500Y1134312D01*
X601626Y1134381D01*
X601753Y1134446D01*
X601883Y1134509D01*
X602014Y1134567D01*
X602147Y1134622D01*
X602281Y1134674D01*
X602417Y1134721D01*
X602554Y1134765D01*
X602691Y1134806D01*
X602830Y1134842D01*
X602970Y1134875D01*
X603111Y1134904D01*
X603253Y1134929D01*
X603395Y1134950D01*
X603537Y1134968D01*
X603680Y1134981D01*
X603824Y1134991D01*
X603967Y1134997D01*
X604111Y1134999D01*
X615258Y1129693D02*
X617248Y1129693D01*
X617248Y1123061D01*
X613269Y1123061D01*
X613167Y1123063D01*
X613066Y1123069D01*
X612965Y1123079D01*
X612864Y1123092D01*
X612764Y1123110D01*
X612665Y1123131D01*
X612566Y1123156D01*
X612469Y1123185D01*
X612372Y1123217D01*
X612277Y1123253D01*
X612184Y1123293D01*
X612092Y1123336D01*
X612002Y1123383D01*
X611913Y1123434D01*
X611827Y1123487D01*
X611743Y1123544D01*
X611661Y1123604D01*
X611581Y1123667D01*
X611504Y1123733D01*
X611429Y1123802D01*
X611357Y1123874D01*
X611288Y1123949D01*
X611222Y1124026D01*
X611159Y1124106D01*
X611099Y1124188D01*
X611042Y1124272D01*
X610989Y1124358D01*
X610938Y1124447D01*
X610891Y1124537D01*
X610848Y1124629D01*
X610808Y1124722D01*
X610772Y1124817D01*
X610740Y1124914D01*
X610711Y1125011D01*
X610686Y1125110D01*
X610665Y1125209D01*
X610647Y1125309D01*
X610634Y1125410D01*
X610624Y1125511D01*
X610618Y1125612D01*
X610616Y1125714D01*
X610616Y1132346D01*
X610618Y1132448D01*
X610624Y1132549D01*
X610634Y1132650D01*
X610647Y1132751D01*
X610665Y1132851D01*
X610686Y1132950D01*
X610711Y1133049D01*
X610740Y1133146D01*
X610772Y1133243D01*
X610808Y1133338D01*
X610848Y1133431D01*
X610891Y1133523D01*
X610938Y1133613D01*
X610989Y1133702D01*
X611042Y1133788D01*
X611099Y1133872D01*
X611159Y1133954D01*
X611222Y1134034D01*
X611288Y1134111D01*
X611357Y1134186D01*
X611429Y1134258D01*
X611504Y1134327D01*
X611581Y1134393D01*
X611661Y1134456D01*
X611743Y1134516D01*
X611827Y1134573D01*
X611913Y1134626D01*
X612002Y1134677D01*
X612092Y1134724D01*
X612184Y1134767D01*
X612277Y1134807D01*
X612372Y1134843D01*
X612469Y1134875D01*
X612566Y1134904D01*
X612664Y1134929D01*
X612764Y1134950D01*
X612864Y1134968D01*
X612965Y1134981D01*
X613066Y1134991D01*
X613167Y1134997D01*
X613269Y1134999D01*
X617248Y1134999D01*
D14*
X565150Y749300D02*
X565150Y673100D01*
X546100Y673100D01*
X501650Y673100D01*
X501650Y749300D01*
X546100Y749300D01*
X565150Y749300D01*
X546100Y749300D02*
X546100Y673100D01*
D13*
X581152Y734060D02*
X572008Y740156D01*
X572008Y734060D02*
X581152Y740156D01*
X574040Y743712D02*
X572008Y746252D01*
X581152Y746252D01*
X581152Y743712D02*
X581152Y748792D01*
D15*
X431800Y676910D02*
X431800Y673100D01*
D10*
X422910Y679450D02*
X422810Y679452D01*
X422711Y679458D01*
X422611Y679468D01*
X422513Y679481D01*
X422414Y679499D01*
X422317Y679520D01*
X422221Y679545D01*
X422125Y679574D01*
X422031Y679607D01*
X421938Y679643D01*
X421847Y679683D01*
X421757Y679727D01*
X421669Y679774D01*
X421583Y679824D01*
X421499Y679878D01*
X421417Y679935D01*
X421338Y679995D01*
X421260Y680059D01*
X421186Y680125D01*
X421114Y680194D01*
X421045Y680266D01*
X420979Y680340D01*
X420915Y680418D01*
X420855Y680497D01*
X420798Y680579D01*
X420744Y680663D01*
X420694Y680749D01*
X420647Y680837D01*
X420603Y680927D01*
X420563Y681018D01*
X420527Y681111D01*
X420494Y681205D01*
X420465Y681301D01*
X420440Y681397D01*
X420419Y681494D01*
X420401Y681593D01*
X420388Y681691D01*
X420378Y681791D01*
X420372Y681890D01*
X420370Y681990D01*
X440690Y679450D02*
X440790Y679452D01*
X440889Y679458D01*
X440989Y679468D01*
X441087Y679481D01*
X441186Y679499D01*
X441283Y679520D01*
X441379Y679545D01*
X441475Y679574D01*
X441569Y679607D01*
X441662Y679643D01*
X441753Y679683D01*
X441843Y679727D01*
X441931Y679774D01*
X442017Y679824D01*
X442101Y679878D01*
X442183Y679935D01*
X442262Y679995D01*
X442340Y680059D01*
X442414Y680125D01*
X442486Y680194D01*
X442555Y680266D01*
X442621Y680340D01*
X442685Y680418D01*
X442745Y680497D01*
X442802Y680579D01*
X442856Y680663D01*
X442906Y680749D01*
X442953Y680837D01*
X442997Y680927D01*
X443037Y681018D01*
X443073Y681111D01*
X443106Y681205D01*
X443135Y681301D01*
X443160Y681397D01*
X443181Y681494D01*
X443199Y681593D01*
X443212Y681691D01*
X443222Y681791D01*
X443228Y681890D01*
X443230Y681990D01*
X443230Y740410D02*
X443228Y740510D01*
X443222Y740609D01*
X443212Y740709D01*
X443199Y740807D01*
X443181Y740906D01*
X443160Y741003D01*
X443135Y741099D01*
X443106Y741195D01*
X443073Y741289D01*
X443037Y741382D01*
X442997Y741473D01*
X442953Y741563D01*
X442906Y741651D01*
X442856Y741737D01*
X442802Y741821D01*
X442745Y741903D01*
X442685Y741982D01*
X442621Y742060D01*
X442555Y742134D01*
X442486Y742206D01*
X442414Y742275D01*
X442340Y742341D01*
X442262Y742405D01*
X442183Y742465D01*
X442101Y742522D01*
X442017Y742576D01*
X441931Y742626D01*
X441843Y742673D01*
X441753Y742717D01*
X441662Y742757D01*
X441569Y742793D01*
X441475Y742826D01*
X441379Y742855D01*
X441283Y742880D01*
X441186Y742901D01*
X441087Y742919D01*
X440989Y742932D01*
X440889Y742942D01*
X440790Y742948D01*
X440690Y742950D01*
X422910Y742950D02*
X422810Y742948D01*
X422711Y742942D01*
X422611Y742932D01*
X422513Y742919D01*
X422414Y742901D01*
X422317Y742880D01*
X422221Y742855D01*
X422125Y742826D01*
X422031Y742793D01*
X421938Y742757D01*
X421847Y742717D01*
X421757Y742673D01*
X421669Y742626D01*
X421583Y742576D01*
X421499Y742522D01*
X421417Y742465D01*
X421338Y742405D01*
X421260Y742341D01*
X421186Y742275D01*
X421114Y742206D01*
X421045Y742134D01*
X420979Y742060D01*
X420915Y741982D01*
X420855Y741903D01*
X420798Y741821D01*
X420744Y741737D01*
X420694Y741651D01*
X420647Y741563D01*
X420603Y741473D01*
X420563Y741382D01*
X420527Y741289D01*
X420494Y741195D01*
X420465Y741099D01*
X420440Y741003D01*
X420419Y740906D01*
X420401Y740807D01*
X420388Y740709D01*
X420378Y740609D01*
X420372Y740510D01*
X420370Y740410D01*
X422910Y679450D02*
X440690Y679450D01*
X420370Y681990D02*
X420370Y685800D01*
X421640Y687070D01*
X443230Y685800D02*
X443230Y681990D01*
X443230Y685800D02*
X441960Y687070D01*
X421640Y735330D02*
X420370Y736600D01*
X421640Y735330D02*
X421640Y687070D01*
X441960Y735330D02*
X443230Y736600D01*
X441960Y735330D02*
X441960Y687070D01*
X420370Y736600D02*
X420370Y740410D01*
X443230Y740410D02*
X443230Y736600D01*
X440690Y742950D02*
X422910Y742950D01*
D15*
X431800Y745490D02*
X431800Y749300D01*
D16*
X431800Y678180D03*
X431800Y744220D03*
D17*
X417195Y686435D02*
X405765Y686435D01*
X405765Y689610D01*
X405767Y689721D01*
X405773Y689831D01*
X405782Y689942D01*
X405796Y690052D01*
X405813Y690161D01*
X405834Y690270D01*
X405859Y690378D01*
X405888Y690485D01*
X405920Y690591D01*
X405956Y690696D01*
X405996Y690799D01*
X406039Y690901D01*
X406086Y691002D01*
X406137Y691101D01*
X406190Y691198D01*
X406247Y691292D01*
X406308Y691385D01*
X406371Y691476D01*
X406438Y691565D01*
X406508Y691651D01*
X406581Y691734D01*
X406656Y691816D01*
X406734Y691894D01*
X406816Y691969D01*
X406899Y692042D01*
X406985Y692112D01*
X407074Y692179D01*
X407165Y692242D01*
X407258Y692303D01*
X407353Y692360D01*
X407449Y692413D01*
X407548Y692464D01*
X407649Y692511D01*
X407751Y692554D01*
X407854Y692594D01*
X407959Y692630D01*
X408065Y692662D01*
X408172Y692691D01*
X408280Y692716D01*
X408389Y692737D01*
X408498Y692754D01*
X408608Y692768D01*
X408719Y692777D01*
X408829Y692783D01*
X408940Y692785D01*
X409051Y692783D01*
X409161Y692777D01*
X409272Y692768D01*
X409382Y692754D01*
X409491Y692737D01*
X409600Y692716D01*
X409708Y692691D01*
X409815Y692662D01*
X409921Y692630D01*
X410026Y692594D01*
X410129Y692554D01*
X410231Y692511D01*
X410332Y692464D01*
X410431Y692413D01*
X410528Y692360D01*
X410622Y692303D01*
X410715Y692242D01*
X410806Y692179D01*
X410895Y692112D01*
X410981Y692042D01*
X411064Y691969D01*
X411146Y691894D01*
X411224Y691816D01*
X411299Y691734D01*
X411372Y691651D01*
X411442Y691565D01*
X411509Y691476D01*
X411572Y691385D01*
X411633Y691292D01*
X411690Y691198D01*
X411743Y691101D01*
X411794Y691002D01*
X411841Y690901D01*
X411884Y690799D01*
X411924Y690696D01*
X411960Y690591D01*
X411992Y690485D01*
X412021Y690378D01*
X412046Y690270D01*
X412067Y690161D01*
X412084Y690052D01*
X412098Y689942D01*
X412107Y689831D01*
X412113Y689721D01*
X412115Y689610D01*
X412115Y686435D01*
X412115Y690245D02*
X417195Y692785D01*
X408623Y704133D02*
X408519Y704131D01*
X408414Y704125D01*
X408310Y704116D01*
X408207Y704103D01*
X408104Y704085D01*
X408002Y704065D01*
X407900Y704040D01*
X407800Y704012D01*
X407700Y703980D01*
X407602Y703944D01*
X407505Y703905D01*
X407410Y703863D01*
X407316Y703817D01*
X407224Y703767D01*
X407134Y703715D01*
X407046Y703659D01*
X406960Y703599D01*
X406876Y703537D01*
X406795Y703472D01*
X406716Y703404D01*
X406639Y703332D01*
X406566Y703259D01*
X406494Y703182D01*
X406426Y703103D01*
X406361Y703022D01*
X406299Y702938D01*
X406239Y702852D01*
X406183Y702764D01*
X406131Y702674D01*
X406081Y702582D01*
X406035Y702488D01*
X405993Y702393D01*
X405954Y702296D01*
X405918Y702198D01*
X405886Y702098D01*
X405858Y701998D01*
X405833Y701896D01*
X405813Y701794D01*
X405795Y701691D01*
X405782Y701588D01*
X405773Y701484D01*
X405767Y701379D01*
X405765Y701275D01*
X405767Y701157D01*
X405773Y701038D01*
X405782Y700920D01*
X405795Y700803D01*
X405813Y700686D01*
X405833Y700569D01*
X405858Y700453D01*
X405886Y700338D01*
X405919Y700225D01*
X405954Y700112D01*
X405994Y700000D01*
X406036Y699890D01*
X406083Y699781D01*
X406133Y699673D01*
X406186Y699568D01*
X406243Y699464D01*
X406303Y699362D01*
X406366Y699262D01*
X406433Y699164D01*
X406502Y699068D01*
X406575Y698975D01*
X406651Y698884D01*
X406729Y698795D01*
X406811Y698709D01*
X406895Y698626D01*
X406981Y698545D01*
X407071Y698468D01*
X407162Y698393D01*
X407256Y698321D01*
X407353Y698252D01*
X407451Y698187D01*
X407552Y698124D01*
X407655Y698065D01*
X407759Y698009D01*
X407865Y697957D01*
X407973Y697908D01*
X408082Y697863D01*
X408193Y697821D01*
X408305Y697783D01*
X410845Y703180D02*
X410770Y703256D01*
X410691Y703331D01*
X410610Y703402D01*
X410526Y703471D01*
X410440Y703536D01*
X410352Y703598D01*
X410262Y703658D01*
X410170Y703714D01*
X410075Y703767D01*
X409979Y703816D01*
X409881Y703862D01*
X409782Y703905D01*
X409681Y703944D01*
X409579Y703979D01*
X409476Y704011D01*
X409372Y704039D01*
X409267Y704064D01*
X409160Y704085D01*
X409054Y704102D01*
X408947Y704115D01*
X408839Y704124D01*
X408731Y704130D01*
X408623Y704132D01*
X410845Y703180D02*
X417195Y697782D01*
X417195Y704132D01*
X411480Y709212D02*
X411255Y709215D01*
X411030Y709223D01*
X410806Y709236D01*
X410582Y709255D01*
X410358Y709279D01*
X410135Y709308D01*
X409913Y709343D01*
X409692Y709383D01*
X409472Y709429D01*
X409253Y709479D01*
X409035Y709535D01*
X408818Y709596D01*
X408603Y709662D01*
X408390Y709733D01*
X408179Y709810D01*
X407969Y709891D01*
X407761Y709977D01*
X407556Y710068D01*
X407353Y710164D01*
X407265Y710196D01*
X407178Y710232D01*
X407092Y710271D01*
X407008Y710314D01*
X406926Y710360D01*
X406846Y710409D01*
X406768Y710461D01*
X406692Y710517D01*
X406618Y710575D01*
X406547Y710637D01*
X406478Y710701D01*
X406412Y710768D01*
X406349Y710837D01*
X406288Y710909D01*
X406230Y710983D01*
X406176Y711060D01*
X406124Y711138D01*
X406076Y711219D01*
X406031Y711301D01*
X405989Y711386D01*
X405951Y711472D01*
X405916Y711559D01*
X405884Y711647D01*
X405857Y711737D01*
X405832Y711828D01*
X405812Y711920D01*
X405795Y712012D01*
X405782Y712106D01*
X405773Y712199D01*
X405767Y712293D01*
X405765Y712387D01*
X405767Y712481D01*
X405773Y712575D01*
X405782Y712668D01*
X405795Y712762D01*
X405812Y712854D01*
X405832Y712946D01*
X405857Y713037D01*
X405884Y713127D01*
X405916Y713215D01*
X405951Y713302D01*
X405989Y713388D01*
X406031Y713473D01*
X406076Y713555D01*
X406124Y713636D01*
X406176Y713714D01*
X406230Y713791D01*
X406288Y713865D01*
X406349Y713937D01*
X406412Y714006D01*
X406478Y714073D01*
X406547Y714137D01*
X406618Y714199D01*
X406692Y714257D01*
X406768Y714313D01*
X406846Y714365D01*
X406926Y714414D01*
X407008Y714460D01*
X407092Y714503D01*
X407178Y714542D01*
X407265Y714578D01*
X407353Y714610D01*
X407556Y714706D01*
X407761Y714797D01*
X407969Y714883D01*
X408179Y714964D01*
X408390Y715041D01*
X408603Y715112D01*
X408818Y715178D01*
X409035Y715239D01*
X409253Y715295D01*
X409472Y715345D01*
X409692Y715391D01*
X409913Y715431D01*
X410135Y715466D01*
X410358Y715495D01*
X410582Y715519D01*
X410806Y715538D01*
X411030Y715551D01*
X411255Y715559D01*
X411480Y715562D01*
X411480Y709212D02*
X411705Y709215D01*
X411930Y709223D01*
X412154Y709236D01*
X412378Y709255D01*
X412602Y709279D01*
X412825Y709308D01*
X413047Y709343D01*
X413268Y709383D01*
X413488Y709429D01*
X413707Y709479D01*
X413925Y709535D01*
X414142Y709596D01*
X414357Y709662D01*
X414570Y709733D01*
X414781Y709810D01*
X414991Y709891D01*
X415199Y709977D01*
X415404Y710068D01*
X415607Y710164D01*
X415608Y710164D02*
X415696Y710196D01*
X415783Y710232D01*
X415869Y710271D01*
X415953Y710314D01*
X416035Y710360D01*
X416115Y710409D01*
X416193Y710461D01*
X416269Y710517D01*
X416343Y710575D01*
X416414Y710637D01*
X416483Y710701D01*
X416549Y710768D01*
X416612Y710837D01*
X416673Y710909D01*
X416731Y710983D01*
X416785Y711060D01*
X416837Y711138D01*
X416885Y711219D01*
X416930Y711301D01*
X416972Y711386D01*
X417010Y711472D01*
X417045Y711559D01*
X417077Y711647D01*
X417104Y711737D01*
X417129Y711828D01*
X417149Y711920D01*
X417166Y712012D01*
X417179Y712106D01*
X417188Y712199D01*
X417194Y712293D01*
X417196Y712387D01*
X415607Y714610D02*
X415404Y714706D01*
X415199Y714797D01*
X414991Y714883D01*
X414781Y714964D01*
X414570Y715041D01*
X414357Y715112D01*
X414142Y715178D01*
X413925Y715239D01*
X413707Y715295D01*
X413488Y715345D01*
X413268Y715391D01*
X413047Y715431D01*
X412825Y715466D01*
X412602Y715495D01*
X412378Y715519D01*
X412154Y715538D01*
X411930Y715551D01*
X411705Y715559D01*
X411480Y715562D01*
X415608Y714610D02*
X415696Y714578D01*
X415783Y714542D01*
X415869Y714503D01*
X415953Y714460D01*
X416035Y714414D01*
X416115Y714365D01*
X416193Y714313D01*
X416269Y714257D01*
X416343Y714199D01*
X416414Y714137D01*
X416483Y714073D01*
X416549Y714006D01*
X416612Y713937D01*
X416673Y713865D01*
X416731Y713791D01*
X416785Y713714D01*
X416837Y713636D01*
X416885Y713555D01*
X416930Y713473D01*
X416972Y713388D01*
X417010Y713302D01*
X417045Y713215D01*
X417077Y713127D01*
X417104Y713037D01*
X417129Y712946D01*
X417149Y712854D01*
X417166Y712762D01*
X417179Y712668D01*
X417188Y712575D01*
X417194Y712481D01*
X417196Y712387D01*
X414655Y709847D02*
X408305Y714927D01*
X405765Y723817D02*
X417195Y720007D01*
X417195Y727627D02*
X405765Y723817D01*
X414338Y726675D02*
X414338Y720960D01*
D15*
X254000Y676910D02*
X254000Y673100D01*
D10*
X245110Y679450D02*
X245010Y679452D01*
X244911Y679458D01*
X244811Y679468D01*
X244713Y679481D01*
X244614Y679499D01*
X244517Y679520D01*
X244421Y679545D01*
X244325Y679574D01*
X244231Y679607D01*
X244138Y679643D01*
X244047Y679683D01*
X243957Y679727D01*
X243869Y679774D01*
X243783Y679824D01*
X243699Y679878D01*
X243617Y679935D01*
X243538Y679995D01*
X243460Y680059D01*
X243386Y680125D01*
X243314Y680194D01*
X243245Y680266D01*
X243179Y680340D01*
X243115Y680418D01*
X243055Y680497D01*
X242998Y680579D01*
X242944Y680663D01*
X242894Y680749D01*
X242847Y680837D01*
X242803Y680927D01*
X242763Y681018D01*
X242727Y681111D01*
X242694Y681205D01*
X242665Y681301D01*
X242640Y681397D01*
X242619Y681494D01*
X242601Y681593D01*
X242588Y681691D01*
X242578Y681791D01*
X242572Y681890D01*
X242570Y681990D01*
X262890Y679450D02*
X262990Y679452D01*
X263089Y679458D01*
X263189Y679468D01*
X263287Y679481D01*
X263386Y679499D01*
X263483Y679520D01*
X263579Y679545D01*
X263675Y679574D01*
X263769Y679607D01*
X263862Y679643D01*
X263953Y679683D01*
X264043Y679727D01*
X264131Y679774D01*
X264217Y679824D01*
X264301Y679878D01*
X264383Y679935D01*
X264462Y679995D01*
X264540Y680059D01*
X264614Y680125D01*
X264686Y680194D01*
X264755Y680266D01*
X264821Y680340D01*
X264885Y680418D01*
X264945Y680497D01*
X265002Y680579D01*
X265056Y680663D01*
X265106Y680749D01*
X265153Y680837D01*
X265197Y680927D01*
X265237Y681018D01*
X265273Y681111D01*
X265306Y681205D01*
X265335Y681301D01*
X265360Y681397D01*
X265381Y681494D01*
X265399Y681593D01*
X265412Y681691D01*
X265422Y681791D01*
X265428Y681890D01*
X265430Y681990D01*
X265430Y740410D02*
X265428Y740510D01*
X265422Y740609D01*
X265412Y740709D01*
X265399Y740807D01*
X265381Y740906D01*
X265360Y741003D01*
X265335Y741099D01*
X265306Y741195D01*
X265273Y741289D01*
X265237Y741382D01*
X265197Y741473D01*
X265153Y741563D01*
X265106Y741651D01*
X265056Y741737D01*
X265002Y741821D01*
X264945Y741903D01*
X264885Y741982D01*
X264821Y742060D01*
X264755Y742134D01*
X264686Y742206D01*
X264614Y742275D01*
X264540Y742341D01*
X264462Y742405D01*
X264383Y742465D01*
X264301Y742522D01*
X264217Y742576D01*
X264131Y742626D01*
X264043Y742673D01*
X263953Y742717D01*
X263862Y742757D01*
X263769Y742793D01*
X263675Y742826D01*
X263579Y742855D01*
X263483Y742880D01*
X263386Y742901D01*
X263287Y742919D01*
X263189Y742932D01*
X263089Y742942D01*
X262990Y742948D01*
X262890Y742950D01*
X245110Y742950D02*
X245010Y742948D01*
X244911Y742942D01*
X244811Y742932D01*
X244713Y742919D01*
X244614Y742901D01*
X244517Y742880D01*
X244421Y742855D01*
X244325Y742826D01*
X244231Y742793D01*
X244138Y742757D01*
X244047Y742717D01*
X243957Y742673D01*
X243869Y742626D01*
X243783Y742576D01*
X243699Y742522D01*
X243617Y742465D01*
X243538Y742405D01*
X243460Y742341D01*
X243386Y742275D01*
X243314Y742206D01*
X243245Y742134D01*
X243179Y742060D01*
X243115Y741982D01*
X243055Y741903D01*
X242998Y741821D01*
X242944Y741737D01*
X242894Y741651D01*
X242847Y741563D01*
X242803Y741473D01*
X242763Y741382D01*
X242727Y741289D01*
X242694Y741195D01*
X242665Y741099D01*
X242640Y741003D01*
X242619Y740906D01*
X242601Y740807D01*
X242588Y740709D01*
X242578Y740609D01*
X242572Y740510D01*
X242570Y740410D01*
X245110Y679450D02*
X262890Y679450D01*
X242570Y681990D02*
X242570Y685800D01*
X243840Y687070D01*
X265430Y685800D02*
X265430Y681990D01*
X265430Y685800D02*
X264160Y687070D01*
X243840Y735330D02*
X242570Y736600D01*
X243840Y735330D02*
X243840Y687070D01*
X264160Y735330D02*
X265430Y736600D01*
X264160Y735330D02*
X264160Y687070D01*
X242570Y736600D02*
X242570Y740410D01*
X265430Y740410D02*
X265430Y736600D01*
X262890Y742950D02*
X245110Y742950D01*
D15*
X254000Y745490D02*
X254000Y749300D01*
D16*
X254000Y678180D03*
X254000Y744220D03*
D17*
X239395Y686435D02*
X227965Y686435D01*
X227965Y689610D01*
X227967Y689721D01*
X227973Y689831D01*
X227982Y689942D01*
X227996Y690052D01*
X228013Y690161D01*
X228034Y690270D01*
X228059Y690378D01*
X228088Y690485D01*
X228120Y690591D01*
X228156Y690696D01*
X228196Y690799D01*
X228239Y690901D01*
X228286Y691002D01*
X228337Y691101D01*
X228390Y691198D01*
X228447Y691292D01*
X228508Y691385D01*
X228571Y691476D01*
X228638Y691565D01*
X228708Y691651D01*
X228781Y691734D01*
X228856Y691816D01*
X228934Y691894D01*
X229016Y691969D01*
X229099Y692042D01*
X229185Y692112D01*
X229274Y692179D01*
X229365Y692242D01*
X229458Y692303D01*
X229553Y692360D01*
X229649Y692413D01*
X229748Y692464D01*
X229849Y692511D01*
X229951Y692554D01*
X230054Y692594D01*
X230159Y692630D01*
X230265Y692662D01*
X230372Y692691D01*
X230480Y692716D01*
X230589Y692737D01*
X230698Y692754D01*
X230808Y692768D01*
X230919Y692777D01*
X231029Y692783D01*
X231140Y692785D01*
X231251Y692783D01*
X231361Y692777D01*
X231472Y692768D01*
X231582Y692754D01*
X231691Y692737D01*
X231800Y692716D01*
X231908Y692691D01*
X232015Y692662D01*
X232121Y692630D01*
X232226Y692594D01*
X232329Y692554D01*
X232431Y692511D01*
X232532Y692464D01*
X232631Y692413D01*
X232728Y692360D01*
X232822Y692303D01*
X232915Y692242D01*
X233006Y692179D01*
X233095Y692112D01*
X233181Y692042D01*
X233264Y691969D01*
X233346Y691894D01*
X233424Y691816D01*
X233499Y691734D01*
X233572Y691651D01*
X233642Y691565D01*
X233709Y691476D01*
X233772Y691385D01*
X233833Y691292D01*
X233890Y691198D01*
X233943Y691101D01*
X233994Y691002D01*
X234041Y690901D01*
X234084Y690799D01*
X234124Y690696D01*
X234160Y690591D01*
X234192Y690485D01*
X234221Y690378D01*
X234246Y690270D01*
X234267Y690161D01*
X234284Y690052D01*
X234298Y689942D01*
X234307Y689831D01*
X234313Y689721D01*
X234315Y689610D01*
X234315Y686435D01*
X234315Y690245D02*
X239395Y692785D01*
X230823Y704133D02*
X230719Y704131D01*
X230614Y704125D01*
X230510Y704116D01*
X230407Y704103D01*
X230304Y704085D01*
X230202Y704065D01*
X230100Y704040D01*
X230000Y704012D01*
X229900Y703980D01*
X229802Y703944D01*
X229705Y703905D01*
X229610Y703863D01*
X229516Y703817D01*
X229424Y703767D01*
X229334Y703715D01*
X229246Y703659D01*
X229160Y703599D01*
X229076Y703537D01*
X228995Y703472D01*
X228916Y703404D01*
X228839Y703332D01*
X228766Y703259D01*
X228694Y703182D01*
X228626Y703103D01*
X228561Y703022D01*
X228499Y702938D01*
X228439Y702852D01*
X228383Y702764D01*
X228331Y702674D01*
X228281Y702582D01*
X228235Y702488D01*
X228193Y702393D01*
X228154Y702296D01*
X228118Y702198D01*
X228086Y702098D01*
X228058Y701998D01*
X228033Y701896D01*
X228013Y701794D01*
X227995Y701691D01*
X227982Y701588D01*
X227973Y701484D01*
X227967Y701379D01*
X227965Y701275D01*
X227967Y701157D01*
X227973Y701038D01*
X227982Y700920D01*
X227995Y700803D01*
X228013Y700686D01*
X228033Y700569D01*
X228058Y700453D01*
X228086Y700338D01*
X228119Y700225D01*
X228154Y700112D01*
X228194Y700000D01*
X228236Y699890D01*
X228283Y699781D01*
X228333Y699673D01*
X228386Y699568D01*
X228443Y699464D01*
X228503Y699362D01*
X228566Y699262D01*
X228633Y699164D01*
X228702Y699068D01*
X228775Y698975D01*
X228851Y698884D01*
X228929Y698795D01*
X229011Y698709D01*
X229095Y698626D01*
X229181Y698545D01*
X229271Y698468D01*
X229362Y698393D01*
X229456Y698321D01*
X229553Y698252D01*
X229651Y698187D01*
X229752Y698124D01*
X229855Y698065D01*
X229959Y698009D01*
X230065Y697957D01*
X230173Y697908D01*
X230282Y697863D01*
X230393Y697821D01*
X230505Y697783D01*
X233045Y703180D02*
X232970Y703256D01*
X232891Y703331D01*
X232810Y703402D01*
X232726Y703471D01*
X232640Y703536D01*
X232552Y703598D01*
X232462Y703658D01*
X232370Y703714D01*
X232275Y703767D01*
X232179Y703816D01*
X232081Y703862D01*
X231982Y703905D01*
X231881Y703944D01*
X231779Y703979D01*
X231676Y704011D01*
X231572Y704039D01*
X231467Y704064D01*
X231360Y704085D01*
X231254Y704102D01*
X231147Y704115D01*
X231039Y704124D01*
X230931Y704130D01*
X230823Y704132D01*
X233045Y703180D02*
X239395Y697782D01*
X239395Y704132D01*
X233680Y709212D02*
X233455Y709215D01*
X233230Y709223D01*
X233006Y709236D01*
X232782Y709255D01*
X232558Y709279D01*
X232335Y709308D01*
X232113Y709343D01*
X231892Y709383D01*
X231672Y709429D01*
X231453Y709479D01*
X231235Y709535D01*
X231018Y709596D01*
X230803Y709662D01*
X230590Y709733D01*
X230379Y709810D01*
X230169Y709891D01*
X229961Y709977D01*
X229756Y710068D01*
X229553Y710164D01*
X229465Y710196D01*
X229378Y710232D01*
X229292Y710271D01*
X229208Y710314D01*
X229126Y710360D01*
X229046Y710409D01*
X228968Y710461D01*
X228892Y710517D01*
X228818Y710575D01*
X228747Y710637D01*
X228678Y710701D01*
X228612Y710768D01*
X228549Y710837D01*
X228488Y710909D01*
X228430Y710983D01*
X228376Y711060D01*
X228324Y711138D01*
X228276Y711219D01*
X228231Y711301D01*
X228189Y711386D01*
X228151Y711472D01*
X228116Y711559D01*
X228084Y711647D01*
X228057Y711737D01*
X228032Y711828D01*
X228012Y711920D01*
X227995Y712012D01*
X227982Y712106D01*
X227973Y712199D01*
X227967Y712293D01*
X227965Y712387D01*
X227967Y712481D01*
X227973Y712575D01*
X227982Y712668D01*
X227995Y712762D01*
X228012Y712854D01*
X228032Y712946D01*
X228057Y713037D01*
X228084Y713127D01*
X228116Y713215D01*
X228151Y713302D01*
X228189Y713388D01*
X228231Y713473D01*
X228276Y713555D01*
X228324Y713636D01*
X228376Y713714D01*
X228430Y713791D01*
X228488Y713865D01*
X228549Y713937D01*
X228612Y714006D01*
X228678Y714073D01*
X228747Y714137D01*
X228818Y714199D01*
X228892Y714257D01*
X228968Y714313D01*
X229046Y714365D01*
X229126Y714414D01*
X229208Y714460D01*
X229292Y714503D01*
X229378Y714542D01*
X229465Y714578D01*
X229553Y714610D01*
X229756Y714706D01*
X229961Y714797D01*
X230169Y714883D01*
X230379Y714964D01*
X230590Y715041D01*
X230803Y715112D01*
X231018Y715178D01*
X231235Y715239D01*
X231453Y715295D01*
X231672Y715345D01*
X231892Y715391D01*
X232113Y715431D01*
X232335Y715466D01*
X232558Y715495D01*
X232782Y715519D01*
X233006Y715538D01*
X233230Y715551D01*
X233455Y715559D01*
X233680Y715562D01*
X233680Y709212D02*
X233905Y709215D01*
X234130Y709223D01*
X234354Y709236D01*
X234578Y709255D01*
X234802Y709279D01*
X235025Y709308D01*
X235247Y709343D01*
X235468Y709383D01*
X235688Y709429D01*
X235907Y709479D01*
X236125Y709535D01*
X236342Y709596D01*
X236557Y709662D01*
X236770Y709733D01*
X236981Y709810D01*
X237191Y709891D01*
X237399Y709977D01*
X237604Y710068D01*
X237807Y710164D01*
X237808Y710164D02*
X237896Y710196D01*
X237983Y710232D01*
X238069Y710271D01*
X238153Y710314D01*
X238235Y710360D01*
X238315Y710409D01*
X238393Y710461D01*
X238469Y710517D01*
X238543Y710575D01*
X238614Y710637D01*
X238683Y710701D01*
X238749Y710768D01*
X238812Y710837D01*
X238873Y710909D01*
X238931Y710983D01*
X238985Y711060D01*
X239037Y711138D01*
X239085Y711219D01*
X239130Y711301D01*
X239172Y711386D01*
X239210Y711472D01*
X239245Y711559D01*
X239277Y711647D01*
X239304Y711737D01*
X239329Y711828D01*
X239349Y711920D01*
X239366Y712012D01*
X239379Y712106D01*
X239388Y712199D01*
X239394Y712293D01*
X239396Y712387D01*
X237807Y714610D02*
X237604Y714706D01*
X237399Y714797D01*
X237191Y714883D01*
X236981Y714964D01*
X236770Y715041D01*
X236557Y715112D01*
X236342Y715178D01*
X236125Y715239D01*
X235907Y715295D01*
X235688Y715345D01*
X235468Y715391D01*
X235247Y715431D01*
X235025Y715466D01*
X234802Y715495D01*
X234578Y715519D01*
X234354Y715538D01*
X234130Y715551D01*
X233905Y715559D01*
X233680Y715562D01*
X237808Y714610D02*
X237896Y714578D01*
X237983Y714542D01*
X238069Y714503D01*
X238153Y714460D01*
X238235Y714414D01*
X238315Y714365D01*
X238393Y714313D01*
X238469Y714257D01*
X238543Y714199D01*
X238614Y714137D01*
X238683Y714073D01*
X238749Y714006D01*
X238812Y713937D01*
X238873Y713865D01*
X238931Y713791D01*
X238985Y713714D01*
X239037Y713636D01*
X239085Y713555D01*
X239130Y713473D01*
X239172Y713388D01*
X239210Y713302D01*
X239245Y713215D01*
X239277Y713127D01*
X239304Y713037D01*
X239329Y712946D01*
X239349Y712854D01*
X239366Y712762D01*
X239379Y712668D01*
X239388Y712575D01*
X239394Y712481D01*
X239396Y712387D01*
X236855Y709847D02*
X230505Y714927D01*
X233045Y721214D02*
X233045Y724389D01*
X233047Y724500D01*
X233053Y724610D01*
X233062Y724721D01*
X233076Y724831D01*
X233093Y724940D01*
X233114Y725049D01*
X233139Y725157D01*
X233168Y725264D01*
X233200Y725370D01*
X233236Y725475D01*
X233276Y725578D01*
X233319Y725680D01*
X233366Y725781D01*
X233417Y725880D01*
X233470Y725977D01*
X233527Y726071D01*
X233588Y726164D01*
X233651Y726255D01*
X233718Y726344D01*
X233788Y726430D01*
X233861Y726513D01*
X233936Y726595D01*
X234014Y726673D01*
X234096Y726748D01*
X234179Y726821D01*
X234265Y726891D01*
X234354Y726958D01*
X234445Y727021D01*
X234538Y727082D01*
X234633Y727139D01*
X234729Y727192D01*
X234828Y727243D01*
X234929Y727290D01*
X235031Y727333D01*
X235134Y727373D01*
X235239Y727409D01*
X235345Y727441D01*
X235452Y727470D01*
X235560Y727495D01*
X235669Y727516D01*
X235778Y727533D01*
X235888Y727547D01*
X235999Y727556D01*
X236109Y727562D01*
X236220Y727564D01*
X236331Y727562D01*
X236441Y727556D01*
X236552Y727547D01*
X236662Y727533D01*
X236771Y727516D01*
X236880Y727495D01*
X236988Y727470D01*
X237095Y727441D01*
X237201Y727409D01*
X237306Y727373D01*
X237409Y727333D01*
X237511Y727290D01*
X237612Y727243D01*
X237711Y727192D01*
X237808Y727139D01*
X237902Y727082D01*
X237995Y727021D01*
X238086Y726958D01*
X238175Y726891D01*
X238261Y726821D01*
X238344Y726748D01*
X238426Y726673D01*
X238504Y726595D01*
X238579Y726513D01*
X238652Y726430D01*
X238722Y726344D01*
X238789Y726255D01*
X238852Y726164D01*
X238913Y726071D01*
X238970Y725977D01*
X239023Y725880D01*
X239074Y725781D01*
X239121Y725680D01*
X239164Y725578D01*
X239204Y725475D01*
X239240Y725370D01*
X239272Y725264D01*
X239301Y725157D01*
X239326Y725049D01*
X239347Y724940D01*
X239364Y724831D01*
X239378Y724721D01*
X239387Y724610D01*
X239393Y724500D01*
X239395Y724389D01*
X239395Y721214D01*
X227965Y721214D01*
X227965Y724389D01*
X227967Y724489D01*
X227973Y724588D01*
X227983Y724688D01*
X227996Y724786D01*
X228014Y724885D01*
X228035Y724982D01*
X228060Y725078D01*
X228089Y725174D01*
X228122Y725268D01*
X228158Y725361D01*
X228198Y725452D01*
X228242Y725542D01*
X228289Y725630D01*
X228339Y725716D01*
X228393Y725800D01*
X228450Y725882D01*
X228510Y725961D01*
X228574Y726039D01*
X228640Y726113D01*
X228709Y726185D01*
X228781Y726254D01*
X228855Y726320D01*
X228933Y726384D01*
X229012Y726444D01*
X229094Y726501D01*
X229178Y726555D01*
X229264Y726605D01*
X229352Y726652D01*
X229442Y726696D01*
X229533Y726736D01*
X229626Y726772D01*
X229720Y726805D01*
X229816Y726834D01*
X229912Y726859D01*
X230009Y726880D01*
X230108Y726898D01*
X230206Y726911D01*
X230306Y726921D01*
X230405Y726927D01*
X230505Y726929D01*
X230605Y726927D01*
X230704Y726921D01*
X230804Y726911D01*
X230902Y726898D01*
X231001Y726880D01*
X231098Y726859D01*
X231194Y726834D01*
X231290Y726805D01*
X231384Y726772D01*
X231477Y726736D01*
X231568Y726696D01*
X231658Y726652D01*
X231746Y726605D01*
X231832Y726555D01*
X231916Y726501D01*
X231998Y726444D01*
X232077Y726384D01*
X232155Y726320D01*
X232229Y726254D01*
X232301Y726185D01*
X232370Y726113D01*
X232436Y726039D01*
X232500Y725961D01*
X232560Y725882D01*
X232617Y725800D01*
X232671Y725716D01*
X232721Y725630D01*
X232768Y725542D01*
X232812Y725452D01*
X232852Y725361D01*
X232888Y725268D01*
X232921Y725174D01*
X232950Y725078D01*
X232975Y724982D01*
X232996Y724885D01*
X233014Y724786D01*
X233027Y724688D01*
X233037Y724588D01*
X233043Y724489D01*
X233045Y724389D01*
D15*
X283210Y979170D02*
X283210Y982980D01*
D10*
X292100Y976630D02*
X292200Y976628D01*
X292299Y976622D01*
X292399Y976612D01*
X292497Y976599D01*
X292596Y976581D01*
X292693Y976560D01*
X292789Y976535D01*
X292885Y976506D01*
X292979Y976473D01*
X293072Y976437D01*
X293163Y976397D01*
X293253Y976353D01*
X293341Y976306D01*
X293427Y976256D01*
X293511Y976202D01*
X293593Y976145D01*
X293672Y976085D01*
X293750Y976021D01*
X293824Y975955D01*
X293896Y975886D01*
X293965Y975814D01*
X294031Y975740D01*
X294095Y975662D01*
X294155Y975583D01*
X294212Y975501D01*
X294266Y975417D01*
X294316Y975331D01*
X294363Y975243D01*
X294407Y975153D01*
X294447Y975062D01*
X294483Y974969D01*
X294516Y974875D01*
X294545Y974779D01*
X294570Y974683D01*
X294591Y974586D01*
X294609Y974487D01*
X294622Y974389D01*
X294632Y974289D01*
X294638Y974190D01*
X294640Y974090D01*
X274320Y976630D02*
X274220Y976628D01*
X274121Y976622D01*
X274021Y976612D01*
X273923Y976599D01*
X273824Y976581D01*
X273727Y976560D01*
X273631Y976535D01*
X273535Y976506D01*
X273441Y976473D01*
X273348Y976437D01*
X273257Y976397D01*
X273167Y976353D01*
X273079Y976306D01*
X272993Y976256D01*
X272909Y976202D01*
X272827Y976145D01*
X272748Y976085D01*
X272670Y976021D01*
X272596Y975955D01*
X272524Y975886D01*
X272455Y975814D01*
X272389Y975740D01*
X272325Y975662D01*
X272265Y975583D01*
X272208Y975501D01*
X272154Y975417D01*
X272104Y975331D01*
X272057Y975243D01*
X272013Y975153D01*
X271973Y975062D01*
X271937Y974969D01*
X271904Y974875D01*
X271875Y974779D01*
X271850Y974683D01*
X271829Y974586D01*
X271811Y974487D01*
X271798Y974389D01*
X271788Y974289D01*
X271782Y974190D01*
X271780Y974090D01*
X271780Y915670D02*
X271782Y915570D01*
X271788Y915471D01*
X271798Y915371D01*
X271811Y915273D01*
X271829Y915174D01*
X271850Y915077D01*
X271875Y914981D01*
X271904Y914885D01*
X271937Y914791D01*
X271973Y914698D01*
X272013Y914607D01*
X272057Y914517D01*
X272104Y914429D01*
X272154Y914343D01*
X272208Y914259D01*
X272265Y914177D01*
X272325Y914098D01*
X272389Y914020D01*
X272455Y913946D01*
X272524Y913874D01*
X272596Y913805D01*
X272670Y913739D01*
X272748Y913675D01*
X272827Y913615D01*
X272909Y913558D01*
X272993Y913504D01*
X273079Y913454D01*
X273167Y913407D01*
X273257Y913363D01*
X273348Y913323D01*
X273441Y913287D01*
X273535Y913254D01*
X273631Y913225D01*
X273727Y913200D01*
X273824Y913179D01*
X273923Y913161D01*
X274021Y913148D01*
X274121Y913138D01*
X274220Y913132D01*
X274320Y913130D01*
X292100Y913130D02*
X292200Y913132D01*
X292299Y913138D01*
X292399Y913148D01*
X292497Y913161D01*
X292596Y913179D01*
X292693Y913200D01*
X292789Y913225D01*
X292885Y913254D01*
X292979Y913287D01*
X293072Y913323D01*
X293163Y913363D01*
X293253Y913407D01*
X293341Y913454D01*
X293427Y913504D01*
X293511Y913558D01*
X293593Y913615D01*
X293672Y913675D01*
X293750Y913739D01*
X293824Y913805D01*
X293896Y913874D01*
X293965Y913946D01*
X294031Y914020D01*
X294095Y914098D01*
X294155Y914177D01*
X294212Y914259D01*
X294266Y914343D01*
X294316Y914429D01*
X294363Y914517D01*
X294407Y914607D01*
X294447Y914698D01*
X294483Y914791D01*
X294516Y914885D01*
X294545Y914981D01*
X294570Y915077D01*
X294591Y915174D01*
X294609Y915273D01*
X294622Y915371D01*
X294632Y915471D01*
X294638Y915570D01*
X294640Y915670D01*
X292100Y976630D02*
X274320Y976630D01*
X294640Y974090D02*
X294640Y970280D01*
X293370Y969010D01*
X271780Y970280D02*
X271780Y974090D01*
X271780Y970280D02*
X273050Y969010D01*
X293370Y920750D02*
X294640Y919480D01*
X293370Y920750D02*
X293370Y969010D01*
X273050Y920750D02*
X271780Y919480D01*
X273050Y920750D02*
X273050Y969010D01*
X294640Y919480D02*
X294640Y915670D01*
X271780Y915670D02*
X271780Y919480D01*
X274320Y913130D02*
X292100Y913130D01*
D15*
X283210Y910590D02*
X283210Y906780D01*
D16*
X283210Y977900D03*
X283210Y911860D03*
D17*
X297815Y939883D02*
X309245Y939883D01*
X297815Y939883D02*
X297815Y943058D01*
X297817Y943169D01*
X297823Y943279D01*
X297832Y943390D01*
X297846Y943500D01*
X297863Y943609D01*
X297884Y943718D01*
X297909Y943826D01*
X297938Y943933D01*
X297970Y944039D01*
X298006Y944144D01*
X298046Y944247D01*
X298089Y944349D01*
X298136Y944450D01*
X298187Y944549D01*
X298240Y944646D01*
X298297Y944740D01*
X298358Y944833D01*
X298421Y944924D01*
X298488Y945013D01*
X298558Y945099D01*
X298631Y945182D01*
X298706Y945264D01*
X298784Y945342D01*
X298866Y945417D01*
X298949Y945490D01*
X299035Y945560D01*
X299124Y945627D01*
X299215Y945690D01*
X299308Y945751D01*
X299403Y945808D01*
X299499Y945861D01*
X299598Y945912D01*
X299699Y945959D01*
X299801Y946002D01*
X299904Y946042D01*
X300009Y946078D01*
X300115Y946110D01*
X300222Y946139D01*
X300330Y946164D01*
X300439Y946185D01*
X300548Y946202D01*
X300658Y946216D01*
X300769Y946225D01*
X300879Y946231D01*
X300990Y946233D01*
X301101Y946231D01*
X301211Y946225D01*
X301322Y946216D01*
X301432Y946202D01*
X301541Y946185D01*
X301650Y946164D01*
X301758Y946139D01*
X301865Y946110D01*
X301971Y946078D01*
X302076Y946042D01*
X302179Y946002D01*
X302281Y945959D01*
X302382Y945912D01*
X302481Y945861D01*
X302578Y945808D01*
X302672Y945751D01*
X302765Y945690D01*
X302856Y945627D01*
X302945Y945560D01*
X303031Y945490D01*
X303114Y945417D01*
X303196Y945342D01*
X303274Y945264D01*
X303349Y945182D01*
X303422Y945099D01*
X303492Y945013D01*
X303559Y944924D01*
X303622Y944833D01*
X303683Y944740D01*
X303740Y944646D01*
X303793Y944549D01*
X303844Y944450D01*
X303891Y944349D01*
X303934Y944247D01*
X303974Y944144D01*
X304010Y944039D01*
X304042Y943933D01*
X304071Y943826D01*
X304096Y943718D01*
X304117Y943609D01*
X304134Y943500D01*
X304148Y943390D01*
X304157Y943279D01*
X304163Y943169D01*
X304165Y943058D01*
X304165Y939883D01*
X304165Y943693D02*
X309245Y946233D01*
X302895Y951230D02*
X302895Y955040D01*
X302897Y955140D01*
X302903Y955239D01*
X302913Y955339D01*
X302926Y955437D01*
X302944Y955536D01*
X302965Y955633D01*
X302990Y955729D01*
X303019Y955825D01*
X303052Y955919D01*
X303088Y956012D01*
X303128Y956103D01*
X303172Y956193D01*
X303219Y956281D01*
X303269Y956367D01*
X303323Y956451D01*
X303380Y956533D01*
X303440Y956612D01*
X303504Y956690D01*
X303570Y956764D01*
X303639Y956836D01*
X303711Y956905D01*
X303785Y956971D01*
X303863Y957035D01*
X303942Y957095D01*
X304024Y957152D01*
X304108Y957206D01*
X304194Y957256D01*
X304282Y957303D01*
X304372Y957347D01*
X304463Y957387D01*
X304556Y957423D01*
X304650Y957456D01*
X304746Y957485D01*
X304842Y957510D01*
X304939Y957531D01*
X305038Y957549D01*
X305136Y957562D01*
X305236Y957572D01*
X305335Y957578D01*
X305435Y957580D01*
X306070Y957580D01*
X306181Y957578D01*
X306291Y957572D01*
X306402Y957563D01*
X306512Y957549D01*
X306621Y957532D01*
X306730Y957511D01*
X306838Y957486D01*
X306945Y957457D01*
X307051Y957425D01*
X307156Y957389D01*
X307259Y957349D01*
X307361Y957306D01*
X307462Y957259D01*
X307561Y957208D01*
X307658Y957155D01*
X307752Y957098D01*
X307845Y957037D01*
X307936Y956974D01*
X308025Y956907D01*
X308111Y956837D01*
X308194Y956764D01*
X308276Y956689D01*
X308354Y956611D01*
X308429Y956529D01*
X308502Y956446D01*
X308572Y956360D01*
X308639Y956271D01*
X308702Y956180D01*
X308763Y956087D01*
X308820Y955992D01*
X308873Y955896D01*
X308924Y955797D01*
X308971Y955696D01*
X309014Y955594D01*
X309054Y955491D01*
X309090Y955386D01*
X309122Y955280D01*
X309151Y955173D01*
X309176Y955065D01*
X309197Y954956D01*
X309214Y954847D01*
X309228Y954737D01*
X309237Y954626D01*
X309243Y954516D01*
X309245Y954405D01*
X309243Y954294D01*
X309237Y954184D01*
X309228Y954073D01*
X309214Y953963D01*
X309197Y953854D01*
X309176Y953745D01*
X309151Y953637D01*
X309122Y953530D01*
X309090Y953424D01*
X309054Y953319D01*
X309014Y953216D01*
X308971Y953114D01*
X308924Y953013D01*
X308873Y952914D01*
X308820Y952818D01*
X308763Y952723D01*
X308702Y952630D01*
X308639Y952539D01*
X308572Y952450D01*
X308502Y952364D01*
X308429Y952281D01*
X308354Y952199D01*
X308276Y952121D01*
X308194Y952046D01*
X308111Y951973D01*
X308025Y951903D01*
X307936Y951836D01*
X307845Y951773D01*
X307752Y951712D01*
X307658Y951655D01*
X307561Y951602D01*
X307462Y951551D01*
X307361Y951504D01*
X307259Y951461D01*
X307156Y951421D01*
X307051Y951385D01*
X306945Y951353D01*
X306838Y951324D01*
X306730Y951299D01*
X306621Y951278D01*
X306512Y951261D01*
X306402Y951247D01*
X306291Y951238D01*
X306181Y951232D01*
X306070Y951230D01*
X302895Y951230D01*
X302755Y951232D01*
X302615Y951238D01*
X302475Y951247D01*
X302336Y951261D01*
X302197Y951278D01*
X302059Y951299D01*
X301921Y951324D01*
X301784Y951353D01*
X301648Y951385D01*
X301513Y951422D01*
X301379Y951462D01*
X301246Y951505D01*
X301114Y951553D01*
X300983Y951603D01*
X300854Y951658D01*
X300727Y951716D01*
X300601Y951777D01*
X300477Y951842D01*
X300355Y951911D01*
X300235Y951982D01*
X300117Y952057D01*
X300000Y952135D01*
X299886Y952217D01*
X299775Y952301D01*
X299666Y952389D01*
X299559Y952479D01*
X299454Y952573D01*
X299353Y952669D01*
X299254Y952768D01*
X299158Y952869D01*
X299064Y952974D01*
X298974Y953081D01*
X298886Y953190D01*
X298802Y953301D01*
X298720Y953415D01*
X298642Y953532D01*
X298567Y953650D01*
X298496Y953770D01*
X298427Y953892D01*
X298362Y954016D01*
X298301Y954142D01*
X298243Y954269D01*
X298188Y954398D01*
X298138Y954529D01*
X298090Y954661D01*
X298047Y954794D01*
X298007Y954928D01*
X297970Y955063D01*
X297938Y955199D01*
X297909Y955336D01*
X297884Y955474D01*
X297863Y955612D01*
X297846Y955751D01*
X297832Y955890D01*
X297823Y956030D01*
X297817Y956170D01*
X297815Y956310D01*
X297815Y965835D02*
X309245Y962025D01*
X309245Y969645D02*
X297815Y965835D01*
X306388Y968693D02*
X306388Y962978D01*
D15*
X462280Y979170D02*
X462280Y982980D01*
D10*
X471170Y976630D02*
X471270Y976628D01*
X471369Y976622D01*
X471469Y976612D01*
X471567Y976599D01*
X471666Y976581D01*
X471763Y976560D01*
X471859Y976535D01*
X471955Y976506D01*
X472049Y976473D01*
X472142Y976437D01*
X472233Y976397D01*
X472323Y976353D01*
X472411Y976306D01*
X472497Y976256D01*
X472581Y976202D01*
X472663Y976145D01*
X472742Y976085D01*
X472820Y976021D01*
X472894Y975955D01*
X472966Y975886D01*
X473035Y975814D01*
X473101Y975740D01*
X473165Y975662D01*
X473225Y975583D01*
X473282Y975501D01*
X473336Y975417D01*
X473386Y975331D01*
X473433Y975243D01*
X473477Y975153D01*
X473517Y975062D01*
X473553Y974969D01*
X473586Y974875D01*
X473615Y974779D01*
X473640Y974683D01*
X473661Y974586D01*
X473679Y974487D01*
X473692Y974389D01*
X473702Y974289D01*
X473708Y974190D01*
X473710Y974090D01*
X453390Y976630D02*
X453290Y976628D01*
X453191Y976622D01*
X453091Y976612D01*
X452993Y976599D01*
X452894Y976581D01*
X452797Y976560D01*
X452701Y976535D01*
X452605Y976506D01*
X452511Y976473D01*
X452418Y976437D01*
X452327Y976397D01*
X452237Y976353D01*
X452149Y976306D01*
X452063Y976256D01*
X451979Y976202D01*
X451897Y976145D01*
X451818Y976085D01*
X451740Y976021D01*
X451666Y975955D01*
X451594Y975886D01*
X451525Y975814D01*
X451459Y975740D01*
X451395Y975662D01*
X451335Y975583D01*
X451278Y975501D01*
X451224Y975417D01*
X451174Y975331D01*
X451127Y975243D01*
X451083Y975153D01*
X451043Y975062D01*
X451007Y974969D01*
X450974Y974875D01*
X450945Y974779D01*
X450920Y974683D01*
X450899Y974586D01*
X450881Y974487D01*
X450868Y974389D01*
X450858Y974289D01*
X450852Y974190D01*
X450850Y974090D01*
X450850Y915670D02*
X450852Y915570D01*
X450858Y915471D01*
X450868Y915371D01*
X450881Y915273D01*
X450899Y915174D01*
X450920Y915077D01*
X450945Y914981D01*
X450974Y914885D01*
X451007Y914791D01*
X451043Y914698D01*
X451083Y914607D01*
X451127Y914517D01*
X451174Y914429D01*
X451224Y914343D01*
X451278Y914259D01*
X451335Y914177D01*
X451395Y914098D01*
X451459Y914020D01*
X451525Y913946D01*
X451594Y913874D01*
X451666Y913805D01*
X451740Y913739D01*
X451818Y913675D01*
X451897Y913615D01*
X451979Y913558D01*
X452063Y913504D01*
X452149Y913454D01*
X452237Y913407D01*
X452327Y913363D01*
X452418Y913323D01*
X452511Y913287D01*
X452605Y913254D01*
X452701Y913225D01*
X452797Y913200D01*
X452894Y913179D01*
X452993Y913161D01*
X453091Y913148D01*
X453191Y913138D01*
X453290Y913132D01*
X453390Y913130D01*
X471170Y913130D02*
X471270Y913132D01*
X471369Y913138D01*
X471469Y913148D01*
X471567Y913161D01*
X471666Y913179D01*
X471763Y913200D01*
X471859Y913225D01*
X471955Y913254D01*
X472049Y913287D01*
X472142Y913323D01*
X472233Y913363D01*
X472323Y913407D01*
X472411Y913454D01*
X472497Y913504D01*
X472581Y913558D01*
X472663Y913615D01*
X472742Y913675D01*
X472820Y913739D01*
X472894Y913805D01*
X472966Y913874D01*
X473035Y913946D01*
X473101Y914020D01*
X473165Y914098D01*
X473225Y914177D01*
X473282Y914259D01*
X473336Y914343D01*
X473386Y914429D01*
X473433Y914517D01*
X473477Y914607D01*
X473517Y914698D01*
X473553Y914791D01*
X473586Y914885D01*
X473615Y914981D01*
X473640Y915077D01*
X473661Y915174D01*
X473679Y915273D01*
X473692Y915371D01*
X473702Y915471D01*
X473708Y915570D01*
X473710Y915670D01*
X471170Y976630D02*
X453390Y976630D01*
X473710Y974090D02*
X473710Y970280D01*
X472440Y969010D01*
X450850Y970280D02*
X450850Y974090D01*
X450850Y970280D02*
X452120Y969010D01*
X472440Y920750D02*
X473710Y919480D01*
X472440Y920750D02*
X472440Y969010D01*
X452120Y920750D02*
X450850Y919480D01*
X452120Y920750D02*
X452120Y969010D01*
X473710Y919480D02*
X473710Y915670D01*
X450850Y915670D02*
X450850Y919480D01*
X453390Y913130D02*
X471170Y913130D01*
D15*
X462280Y910590D02*
X462280Y906780D01*
D16*
X462280Y977900D03*
X462280Y911860D03*
D17*
X476885Y939946D02*
X488315Y939946D01*
X476885Y939946D02*
X476885Y943121D01*
X476887Y943232D01*
X476893Y943342D01*
X476902Y943453D01*
X476916Y943563D01*
X476933Y943672D01*
X476954Y943781D01*
X476979Y943889D01*
X477008Y943996D01*
X477040Y944102D01*
X477076Y944207D01*
X477116Y944310D01*
X477159Y944412D01*
X477206Y944513D01*
X477257Y944612D01*
X477310Y944709D01*
X477367Y944803D01*
X477428Y944896D01*
X477491Y944987D01*
X477558Y945076D01*
X477628Y945162D01*
X477701Y945245D01*
X477776Y945327D01*
X477854Y945405D01*
X477936Y945480D01*
X478019Y945553D01*
X478105Y945623D01*
X478194Y945690D01*
X478285Y945753D01*
X478378Y945814D01*
X478473Y945871D01*
X478569Y945924D01*
X478668Y945975D01*
X478769Y946022D01*
X478871Y946065D01*
X478974Y946105D01*
X479079Y946141D01*
X479185Y946173D01*
X479292Y946202D01*
X479400Y946227D01*
X479509Y946248D01*
X479618Y946265D01*
X479728Y946279D01*
X479839Y946288D01*
X479949Y946294D01*
X480060Y946296D01*
X480171Y946294D01*
X480281Y946288D01*
X480392Y946279D01*
X480502Y946265D01*
X480611Y946248D01*
X480720Y946227D01*
X480828Y946202D01*
X480935Y946173D01*
X481041Y946141D01*
X481146Y946105D01*
X481249Y946065D01*
X481351Y946022D01*
X481452Y945975D01*
X481551Y945924D01*
X481648Y945871D01*
X481742Y945814D01*
X481835Y945753D01*
X481926Y945690D01*
X482015Y945623D01*
X482101Y945553D01*
X482184Y945480D01*
X482266Y945405D01*
X482344Y945327D01*
X482419Y945245D01*
X482492Y945162D01*
X482562Y945076D01*
X482629Y944987D01*
X482692Y944896D01*
X482753Y944803D01*
X482810Y944709D01*
X482863Y944612D01*
X482914Y944513D01*
X482961Y944412D01*
X483004Y944310D01*
X483044Y944207D01*
X483080Y944102D01*
X483112Y943996D01*
X483141Y943889D01*
X483166Y943781D01*
X483187Y943672D01*
X483204Y943563D01*
X483218Y943453D01*
X483227Y943342D01*
X483233Y943232D01*
X483235Y943121D01*
X483235Y939946D01*
X483235Y943756D02*
X488315Y946296D01*
X481965Y951294D02*
X481965Y955104D01*
X481967Y955204D01*
X481973Y955303D01*
X481983Y955403D01*
X481996Y955501D01*
X482014Y955600D01*
X482035Y955697D01*
X482060Y955793D01*
X482089Y955889D01*
X482122Y955983D01*
X482158Y956076D01*
X482198Y956167D01*
X482242Y956257D01*
X482289Y956345D01*
X482339Y956431D01*
X482393Y956515D01*
X482450Y956597D01*
X482510Y956676D01*
X482574Y956754D01*
X482640Y956828D01*
X482709Y956900D01*
X482781Y956969D01*
X482855Y957035D01*
X482933Y957099D01*
X483012Y957159D01*
X483094Y957216D01*
X483178Y957270D01*
X483264Y957320D01*
X483352Y957367D01*
X483442Y957411D01*
X483533Y957451D01*
X483626Y957487D01*
X483720Y957520D01*
X483816Y957549D01*
X483912Y957574D01*
X484009Y957595D01*
X484108Y957613D01*
X484206Y957626D01*
X484306Y957636D01*
X484405Y957642D01*
X484505Y957644D01*
X485140Y957644D01*
X485251Y957642D01*
X485361Y957636D01*
X485472Y957627D01*
X485582Y957613D01*
X485691Y957596D01*
X485800Y957575D01*
X485908Y957550D01*
X486015Y957521D01*
X486121Y957489D01*
X486226Y957453D01*
X486329Y957413D01*
X486431Y957370D01*
X486532Y957323D01*
X486631Y957272D01*
X486728Y957219D01*
X486822Y957162D01*
X486915Y957101D01*
X487006Y957038D01*
X487095Y956971D01*
X487181Y956901D01*
X487264Y956828D01*
X487346Y956753D01*
X487424Y956675D01*
X487499Y956593D01*
X487572Y956510D01*
X487642Y956424D01*
X487709Y956335D01*
X487772Y956244D01*
X487833Y956151D01*
X487890Y956056D01*
X487943Y955960D01*
X487994Y955861D01*
X488041Y955760D01*
X488084Y955658D01*
X488124Y955555D01*
X488160Y955450D01*
X488192Y955344D01*
X488221Y955237D01*
X488246Y955129D01*
X488267Y955020D01*
X488284Y954911D01*
X488298Y954801D01*
X488307Y954690D01*
X488313Y954580D01*
X488315Y954469D01*
X488313Y954358D01*
X488307Y954248D01*
X488298Y954137D01*
X488284Y954027D01*
X488267Y953918D01*
X488246Y953809D01*
X488221Y953701D01*
X488192Y953594D01*
X488160Y953488D01*
X488124Y953383D01*
X488084Y953280D01*
X488041Y953178D01*
X487994Y953077D01*
X487943Y952978D01*
X487890Y952882D01*
X487833Y952787D01*
X487772Y952694D01*
X487709Y952603D01*
X487642Y952514D01*
X487572Y952428D01*
X487499Y952345D01*
X487424Y952263D01*
X487346Y952185D01*
X487264Y952110D01*
X487181Y952037D01*
X487095Y951967D01*
X487006Y951900D01*
X486915Y951837D01*
X486822Y951776D01*
X486728Y951719D01*
X486631Y951666D01*
X486532Y951615D01*
X486431Y951568D01*
X486329Y951525D01*
X486226Y951485D01*
X486121Y951449D01*
X486015Y951417D01*
X485908Y951388D01*
X485800Y951363D01*
X485691Y951342D01*
X485582Y951325D01*
X485472Y951311D01*
X485361Y951302D01*
X485251Y951296D01*
X485140Y951294D01*
X481965Y951294D01*
X481825Y951296D01*
X481685Y951302D01*
X481545Y951311D01*
X481406Y951325D01*
X481267Y951342D01*
X481129Y951363D01*
X480991Y951388D01*
X480854Y951417D01*
X480718Y951449D01*
X480583Y951486D01*
X480449Y951526D01*
X480316Y951569D01*
X480184Y951617D01*
X480053Y951667D01*
X479924Y951722D01*
X479797Y951780D01*
X479671Y951841D01*
X479547Y951906D01*
X479425Y951975D01*
X479305Y952046D01*
X479187Y952121D01*
X479070Y952199D01*
X478956Y952281D01*
X478845Y952365D01*
X478736Y952453D01*
X478629Y952543D01*
X478524Y952637D01*
X478423Y952733D01*
X478324Y952832D01*
X478228Y952933D01*
X478134Y953038D01*
X478044Y953145D01*
X477956Y953254D01*
X477872Y953365D01*
X477790Y953479D01*
X477712Y953596D01*
X477637Y953714D01*
X477566Y953834D01*
X477497Y953956D01*
X477432Y954080D01*
X477371Y954206D01*
X477313Y954333D01*
X477258Y954462D01*
X477208Y954593D01*
X477160Y954725D01*
X477117Y954858D01*
X477077Y954992D01*
X477040Y955127D01*
X477008Y955263D01*
X476979Y955400D01*
X476954Y955538D01*
X476933Y955676D01*
X476916Y955815D01*
X476902Y955954D01*
X476893Y956094D01*
X476887Y956234D01*
X476885Y956374D01*
X481965Y963295D02*
X481965Y966470D01*
X481967Y966581D01*
X481973Y966691D01*
X481982Y966802D01*
X481996Y966912D01*
X482013Y967021D01*
X482034Y967130D01*
X482059Y967238D01*
X482088Y967345D01*
X482120Y967451D01*
X482156Y967556D01*
X482196Y967659D01*
X482239Y967761D01*
X482286Y967862D01*
X482337Y967961D01*
X482390Y968058D01*
X482447Y968152D01*
X482508Y968245D01*
X482571Y968336D01*
X482638Y968425D01*
X482708Y968511D01*
X482781Y968594D01*
X482856Y968676D01*
X482934Y968754D01*
X483016Y968829D01*
X483099Y968902D01*
X483185Y968972D01*
X483274Y969039D01*
X483365Y969102D01*
X483458Y969163D01*
X483553Y969220D01*
X483649Y969273D01*
X483748Y969324D01*
X483849Y969371D01*
X483951Y969414D01*
X484054Y969454D01*
X484159Y969490D01*
X484265Y969522D01*
X484372Y969551D01*
X484480Y969576D01*
X484589Y969597D01*
X484698Y969614D01*
X484808Y969628D01*
X484919Y969637D01*
X485029Y969643D01*
X485140Y969645D01*
X485251Y969643D01*
X485361Y969637D01*
X485472Y969628D01*
X485582Y969614D01*
X485691Y969597D01*
X485800Y969576D01*
X485908Y969551D01*
X486015Y969522D01*
X486121Y969490D01*
X486226Y969454D01*
X486329Y969414D01*
X486431Y969371D01*
X486532Y969324D01*
X486631Y969273D01*
X486728Y969220D01*
X486822Y969163D01*
X486915Y969102D01*
X487006Y969039D01*
X487095Y968972D01*
X487181Y968902D01*
X487264Y968829D01*
X487346Y968754D01*
X487424Y968676D01*
X487499Y968594D01*
X487572Y968511D01*
X487642Y968425D01*
X487709Y968336D01*
X487772Y968245D01*
X487833Y968152D01*
X487890Y968058D01*
X487943Y967961D01*
X487994Y967862D01*
X488041Y967761D01*
X488084Y967659D01*
X488124Y967556D01*
X488160Y967451D01*
X488192Y967345D01*
X488221Y967238D01*
X488246Y967130D01*
X488267Y967021D01*
X488284Y966912D01*
X488298Y966802D01*
X488307Y966691D01*
X488313Y966581D01*
X488315Y966470D01*
X488315Y963295D01*
X476885Y963295D01*
X476885Y966470D01*
X476887Y966570D01*
X476893Y966669D01*
X476903Y966769D01*
X476916Y966867D01*
X476934Y966966D01*
X476955Y967063D01*
X476980Y967159D01*
X477009Y967255D01*
X477042Y967349D01*
X477078Y967442D01*
X477118Y967533D01*
X477162Y967623D01*
X477209Y967711D01*
X477259Y967797D01*
X477313Y967881D01*
X477370Y967963D01*
X477430Y968042D01*
X477494Y968120D01*
X477560Y968194D01*
X477629Y968266D01*
X477701Y968335D01*
X477775Y968401D01*
X477853Y968465D01*
X477932Y968525D01*
X478014Y968582D01*
X478098Y968636D01*
X478184Y968686D01*
X478272Y968733D01*
X478362Y968777D01*
X478453Y968817D01*
X478546Y968853D01*
X478640Y968886D01*
X478736Y968915D01*
X478832Y968940D01*
X478929Y968961D01*
X479028Y968979D01*
X479126Y968992D01*
X479226Y969002D01*
X479325Y969008D01*
X479425Y969010D01*
X479525Y969008D01*
X479624Y969002D01*
X479724Y968992D01*
X479822Y968979D01*
X479921Y968961D01*
X480018Y968940D01*
X480114Y968915D01*
X480210Y968886D01*
X480304Y968853D01*
X480397Y968817D01*
X480488Y968777D01*
X480578Y968733D01*
X480666Y968686D01*
X480752Y968636D01*
X480836Y968582D01*
X480918Y968525D01*
X480997Y968465D01*
X481075Y968401D01*
X481149Y968335D01*
X481221Y968266D01*
X481290Y968194D01*
X481356Y968120D01*
X481420Y968042D01*
X481480Y967963D01*
X481537Y967881D01*
X481591Y967797D01*
X481641Y967711D01*
X481688Y967623D01*
X481732Y967533D01*
X481772Y967442D01*
X481808Y967349D01*
X481841Y967255D01*
X481870Y967159D01*
X481895Y967063D01*
X481916Y966966D01*
X481934Y966867D01*
X481947Y966769D01*
X481957Y966669D01*
X481963Y966570D01*
X481965Y966470D01*
M02*
